<svg width="42" height="42" viewBox="0 0 42 42" fill="none" xmlns="http://www.w3.org/2000/svg">
<circle cx="21" cy="21" r="20" stroke="white" stroke-width="2"/>
<path d="M20.6731 27.224C22.9291 27.224 24.8331 25.96 24.8331 23.784C24.8331 22.232 23.8091 21.24 22.4811 20.872V20.792C23.7291 20.296 24.4491 19.368 24.4491 18.088C24.4491 16.072 22.8971 14.936 20.6091 14.936C19.2171 14.936 18.0811 15.496 17.0571 16.392L18.2571 17.832C18.9611 17.176 19.6491 16.792 20.4971 16.792C21.5051 16.792 22.0811 17.336 22.0811 18.264C22.0811 19.32 21.3771 20.072 19.2011 20.072V21.752C21.7771 21.752 22.4651 22.488 22.4651 23.64C22.4651 24.712 21.6491 25.304 20.4491 25.304C19.3771 25.304 18.5131 24.776 17.8091 24.088L16.7051 25.576C17.5371 26.52 18.8011 27.224 20.6731 27.224Z" fill="white"/>
</svg>
