<svg width="156" height="65" viewBox="0 0 156 65" fill="none" xmlns="http://www.w3.org/2000/svg">
<rect width="156" height="65" rx="32.5" fill="#C3C0EE"/>
<path d="M68.648 28.156C70.484 28.156 71.636 27.052 71.636 25.66C71.636 24.352 70.844 23.752 69.824 23.308L68.564 22.768C67.88 22.48 67.112 22.156 67.112 21.304C67.112 20.512 67.76 20.008 68.756 20.008C69.572 20.008 70.22 20.332 70.76 20.836L71.348 20.128C70.724 19.48 69.8 19.036 68.756 19.036C67.16 19.036 65.984 20.02 65.984 21.376C65.984 22.66 66.956 23.284 67.772 23.632L69.044 24.184C69.872 24.556 70.508 24.844 70.508 25.744C70.508 26.608 69.812 27.184 68.66 27.184C67.748 27.184 66.86 26.752 66.224 26.092L65.564 26.848C66.332 27.652 67.4 28.156 68.648 28.156ZM74.9266 28H76.0426V20.14H78.7066V19.204H72.2626V20.14H74.9266V28ZM80.2742 28H85.4822V27.052H81.3902V23.848H84.7262V22.9H81.3902V20.14H85.3502V19.204H80.2742V28ZM87.3289 28H88.4449V24.508H89.8969C91.8169 24.508 93.1369 23.644 93.1369 21.784C93.1369 19.864 91.8169 19.204 89.8369 19.204H87.3289V28ZM88.4449 23.608V20.104H89.7049C91.2529 20.104 92.0329 20.512 92.0329 21.784C92.0329 23.044 91.3009 23.608 89.7529 23.608H88.4449ZM99.5265 28.156C101.015 28.156 102.407 27.064 102.407 25.132C102.407 23.2 101.219 22.336 99.7545 22.336C99.2265 22.336 98.8305 22.468 98.4465 22.684L98.6625 20.14H101.987V19.204H97.7025L97.4265 23.32L98.0145 23.68C98.5185 23.344 98.8905 23.164 99.4785 23.164C100.583 23.164 101.303 23.908 101.303 25.168C101.303 26.452 100.463 27.244 99.4305 27.244C98.4105 27.244 97.7745 26.776 97.2705 26.272L96.7305 26.992C97.3185 27.58 98.1585 28.156 99.5265 28.156Z" fill="black"/>
<path d="M69.043 41.919H67.509V39.241H69.043V41.919ZM69.043 37.902H67.509V35.198H65.897V43.284H70.616V35.198H69.043V37.902ZM74.204 34.132V38.708H73.203V34.327H71.604V45.585H73.203V40.086H74.204V46.105H75.829V34.132H74.204ZM84.018 37.031V38.422H85.812V41.269H87.528V34.145H85.812V37.031H84.018ZM84.733 39.605C82.913 39.007 82.081 37.603 82.029 36.238H84.356V34.86H77.921V36.238H80.274C80.222 37.733 79.351 39.254 77.453 39.917L78.324 41.269C79.715 40.801 80.664 39.826 81.184 38.617C81.704 39.67 82.601 40.515 83.901 40.944L84.733 39.605ZM83.485 44.831C81.912 44.831 81.093 44.506 81.093 43.83C81.093 43.154 81.912 42.829 83.485 42.829C85.045 42.829 85.864 43.154 85.864 43.83C85.864 44.506 85.045 44.831 83.485 44.831ZM83.485 41.529C80.937 41.529 79.377 42.374 79.377 43.83C79.377 45.286 80.937 46.131 83.485 46.131C86.02 46.131 87.58 45.286 87.58 43.83C87.58 42.374 86.02 41.529 83.485 41.529ZM94.4503 36.914H97.1933V35.523H92.7603V43.427H93.5923C95.1263 43.427 96.4003 43.375 97.8563 43.102L97.7263 41.711C96.5823 41.919 95.5683 41.984 94.4503 42.01V36.914ZM101.067 34.132V38.747H99.9883V34.366H98.3893V45.559H99.9883V40.125H101.067V46.118H102.692V34.132H101.067ZM105.044 35.38V36.745H109.035C108.788 39.397 107.462 41.269 104.407 42.738L105.304 44.09C109.555 42.036 110.79 39.046 110.79 35.38H105.044ZM112.623 34.132V46.105H114.352V34.132H112.623ZM117.38 39.111C119.642 38.916 121.111 38.071 121.748 36.94C122.385 38.071 123.854 38.916 126.103 39.111L126.701 37.785C124.465 37.59 123.295 36.81 122.996 36.004H126.181V34.639H117.328V36.004H120.5C120.201 36.81 119.031 37.59 116.808 37.785L117.38 39.111ZM124.14 43.96C124.14 44.558 123.321 44.818 121.722 44.818C120.123 44.818 119.304 44.558 119.304 43.96C119.304 43.349 120.123 43.089 121.722 43.089C123.321 43.089 124.14 43.349 124.14 43.96ZM127.156 40.944V39.579H116.34V40.944H120.89V41.815C118.81 41.984 117.575 42.725 117.575 43.96C117.575 45.338 119.135 46.131 121.722 46.131C124.309 46.131 125.882 45.338 125.882 43.96C125.882 42.738 124.66 41.997 122.606 41.828V40.944H127.156Z" fill="black"/>
<circle cx="32.5" cy="32.5" r="22.5" fill="white"/>
<path d="M45.5646 31.0294C44.5675 28.8232 43.0349 26.9013 41.106 25.4383C39.0967 23.9055 36.6738 23.0108 34.1506 22.8701C32.8481 22.7964 31.5425 22.9442 30.2894 23.307C29.0408 23.6846 27.8607 24.2597 26.7939 25.0102C24.776 26.4222 23.0801 28.2457 21.8181 30.3606C20.5774 32.4635 19.7765 34.7963 19.4639 37.2178C19.3332 37.8518 19.3298 38.5053 19.4538 39.1406C19.5778 39.7759 19.8267 40.3802 20.1862 40.9185C20.9317 41.7961 21.9323 42.4195 23.0486 42.7019C25.5115 43.3787 28.1275 43.2379 30.5034 42.3007C31.0831 42.0756 31.6437 41.8042 32.1799 41.4892C32.2242 41.4638 32.2634 41.4306 32.2958 41.3911C33.5263 41.7032 34.7569 42.0332 36.0053 42.2829C37.3605 42.5975 38.7563 42.6997 40.1429 42.586C41.3962 42.4845 42.6041 42.0707 43.6563 41.3822C44.6432 40.6926 45.4183 39.7415 45.8945 38.6356C46.3704 37.4143 46.5869 36.1074 46.5301 34.7978C46.4732 33.4883 46.1444 32.2049 45.5646 31.0294Z" fill="#8C88EA"/>
<path d="M41.0801 37.0305C42.2818 37.0305 43.2559 36.1043 43.2559 34.9617C43.2559 33.8192 42.2818 32.8929 41.0801 32.8929C39.8784 32.8929 38.9043 33.8192 38.9043 34.9617C38.9043 36.1043 39.8784 37.0305 41.0801 37.0305Z" fill="#FFED92"/>
<path d="M24.707 37.0305C25.9087 37.0305 26.8828 36.1043 26.8828 34.9617C26.8828 33.8192 25.9087 32.8929 24.707 32.8929C23.5054 32.8929 22.5312 33.8192 22.5312 34.9617C22.5312 36.1043 23.5054 37.0305 24.707 37.0305Z" fill="#FFED92"/>
<path d="M32.8304 42.2204C37.3859 42.2204 41.0788 38.8509 41.0788 34.6943C41.0788 30.5378 37.3859 27.1682 32.8304 27.1682C28.275 27.1682 24.582 30.5378 24.582 34.6943C24.582 38.8509 28.275 42.2204 32.8304 42.2204Z" fill="#FFED92"/>
<path d="M30.8076 37.4587C31.2715 37.8723 31.8713 38.1009 32.4929 38.1009C33.1145 38.1009 33.7143 37.8723 34.1783 37.4587C34.4279 37.2357 34.0623 36.879 33.8216 37.1019C33.4487 37.4204 32.9744 37.5954 32.484 37.5954C31.9936 37.5954 31.5193 37.4204 31.1464 37.1019C30.8967 36.8879 30.5311 37.2536 30.7897 37.4587H30.8076Z" fill="#43427C"/>
<path d="M29.3262 34.1235V35.0152C29.3285 35.1059 29.3662 35.1921 29.4311 35.2554C29.4961 35.3187 29.5832 35.3541 29.674 35.3541C29.7638 35.3541 29.85 35.3184 29.9135 35.2548C29.9771 35.1913 30.0128 35.1051 30.0128 35.0152V34.1235C30.0128 34.0337 29.9771 33.9475 29.9135 33.8839C29.85 33.8204 29.7638 33.7847 29.674 33.7847C29.5832 33.7846 29.4961 33.8201 29.4311 33.8834C29.3662 33.9467 29.3285 34.0328 29.3262 34.1235Z" fill="#43427C"/>
<path d="M34.5527 34.1235V35.0152C34.5527 35.1051 34.5885 35.1913 34.652 35.2548C34.7156 35.3184 34.8017 35.3541 34.8916 35.3541C34.9815 35.3541 35.0677 35.3184 35.1312 35.2548C35.1948 35.1913 35.2304 35.1051 35.2304 35.0152V34.1235C35.2304 34.0337 35.1948 33.9475 35.1312 33.8839C35.0677 33.8204 34.9815 33.7847 34.8916 33.7847C34.8017 33.7847 34.7156 33.8204 34.652 33.8839C34.5885 33.9475 34.5527 34.0337 34.5527 34.1235Z" fill="#43427C"/>
<path d="M42.131 29.1121C41.5486 27.9131 40.5947 26.9342 39.4112 26.321C37.1004 24.9347 34.3765 24.4031 31.714 24.8186C29.0515 25.2341 26.6191 26.5705 24.8405 28.5949C24.4142 29.0736 24.0322 29.5899 23.6991 30.1376C23.3508 30.6647 23.1819 31.2902 23.2176 31.921C23.2588 32.2184 23.3858 32.4974 23.5832 32.7236C23.6194 32.7668 23.6701 32.7953 23.7259 32.8038C24.1009 33.0945 24.533 33.3027 24.9939 33.4149C25.4549 33.5271 25.9344 33.5406 26.401 33.4548C27.4347 33.2616 28.3753 32.7316 29.0762 31.9477C29.4229 31.5786 29.739 31.182 30.0214 30.7617C32.0952 32.5406 34.6952 33.5899 37.4227 33.749C38.1204 33.8196 38.8252 33.7487 39.4948 33.5403C40.1645 33.3319 40.7851 32.9904 41.3195 32.5363C41.7845 32.114 42.1109 31.561 42.2557 30.9498C42.4005 30.3387 42.357 29.6981 42.131 29.1121Z" fill="#8C88EA"/>
</svg>
