<svg width="29" height="28" viewBox="0 0 29 28" fill="none" xmlns="http://www.w3.org/2000/svg">
<path d="M16.76 3.01001H18.3C24.99 3.01001 28.77 8.57995 28.77 12.45V14.0299C28.77 21.3299 22.38 27.32 14.56 27.33C10.41 27.33 7.01001 22.88 7.00001 14.72C6.99001 7.34997 12.61 3.01001 16.76 3.01001Z" fill="#C4C0F2"/>
<path d="M20.5495 23.51H15.4796C15.2939 23.51 15.1159 23.4362 14.9846 23.3049C14.8533 23.1737 14.7796 22.9956 14.7796 22.8099V17.64C14.7845 17.3763 14.7356 17.1144 14.6358 16.8702C14.5361 16.6261 14.3877 16.4048 14.1996 16.22C14.0193 16.0459 13.8063 15.9093 13.5728 15.8184C13.3393 15.7274 13.0901 15.6837 12.8396 15.6899C12.59 15.6951 12.344 15.7494 12.1155 15.8497C11.8869 15.95 11.6804 16.0945 11.5077 16.2747C11.3349 16.4548 11.1994 16.6672 11.1087 16.8998C11.0181 17.1323 10.9743 17.3805 10.9796 17.63V22.8099C10.9796 22.9014 10.9614 22.9919 10.9261 23.0763C10.8908 23.1607 10.8391 23.2372 10.774 23.3014C10.7088 23.3656 10.6315 23.4162 10.5467 23.4503C10.4618 23.4844 10.371 23.5013 10.2796 23.5H5.19956C5.01563 23.5 4.8391 23.4276 4.70811 23.2985C4.57711 23.1693 4.50218 22.9938 4.49955 22.8099V12.87H1.89957C1.75732 12.8685 1.61891 12.8235 1.50278 12.7413C1.38666 12.6592 1.29831 12.5436 1.24955 12.4099C1.20003 12.2748 1.19463 12.1275 1.23417 11.9891C1.2737 11.8508 1.35615 11.7286 1.46958 11.64L12.4696 2.83997C12.5941 2.74347 12.7471 2.69104 12.9046 2.69104C13.0621 2.69104 13.2151 2.74347 13.3396 2.83997L24.3396 11.64C24.4516 11.7291 24.5332 11.8508 24.5729 11.9884C24.6127 12.126 24.6086 12.2726 24.5614 12.4077C24.5141 12.5429 24.426 12.66 24.3092 12.7428C24.1924 12.8256 24.0528 12.8701 23.9096 12.87H21.1996V22.8099C21.1977 22.9866 21.1301 23.1562 21.0099 23.2856C20.8897 23.4151 20.7255 23.4951 20.5495 23.51V23.51ZM16.1695 22.12H19.8595V12.1799C19.8595 12.0893 19.8774 11.9996 19.9121 11.9159C19.9468 11.8322 19.9976 11.7561 20.0617 11.692C20.1258 11.6279 20.2018 11.5772 20.2855 11.5425C20.3692 11.5078 20.4589 11.49 20.5495 11.49H21.8695L12.8695 4.27991L3.86954 11.49H5.19956C5.29017 11.49 5.37988 11.5078 5.4636 11.5425C5.54731 11.5772 5.6234 11.6279 5.68748 11.692C5.75155 11.7561 5.80234 11.8322 5.83701 11.9159C5.87169 11.9996 5.88956 12.0893 5.88956 12.1799V12.1799V22.12H9.57957V17.64C9.57115 17.2101 9.64814 16.7828 9.80607 16.3828C9.96399 15.9829 10.1997 15.6181 10.4995 15.3099C11.1072 14.6845 11.9377 14.325 12.8095 14.3099C13.2412 14.2996 13.6706 14.3757 14.0724 14.5337C14.4743 14.6917 14.8405 14.9284 15.1496 15.23C15.4602 15.5302 15.7084 15.8887 15.88 16.2852C16.0516 16.6816 16.1432 17.108 16.1496 17.5399L16.1695 22.12Z" fill="#503AA9"/>
</svg>
