<svg width="156" height="65" viewBox="0 0 156 65" fill="none" xmlns="http://www.w3.org/2000/svg">
<rect width="156" height="65" rx="32.5" fill="#C3C0EE"/>
<path d="M68.648 28.156C70.484 28.156 71.636 27.052 71.636 25.66C71.636 24.352 70.844 23.752 69.824 23.308L68.564 22.768C67.88 22.48 67.112 22.156 67.112 21.304C67.112 20.512 67.76 20.008 68.756 20.008C69.572 20.008 70.22 20.332 70.76 20.836L71.348 20.128C70.724 19.48 69.8 19.036 68.756 19.036C67.16 19.036 65.984 20.02 65.984 21.376C65.984 22.66 66.956 23.284 67.772 23.632L69.044 24.184C69.872 24.556 70.508 24.844 70.508 25.744C70.508 26.608 69.812 27.184 68.66 27.184C67.748 27.184 66.86 26.752 66.224 26.092L65.564 26.848C66.332 27.652 67.4 28.156 68.648 28.156ZM74.9266 28H76.0426V20.14H78.7066V19.204H72.2626V20.14H74.9266V28ZM80.2742 28H85.4822V27.052H81.3902V23.848H84.7262V22.9H81.3902V20.14H85.3502V19.204H80.2742V28ZM87.3289 28H88.4449V24.508H89.8969C91.8169 24.508 93.1369 23.644 93.1369 21.784C93.1369 19.864 91.8169 19.204 89.8369 19.204H87.3289V28ZM88.4449 23.608V20.104H89.7049C91.2529 20.104 92.0329 20.512 92.0329 21.784C92.0329 23.044 91.3009 23.608 89.7529 23.608H88.4449ZM99.7425 28.156C101.399 28.156 102.503 27.16 102.503 25.876C102.503 24.676 101.783 24.016 101.015 23.572V23.512C101.543 23.104 102.191 22.312 102.191 21.388C102.191 20.032 101.279 19.072 99.7785 19.072C98.3985 19.072 97.3665 19.96 97.3665 21.304C97.3665 22.228 97.9065 22.888 98.5545 23.332V23.392C97.7505 23.824 96.9345 24.64 96.9345 25.816C96.9345 27.172 98.1225 28.156 99.7425 28.156ZM100.343 23.224C99.3105 22.816 98.3625 22.36 98.3625 21.304C98.3625 20.452 98.9505 19.876 99.7545 19.876C100.703 19.876 101.255 20.584 101.255 21.448C101.255 22.096 100.943 22.696 100.343 23.224ZM99.7665 27.34C98.7105 27.34 97.9305 26.656 97.9305 25.72C97.9305 24.88 98.4225 24.184 99.1305 23.728C100.379 24.232 101.459 24.676 101.459 25.852C101.459 26.728 100.775 27.34 99.7665 27.34Z" fill="black"/>
<path d="M70.057 35.068H68.328V36.797C68.328 39.072 67.418 41.399 65.39 42.335L66.456 43.713C67.795 43.037 68.692 41.789 69.212 40.255C69.706 41.698 70.577 42.868 71.89 43.505L72.904 42.14C70.928 41.256 70.057 39.059 70.057 36.797V35.068ZM73.892 34.132V37.889H71.591V39.267H73.892V46.144H75.608V34.132H73.892ZM85.721 34.132V46.144H87.437V34.132H85.721ZM78.103 35.094V43.349H84.005V35.094H82.302V37.993H79.806V35.094H78.103ZM79.806 39.332H82.302V41.984H79.806V39.332ZM99.942 39.787C97.238 39.319 95.756 37.46 95.756 35.705V34.847H93.923V35.705C93.923 37.421 92.428 39.319 89.737 39.787L90.465 41.217C92.545 40.814 94.066 39.644 94.833 38.123C95.6 39.644 97.134 40.801 99.214 41.217L99.942 39.787ZM89.477 43.271V44.662H100.319V43.271H89.477ZM105.421 39.124C107.683 38.903 109.152 38.071 109.789 36.927C110.413 38.071 111.895 38.903 114.144 39.124L114.742 37.772C112.506 37.59 111.336 36.81 111.037 36.004H114.222V34.639H105.369V36.004H108.541C108.242 36.81 107.072 37.59 104.836 37.772L105.421 39.124ZM109.763 44.844C108.151 44.844 107.345 44.597 107.345 44.012C107.345 43.44 108.151 43.18 109.763 43.18C111.375 43.18 112.181 43.44 112.181 44.012C112.181 44.597 111.375 44.844 109.763 44.844ZM109.763 41.893C107.163 41.893 105.616 42.66 105.616 44.012C105.616 45.364 107.163 46.131 109.763 46.131C112.363 46.131 113.923 45.364 113.923 44.012C113.923 42.66 112.363 41.893 109.763 41.893ZM110.634 39.878V38.435H108.918V39.878H104.381V41.243H115.197V39.878H110.634ZM120.773 41.581H122.866V43.401H120.773V41.581ZM124.556 43.401V41.581H126.233V40.203H119.291V38.89H125.96V34.912H117.575V36.277H124.27V37.551H117.588V41.581H119.083V43.401H116.327V44.805H127.182V43.401H124.556Z" fill="black"/>
<circle cx="32.5" cy="32.5" r="22.5" fill="white"/>
<g clip-path="url(#clip0_166:7449)">
<path d="M46.2994 28.61C45.3392 25.6582 43.3546 23.1474 40.7043 21.5316C38.054 19.9158 34.9131 19.3015 31.8494 19.8C31.7869 19.7851 31.7218 19.7851 31.6594 19.8C30.1639 19.7741 28.6796 20.0614 27.3018 20.6435C25.924 21.2256 24.6833 22.0897 23.6594 23.18C21.5523 25.4226 20.0757 28.1826 19.3793 31.18C18.96 32.7819 18.9189 34.4594 19.2594 36.0799C19.6266 37.5818 20.2821 38.998 21.1893 40.25C22.7847 42.4608 24.9573 44.1905 27.4694 45.25C29.987 46.3361 32.7619 46.6829 35.4694 46.25C38.0505 45.7922 40.4534 44.6253 42.4094 42.88C44.393 41.1568 45.8345 38.8955 46.5594 36.37C47.2375 33.814 47.147 31.1148 46.2994 28.61Z" fill="#E5E3FF"/>
<g clip-path="url(#clip1_166:7449)">
<path d="M27 32.8599L31.3 37.1599L38.47 29.9999" stroke="#4D3DA2" stroke-width="4" stroke-linecap="round" stroke-linejoin="round"/>
</g>
</g>
<defs>
<clipPath id="clip0_166:7449">
<rect width="28" height="28" fill="white" transform="translate(19 19)"/>
</clipPath>
<clipPath id="clip1_166:7449">
<rect width="15.47" height="11.17" fill="white" transform="translate(25 27.9999)"/>
</clipPath>
</defs>
</svg>
