<svg width="27" height="27" viewBox="0 0 27 27" fill="none" xmlns="http://www.w3.org/2000/svg">
<g clip-path="url(#clip0_167:16272)">
<path d="M14.5501 2.33008H16.09C22.78 2.33008 26.5601 7.90002 26.5601 11.77V13.35C26.5601 20.65 20.1701 26.64 12.35 26.65C8.20005 26.65 4.80005 22.2 4.79005 14.04C4.78005 6.67004 10.4001 2.33008 14.5501 2.33008Z" fill="#C4C0F2"/>
<path d="M12.4197 23.8301C10.1631 23.8301 7.95706 23.1609 6.0807 21.9071C4.20433 20.6534 2.7419 18.8714 1.8783 16.7865C1.01471 14.7016 0.788754 12.4074 1.22901 10.1941C1.66927 7.98078 2.75597 5.94765 4.35169 4.35194C5.94741 2.75622 7.98047 1.66951 10.1938 1.22926C12.4071 0.788998 14.7013 1.01495 16.7862 1.87855C18.8711 2.74214 20.6531 4.20458 21.9068 6.08094C23.1606 7.95731 23.8298 10.1634 23.8298 12.4201C23.8271 15.4454 22.6241 18.346 20.4849 20.4852C18.3457 22.6245 15.4451 23.8274 12.4197 23.8301V23.8301ZM12.4197 2.51002C10.4597 2.51002 8.54376 3.09126 6.91407 4.18018C5.28438 5.26911 4.01417 6.81688 3.26411 8.62769C2.51404 10.4385 2.31776 12.431 2.70014 14.3534C3.08252 16.2758 4.02636 18.0416 5.4123 19.4275C6.79824 20.8134 8.56405 21.7573 10.4864 22.1397C12.4087 22.522 14.4014 22.3258 16.2122 21.5757C18.023 20.8256 19.5707 19.5555 20.6596 17.9258C21.7485 16.2961 22.3298 14.3801 22.3298 12.4201C22.3271 9.79257 21.2822 7.27345 19.4243 5.41553C17.5664 3.55762 15.0472 2.51266 12.4197 2.51002V2.51002Z" fill="#503AA9"/>
<path d="M9.99048 17.27C9.83331 17.2714 9.67978 17.2228 9.55213 17.1311C9.42447 17.0394 9.3293 16.9094 9.28046 16.76L6.86048 9.57004C6.82128 9.47326 6.80276 9.36935 6.80603 9.26499C6.80931 9.16062 6.83434 9.0581 6.87952 8.96396C6.9247 8.86983 6.98904 8.78619 7.06842 8.71836C7.1478 8.65052 7.24043 8.6 7.34046 8.57004V8.57004C7.43673 8.5322 7.53974 8.51432 7.64313 8.51767C7.74652 8.52103 7.84816 8.54557 7.94178 8.58957C8.0354 8.63357 8.119 8.69619 8.18756 8.77366C8.25612 8.85112 8.30815 8.94174 8.34046 9.04001V9.04001L10.0405 14.11L11.7405 9.04001C11.7692 8.9433 11.8171 8.85338 11.8813 8.77561C11.9455 8.69784 12.0248 8.6338 12.1143 8.58738C12.2039 8.54095 12.3019 8.51302 12.4025 8.50534C12.503 8.49767 12.6041 8.5104 12.6997 8.5427C12.7953 8.575 12.8833 8.62621 12.9586 8.69333C13.0339 8.76046 13.0949 8.84208 13.1379 8.93332C13.181 9.02456 13.2051 9.12354 13.209 9.22434C13.2129 9.32514 13.1963 9.42572 13.1605 9.51999L10.7505 16.7101C10.7088 16.8773 10.6101 17.0247 10.4714 17.1269C10.3326 17.2292 10.1625 17.2798 9.99048 17.27V17.27Z" fill="#503AA9"/>
<path d="M14.8303 17.2701C14.6735 17.2699 14.5206 17.2207 14.3932 17.1292C14.2659 17.0377 14.1704 16.9086 14.1202 16.76L11.7102 9.5701C11.6708 9.47397 11.6519 9.37073 11.6545 9.26688C11.6572 9.16303 11.6813 9.06085 11.7255 8.96683C11.7697 8.87282 11.8329 8.78903 11.9112 8.72074C11.9895 8.65245 12.0811 8.60114 12.1802 8.5701C12.3685 8.5066 12.5744 8.52043 12.7525 8.60856C12.9306 8.69668 13.0665 8.85186 13.1302 9.04007V9.04007L14.8303 14.11L16.5302 9.04007C16.5939 8.85045 16.7303 8.69385 16.9094 8.60477C17.0885 8.51569 17.2956 8.50145 17.4852 8.5651C17.6749 8.62875 17.8314 8.76515 17.9205 8.94425C18.0096 9.12335 18.0239 9.33043 17.9602 9.52006L15.5402 16.7101C15.5004 16.8688 15.4092 17.0098 15.2807 17.1111C15.1522 17.2124 14.9939 17.2683 14.8303 17.2701Z" fill="#503AA9"/>
<path d="M18.8203 12.15H5.99023C5.79132 12.15 5.60055 12.0711 5.4599 11.9304C5.31925 11.7898 5.24023 11.5989 5.24023 11.4C5.24023 11.2011 5.31925 11.0104 5.4599 10.8698C5.60055 10.7291 5.79132 10.65 5.99023 10.65H18.8002C18.9991 10.65 19.1899 10.7291 19.3306 10.8698C19.4712 11.0104 19.5502 11.2011 19.5502 11.4C19.5502 11.5989 19.4712 11.7898 19.3306 11.9304C19.1899 12.0711 18.9991 12.15 18.8002 12.15H18.8203Z" fill="#503AA9"/>
</g>
<defs>
<clipPath id="clip0_167:16272">
<rect width="26.56" height="26.65" fill="white"/>
</clipPath>
</defs>
</svg>
