<svg width="27" height="27" viewBox="0 0 27 27" fill="none" xmlns="http://www.w3.org/2000/svg">
<g clip-path="url(#clip0_160:16549)">
<path d="M14.0501 2.32007H15.59C22.28 2.32007 26.0601 7.90002 26.0601 11.77V13.35C26.0601 20.65 19.6701 26.64 11.85 26.65C7.70005 26.65 4.30005 22.19 4.29005 14.04C4.28005 6.67004 9.90006 2.33007 14.0501 2.32007Z" fill="#C4C0F2"/>
<path d="M4.59961 14.17C5.56611 14.17 6.34961 13.3865 6.34961 12.42C6.34961 11.4535 5.56611 10.67 4.59961 10.67C3.63311 10.67 2.84961 11.4535 2.84961 12.42C2.84961 13.3865 3.63311 14.17 4.59961 14.17Z" fill="#503AA9"/>
<path d="M12.4199 14.17C13.3864 14.17 14.1699 13.3865 14.1699 12.42C14.1699 11.4535 13.3864 10.67 12.4199 10.67C11.4534 10.67 10.6699 11.4535 10.6699 12.42C10.6699 13.3865 11.4534 14.17 12.4199 14.17Z" fill="#503AA9"/>
<path d="M20.2295 14.17C21.196 14.17 21.9795 13.3865 21.9795 12.42C21.9795 11.4535 21.196 10.67 20.2295 10.67C19.263 10.67 18.4795 11.4535 18.4795 12.42C18.4795 13.3865 19.263 14.17 20.2295 14.17Z" fill="#503AA9"/>
</g>
<defs>
<clipPath id="clip0_160:16549">
<rect width="26.06" height="26.65" fill="white"/>
</clipPath>
</defs>
</svg>
