<svg width="156" height="65" viewBox="0 0 156 65" fill="none" xmlns="http://www.w3.org/2000/svg">
<rect width="156" height="65" rx="32.5" fill="#C3C0EE"/>
<path d="M68.648 26.3513C70.484 26.3513 71.636 25.2473 71.636 23.8553C71.636 22.5473 70.844 21.9473 69.824 21.5033L68.564 20.9633C67.88 20.6753 67.112 20.3513 67.112 19.4993C67.112 18.7073 67.76 18.2033 68.756 18.2033C69.572 18.2033 70.22 18.5273 70.76 19.0313L71.348 18.3233C70.724 17.6753 69.8 17.2313 68.756 17.2313C67.16 17.2313 65.984 18.2153 65.984 19.5713C65.984 20.8553 66.956 21.4793 67.772 21.8273L69.044 22.3793C69.872 22.7513 70.508 23.0393 70.508 23.9393C70.508 24.8033 69.812 25.3793 68.66 25.3793C67.748 25.3793 66.86 24.9473 66.236 24.2873L65.564 25.0433C66.332 25.8473 67.4 26.3513 68.648 26.3513ZM74.9266 26.1953H76.0426V18.3353H78.7066V17.3873H72.2626V18.3353H74.9266V26.1953ZM80.2742 26.1953H85.4822V25.2473H81.3902V22.0433H84.7262V21.0953H81.3902V18.3353H85.3502V17.3873H80.2742V26.1953ZM87.3289 26.1953H88.4449V22.7033H89.8969C91.8289 22.7033 93.1369 21.8393 93.1369 19.9793C93.1369 18.0593 91.8169 17.3873 89.8489 17.3873H87.3289V26.1953ZM88.4449 21.8033V18.2993H89.7049C91.2529 18.2993 92.0329 18.7073 92.0329 19.9793C92.0329 21.2393 91.3009 21.8033 89.7529 21.8033H88.4449ZM97.7745 22.9553L99.7785 20.0153C100.031 19.5953 100.271 19.2233 100.487 18.8153H100.535C100.511 19.2713 100.475 20.0033 100.475 20.4473V22.9553H97.7745ZM100.475 26.1953H101.507V23.8313H102.671V22.9553H101.507V17.6393H100.295L96.6345 23.1113V23.8313H100.475V26.1953Z" fill="black"/>
<path d="M72.722 37.8503C70.785 37.2263 69.966 35.7833 69.966 34.3533V34.3403H72.306V32.9753H65.871V34.3403H68.211V34.3533C68.211 35.8613 67.366 37.4473 65.39 38.0973L66.261 39.4493C67.652 38.9813 68.588 38.0323 69.121 36.8623C69.641 37.9023 70.525 38.7343 71.799 39.1633L72.722 37.8503ZM68.978 40.0213H67.262V43.8563H75.413V42.4913H68.978V40.0213ZM74.984 35.5753V32.0913H73.268V40.8663H74.984V36.9793H76.57V35.5753H74.984ZM80.482 40.8923H85.357V42.5823H80.482V40.8923ZM78.792 43.9213H87.034V39.5533H78.792V43.9213ZM86.813 36.9403C87.086 35.5623 87.086 34.5483 87.086 33.5863V32.6243H78.857V33.9893H85.396C85.396 34.8213 85.357 35.7443 85.11 36.9403H77.518V38.3053H88.36V36.9403H86.813ZM100.638 32.0913V38.5263H102.367V32.0913H100.638ZM94.4113 39.0463V43.9213H102.367V39.0463H100.664V40.1643H96.1143V39.0463H94.4113ZM96.1143 41.4773H100.664V42.5563H96.1143V41.4773ZM95.8543 32.5853C93.9953 32.5853 92.5913 33.7683 92.5913 35.4063C92.5913 37.0573 93.9953 38.2403 95.8543 38.2403C97.7133 38.2403 99.1043 37.0573 99.1043 35.4063C99.1043 33.7683 97.7133 32.5853 95.8543 32.5853ZM95.8543 34.0023C96.7643 34.0023 97.4273 34.5353 97.4273 35.4063C97.4273 36.3033 96.7643 36.8233 95.8543 36.8233C94.9443 36.8233 94.2683 36.3033 94.2683 35.4063C94.2683 34.5353 94.9443 34.0023 95.8543 34.0023ZM107.345 40.8923H112.22V42.5823H107.345V40.8923ZM105.655 43.9213H113.897V39.5533H105.655V43.9213ZM113.676 36.9403C113.949 35.5623 113.949 34.5483 113.949 33.5863V32.6243H105.72V33.9893H112.259C112.259 34.8213 112.22 35.7443 111.973 36.9403H104.381V38.3053H115.223V36.9403H113.676Z" fill="black"/>
<circle cx="32.5" cy="32.5" r="22.5" fill="white"/>
<g clip-path="url(#clip0_159_6924)">
<path d="M46.3093 27.3751C45.3535 24.288 43.3681 21.6615 40.7141 19.9731C38.0601 18.2847 34.9137 17.6467 31.8471 18.175C31.7857 18.1607 31.7219 18.1607 31.6604 18.175C30.1605 18.1472 28.6716 18.4466 27.2889 19.0541C25.9063 19.6616 24.6604 20.5639 23.6311 21.703C21.5212 24.0533 20.0458 26.9453 19.355 30.0845C18.9322 31.7567 18.8907 33.5091 19.2336 35.2011C19.6085 36.7466 20.2647 38.2024 21.1662 39.4893C22.756 41.8099 24.9311 43.6249 27.4497 44.7326C29.9655 45.8748 32.7414 46.2433 35.451 45.7949C38.0336 45.3153 40.4382 44.0974 42.3973 42.2766C44.4111 40.4886 45.8617 38.1082 46.5596 35.4464C47.2574 32.7846 47.1702 29.9649 46.3093 27.3556V27.3751Z" fill="#E5E3FF"/>
<path d="M33.1906 43.758C31.1694 43.7415 29.1804 43.2283 27.3848 42.2597C25.5891 41.2912 24.0373 39.8946 22.8552 38.1833C22.0632 37.0426 21.4924 35.7515 21.1746 34.3824C20.8716 32.8938 20.9067 31.3517 21.2773 29.8798C21.8674 27.2112 23.1237 24.7532 24.9185 22.7555C25.8227 21.7515 26.9194 20.9574 28.1372 20.4251C29.3549 19.8928 30.6664 19.6342 31.9862 19.6661C32.0421 19.6614 32.0983 19.6614 32.1542 19.6661C34.7846 19.2395 37.4742 19.8112 39.7353 21.2774C41.9964 22.7436 43.6792 25.0073 44.4784 27.6577C45.1987 29.9228 45.2701 32.3582 44.6838 34.665C44.0447 36.93 42.8012 38.9582 41.0986 40.5126C38.9345 42.5654 36.1147 43.7018 33.1906 43.6995V43.758ZM31.6034 21.3424C29.4785 21.4046 27.464 22.3439 26.0015 23.9543C24.3958 25.7403 23.2744 27.9401 22.7524 30.3281C22.4463 31.5482 22.4143 32.8257 22.6591 34.0608C22.9372 35.2188 23.4252 36.3106 24.0969 37.2769C25.2842 39.0268 26.9176 40.3942 28.8118 41.2241C30.7019 42.084 32.7883 42.3612 34.8245 42.0232C36.7584 41.6612 38.5584 40.747 40.0249 39.3821C41.5304 38.0487 42.6156 36.2722 43.1387 34.2849C43.6617 32.2975 43.5982 30.1916 42.9565 28.2425C42.253 25.9386 40.7743 23.9785 38.7938 22.7244C36.8132 21.4704 34.4646 21.0071 32.1823 21.4204H31.9302L31.7808 21.3424H31.6034Z" fill="#8C88EA"/>
<path d="M26.9267 29.6756C27.5067 32.3817 28.3547 35.0175 29.4569 37.5405C29.5496 37.7078 29.6879 37.8425 29.8542 37.9275C30.0204 38.0126 30.2071 38.0441 30.3906 38.0181C30.5733 37.9887 30.7445 37.9065 30.8848 37.7807C31.025 37.655 31.1287 37.4908 31.1842 37.3066L33.8824 30.4845H32.0151C32.6958 32.6031 33.581 34.644 34.6573 36.5757C34.9934 37.1604 35.3856 37.7939 36.1231 37.7744C36.34 37.7635 36.5506 37.6952 36.7352 37.5759C36.9198 37.4565 37.0722 37.29 37.1782 37.0922C37.3053 36.8075 37.4054 36.5105 37.4769 36.2053L38.4853 32.843L39.6336 29.0129C39.6667 28.8849 39.6754 28.7513 39.659 28.6198C39.6427 28.4884 39.6017 28.3616 39.5384 28.2466C39.4751 28.1317 39.3908 28.0309 39.2902 27.95C39.1896 27.8691 39.0747 27.8097 38.9521 27.7751C38.8295 27.7405 38.7015 27.7316 38.5756 27.7486C38.4497 27.7657 38.3282 27.8084 38.2181 27.8745C38.108 27.9406 38.0114 28.0286 37.9339 28.1336C37.8564 28.2386 37.7995 28.3586 37.7664 28.4866L35.9737 34.49L35.5163 36.0007C35.5121 36.059 35.5121 36.1177 35.5163 36.1761C35.5163 36.2735 35.5163 36.0981 35.5163 36.0884L35.6003 35.9909L36.4312 35.874C36.5806 35.9617 36.5246 35.9617 36.4312 35.874C36.3379 35.7862 36.5339 36.0494 36.4312 35.874L36.3379 35.718L36.1605 35.4062C35.6937 34.5615 35.2642 33.6942 34.872 32.804C34.76 32.5604 34.6573 32.307 34.5453 32.0536L34.4799 31.8879C34.4799 31.9854 34.4799 31.9464 34.4799 31.8879C34.4799 31.8294 34.3772 31.6053 34.3212 31.4591C34.1251 30.9523 33.9477 30.4845 33.7797 29.9192C33.7268 29.7048 33.6055 29.5156 33.4358 29.3827C33.266 29.2499 33.0581 29.1813 32.846 29.1883C32.6377 29.1968 32.4369 29.2713 32.2701 29.4019C32.1033 29.5324 31.9786 29.7129 31.9124 29.9192L29.2235 36.7414L30.9601 36.5075L30.764 36.0299L30.6706 35.8155C30.6706 35.8155 30.5586 35.5231 30.6706 35.7083L30.3345 34.8409C30.1011 34.2171 29.8864 33.5837 29.681 32.9502C29.2795 31.6832 28.9434 30.4065 28.6633 29.0518C28.6321 28.9252 28.5767 28.8065 28.5006 28.7027C28.4245 28.5989 28.3292 28.5121 28.2203 28.4476C28.1114 28.383 27.9912 28.342 27.8668 28.3269C27.7424 28.3119 27.6164 28.3231 27.4963 28.3599C27.2556 28.437 27.0522 28.6068 26.9273 28.8349C26.8024 29.0631 26.7655 29.3323 26.824 29.5879L26.9267 29.6756Z" fill="#7167CE"/>
<path d="M25.3202 33.7297C29.3162 33.4763 33.2967 33.028 37.2616 32.3848C38.3819 32.1996 39.493 32.0046 40.604 31.7902C40.7263 31.7577 40.841 31.6997 40.9412 31.6196C41.0415 31.5395 41.1251 31.439 41.187 31.3242C41.249 31.2094 41.288 31.0828 41.3017 30.9518C41.3155 30.8208 41.3036 30.6883 41.2669 30.5623C41.2358 30.4346 41.1801 30.3148 41.1034 30.2102C41.0267 30.1056 40.9304 30.0183 40.8205 29.9536C40.7105 29.889 40.5891 29.8482 40.4637 29.8339C40.3382 29.8196 40.2113 29.832 40.0905 29.8703C38.1672 30.2406 36.2252 30.5623 34.2832 30.8449H34.0965L33.723 30.9034L32.9761 31.0008L31.529 31.1762L28.6253 31.4784C27.5143 31.5759 26.4126 31.6635 25.2922 31.7317C25.1656 31.7316 25.0402 31.7583 24.9238 31.8103C24.8074 31.8623 24.7023 31.9385 24.615 32.0342C24.5276 32.1299 24.4599 32.2432 24.4158 32.3672C24.3717 32.4911 24.3523 32.6231 24.3586 32.7551C24.3586 33.0136 24.457 33.2615 24.632 33.4442C24.8071 33.627 25.0446 33.7297 25.2922 33.7297H25.3202Z" fill="#7167CE"/>
</g>
<defs>
<clipPath id="clip0_159_6924">
<rect width="28" height="28" fill="white" transform="translate(19 18)"/>
</clipPath>
</defs>
</svg>
