<svg width="27" height="27" viewBox="0 0 27 27" fill="none" xmlns="http://www.w3.org/2000/svg">
<g clip-path="url(#clip0_167:16387)">
<path d="M14.8001 2.33008H16.34C23.03 2.33008 26.8101 7.90002 26.8101 11.77V13.35C26.8101 20.65 20.4201 26.64 12.6 26.65C8.45005 26.65 5.05005 22.2 5.04005 14.04C5.03005 6.67004 10.6501 2.33008 14.8001 2.33008Z" fill="#C4C0F2"/>
<path d="M23.2401 5.78007H18.78C19.1003 5.21662 19.2295 4.56455 19.1483 3.92155C19.067 3.27856 18.7797 2.67927 18.3294 2.21318C17.8791 1.74709 17.2899 1.43928 16.6501 1.33598C16.0103 1.23268 15.3542 1.33937 14.78 1.64006C13.7889 2.53343 12.9895 3.61873 12.4301 4.83012C11.8696 3.61118 11.0626 2.52153 10.0601 1.63005C9.48702 1.32249 8.82816 1.21362 8.18665 1.32048C7.54513 1.42734 6.95718 1.74392 6.51477 2.22062C6.07237 2.69732 5.80045 3.3073 5.7417 3.955C5.68295 4.6027 5.84066 5.25157 6.19006 5.80009H1.58008V12.1701H2.89008V23.73H22.0001V12.1701H23.2401V5.78007ZM10.47 22.1701V12.25H14.28V22.1701H10.47ZM14.28 7.28007V10.6601H10.47V7.28007H14.28ZM21.7401 10.6601H15.7401V7.28007H21.7401V10.6601ZM15.5201 2.92009C15.8421 2.71448 16.2319 2.64332 16.6058 2.72185C16.9797 2.80037 17.308 3.02236 17.5201 3.34013C17.7284 3.66265 17.8003 4.05461 17.72 4.4301C17.6843 4.6174 17.6109 4.79553 17.5043 4.95366C17.3978 5.11179 17.2602 5.24656 17.1 5.35002L16.9501 5.4301C15.8484 5.73939 14.7007 5.85107 13.5601 5.76005C14.0385 4.71968 14.6874 3.76661 15.48 2.94011L15.5201 2.92009ZM7.33008 3.54008C7.45173 3.30623 7.63563 3.11054 7.86151 2.97465C8.0874 2.83877 8.34645 2.76796 8.61005 2.77006C8.83999 2.76716 9.067 2.82222 9.27008 2.9301C10.0519 3.75726 10.6937 4.70632 11.17 5.74003C10.0406 5.82229 8.90537 5.71761 7.81006 5.4301C7.50503 5.23244 7.28605 4.92666 7.19702 4.57426C7.10799 4.22186 7.15553 3.84889 7.33008 3.53007V3.54008ZM3.01007 7.28007H9.01007V10.6601H3.01007V7.28007ZM4.32007 12.2801H8.97003V22.2801H4.32007V12.2801ZM20.4301 22.2801H15.78V12.2801H20.4301V22.2801Z" fill="#503AA9"/>
</g>
<defs>
<clipPath id="clip0_167:16387">
<rect width="26.81" height="26.65" fill="white"/>
</clipPath>
</defs>
</svg>
