<svg width="156" height="65" viewBox="0 0 156 65" fill="none" xmlns="http://www.w3.org/2000/svg">
<rect width="156" height="65" rx="32.5" fill="#C3C0EE"/>
<path d="M68.648 28.156C70.484 28.156 71.636 27.052 71.636 25.66C71.636 24.352 70.844 23.752 69.824 23.308L68.564 22.768C67.88 22.48 67.112 22.156 67.112 21.304C67.112 20.512 67.76 20.008 68.756 20.008C69.572 20.008 70.22 20.332 70.76 20.836L71.348 20.128C70.724 19.48 69.8 19.036 68.756 19.036C67.16 19.036 65.984 20.02 65.984 21.376C65.984 22.66 66.956 23.284 67.772 23.632L69.044 24.184C69.872 24.556 70.508 24.844 70.508 25.744C70.508 26.608 69.812 27.184 68.66 27.184C67.748 27.184 66.86 26.752 66.224 26.092L65.564 26.848C66.332 27.652 67.4 28.156 68.648 28.156ZM74.9266 28H76.0426V20.14H78.7066V19.204H72.2626V20.14H74.9266V28ZM80.2742 28H85.4822V27.052H81.3902V23.848H84.7262V22.9H81.3902V20.14H85.3502V19.204H80.2742V28ZM87.3289 28H88.4449V24.508H89.8969C91.8169 24.508 93.1369 23.644 93.1369 21.784C93.1369 19.864 91.8169 19.204 89.8369 19.204H87.3289V28ZM88.4449 23.608V20.104H89.7049C91.2529 20.104 92.0329 20.512 92.0329 21.784C92.0329 23.044 91.3009 23.608 89.7529 23.608H88.4449ZM96.9225 28H102.455V27.052H100.019C99.5745 27.052 99.0345 27.1 98.5785 27.136C100.643 25.18 102.023 23.392 102.023 21.64C102.023 20.068 101.039 19.036 99.4665 19.036C98.3505 19.036 97.5945 19.552 96.8745 20.332L97.5105 20.956C97.9905 20.38 98.6145 19.936 99.3345 19.936C100.427 19.936 100.955 20.668 100.955 21.676C100.955 23.188 99.6825 24.94 96.9225 27.352V28Z" fill="black"/>
<path d="M70.785 40.476C70.824 40.125 70.85 39.735 70.85 39.332C70.85 38.916 70.824 38.526 70.772 38.162H71.825V40.476H70.785ZM68.263 42.075C67.587 42.075 67.197 41.165 67.197 39.332C67.197 37.499 67.587 36.602 68.263 36.602C68.926 36.602 69.316 37.499 69.316 39.332C69.316 41.165 68.926 42.075 68.263 42.075ZM71.825 36.784H70.447C70.005 35.627 69.238 34.99 68.263 34.99C66.664 34.99 65.663 36.628 65.663 39.332C65.663 42.049 66.664 43.687 68.263 43.687C69.251 43.687 70.018 43.024 70.46 41.867H71.825V45.572H73.424V34.34H71.825V36.784ZM74.204 34.132V46.105H75.829V34.132H74.204ZM79.286 37.733C79.286 36.797 79.949 36.251 80.859 36.251C81.756 36.251 82.432 36.797 82.432 37.733C82.432 38.656 81.756 39.215 80.859 39.215C79.949 39.215 79.286 38.656 79.286 37.733ZM84.096 37.733C84.096 36.03 82.692 34.795 80.859 34.795C79.013 34.795 77.609 36.03 77.609 37.733C77.609 39.436 79.013 40.658 80.859 40.658C82.692 40.658 84.096 39.436 84.096 37.733ZM78.961 43.063H85.227V46.131H86.943V41.685H78.961V43.063ZM88.477 37.096V35.705H86.943V34.145H85.227V41.204H86.943V39.696H88.477V38.292H86.943V37.096H88.477ZM99.422 34.158H97.693V42.881H99.422V34.158ZM96.809 39.709C94.859 39.085 94.027 37.551 94.027 35.978V34.808H92.285V35.978C92.285 37.564 91.427 39.241 89.438 39.917L90.309 41.282C91.7 40.801 92.636 39.826 93.182 38.617C93.702 39.735 94.612 40.619 95.938 41.074L96.809 39.709ZM93.169 44.545V42.049H91.453V45.91H99.721V44.545H93.169ZM107.871 37.343V38.721H109.73V41.373H111.446V34.145H109.73V37.343H107.871ZM108.625 39.683C106.714 39.176 105.856 37.967 105.83 36.732H108.196V35.38H105.83V34.106H104.114V35.38H101.774V36.732H104.114C104.088 38.071 103.256 39.423 101.358 39.969L102.164 41.295C103.555 40.892 104.491 40.047 105.024 38.955C105.57 39.904 106.506 40.645 107.845 40.996L108.625 39.683ZM107.403 44.805C105.817 44.805 105.011 44.506 105.011 43.856C105.011 43.206 105.817 42.894 107.403 42.894C108.963 42.894 109.782 43.206 109.782 43.856C109.782 44.506 108.963 44.805 107.403 44.805ZM107.403 41.581C104.855 41.581 103.295 42.413 103.295 43.856C103.295 45.286 104.855 46.118 107.403 46.118C109.938 46.118 111.498 45.286 111.498 43.856C111.498 42.413 109.938 41.581 107.403 41.581Z" fill="black"/>
<circle cx="32.5" cy="32.5" r="22.5" fill="white"/>
<path d="M35.4106 20.1901H25.7906C25.1549 20.1927 24.546 20.4464 24.0965 20.8959C23.647 21.3454 23.3933 21.9543 23.3906 22.59V41.8201C23.3906 42.1352 23.4527 42.4473 23.5733 42.7385C23.6939 43.0296 23.8707 43.2942 24.0936 43.5171C24.3164 43.74 24.581 43.9167 24.8722 44.0374C25.1634 44.158 25.4754 44.22 25.7906 44.22H40.2106C40.5262 44.2214 40.8388 44.1602 41.1306 44.04C41.4224 43.9199 41.6875 43.7432 41.9106 43.5201C42.1338 43.297 42.3105 43.0318 42.4306 42.7401C42.5508 42.4483 42.6119 42.1356 42.6106 41.8201V27.4L35.4106 20.1901Z" fill="#E5E3FF" stroke="#E5E3FF" stroke-width="2" stroke-linecap="round" stroke-linejoin="round"/>
<path d="M35.4102 21.35V27.35H41.4102" fill="#E5E3FF"/>
<path d="M35.4102 21.35V27.35H41.4102" stroke="#8C88EA" stroke-width="2" stroke-linecap="round" stroke-linejoin="round"/>
<path d="M37.8092 33.41H28.1992H37.8092Z" fill="#FFF3B9"/>
<path d="M37.8092 33.41H28.1992" stroke="#4D3DA2" stroke-width="2" stroke-linecap="round" stroke-linejoin="round"/>
<path d="M37.8092 38.22H28.1992H37.8092Z" fill="#FFF3B9"/>
<path d="M37.8092 38.22H28.1992" stroke="#4D3DA2" stroke-width="2" stroke-linecap="round" stroke-linejoin="round"/>
<path d="M30.5992 28.6H28.1992H30.5992Z" fill="#FFF3B9"/>
<path d="M30.5992 28.6H28.1992" stroke="#4D3DA2" stroke-width="2" stroke-linecap="round" stroke-linejoin="round"/>
</svg>
