<svg width="156" height="65" viewBox="0 0 156 65" fill="none" xmlns="http://www.w3.org/2000/svg">
<rect width="156" height="65" rx="32.5" fill="#C3C0EE"/>
<path d="M68.648 28.156C70.484 28.156 71.636 27.052 71.636 25.66C71.636 24.352 70.844 23.752 69.824 23.308L68.564 22.768C67.88 22.48 67.112 22.156 67.112 21.304C67.112 20.512 67.76 20.008 68.756 20.008C69.572 20.008 70.22 20.332 70.76 20.836L71.348 20.128C70.724 19.48 69.8 19.036 68.756 19.036C67.16 19.036 65.984 20.02 65.984 21.376C65.984 22.66 66.956 23.284 67.772 23.632L69.044 24.184C69.872 24.556 70.508 24.844 70.508 25.744C70.508 26.608 69.812 27.184 68.66 27.184C67.748 27.184 66.86 26.752 66.224 26.092L65.564 26.848C66.332 27.652 67.4 28.156 68.648 28.156ZM74.9266 28H76.0426V20.14H78.7066V19.204H72.2626V20.14H74.9266V28ZM80.2742 28H85.4822V27.052H81.3902V23.848H84.7262V22.9H81.3902V20.14H85.3502V19.204H80.2742V28ZM87.3289 28H88.4449V24.508H89.8969C91.8169 24.508 93.1369 23.644 93.1369 21.784C93.1369 19.864 91.8169 19.204 89.8369 19.204H87.3289V28ZM88.4449 23.608V20.104H89.7049C91.2529 20.104 92.0329 20.512 92.0329 21.784C92.0329 23.044 91.3009 23.608 89.7529 23.608H88.4449ZM100.007 27.304C98.9025 27.304 98.2425 26.308 98.1105 24.484C98.6865 23.668 99.3585 23.356 99.9105 23.356C100.979 23.356 101.495 24.112 101.495 25.3C101.495 26.5 100.847 27.304 100.007 27.304ZM102.371 19.936C101.891 19.42 101.231 19.036 100.319 19.036C98.6145 19.036 97.0665 20.356 97.0665 23.8C97.0665 26.704 98.3145 28.156 100.007 28.156C101.375 28.156 102.527 27.004 102.527 25.3C102.527 23.464 101.579 22.54 100.091 22.54C99.3945 22.54 98.6265 22.948 98.0865 23.608C98.1345 20.872 99.1545 19.948 100.355 19.948C100.895 19.948 101.423 20.2 101.771 20.62L102.371 19.936Z" fill="black"/>
<path d="M71.825 43.362V40.866H75.244V39.488H68.549V36.342H75.153V34.964H66.82V40.866H70.109V43.362H65.559V44.766H76.401V43.362H71.825ZM82.913 35.913C84.473 35.913 85.474 36.381 85.474 37.239C85.474 38.11 84.473 38.578 82.913 38.578C81.34 38.578 80.339 38.11 80.339 37.239C80.339 36.381 81.34 35.913 82.913 35.913ZM82.913 39.943C85.461 39.943 87.242 38.89 87.242 37.239C87.242 35.614 85.461 34.548 82.913 34.548C80.352 34.548 78.584 35.614 78.584 37.239C78.584 38.89 80.352 39.943 82.913 39.943ZM88.36 40.84H77.518V42.218H82.042V46.131H83.758V42.218H88.36V40.84ZM90.062 35.224V43.271H95.821V35.224H90.062ZM94.131 36.576V41.919H91.752V36.576H94.131ZM97.68 34.145V46.144H99.396V34.145H97.68ZM102.021 35.224V43.271H107.78V35.224H102.021ZM106.09 36.576V41.919H103.711V36.576H106.09ZM109.639 34.145V46.144H111.355V34.145H109.639ZM115.787 39.787H119.674V35.159H114.019V36.524H117.919V38.435H114.032V43.362H115.111C117.282 43.362 119.037 43.284 120.987 42.946L120.805 41.555C119.115 41.841 117.607 41.932 115.787 41.945V39.787ZM121.637 34.132V46.144H123.353V34.132H121.637ZM128.201 38.097H133.323V39.774H128.201V38.097ZM131.62 43.336V41.139H135.013V34.886H133.323V36.745H128.201V34.886H126.498V41.139H129.904V43.336H125.354V44.727H136.196V43.336H131.62ZM137.976 35.38V36.745H141.967C141.72 39.397 140.394 41.269 137.339 42.738L138.236 44.09C142.487 42.036 143.722 39.046 143.722 35.38H137.976ZM145.555 34.132V46.105H147.284V34.132H145.555Z" fill="black"/>
<circle cx="32.5" cy="32.5" r="22.5" fill="white"/>
<path d="M45.5646 31.0294C44.5675 28.8232 43.0349 26.9013 41.106 25.4383C39.0967 23.9055 36.6738 23.0108 34.1506 22.8701C32.8481 22.7964 31.5425 22.9442 30.2894 23.307C29.0408 23.6846 27.8607 24.2597 26.7939 25.0102C24.776 26.4222 23.0801 28.2457 21.8181 30.3606C20.5774 32.4635 19.7765 34.7963 19.4639 37.2178C19.3332 37.8518 19.3298 38.5053 19.4538 39.1406C19.5778 39.7759 19.8267 40.3802 20.1862 40.9185C20.9317 41.7961 21.9323 42.4195 23.0486 42.7019C25.5115 43.3787 28.1275 43.2379 30.5034 42.3007C31.0831 42.0756 31.6437 41.8042 32.1799 41.4892C32.2242 41.4638 32.2634 41.4306 32.2958 41.3911C33.5263 41.7032 34.7569 42.0332 36.0053 42.2829C37.3605 42.5975 38.7563 42.6997 40.1429 42.586C41.3962 42.4845 42.6041 42.0707 43.6563 41.3822C44.6432 40.6926 45.4183 39.7415 45.8945 38.6356C46.3704 37.4143 46.5869 36.1074 46.5301 34.7978C46.4732 33.4883 46.1444 32.2049 45.5646 31.0294Z" fill="#8C88EA"/>
<path d="M41.0801 37.0305C42.2818 37.0305 43.2559 36.1043 43.2559 34.9617C43.2559 33.8192 42.2818 32.8929 41.0801 32.8929C39.8784 32.8929 38.9043 33.8192 38.9043 34.9617C38.9043 36.1043 39.8784 37.0305 41.0801 37.0305Z" fill="#FFED92"/>
<path d="M24.707 37.0305C25.9087 37.0305 26.8828 36.1043 26.8828 34.9617C26.8828 33.8192 25.9087 32.8929 24.707 32.8929C23.5054 32.8929 22.5312 33.8192 22.5312 34.9617C22.5312 36.1043 23.5054 37.0305 24.707 37.0305Z" fill="#FFED92"/>
<path d="M32.8304 42.2204C37.3859 42.2204 41.0788 38.8509 41.0788 34.6943C41.0788 30.5378 37.3859 27.1682 32.8304 27.1682C28.275 27.1682 24.582 30.5378 24.582 34.6943C24.582 38.8509 28.275 42.2204 32.8304 42.2204Z" fill="#FFED92"/>
<path d="M30.8076 37.4587C31.2715 37.8723 31.8713 38.1009 32.4929 38.1009C33.1145 38.1009 33.7143 37.8723 34.1783 37.4587C34.4279 37.2357 34.0623 36.879 33.8216 37.1019C33.4487 37.4204 32.9744 37.5954 32.484 37.5954C31.9936 37.5954 31.5193 37.4204 31.1464 37.1019C30.8967 36.8879 30.5311 37.2536 30.7897 37.4587H30.8076Z" fill="#43427C"/>
<path d="M29.3262 34.1235V35.0152C29.3285 35.1059 29.3662 35.1921 29.4311 35.2554C29.4961 35.3187 29.5832 35.3541 29.674 35.3541C29.7638 35.3541 29.85 35.3184 29.9135 35.2548C29.9771 35.1913 30.0128 35.1051 30.0128 35.0152V34.1235C30.0128 34.0337 29.9771 33.9475 29.9135 33.8839C29.85 33.8204 29.7638 33.7847 29.674 33.7847C29.5832 33.7846 29.4961 33.8201 29.4311 33.8834C29.3662 33.9467 29.3285 34.0328 29.3262 34.1235Z" fill="#43427C"/>
<path d="M34.5527 34.1235V35.0152C34.5527 35.1051 34.5885 35.1913 34.652 35.2548C34.7156 35.3184 34.8017 35.3541 34.8916 35.3541C34.9815 35.3541 35.0677 35.3184 35.1312 35.2548C35.1948 35.1913 35.2304 35.1051 35.2304 35.0152V34.1235C35.2304 34.0337 35.1948 33.9475 35.1312 33.8839C35.0677 33.8204 34.9815 33.7847 34.8916 33.7847C34.8017 33.7847 34.7156 33.8204 34.652 33.8839C34.5885 33.9475 34.5527 34.0337 34.5527 34.1235Z" fill="#43427C"/>
<path d="M42.131 29.1121C41.5486 27.9131 40.5947 26.9342 39.4112 26.321C37.1004 24.9347 34.3765 24.4031 31.714 24.8186C29.0515 25.2341 26.6191 26.5705 24.8405 28.5949C24.4142 29.0736 24.0322 29.5899 23.6991 30.1376C23.3508 30.6647 23.1819 31.2902 23.2176 31.921C23.2588 32.2184 23.3858 32.4974 23.5832 32.7236C23.6194 32.7668 23.6701 32.7953 23.7259 32.8038C24.1009 33.0945 24.533 33.3027 24.9939 33.4149C25.4549 33.5271 25.9344 33.5406 26.401 33.4548C27.4347 33.2616 28.3753 32.7316 29.0762 31.9477C29.4229 31.5786 29.739 31.182 30.0214 30.7617C32.0952 32.5406 34.6952 33.5899 37.4227 33.749C38.1204 33.8196 38.8252 33.7487 39.4948 33.5403C40.1645 33.3319 40.7851 32.9904 41.3195 32.5363C41.7845 32.114 42.1109 31.561 42.2557 30.9498C42.4005 30.3387 42.357 29.6981 42.131 29.1121Z" fill="#8C88EA"/>
</svg>
