<svg width="23" height="23" viewBox="0 0 23 23" fill="none" xmlns="http://www.w3.org/2000/svg">
<g clip-path="url(#clip0_218_6190)">
<path d="M20.2063 8.8492C20.2063 8.51186 20.0723 8.18833 19.8337 7.9498C19.5952 7.71126 19.2717 7.57724 18.9343 7.57724C18.597 7.57724 18.2734 7.71126 18.0349 7.9498C17.7964 8.18833 17.6623 8.51186 17.6623 8.8492V14.1662C17.6623 14.5036 17.7964 14.8271 18.0349 15.0657C18.2734 15.3042 18.597 15.4382 18.9343 15.4382C19.2717 15.4382 19.5952 15.3042 19.8337 15.0657C20.0723 14.8271 20.2063 14.5036 20.2063 14.1662V8.83775V8.8492ZM5.80788 7.82362V16.0742C5.80635 16.4333 5.94719 16.7785 6.19953 17.034C6.45188 17.2896 6.79519 17.4348 7.15433 17.4378H8.0768V20.2568C8.0768 20.5926 8.2102 20.9147 8.44766 21.1521C8.68513 21.3896 9.0072 21.523 9.34303 21.523C9.67885 21.523 10.0009 21.3896 10.2384 21.1521C10.4759 20.9147 10.6093 20.5926 10.6093 20.2568V17.4378H12.3281V20.2568C12.3164 20.4306 12.3406 20.605 12.3991 20.7691C12.4576 20.9332 12.5492 21.0835 12.6681 21.2108C12.7871 21.3381 12.931 21.4395 13.0908 21.5089C13.2506 21.5783 13.423 21.6141 13.5972 21.6141C13.7714 21.6141 13.9438 21.5783 14.1036 21.5089C14.2635 21.4395 14.4073 21.3381 14.5263 21.2108C14.6453 21.0835 14.7369 20.9332 14.7954 20.7691C14.8539 20.605 14.878 20.4306 14.8663 20.2568V17.4378H15.7945C16.1537 17.4363 16.4976 17.2926 16.751 17.0381C17.0044 16.7836 17.1467 16.4391 17.1467 16.0799V7.81215H5.80788V7.82362ZM14.0986 5.3026C14.0034 5.3026 13.9103 5.27439 13.8312 5.2215C13.752 5.16862 13.6904 5.09345 13.6539 5.00551C13.6175 4.91757 13.608 4.82078 13.6265 4.72742C13.6451 4.63406 13.6909 4.54831 13.7582 4.481C13.8256 4.4137 13.9113 4.36786 14.0047 4.34929C14.098 4.33072 14.1948 4.34024 14.2827 4.37667C14.3707 4.4131 14.4459 4.47479 14.4987 4.55393C14.5516 4.63308 14.5799 4.72613 14.5799 4.82132C14.5799 4.94896 14.5291 5.07138 14.4389 5.16163C14.3486 5.25189 14.2262 5.3026 14.0986 5.3026ZM8.89039 5.3026C8.7952 5.3026 8.70215 5.27439 8.623 5.2215C8.54386 5.16862 8.48217 5.09345 8.44574 5.00551C8.40931 4.91757 8.39979 4.82078 8.41836 4.72742C8.43693 4.63406 8.48276 4.54831 8.55007 4.481C8.61738 4.4137 8.70313 4.36786 8.79649 4.34929C8.88985 4.33072 8.98663 4.34024 9.07458 4.37667C9.16252 4.4131 9.23769 4.47479 9.29057 4.55393C9.34346 4.63308 9.37167 4.72613 9.37167 4.82132C9.37167 4.88527 9.35908 4.94861 9.3346 5.00769C9.31013 5.06678 9.27427 5.12047 9.22904 5.16569C9.18382 5.21091 9.13012 5.24679 9.07103 5.27127C9.01194 5.29574 8.94863 5.30834 8.88467 5.30834L8.89039 5.3026ZM14.2934 2.81597L15.1757 1.19451C15.1977 1.15296 15.2035 1.1047 15.1918 1.05914C15.1802 1.01359 15.152 0.974024 15.1127 0.948147C15.0707 0.927471 15.0223 0.923665 14.9776 0.937516C14.9328 0.951367 14.8951 0.98181 14.8721 1.02262L13.9668 2.65555C13.1878 2.29486 12.3386 2.11094 11.4802 2.11697C10.6243 2.11256 9.77707 2.28825 8.99353 2.63262L8.11118 0.999711C8.10041 0.978887 8.0855 0.960478 8.06736 0.945629C8.04922 0.93078 8.02824 0.919791 8.0057 0.913351C7.98317 0.906912 7.95955 0.905151 7.93631 0.908176C7.91306 0.911201 7.89067 0.918948 7.87053 0.930941C7.85093 0.940683 7.83344 0.954203 7.81908 0.97072C7.80472 0.987238 7.79378 1.00643 7.78686 1.0272C7.77994 1.04796 7.77719 1.06989 7.77876 1.09172C7.78034 1.11355 7.7862 1.13485 7.79604 1.1544L8.6784 2.76441C7.81608 3.18475 7.08678 3.83533 6.57109 4.64425C6.05541 5.45316 5.77343 6.3889 5.75632 7.34806H17.2154C17.1983 6.3889 16.9164 5.45316 16.4007 4.64425C15.885 3.83533 15.1557 3.18475 14.2934 2.76441V2.81597ZM4.03173 7.55433C3.69386 7.55585 3.37033 7.69113 3.13196 7.93058C2.89358 8.17003 2.75976 8.49414 2.75977 8.83201V14.149C2.75977 14.4864 2.89377 14.8099 3.13231 15.0485C3.37085 15.287 3.69438 15.421 4.03173 15.421C4.36907 15.421 4.6926 15.287 4.93114 15.0485C5.16967 14.8099 5.30369 14.4864 5.30369 14.149V8.83201C5.30445 8.66573 5.27244 8.50092 5.2095 8.34701C5.14656 8.19309 5.05392 8.05308 4.93687 7.93497C4.81982 7.81685 4.68065 7.72296 4.52731 7.65863C4.37397 7.5943 4.20947 7.5608 4.04318 7.56005" fill="#B7B7B7"/>
</g>
<defs>
<clipPath id="clip0_218_6190">
<rect width="17.4465" height="20.615" fill="white" transform="translate(2.75977 0.919922)"/>
</clipPath>
</defs>
</svg>
