<svg width="34" height="34" viewBox="0 0 34 34" fill="none" xmlns="http://www.w3.org/2000/svg">
<path d="M10.7513 3.44539C10.4391 2.97229 9.95207 2.64222 9.39695 2.52749C8.84183 2.41277 8.26387 2.52275 7.78967 2.83332L7.68107 2.91228C6.08896 4.15317 4.79832 5.73828 3.90586 7.54885C3.01341 9.35941 2.54227 11.3485 2.52776 13.367H17.04L10.7513 3.44539ZM30.6538 7.9274H27.929C26.9681 7.9274 26.0466 8.30912 25.3671 8.98859C24.6876 9.66805 24.3059 10.5896 24.3059 11.5505V15.1835H2.48828C2.50928 16.5877 2.82406 17.972 3.41236 19.2472C4.00066 20.5224 4.84943 21.6603 5.90407 22.5877C5.08597 22.7999 4.34375 23.2372 3.76158 23.8499C3.17942 24.4626 2.78063 25.2262 2.61048 26.054C2.44033 26.8819 2.50561 27.7409 2.79893 28.5335C3.09225 29.3261 3.60186 30.0207 4.26994 30.5384C4.93802 31.0561 5.73783 31.3761 6.5786 31.4622C7.41937 31.5484 8.26744 31.3971 9.02661 31.0257C9.78577 30.6542 10.4256 30.0774 10.8736 29.3607C11.3215 28.644 11.5596 27.8161 11.5609 26.9709C11.5543 26.4838 11.471 26.0007 11.3141 25.5395C13.8511 26.2307 16.5268 26.2307 19.0638 25.5395C18.9021 25.9995 18.8187 26.4833 18.817 26.9709C18.8153 27.8196 19.0521 28.6516 19.5002 29.3723C19.9483 30.093 20.5898 30.6734 21.3516 31.0473C22.1134 31.4212 22.9649 31.5737 23.8092 31.4874C24.6534 31.4011 25.4564 31.0794 26.1268 30.5591C26.7972 30.0387 27.308 29.3406 27.601 28.5441C27.894 27.7477 27.9575 26.8849 27.7842 26.0542C27.6109 25.2234 27.2078 24.458 26.6207 23.8452C26.0337 23.2323 25.2864 22.7966 24.4639 22.5877C25.5185 21.6603 26.3673 20.5224 26.9556 19.2472C27.5439 17.972 27.8587 16.5877 27.8797 15.1835V11.5505H30.6044C30.8453 11.5505 31.0763 11.4548 31.2467 11.2845C31.417 11.1141 31.5127 10.8831 31.5127 10.6423V8.83563C31.5127 8.59475 31.417 8.36373 31.2467 8.1934C31.0763 8.02307 30.8453 7.9274 30.6044 7.9274H30.6538ZM7.07887 28.7776C6.71877 28.7795 6.3662 28.6744 6.06597 28.4755C5.76575 28.2767 5.5314 27.9931 5.3927 27.6608C5.25399 27.3285 5.21719 26.9624 5.28696 26.6091C5.35674 26.2558 5.52993 25.9313 5.78457 25.6766C6.0392 25.422 6.36378 25.2488 6.71706 25.179C7.07035 25.1093 7.4364 25.1461 7.76872 25.2848C8.10104 25.4235 8.38463 25.6578 8.58347 25.9581C8.78232 26.2583 8.88744 26.6108 8.88549 26.9709C8.88558 27.2124 8.83727 27.4514 8.74341 27.6739C8.64955 27.8964 8.51204 28.0978 8.33902 28.2662C8.166 28.4346 7.96096 28.5666 7.73604 28.6545C7.51112 28.7423 7.27087 28.7842 7.0295 28.7776H7.07887ZM25.1648 26.9512C25.1648 27.3105 25.0583 27.6617 24.8587 27.9604C24.6591 28.2591 24.3754 28.4919 24.0435 28.6294C23.7115 28.7669 23.3463 28.8029 22.9939 28.7328C22.6416 28.6627 22.3179 28.4897 22.0639 28.2357C21.8098 27.9816 21.6368 27.658 21.5667 27.3056C21.4966 26.9532 21.5326 26.588 21.6701 26.2561C21.8076 25.9241 22.0404 25.6404 22.3391 25.4408C22.6379 25.2412 22.989 25.1347 23.3483 25.1347V25.1347C23.8293 25.1373 24.2898 25.3295 24.6299 25.6696C24.97 26.0097 25.1622 26.4702 25.1648 26.9512V26.9512Z" stroke="#B6B6B6" stroke-width="1.5" stroke-linecap="round" stroke-linejoin="round"/>
</svg>
