<svg width="53" height="59" viewBox="0 0 53 59" fill="none" xmlns="http://www.w3.org/2000/svg">
<g clip-path="url(#clip0_1238_8394)">
<path d="M0.140956 12.1781C0.299498 10.5135 0.593808 8.86468 1.02095 7.24806C1.35652 5.84078 1.90268 4.49225 2.64096 3.24806C3.40511 1.99896 4.54683 1.02534 5.90095 0.468065C7.30463 -0.0332374 8.81673 -0.15061 10.281 0.128069C11.7203 0.376916 13.1239 0.800022 14.461 1.38806C15.9076 1.98806 17.3343 2.6314 18.741 3.31807C24.2484 6.02542 29.3951 9.41176 34.061 13.3981C36.9937 15.2786 39.7218 17.4604 42.201 19.9081C46.5798 24.1919 49.8239 29.498 51.641 35.3481C52.5728 38.3071 52.9591 41.4109 52.781 44.5081C52.5804 47.6022 51.3399 50.5377 49.261 52.8381C45.401 57.0781 39.4109 58.9581 33.791 58.8381C27.9905 58.618 22.4007 56.6057 17.7909 53.0781C13.2064 49.4472 9.45519 44.8741 6.79095 39.6681C3.82156 34.1696 1.75201 28.2311 0.660953 22.0781C0.0514318 18.8155 -0.123418 15.4866 0.140956 12.1781Z" fill="#CEDAEF"/>
<path d="M5.94985 14.85C6.67081 12.5271 7.99721 10.4379 9.79278 8.79724C11.5883 7.15654 13.7883 6.02345 16.1667 5.51437C18.5451 5.0053 21.0162 5.1386 23.326 5.90057C25.6358 6.66254 27.7012 8.02571 29.3098 9.85003C29.4003 9.91245 29.4755 9.99448 29.5298 10.09C29.5555 10.1217 29.5789 10.1551 29.5998 10.19C29.9254 10.5831 30.2292 10.9937 30.5098 11.42C30.8457 11.8193 31.2136 12.1905 31.6098 12.53C32.5045 13.1848 33.3563 13.8962 34.1598 14.66C34.8265 15.4156 35.316 16.3104 35.5928 17.2792C35.8696 18.248 35.9267 19.2664 35.7598 20.26C35.3898 22.4 33.8698 24.15 32.3998 25.7C30.9493 27.2743 29.3257 28.6799 27.5598 29.89C26.3542 30.7296 25.0295 31.3835 23.6298 31.83C21.2304 32.6829 18.6409 32.8506 16.1515 32.3145C13.6621 31.7783 11.3712 30.5594 9.53561 28.7944C7.70002 27.0294 6.39226 24.7881 5.75892 22.3216C5.12558 19.8552 5.1917 17.261 5.94985 14.83V14.85Z" fill="white"/>
<path d="M20.7305 19.4218C21.0376 19.7565 21.4392 19.9898 21.882 20.091C22.3248 20.1921 22.7879 20.1562 23.2099 19.9881C23.6318 19.8199 23.9927 19.5275 24.2446 19.1496C24.4966 18.7716 24.6276 18.326 24.6205 17.8718C24.6039 17.7577 24.5467 17.6534 24.4595 17.5779C24.3723 17.5025 24.2608 17.4609 24.1455 17.4609C24.0301 17.4609 23.9187 17.5025 23.8314 17.5779C23.7442 17.6534 23.6871 17.7577 23.6705 17.8718C23.6755 17.9551 23.6755 18.0386 23.6705 18.1218C23.6705 18.2418 23.6705 18.0218 23.6705 18.1218V18.2318C23.6509 18.3154 23.6206 18.396 23.5805 18.4718C23.6505 18.3618 23.5805 18.4718 23.5805 18.4718L23.5205 18.5718C23.5009 18.6162 23.4739 18.6567 23.4405 18.6918C23.4405 18.6918 23.3505 18.8018 23.4405 18.6918L23.2805 18.8518L23.1705 18.9418C23.0905 19.0118 23.2405 18.9418 23.1705 18.9418L22.9605 19.0518H22.8505H22.7405C22.7405 19.0518 22.5905 19.0518 22.6505 19.0518H22.3305C22.2305 19.0518 22.4105 19.0518 22.3305 19.0518L22.0905 18.9818H21.9805C21.9101 18.9444 21.8432 18.9009 21.7805 18.8518C21.7805 18.8518 21.6905 18.7718 21.7805 18.8518L21.6705 18.7418C21.6267 18.6974 21.5746 18.6621 21.5171 18.638C21.4596 18.6139 21.3978 18.6015 21.3355 18.6015C21.2731 18.6015 21.2114 18.6139 21.1539 18.638C21.0963 18.6621 21.0442 18.6974 21.0005 18.7418C20.9131 18.8315 20.8642 18.9517 20.8642 19.0768C20.8642 19.202 20.9131 19.3222 21.0005 19.4118L20.7305 19.4218Z" fill="#4E439E"/>
<path d="M27.3008 15.8692C27.5033 16.2004 27.8075 16.4572 28.1679 16.6014C28.5283 16.7456 28.9257 16.7694 29.3008 16.6692C29.6289 16.5595 29.9257 16.3722 30.1659 16.1232C30.4062 15.8743 30.5828 15.571 30.6808 15.2392C30.8035 14.8957 30.8678 14.534 30.8708 14.1692C30.8708 14.0446 30.8213 13.925 30.7331 13.8369C30.645 13.7487 30.5254 13.6992 30.4008 13.6992C30.2761 13.6992 30.1566 13.7487 30.0684 13.8369C29.9803 13.925 29.9308 14.0446 29.9308 14.1692C29.9357 14.2525 29.9357 14.336 29.9308 14.4192C29.9363 14.4624 29.9363 14.5061 29.9308 14.5492C29.9308 14.6492 29.9308 14.4592 29.9308 14.5492C29.9027 14.7097 29.8592 14.8671 29.8008 15.0192V15.1392V15.1992L29.6908 15.3892C29.6708 15.4248 29.6474 15.4583 29.6208 15.4892V15.5392C29.6208 15.4792 29.6808 15.4692 29.6208 15.5392L29.4608 15.6992L29.3608 15.7592L29.2508 15.8192C29.1708 15.8192 29.3508 15.8192 29.2508 15.8192H29.1408H29.0708C28.9881 15.8342 28.9034 15.8342 28.8208 15.8192H28.6908H28.6208C28.5825 15.8091 28.5478 15.7883 28.5208 15.7592L28.4208 15.6992L28.3308 15.5992V15.5392C28.3308 15.5992 28.3308 15.5992 28.3308 15.5392C28.3019 15.4841 28.2624 15.4351 28.2146 15.3952C28.1668 15.3553 28.1116 15.3252 28.0522 15.3067C27.9928 15.2881 27.9303 15.2814 27.8683 15.287C27.8062 15.2926 27.7459 15.3103 27.6908 15.3392C27.6356 15.3681 27.5867 15.4076 27.5468 15.4554C27.5069 15.5032 27.4768 15.5584 27.4582 15.6178C27.4397 15.6772 27.433 15.7397 27.4386 15.8017C27.4441 15.8638 27.4619 15.9241 27.4908 15.9792L27.3008 15.8692Z" fill="#4E439E"/>
<path d="M25.5403 21.2717C26.4209 21.481 27.3482 21.346 28.1326 20.8944C28.917 20.4427 29.4992 19.7084 29.7603 18.8417C29.7786 18.7826 29.7852 18.7205 29.7796 18.6589C29.774 18.5972 29.7562 18.5373 29.7275 18.4825C29.6987 18.4278 29.6594 18.3792 29.6118 18.3396C29.5643 18.3 29.5094 18.2701 29.4503 18.2517C29.3912 18.2334 29.329 18.2268 29.2674 18.2324C29.2058 18.2381 29.1458 18.2558 29.0911 18.2845C29.0363 18.3133 28.9877 18.3526 28.9481 18.4002C28.9085 18.4478 28.8786 18.5026 28.8603 18.5617C28.6644 19.1926 28.24 19.7275 27.6703 20.0617C27.3893 20.2315 27.0759 20.3405 26.7503 20.3817H26.6303C26.5803 20.3817 26.6303 20.3817 26.5803 20.3817H26.2803H26.0403H25.8903H25.8203C25.7612 20.3634 25.699 20.3568 25.6374 20.3624C25.5758 20.3681 25.5158 20.3858 25.4611 20.4146C25.4063 20.4433 25.3577 20.4826 25.3181 20.5302C25.2785 20.5778 25.2486 20.6326 25.2303 20.6917C25.2119 20.7508 25.2053 20.813 25.2109 20.8746C25.2166 20.9362 25.2343 20.9962 25.2631 21.0509C25.2919 21.1057 25.3312 21.1543 25.3787 21.1939C25.4263 21.2335 25.4812 21.2634 25.5403 21.2817V21.2717Z" fill="#4E439E"/>
<path d="M26.3397 16.9817C26.4221 16.9957 26.5026 17.0192 26.5797 17.0517H26.4897C26.574 17.0944 26.6543 17.1446 26.7297 17.2017L26.6497 17.1417C26.7079 17.1899 26.7615 17.2434 26.8097 17.3017C26.8097 17.3517 26.7497 17.2217 26.8097 17.3017L26.8697 17.4017C26.8697 17.4017 26.8697 17.4717 26.8697 17.5017C26.8697 17.5317 26.8697 17.5917 26.8697 17.5017C26.8672 17.5182 26.8672 17.5351 26.8697 17.5517C26.8792 17.6247 26.8792 17.6986 26.8697 17.7717V17.6717C26.8796 17.7681 26.8796 17.8653 26.8697 17.9617V17.8617C26.8568 17.9488 26.8298 18.0332 26.7897 18.1117C26.7701 18.1575 26.7601 18.2068 26.7601 18.2567C26.7601 18.3065 26.7701 18.3558 26.7897 18.4017C26.8381 18.493 26.9209 18.5613 27.0197 18.5917C27.0655 18.6112 27.1148 18.6213 27.1647 18.6213C27.2145 18.6213 27.2638 18.6112 27.3097 18.5917C27.3929 18.5408 27.4564 18.4633 27.4897 18.3717C27.5636 18.182 27.5993 17.9796 27.5945 17.776C27.5897 17.5725 27.5447 17.372 27.4619 17.186C27.3792 17 27.2603 16.8323 27.1123 16.6925C26.9643 16.5527 26.7901 16.4437 26.5997 16.3717L26.4197 16.3117C26.3262 16.2763 26.2231 16.2763 26.1297 16.3117C26.0849 16.3338 26.0451 16.3648 26.0126 16.4028C25.9802 16.4407 25.9557 16.4848 25.9408 16.5325C25.9258 16.5801 25.9207 16.6303 25.9257 16.68C25.9306 16.7297 25.9456 16.7779 25.9697 16.8217C26.0173 16.9097 26.0956 16.9773 26.1897 17.0116L26.3397 16.9817Z" fill="#8A87E2"/>
<path d="M4.41925 12.9305C6.73925 7.44053 12.5792 3.98052 18.3292 3.23052C21.7399 2.66958 25.2347 3.46257 28.0692 5.44052C28.2603 5.5827 28.4005 5.78253 28.4692 6.01052C28.7594 6.36907 28.9707 6.78478 29.0892 7.23052C29.1698 7.55426 29.1856 7.89075 29.1356 8.2206C29.0856 8.55045 28.9708 8.86716 28.798 9.1525C28.6251 9.43783 28.3975 9.68617 28.1283 9.8832C27.859 10.0802 27.5535 10.222 27.2292 10.3005H27.1592C26.3128 10.4883 25.4276 10.3825 24.6492 10.0005C24.6207 10.5107 24.4827 11.0087 24.2446 11.4608C24.0065 11.9129 23.6738 12.3084 23.2692 12.6205C22.5872 13.1118 21.7413 13.3196 20.9092 13.2005C20.9092 13.3305 20.9092 13.4705 20.8392 13.6005C20.7393 14.3546 20.435 15.067 19.9592 15.6605C19.6987 15.9369 19.3715 16.1418 19.0091 16.2556C18.6466 16.3694 18.2611 16.3883 17.8892 16.3105C17.4489 17.4153 16.6812 18.359 15.6892 19.015C14.6972 19.671 13.5282 20.0079 12.3392 19.9805C12.1373 20.5046 11.8272 20.9802 11.4292 21.3765C11.0312 21.7728 10.5542 22.0808 10.0292 22.2805C9.37322 22.5348 8.66433 22.6222 7.96619 22.5349C7.26805 22.4477 6.6025 22.1884 6.02925 21.7805C4.76776 20.8888 3.91176 19.5329 3.64924 18.0105C3.41432 16.2784 3.68157 14.5152 4.41925 12.9305Z" fill="#3B338B"/>
<path d="M46.1701 32.2588C44.3101 30.6288 41.5601 30.5588 39.2201 30.5888C36.2026 30.6823 33.1952 30.9864 30.2201 31.4988C24.6501 32.3588 19.0501 33.3288 13.4101 32.5588C10.4573 32.1948 7.61498 31.2099 5.07007 29.6688C4.07007 29.0488 5.00008 27.4688 5.99008 28.0988C10.4701 30.8988 15.9201 31.2988 21.0701 30.9088C27.0701 30.4488 32.9401 28.9088 38.9701 28.7788C41.9701 28.7188 45.1401 28.9288 47.4701 30.9688C47.6411 31.1398 47.7372 31.3719 47.7372 31.6138C47.7372 31.8557 47.6411 32.0877 47.4701 32.2588C47.299 32.4298 47.067 32.526 46.8251 32.526C46.5832 32.526 46.3511 32.4298 46.1801 32.2588H46.1701Z" fill="#AFBDD5"/>
<path d="M37.1003 19.8017C36.7214 20.7867 36.1618 21.6923 35.4503 22.4717L33.1003 25.3217L28.4603 30.9617C28.2882 31.1309 28.0566 31.2257 27.8153 31.2257C27.574 31.2257 27.3423 31.1309 27.1703 30.9617C27.0057 30.7872 26.9141 30.5565 26.9141 30.3167C26.9141 30.0769 27.0057 29.8461 27.1703 29.6717L31.5803 24.3117L33.7603 21.6717C34.4263 20.9916 34.9618 20.1951 35.3403 19.3217C35.7103 18.2117 37.4703 18.6917 37.1003 19.8017Z" fill="#AFBDD5"/>
<path d="M26.1999 37.2301H27.7499C27.8699 36.9101 27.9699 36.5801 28.0599 36.2301C28.0737 36.1785 28.0977 36.1302 28.1305 36.088C28.1633 36.0459 28.2042 36.0107 28.2508 35.9846C28.2974 35.9585 28.3488 35.942 28.4019 35.9361C28.4549 35.9301 28.5087 35.9349 28.5599 35.9501C28.6082 35.9634 28.6534 35.9862 28.6929 36.0171C28.7323 36.048 28.7653 36.0864 28.7899 36.1301C28.9902 36.4801 29.1384 36.8573 29.2299 37.2501H30.2299C30.2869 37.2485 30.3437 37.2583 30.397 37.2789C30.4502 37.2995 30.4988 37.3305 30.5399 37.3701C30.6132 37.4448 30.6542 37.5454 30.6542 37.6501C30.6542 37.7548 30.6132 37.8553 30.5399 37.9301C30.3067 38.1906 30.0373 38.4162 29.7399 38.6001L29.5899 38.7101C29.7204 39.2443 29.8874 39.7688 30.0899 40.2801C30.2299 40.6101 29.7799 40.9001 29.4999 40.7301C29.0566 40.4314 28.6386 40.0969 28.2499 39.7301L27.1099 40.6701C27.0466 40.7297 26.966 40.7676 26.8797 40.7784C26.7934 40.7892 26.7059 40.7723 26.6299 40.7301C26.5517 40.6879 26.4903 40.6203 26.4557 40.5385C26.4212 40.4567 26.4156 40.3655 26.4399 40.2801C26.6299 39.7701 26.8499 39.2801 27.0699 38.7701C26.6517 38.4899 26.26 38.1719 25.8999 37.8201C25.8606 37.7827 25.8292 37.7377 25.8078 37.6879C25.7864 37.638 25.7754 37.5843 25.7754 37.5301C25.7754 37.4758 25.7864 37.4221 25.8078 37.3723C25.8292 37.3224 25.8606 37.2774 25.8999 37.2401C25.9961 37.204 26.1015 37.2005 26.1999 37.2301Z" fill="#F7D651"/>
<path d="M40.4094 43.7795H41.4094C41.4894 43.5595 41.5594 43.3495 41.6194 43.1195C41.6402 43.0525 41.6863 42.9963 41.7479 42.9627C41.8095 42.9291 41.8818 42.9208 41.9494 42.9395C42.0157 42.9585 42.0726 43.0012 42.1094 43.0595C42.241 43.2945 42.3386 43.5471 42.3994 43.8095H43.0494C43.0857 43.8071 43.1222 43.8121 43.1565 43.8241C43.1909 43.8361 43.2225 43.855 43.2494 43.8795C43.2972 43.9312 43.3237 43.9991 43.3237 44.0695C43.3237 44.1399 43.2972 44.2078 43.2494 44.2595C43.0947 44.4336 42.9163 44.5851 42.7194 44.7095L42.6194 44.7795C42.7017 45.1213 42.8121 45.4558 42.9494 45.7795C43.0394 45.9995 42.7394 46.1995 42.5594 46.0795C42.2579 45.8884 41.9764 45.6672 41.7194 45.4195L40.9594 46.0495C40.9172 46.0905 40.8628 46.1167 40.8044 46.124C40.7461 46.1312 40.6869 46.1192 40.636 46.0898C40.585 46.0604 40.5451 46.0151 40.5222 45.9609C40.4994 45.9067 40.4949 45.8465 40.5094 45.7895C40.6394 45.4495 40.7794 45.1195 40.9294 44.7895C40.6519 44.5985 40.3909 44.3844 40.1494 44.1495C40.0987 44.0973 40.0703 44.0273 40.0703 43.9545C40.0703 43.8817 40.0987 43.8118 40.1494 43.7595C40.1917 43.7444 40.2367 43.7384 40.2815 43.7418C40.3263 43.7453 40.3699 43.7581 40.4094 43.7795Z" fill="white"/>
<path d="M15.9009 39.2393C16.2409 39.2393 16.5909 39.2393 16.9009 39.2393C16.9812 39.0236 17.048 38.8032 17.1009 38.5793C17.1112 38.545 17.1282 38.5131 17.1509 38.4854C17.1736 38.4577 17.2016 38.4348 17.2332 38.4181C17.2649 38.4013 17.2995 38.3911 17.3352 38.3878C17.3708 38.3846 17.4068 38.3885 17.4409 38.3993C17.502 38.4178 17.5549 38.4566 17.5909 38.5093C17.7243 38.7446 17.8252 38.9969 17.8909 39.2593H18.5409C18.6152 39.2602 18.6864 39.2887 18.7409 39.3393C18.7887 39.391 18.8152 39.4588 18.8152 39.5293C18.8152 39.5997 18.7887 39.6675 18.7409 39.7193C18.582 39.89 18.4003 40.0381 18.2009 40.1593L18.1009 40.2393C18.1935 40.5793 18.307 40.9133 18.4409 41.2393C18.5309 41.4593 18.2309 41.6493 18.0409 41.5393C17.749 41.3391 17.4717 41.1185 17.2109 40.8793C16.9509 41.0893 16.7009 41.2893 16.4509 41.5093C16.4024 41.5428 16.3449 41.5608 16.2859 41.5608C16.2269 41.5608 16.1694 41.5428 16.1209 41.5093C16.0712 41.4789 16.0327 41.4333 16.0111 41.3792C15.9895 41.3251 15.9859 41.2655 16.0009 41.2093C16.1309 40.8693 16.2709 40.5393 16.4209 40.2093C16.1399 40.0187 15.8757 39.8046 15.6309 39.5693C15.5808 39.5187 15.5527 39.4504 15.5527 39.3793C15.5527 39.3081 15.5808 39.2398 15.6309 39.1893C15.6766 39.1755 15.725 39.1729 15.772 39.1816C15.8189 39.1903 15.8631 39.21 15.9009 39.2393Z" fill="white"/>
<path d="M32.1408 50.3586H33.3008C33.3808 50.1186 33.4608 49.8786 33.5208 49.6286C33.5322 49.5903 33.5511 49.5546 33.5765 49.5237C33.6019 49.4927 33.6332 49.4672 33.6686 49.4486C33.704 49.4299 33.7428 49.4186 33.7827 49.4152C33.8226 49.4117 33.8627 49.4163 33.9008 49.4287C33.9711 49.4504 34.0313 49.4965 34.0708 49.5586C34.2217 49.8208 34.3329 50.1039 34.4008 50.3987H35.1208C35.1616 50.3984 35.202 50.4063 35.2398 50.4217C35.2775 50.4372 35.3118 50.4599 35.3408 50.4886C35.3692 50.5157 35.3919 50.5483 35.4073 50.5844C35.4228 50.6205 35.4308 50.6594 35.4308 50.6986C35.4308 50.7379 35.4228 50.7768 35.4073 50.8129C35.3919 50.849 35.3692 50.8816 35.3408 50.9086C35.1642 51.1016 34.9624 51.2698 34.7408 51.4086L34.6308 51.4886C34.7299 51.8826 34.8534 52.2701 35.0008 52.6487C35.1008 52.8987 34.7708 53.1086 34.5608 52.9886C34.2315 52.7709 33.9205 52.5267 33.6308 52.2586L32.7908 52.9587C32.7429 53.0025 32.6829 53.0308 32.6186 53.0397C32.5543 53.0487 32.4888 53.0378 32.4308 53.0086C32.3742 52.9743 32.3301 52.9228 32.3049 52.8617C32.2797 52.8005 32.2748 52.7328 32.2908 52.6686C32.4308 52.2886 32.5908 51.9186 32.7608 51.5486C32.4511 51.3372 32.16 51.0997 31.8908 50.8386C31.8623 50.8116 31.8397 50.779 31.8242 50.7429C31.8088 50.7068 31.8008 50.6679 31.8008 50.6286C31.8008 50.5894 31.8088 50.5505 31.8242 50.5144C31.8397 50.4783 31.8623 50.4457 31.8908 50.4186C31.9242 50.3886 31.9645 50.3675 32.0082 50.357C32.0518 50.3465 32.0974 50.3471 32.1408 50.3586Z" fill="white"/>
<path d="M38.6198 37.4895C39.0947 37.4895 39.4798 37.1045 39.4798 36.6295C39.4798 36.1546 39.0947 35.7695 38.6198 35.7695C38.1448 35.7695 37.7598 36.1546 37.7598 36.6295C37.7598 37.1045 38.1448 37.4895 38.6198 37.4895Z" fill="white"/>
<path d="M25.4498 47.2903C25.9248 47.2903 26.3098 46.9053 26.3098 46.4303C26.3098 45.9553 25.9248 45.5703 25.4498 45.5703C24.9749 45.5703 24.5898 45.9553 24.5898 46.4303C24.5898 46.9053 24.9749 47.2903 25.4498 47.2903Z" fill="white"/>
</g>
<defs>
<clipPath id="clip0_1238_8394">
<rect width="52.82" height="58.82" fill="white"/>
</clipPath>
</defs>
</svg>
