<svg width="53" height="59" viewBox="0 0 53 59" fill="none" xmlns="http://www.w3.org/2000/svg">
<g clip-path="url(#clip0_415:3144)">
<path d="M0.140956 12.18C0.299498 10.5155 0.593808 8.86663 1.02095 7.25002C1.35652 5.84274 1.90268 4.4942 2.64096 3.25002C3.40511 2.00091 4.54683 1.02729 5.90095 0.470018C7.30463 -0.0312843 8.81673 -0.148657 10.281 0.130022C11.7203 0.378869 13.1239 0.801975 14.461 1.39002C15.9076 1.99002 17.3343 2.63336 18.741 3.32002C24.2484 6.02737 29.3951 9.41372 34.061 13.4C36.9937 15.2805 39.7218 17.4624 42.201 19.91C46.5798 24.1938 49.8239 29.4999 51.641 35.35C52.5728 38.3091 52.9591 41.4128 52.781 44.51C52.5804 47.6041 51.3399 50.5396 49.261 52.84C45.401 57.08 39.4109 58.96 33.791 58.84C27.9905 58.6199 22.4007 56.6076 17.7909 53.08C13.2064 49.4492 9.45519 44.876 6.79095 39.67C3.82156 34.1716 1.75201 28.233 0.660953 22.08C0.0514318 18.8174 -0.123418 15.4885 0.140956 12.18Z" fill="#CEDAEF"/>
<path d="M5.94985 14.85C6.67081 12.5271 7.99721 10.4379 9.79278 8.79724C11.5883 7.15654 13.7883 6.02345 16.1667 5.51437C18.5451 5.0053 21.0162 5.1386 23.326 5.90057C25.6358 6.66254 27.7012 8.02571 29.3098 9.85003C29.4003 9.91245 29.4755 9.99448 29.5298 10.09C29.5555 10.1217 29.5789 10.1551 29.5998 10.19C29.9254 10.5831 30.2292 10.9937 30.5098 11.42C30.8457 11.8193 31.2136 12.1905 31.6098 12.53C32.5045 13.1848 33.3563 13.8962 34.1598 14.66C34.8265 15.4156 35.316 16.3104 35.5928 17.2792C35.8696 18.248 35.9267 19.2664 35.7598 20.26C35.3898 22.4 33.8698 24.15 32.3998 25.7C30.9493 27.2743 29.3257 28.6799 27.5598 29.89C26.3542 30.7296 25.0295 31.3835 23.6298 31.83C21.2304 32.6829 18.6409 32.8506 16.1515 32.3145C13.6621 31.7783 11.3712 30.5594 9.53561 28.7944C7.70002 27.0294 6.39226 24.7881 5.75892 22.3216C5.12558 19.8552 5.1917 17.261 5.94985 14.83V14.85Z" fill="white"/>
<path d="M20.7305 19.4199C21.0376 19.7545 21.4392 19.9879 21.882 20.089C22.3248 20.1901 22.7879 20.1542 23.2099 19.9861C23.6318 19.818 23.9927 19.5256 24.2446 19.1476C24.4966 18.7696 24.6276 18.324 24.6205 17.8699C24.6039 17.7557 24.5467 17.6514 24.4595 17.576C24.3723 17.5005 24.2608 17.459 24.1455 17.459C24.0301 17.459 23.9187 17.5005 23.8314 17.576C23.7442 17.6514 23.6871 17.7557 23.6705 17.8699C23.6755 17.9531 23.6755 18.0366 23.6705 18.1199C23.6705 18.2399 23.6705 18.0199 23.6705 18.1199V18.2299C23.6509 18.3134 23.6206 18.3941 23.5805 18.4699C23.6505 18.3599 23.5805 18.4699 23.5805 18.4699L23.5205 18.5699C23.5009 18.6142 23.4739 18.6548 23.4405 18.6899C23.4405 18.6899 23.3505 18.7999 23.4405 18.6899L23.2805 18.8499L23.1705 18.9399C23.0905 19.0099 23.2405 18.9399 23.1705 18.9399L22.9605 19.0499H22.8505H22.7405C22.7405 19.0499 22.5905 19.0499 22.6505 19.0499H22.3305C22.2305 19.0499 22.4105 19.0499 22.3305 19.0499L22.0905 18.9799H21.9805C21.9101 18.9424 21.8432 18.8989 21.7805 18.8499C21.7805 18.8499 21.6905 18.7699 21.7805 18.8499L21.6705 18.7399C21.6267 18.6954 21.5746 18.6601 21.5171 18.636C21.4596 18.612 21.3978 18.5995 21.3355 18.5995C21.2731 18.5995 21.2114 18.612 21.1539 18.636C21.0963 18.6601 21.0442 18.6954 21.0005 18.7399C20.9131 18.8295 20.8642 18.9497 20.8642 19.0749C20.8642 19.2 20.9131 19.3202 21.0005 19.4099L20.7305 19.4199Z" fill="#4E439E"/>
<path d="M27.3008 15.8702C27.5033 16.2014 27.8075 16.4582 28.1679 16.6024C28.5283 16.7466 28.9257 16.7703 29.3008 16.6702C29.6289 16.5605 29.9257 16.3732 30.1659 16.1242C30.4062 15.8753 30.5828 15.572 30.6808 15.2402C30.8035 14.8967 30.8678 14.535 30.8708 14.1702C30.8708 14.0455 30.8213 13.926 30.7331 13.8379C30.645 13.7497 30.5254 13.7002 30.4008 13.7002C30.2761 13.7002 30.1566 13.7497 30.0684 13.8379C29.9803 13.926 29.9308 14.0455 29.9308 14.1702C29.9357 14.2535 29.9357 14.3369 29.9308 14.4202C29.9363 14.4634 29.9363 14.507 29.9308 14.5502C29.9308 14.6502 29.9308 14.4602 29.9308 14.5502C29.9027 14.7107 29.8592 14.8681 29.8008 15.0202V15.1402V15.2002L29.6908 15.3902C29.6708 15.4258 29.6474 15.4593 29.6208 15.4902V15.5402C29.6208 15.4802 29.6808 15.4702 29.6208 15.5402L29.4608 15.7002L29.3608 15.7602L29.2508 15.8202C29.1708 15.8202 29.3508 15.8202 29.2508 15.8202H29.1408H29.0708C28.9881 15.8352 28.9034 15.8352 28.8208 15.8202H28.6908H28.6208C28.5825 15.81 28.5478 15.7892 28.5208 15.7602L28.4208 15.7002L28.3308 15.6002V15.5402C28.3308 15.6002 28.3308 15.6002 28.3308 15.5402C28.3019 15.4851 28.2624 15.4361 28.2146 15.3962C28.1668 15.3563 28.1116 15.3262 28.0522 15.3076C27.9928 15.2891 27.9303 15.2824 27.8683 15.288C27.8062 15.2936 27.7459 15.3113 27.6908 15.3402C27.6356 15.3691 27.5867 15.4086 27.5468 15.4564C27.5069 15.5042 27.4768 15.5593 27.4582 15.6188C27.4397 15.6782 27.433 15.7407 27.4386 15.8027C27.4441 15.8647 27.4619 15.925 27.4908 15.9802L27.3008 15.8702Z" fill="#4E439E"/>
<path d="M25.5403 21.2698C26.4209 21.4791 27.3482 21.3441 28.1326 20.8924C28.917 20.4407 29.4992 19.7065 29.7603 18.8398C29.7786 18.7807 29.7852 18.7186 29.7796 18.6569C29.774 18.5953 29.7562 18.5354 29.7275 18.4806C29.6987 18.4258 29.6594 18.3772 29.6118 18.3376C29.5643 18.298 29.5094 18.2682 29.4503 18.2498C29.3912 18.2314 29.329 18.2248 29.2674 18.2305C29.2058 18.2361 29.1458 18.2538 29.0911 18.2826C29.0363 18.3114 28.9877 18.3507 28.9481 18.3982C28.9085 18.4458 28.8786 18.5007 28.8603 18.5598C28.6644 19.1906 28.24 19.7256 27.6703 20.0598C27.3893 20.2295 27.0759 20.3385 26.7503 20.3798H26.6303C26.5803 20.3798 26.6303 20.3798 26.5803 20.3798H26.2803H26.0403H25.8903H25.8203C25.7612 20.3614 25.699 20.3548 25.6374 20.3605C25.5758 20.3661 25.5158 20.3838 25.4611 20.4126C25.4063 20.4414 25.3577 20.4807 25.3181 20.5282C25.2785 20.5758 25.2486 20.6307 25.2303 20.6898C25.2119 20.7489 25.2053 20.811 25.2109 20.8727C25.2166 20.9343 25.2343 20.9942 25.2631 21.049C25.2919 21.1038 25.3312 21.1524 25.3787 21.192C25.4263 21.2316 25.4812 21.2614 25.5403 21.2798V21.2698Z" fill="#4E439E"/>
<path d="M26.3397 16.9797C26.4221 16.9937 26.5026 17.0172 26.5797 17.0497H26.4897C26.574 17.0924 26.6543 17.1426 26.7297 17.1997L26.6497 17.1397C26.7079 17.1879 26.7615 17.2415 26.8097 17.2997C26.8097 17.3497 26.7497 17.2197 26.8097 17.2997L26.8697 17.3997C26.8697 17.3997 26.8697 17.4697 26.8697 17.4997C26.8697 17.5297 26.8697 17.5897 26.8697 17.4997C26.8672 17.5163 26.8672 17.5331 26.8697 17.5497C26.8792 17.6227 26.8792 17.6967 26.8697 17.7697V17.6697C26.8796 17.7661 26.8796 17.8633 26.8697 17.9597V17.8597C26.8568 17.9468 26.8298 18.0313 26.7897 18.1097C26.7701 18.1555 26.7601 18.2049 26.7601 18.2547C26.7601 18.3045 26.7701 18.3539 26.7897 18.3997C26.8381 18.491 26.9209 18.5593 27.0197 18.5897C27.0655 18.6092 27.1148 18.6193 27.1647 18.6193C27.2145 18.6193 27.2638 18.6092 27.3097 18.5897C27.3929 18.5389 27.4564 18.4613 27.4897 18.3697C27.5636 18.18 27.5993 17.9776 27.5945 17.7741C27.5897 17.5706 27.5447 17.37 27.4619 17.184C27.3792 16.998 27.2603 16.8303 27.1123 16.6905C26.9643 16.5508 26.7901 16.4417 26.5997 16.3697L26.4197 16.3097C26.3262 16.2744 26.2231 16.2744 26.1297 16.3097C26.0849 16.3319 26.0451 16.3629 26.0126 16.4008C25.9802 16.4388 25.9557 16.4829 25.9408 16.5305C25.9258 16.5782 25.9207 16.6284 25.9257 16.6781C25.9306 16.7278 25.9456 16.776 25.9697 16.8197C26.0173 16.9078 26.0956 16.9754 26.1897 17.0097L26.3397 16.9797Z" fill="#8A87E2"/>
<path d="M4.41925 12.9296C6.73925 7.43955 12.5792 3.97954 18.3292 3.22954C21.7399 2.66861 25.2347 3.46159 28.0692 5.43955C28.2603 5.58172 28.4005 5.78155 28.4692 6.00954C28.7594 6.36809 28.9707 6.7838 29.0892 7.22954C29.1698 7.55329 29.1856 7.88977 29.1356 8.21962C29.0856 8.54948 28.9708 8.86619 28.798 9.15152C28.6251 9.43686 28.3975 9.68519 28.1283 9.88222C27.859 10.0792 27.5535 10.2211 27.2292 10.2995H27.1592C26.3128 10.4873 25.4276 10.3815 24.6492 9.99954C24.6207 10.5097 24.4827 11.0078 24.2446 11.4598C24.0065 11.9119 23.6738 12.3074 23.2692 12.6195C22.5872 13.1108 21.7413 13.3187 20.9092 13.1995C20.9092 13.3295 20.9092 13.4696 20.8392 13.5996C20.7393 14.3536 20.435 15.066 19.9592 15.6595C19.6987 15.9359 19.3715 16.1409 19.0091 16.2547C18.6466 16.3685 18.2611 16.3874 17.8892 16.3095C17.4489 17.4143 16.6812 18.358 15.6892 19.014C14.6972 19.67 13.5282 20.0069 12.3392 19.9795C12.1373 20.5036 11.8272 20.9793 11.4292 21.3755C11.0312 21.7718 10.5542 22.0798 10.0292 22.2795C9.37322 22.5338 8.66433 22.6212 7.96619 22.534C7.26805 22.4467 6.6025 22.1875 6.02925 21.7795C4.76776 20.8878 3.91176 19.5319 3.64924 18.0095C3.41432 16.2774 3.68157 14.5143 4.41925 12.9296Z" fill="#3B338B"/>
<path d="M46.1701 32.2598C44.3101 30.6298 41.5601 30.5598 39.2201 30.5898C36.2026 30.6833 33.1952 30.9874 30.2201 31.4998C24.6501 32.3598 19.0501 33.3298 13.4101 32.5598C10.4573 32.1958 7.61498 31.2108 5.07007 29.6698C4.07007 29.0498 5.00008 27.4698 5.99008 28.0998C10.4701 30.8998 15.9201 31.2998 21.0701 30.9098C27.0701 30.4498 32.9401 28.9098 38.9701 28.7798C41.9701 28.7198 45.1401 28.9298 47.4701 30.9698C47.6411 31.1408 47.7372 31.3728 47.7372 31.6148C47.7372 31.8567 47.6411 32.0887 47.4701 32.2598C47.299 32.4308 47.067 32.5269 46.8251 32.5269C46.5832 32.5269 46.3511 32.4308 46.1801 32.2598H46.1701Z" fill="#AFBDD5"/>
<path d="M37.1003 19.7997C36.7214 20.7848 36.1618 21.6903 35.4503 22.4697L33.1003 25.3197L28.4603 30.9597C28.2882 31.1289 28.0566 31.2237 27.8153 31.2237C27.574 31.2237 27.3423 31.1289 27.1703 30.9597C27.0057 30.7853 26.9141 30.5545 26.9141 30.3147C26.9141 30.0749 27.0057 29.8442 27.1703 29.6697L31.5803 24.3097L33.7603 21.6697C34.4263 20.9896 34.9618 20.1931 35.3403 19.3197C35.7103 18.2097 37.4703 18.6897 37.1003 19.7997Z" fill="#AFBDD5"/>
<path d="M26.1999 37.2301H27.7499C27.8699 36.9101 27.9699 36.5801 28.0599 36.2301C28.0737 36.1785 28.0977 36.1302 28.1305 36.088C28.1633 36.0459 28.2042 36.0107 28.2508 35.9846C28.2974 35.9585 28.3488 35.942 28.4019 35.9361C28.4549 35.9301 28.5087 35.9349 28.5599 35.9501C28.6082 35.9634 28.6534 35.9862 28.6929 36.0171C28.7323 36.048 28.7653 36.0864 28.7899 36.1301C28.9902 36.4801 29.1384 36.8573 29.2299 37.2501H30.2299C30.2869 37.2485 30.3437 37.2583 30.397 37.2789C30.4502 37.2995 30.4988 37.3305 30.5399 37.3701C30.6132 37.4448 30.6542 37.5454 30.6542 37.6501C30.6542 37.7548 30.6132 37.8553 30.5399 37.9301C30.3067 38.1906 30.0373 38.4162 29.7399 38.6001L29.5899 38.7101C29.7204 39.2443 29.8874 39.7688 30.0899 40.2801C30.2299 40.6101 29.7799 40.9001 29.4999 40.7301C29.0566 40.4314 28.6386 40.0969 28.2499 39.7301L27.1099 40.6701C27.0466 40.7297 26.966 40.7676 26.8797 40.7784C26.7934 40.7892 26.7059 40.7723 26.6299 40.7301C26.5517 40.6879 26.4903 40.6203 26.4557 40.5385C26.4212 40.4567 26.4156 40.3655 26.4399 40.2801C26.6299 39.7701 26.8499 39.2801 27.0699 38.7701C26.6517 38.4899 26.26 38.1719 25.8999 37.8201C25.8606 37.7827 25.8292 37.7377 25.8078 37.6879C25.7864 37.638 25.7754 37.5843 25.7754 37.5301C25.7754 37.4758 25.7864 37.4221 25.8078 37.3723C25.8292 37.3224 25.8606 37.2774 25.8999 37.2401C25.9961 37.204 26.1015 37.2005 26.1999 37.2301Z" fill="#F7D651"/>
<path d="M40.4094 43.7795H41.4094C41.4894 43.5595 41.5594 43.3495 41.6194 43.1195C41.6402 43.0525 41.6863 42.9963 41.7479 42.9627C41.8095 42.9291 41.8818 42.9208 41.9494 42.9395C42.0157 42.9585 42.0726 43.0012 42.1094 43.0595C42.241 43.2945 42.3386 43.5471 42.3994 43.8095H43.0494C43.0857 43.8071 43.1222 43.8121 43.1565 43.8241C43.1909 43.8361 43.2225 43.855 43.2494 43.8795C43.2972 43.9312 43.3237 43.9991 43.3237 44.0695C43.3237 44.1399 43.2972 44.2078 43.2494 44.2595C43.0947 44.4336 42.9163 44.5851 42.7194 44.7095L42.6194 44.7795C42.7017 45.1213 42.8121 45.4558 42.9494 45.7795C43.0394 45.9995 42.7394 46.1995 42.5594 46.0795C42.2579 45.8884 41.9764 45.6672 41.7194 45.4195L40.9594 46.0495C40.9172 46.0905 40.8628 46.1167 40.8044 46.124C40.7461 46.1312 40.6869 46.1192 40.636 46.0898C40.585 46.0604 40.5451 46.0151 40.5222 45.9609C40.4994 45.9067 40.4949 45.8465 40.5094 45.7895C40.6394 45.4495 40.7794 45.1195 40.9294 44.7895C40.6519 44.5985 40.3909 44.3844 40.1494 44.1495C40.0987 44.0973 40.0703 44.0273 40.0703 43.9545C40.0703 43.8817 40.0987 43.8118 40.1494 43.7595C40.1917 43.7444 40.2367 43.7384 40.2815 43.7418C40.3263 43.7453 40.3699 43.7581 40.4094 43.7795Z" fill="white"/>
<path d="M15.9009 39.2402C16.2409 39.2402 16.5909 39.2402 16.9009 39.2402C16.9812 39.0246 17.048 38.8042 17.1009 38.5802C17.1112 38.5459 17.1282 38.514 17.1509 38.4864C17.1736 38.4587 17.2016 38.4358 17.2332 38.4191C17.2649 38.4023 17.2995 38.392 17.3352 38.3888C17.3708 38.3856 17.4068 38.3895 17.4409 38.4002C17.502 38.4187 17.5549 38.4575 17.5909 38.5102C17.7243 38.7456 17.8252 38.9978 17.8909 39.2602H18.5409C18.6152 39.2612 18.6864 39.2897 18.7409 39.3402C18.7887 39.392 18.8152 39.4598 18.8152 39.5302C18.8152 39.6007 18.7887 39.6685 18.7409 39.7202C18.582 39.891 18.4003 40.0391 18.2009 40.1602L18.1009 40.2402C18.1935 40.5803 18.307 40.9142 18.4409 41.2402C18.5309 41.4602 18.2309 41.6502 18.0409 41.5402C17.749 41.3401 17.4717 41.1195 17.2109 40.8802C16.9509 41.0902 16.7009 41.2902 16.4509 41.5102C16.4024 41.5438 16.3449 41.5618 16.2859 41.5618C16.2269 41.5618 16.1694 41.5438 16.1209 41.5102C16.0712 41.4798 16.0327 41.4342 16.0111 41.3802C15.9895 41.3261 15.9859 41.2665 16.0009 41.2102C16.1309 40.8702 16.2709 40.5402 16.4209 40.2102C16.1399 40.0196 15.8757 39.8055 15.6309 39.5702C15.5808 39.5197 15.5527 39.4514 15.5527 39.3802C15.5527 39.3091 15.5808 39.2408 15.6309 39.1902C15.6766 39.1765 15.725 39.1738 15.772 39.1825C15.8189 39.1912 15.8631 39.211 15.9009 39.2402Z" fill="white"/>
<path d="M32.1408 50.3596H33.3008C33.3808 50.1196 33.4608 49.8796 33.5208 49.6296C33.5322 49.5913 33.5511 49.5556 33.5765 49.5246C33.6019 49.4937 33.6332 49.4682 33.6686 49.4496C33.704 49.4309 33.7428 49.4196 33.7827 49.4161C33.8226 49.4127 33.8627 49.4173 33.9008 49.4296C33.9711 49.4514 34.0313 49.4975 34.0708 49.5596C34.2217 49.8218 34.3329 50.1049 34.4008 50.3996H35.1208C35.1616 50.3994 35.202 50.4073 35.2398 50.4227C35.2775 50.4381 35.3118 50.4609 35.3408 50.4896C35.3692 50.5167 35.3919 50.5493 35.4073 50.5854C35.4228 50.6215 35.4308 50.6603 35.4308 50.6996C35.4308 50.7389 35.4228 50.7778 35.4073 50.8139C35.3919 50.85 35.3692 50.8825 35.3408 50.9096C35.1642 51.1026 34.9624 51.2708 34.7408 51.4096L34.6308 51.4896C34.7299 51.8836 34.8534 52.271 35.0008 52.6496C35.1008 52.8996 34.7708 53.1096 34.5608 52.9896C34.2315 52.7719 33.9205 52.5277 33.6308 52.2596L32.7908 52.9596C32.7429 53.0035 32.6829 53.0318 32.6186 53.0407C32.5543 53.0496 32.4888 53.0388 32.4308 53.0096C32.3742 52.9753 32.3301 52.9238 32.3049 52.8626C32.2797 52.8015 32.2748 52.7338 32.2908 52.6696C32.4308 52.2896 32.5908 51.9196 32.7608 51.5496C32.4511 51.3382 32.16 51.1006 31.8908 50.8396C31.8623 50.8125 31.8397 50.78 31.8242 50.7439C31.8088 50.7078 31.8008 50.6689 31.8008 50.6296C31.8008 50.5904 31.8088 50.5515 31.8242 50.5154C31.8397 50.4793 31.8623 50.4467 31.8908 50.4196C31.9242 50.3896 31.9645 50.3684 32.0082 50.358C32.0518 50.3475 32.0974 50.3481 32.1408 50.3596Z" fill="white"/>
<path d="M38.6198 37.4895C39.0947 37.4895 39.4798 37.1045 39.4798 36.6295C39.4798 36.1546 39.0947 35.7695 38.6198 35.7695C38.1448 35.7695 37.7598 36.1546 37.7598 36.6295C37.7598 37.1045 38.1448 37.4895 38.6198 37.4895Z" fill="white"/>
<path d="M25.4498 47.2903C25.9248 47.2903 26.3098 46.9053 26.3098 46.4303C26.3098 45.9553 25.9248 45.5703 25.4498 45.5703C24.9749 45.5703 24.5898 45.9553 24.5898 46.4303C24.5898 46.9053 24.9749 47.2903 25.4498 47.2903Z" fill="white"/>
</g>
<defs>
<clipPath id="clip0_415:3144">
<rect width="52.82" height="58.82" fill="white"/>
</clipPath>
</defs>
</svg>
