<svg width="18" height="18" viewBox="0 0 18 18" fill="none" xmlns="http://www.w3.org/2000/svg">
<g clip-path="url(#clip0_682_5990)">
<path d="M3.51055 2.78027H13.6205C14.0025 2.78027 14.3687 2.93198 14.6388 3.20203C14.9088 3.47209 15.0605 3.83836 15.0605 4.22027V4.22027V14.3303C15.0619 14.5202 15.0256 14.7085 14.9538 14.8844C14.882 15.0603 14.7762 15.2202 14.6423 15.355C14.5085 15.4898 14.3493 15.5967 14.1739 15.6697C13.9986 15.7427 13.8105 15.7803 13.6205 15.7803H3.51055C3.32013 15.7803 3.13158 15.7428 2.95565 15.6699C2.77973 15.597 2.61989 15.4902 2.48524 15.3556C2.3506 15.2209 2.24379 15.0611 2.17092 14.8852C2.09805 14.7092 2.06055 14.5207 2.06055 14.3303V4.22027C2.06319 3.83744 2.21712 3.47119 2.48876 3.20142C2.7604 2.93165 3.12771 2.78026 3.51055 2.78027V2.78027Z" stroke="#4D3BA2" stroke-width="1.5" stroke-linecap="round" stroke-linejoin="round"/>
<path d="M11.4512 1.33008V4.22008" stroke="#4D3BA2" stroke-width="1.5" stroke-linecap="round" stroke-linejoin="round"/>
<path d="M5.66992 1.33008V4.22008" stroke="#4D3BA2" stroke-width="1.5" stroke-linecap="round" stroke-linejoin="round"/>
<path d="M2.06055 7.11035H15.0605" stroke="#4D3BA2" stroke-width="1.5" stroke-linecap="round" stroke-linejoin="round"/>
</g>
<defs>
<clipPath id="clip0_682_5990">
<rect width="17.12" height="17.12" fill="white"/>
</clipPath>
</defs>
</svg>
