<svg width="32" height="32" viewBox="0 0 32 32" fill="none" xmlns="http://www.w3.org/2000/svg">
<g clip-path="url(#clip0_160_17173)">
<path d="M28.5293 23.43C27.0907 22.1759 25.4978 21.1107 23.7893 20.26C22.3693 19.57 21.8493 19.59 20.8393 20.26C19.9993 20.86 19.4593 21.43 18.4993 21.26C17.5393 21.09 15.6393 19.61 13.7993 17.78C11.9593 15.95 10.5193 14.0401 10.3193 13.0801C10.1193 12.1201 10.6793 11.58 11.3193 10.74C12.0393 9.74003 12.0593 9.21003 11.3193 7.74003C10.4674 6.03225 9.40229 4.43953 8.1493 3.00004C7.1493 2.00004 6.87927 2.19 6.30927 2.4C5.72228 2.64264 5.15974 2.94067 4.62928 3.29001C3.76541 3.78505 3.069 4.52672 2.62928 5.42002C2.22928 6.28002 1.76928 7.89001 4.12928 12.1C5.87537 15.3194 8.08572 18.2642 10.6893 20.84C13.2653 23.4405 16.2103 25.6475 19.4293 27.3901C23.6293 29.7601 25.2393 29.2901 26.1093 28.8901C27.0055 28.4544 27.7482 27.757 28.2393 26.8901C28.5866 26.3584 28.8845 25.796 29.1293 25.2101C29.3293 24.7101 29.5693 24.48 28.5293 23.43Z" fill="white"/>
</g>
<defs>
<clipPath id="clip0_160_17173">
<rect width="31.6" height="31.6" fill="white"/>
</clipPath>
</defs>
</svg>
