<svg width="34" height="34" viewBox="0 0 34 34" fill="none" xmlns="http://www.w3.org/2000/svg">
<path d="M21.1656 10.3262C23.4392 10.3262 25.2823 8.4831 25.2823 6.2095C25.2823 3.93589 23.4392 2.09277 21.1656 2.09277C18.8919 2.09277 17.0488 3.93589 17.0488 6.2095C17.0488 8.4831 18.8919 10.3262 21.1656 10.3262Z" fill="white" stroke="#B6B6B6" stroke-width="1.5" stroke-miterlimit="10"/>
<path d="M21.2053 13.0015C19.5731 13.0067 18.0093 13.6574 16.8551 14.8115C15.701 15.9657 15.0503 17.5296 15.045 19.1618V19.5961H12.7843C11.1505 19.5961 9.5836 20.2452 8.42833 21.4004C7.27305 22.5557 6.62402 24.1226 6.62402 25.7564C6.62402 27.3902 7.27305 28.9571 8.42833 30.1124C9.5836 31.2676 11.1505 31.9167 12.7843 31.9167H27.3656V19.1223C27.35 17.4969 26.6948 15.9431 25.5417 14.7975C24.3887 13.6519 22.8307 13.0066 21.2053 13.0015Z" fill="white" stroke="#B6B6B6" stroke-width="1.5" stroke-miterlimit="10"/>
</svg>
