<svg width="34" height="34" viewBox="0 0 34 34" fill="none" xmlns="http://www.w3.org/2000/svg">
<g clip-path="url(#clip0_937_12483)">
<path d="M28.6868 17V14.4037C28.6868 11.3123 26.1937 8.80615 23.1183 8.80615H23.1085C20.0331 8.80615 17.54 11.3123 17.54 14.4037V17" stroke="#B6B6B6" stroke-width="1.5" stroke-miterlimit="10"/>
<path d="M13.042 16.5557H33.1749L30.3857 32.5981H15.8606" stroke="#B6B6B6" stroke-width="1.5" stroke-linecap="round" stroke-linejoin="round"/>
<path d="M13 17V2.51853C13 2.11579 12.7893 1.72957 12.4142 1.44479C12.0391 1.16001 11.5304 1 11 1C10.4696 1 9.96086 1.16001 9.58578 1.44479C9.21071 1.72957 9 2.11579 9 2.51853V17" stroke="#B6B6B6" stroke-width="1.5" stroke-miterlimit="10"/>
<path d="M21.1349 32.5982H0.992188L3.8206 23.417H18.3163L21.1349 32.5982Z" stroke="#B6B6B6" stroke-width="1.5" stroke-miterlimit="10"/>
<path d="M3.87012 23.4169C3.87012 19.7741 7.11101 16.8223 11.1081 16.8223C15.1052 16.8223 18.3363 19.7839 18.3363 23.4169H3.87012Z" stroke="#B6B6B6" stroke-width="1.5" stroke-miterlimit="10"/>
<path d="M6.52148 27.7903V32.4697" stroke="#B6B6B6" stroke-width="1.5" stroke-miterlimit="10" stroke-linecap="round"/>
<path d="M11.0684 27.7903V32.4697" stroke="#B6B6B6" stroke-width="1.5" stroke-miterlimit="10" stroke-linecap="round"/>
<path d="M15.6152 27.7903V32.4697" stroke="#B6B6B6" stroke-width="1.5" stroke-miterlimit="10" stroke-linecap="round"/>
</g>
<defs>
<clipPath id="clip0_937_12483">
<rect width="34" height="34" fill="white"/>
</clipPath>
</defs>
</svg>
