<svg width="72" height="73" viewBox="0 0 72 73" fill="none" xmlns="http://www.w3.org/2000/svg">
<g clip-path="url(#clip0_158:11345)">
<path d="M59.5703 65.2602C58.4503 63.2002 55.7803 62.6302 53.6503 62.4002C52.1203 62.2402 50.5703 62.1902 49.0303 62.0902L45.1003 61.8302C45.6536 58.7635 46.2069 55.6935 46.7603 52.6202C46.8191 52.387 46.7853 52.14 46.666 51.9312C46.5467 51.7223 46.3511 51.5679 46.1203 51.5002C45.5403 51.3802 44.9503 51.2802 44.3603 51.1802C44.0586 50.921 43.722 50.7056 43.3603 50.5402C41.3603 49.5402 38.8503 49.7502 36.6903 49.9502C35.1437 50.0976 33.6119 50.3719 32.1103 50.7702C31.5603 50.7702 31.0203 50.8802 30.4703 50.9502C30.2861 50.9635 30.1092 51.0275 29.9591 51.1351C29.8091 51.2428 29.6918 51.3899 29.6203 51.5602C28.58 51.8281 27.6196 52.3426 26.8202 53.0602C26.4774 53.5253 26.2713 54.0771 26.2254 54.6531C26.1795 55.2291 26.2955 55.8066 26.5603 56.3202C27.3186 58.4229 28.2484 60.4597 29.3403 62.4102C26.9103 62.6802 24.4802 62.9202 22.0702 63.2802C20.0702 63.5702 17.7303 64.4302 17.3903 66.6602C17.3157 67.2803 17.3963 67.9093 17.625 68.4905C17.8537 69.0718 18.2231 69.5871 18.7003 69.9902C19.7362 70.8265 21.0105 71.3131 22.3403 71.3802C23.7403 71.5302 25.1603 71.4902 26.5603 71.5202L31.0702 71.6202L49.0702 72.0402C50.5103 72.0402 51.9503 72.1502 53.3903 72.1002C54.778 72.1181 56.1498 71.8026 57.3903 71.1802C59.4803 70.0402 60.7803 67.4802 59.5703 65.2602Z" fill="#4E439E"/>
<path d="M71.5601 52.6702C71.6576 52.5896 71.7341 52.4865 71.7829 52.3697C71.8316 52.253 71.8513 52.1262 71.8401 52.0002L71.2101 28.4302L70.6301 4.98016C70.6301 3.98016 70.6301 2.98016 70.5501 1.98016C70.5861 1.55434 70.5351 1.12563 70.4001 0.720153C70.2869 0.481698 70.1063 0.281676 69.8805 0.14482C69.6548 0.00796416 69.3939 -0.0597096 69.1301 -0.0498363C68.1901 -0.0498363 67.2301 0.0601619 66.2901 0.120162L63.2901 0.300155L51.5501 1.02016L28.2101 2.50017L4.71013 3.93016L1.82012 4.11015C1.61827 4.11573 1.42433 4.18979 1.27013 4.32016C1.12399 4.39005 0.999984 4.49892 0.911761 4.63478C0.823539 4.77064 0.774525 4.92823 0.770129 5.09016C0.416796 11.5302 0.190137 17.9702 0.0901367 24.4102C-0.00986328 30.8502 -0.00986328 37.3268 0.0901367 43.8402C0.160137 47.4402 0.270123 51.0502 0.420123 54.6502C0.321626 54.7224 0.238334 54.8133 0.174976 54.9177C0.111617 55.0221 0.0694326 55.138 0.0508606 55.2587C0.0322886 55.3795 0.0376878 55.5026 0.0667297 55.6213C0.0957717 55.7399 0.147908 55.8517 0.220142 55.9502C0.304563 56.0581 0.410243 56.1475 0.530658 56.2129C0.651073 56.2782 0.783636 56.3181 0.920123 56.3302C10.6001 56.5702 20.2901 56.5902 29.9801 56.4702C39.6701 56.3502 49.3501 56.1102 59.0401 55.8402L67.1801 55.6002C68.2646 55.6628 69.3496 55.4887 70.3601 55.0902C70.8196 54.9122 71.1971 54.5708 71.4204 54.1316C71.6437 53.6924 71.697 53.1862 71.5701 52.7102L71.5601 52.6702Z" fill="#8A87E2"/>
<path d="M63.4303 17.2703C63.2903 14.2703 63.1603 11.3704 63.0203 8.42035C63.0164 8.30083 62.989 8.18324 62.9396 8.07431C62.8903 7.96538 62.82 7.86724 62.7327 7.78551C62.6454 7.70378 62.5428 7.64006 62.4309 7.59799C62.3189 7.55593 62.1998 7.53634 62.0803 7.54035C61.9976 7.44269 61.8927 7.3663 61.7744 7.31758C61.656 7.26886 61.5277 7.24923 61.4003 7.26035L40.6603 8.26035L19.8303 9.26035L8.15027 9.79035C7.97826 9.7962 7.81174 9.85237 7.67133 9.95191C7.53091 10.0514 7.42275 10.19 7.36026 10.3503C7.14715 10.3851 6.95275 10.4929 6.81043 10.6553C6.66811 10.8177 6.58674 11.0245 6.58026 11.2403C5.70693 21.3337 5.29026 31.4503 5.33026 41.5903C5.33026 44.4503 5.39026 47.3003 5.48026 50.1603C5.48789 50.2839 5.51985 50.4047 5.57428 50.5158C5.62872 50.627 5.70458 50.7263 5.79749 50.808C5.8904 50.8898 5.99856 50.9524 6.11573 50.9923C6.2329 51.0321 6.35676 51.0485 6.48026 51.0403C6.65296 51.0294 6.8192 50.9706 6.96027 50.8703L28.6203 50.7003L50.6203 50.5203L63.0403 50.4203C63.5717 49.8426 64.1973 49.3591 64.8903 48.9903C64.9004 48.914 64.9004 48.8367 64.8903 48.7603L63.4303 17.2703Z" fill="#4E439E"/>
<path d="M27.5402 33.59C29.5272 35.3591 32.0949 36.3365 34.7553 36.3365C37.4156 36.3365 39.9833 35.3591 41.9703 33.59C43.0403 32.67 41.4902 31.13 40.4303 32.05C38.8443 33.3888 36.8357 34.1232 34.7602 34.1232C32.6847 34.1232 30.6762 33.3888 29.0903 32.05C28.0203 31.15 26.4702 32.68 27.5402 33.6V33.59Z" fill="#8A87E2"/>
<path d="M25.3199 22.3302V26.1302C25.3032 26.3314 25.3285 26.5339 25.394 26.7249C25.4596 26.9159 25.564 27.0912 25.7007 27.2397C25.8375 27.3883 26.0035 27.5069 26.1884 27.588C26.3733 27.6691 26.5731 27.711 26.775 27.711C26.9769 27.711 27.1766 27.6691 27.3615 27.588C27.5464 27.5069 27.7124 27.3883 27.8492 27.2397C27.9859 27.0912 28.0903 26.9159 28.1559 26.7249C28.2214 26.5339 28.2466 26.3314 28.2299 26.1302V22.3302C28.2466 22.129 28.2214 21.9265 28.1559 21.7356C28.0903 21.5446 27.9859 21.3693 27.8492 21.2207C27.7124 21.0722 27.5464 20.9536 27.3615 20.8725C27.1766 20.7914 26.9769 20.7495 26.775 20.7495C26.5731 20.7495 26.3733 20.7914 26.1884 20.8725C26.0035 20.9536 25.8375 21.0722 25.7007 21.2207C25.564 21.3693 25.4596 21.5446 25.394 21.7356C25.3285 21.9265 25.3032 22.129 25.3199 22.3302Z" fill="white"/>
<path d="M40.9601 21.9901V25.7901C40.9434 25.9914 40.9686 26.1938 41.0341 26.3848C41.0997 26.5758 41.2041 26.7511 41.3409 26.8996C41.4776 27.0482 41.6437 27.1668 41.8286 27.2479C42.0135 27.329 42.2132 27.3709 42.4151 27.3709C42.617 27.3709 42.8167 27.329 43.0016 27.2479C43.1865 27.1668 43.3525 27.0482 43.4893 26.8996C43.626 26.7511 43.7305 26.5758 43.796 26.3848C43.8616 26.1938 43.8868 25.9914 43.8701 25.7901V21.9901C43.8398 21.6251 43.6734 21.2848 43.4039 21.0367C43.1343 20.7886 42.7814 20.6509 42.4151 20.6509C42.0487 20.6509 41.6958 20.7886 41.4263 21.0367C41.1568 21.2848 40.9904 21.6251 40.9601 21.9901Z" fill="white"/>
<path d="M59.05 34.3699C56.6844 33.4668 54.2095 32.8817 51.69 32.6299C50.99 32.5499 50.29 32.4999 49.58 32.4699C48.8777 32.415 48.1722 32.415 47.47 32.4699C47.3077 32.4862 47.1503 32.5343 47.0066 32.6115C46.863 32.6886 46.736 32.7934 46.6329 32.9197C46.5298 33.046 46.4526 33.1915 46.4058 33.3477C46.3589 33.5038 46.3434 33.6677 46.36 33.8299C46.3675 33.9083 46.3843 33.9855 46.41 34.0599C46.4635 34.2855 46.5584 34.4991 46.69 34.6899C46.6992 34.7594 46.7195 34.8269 46.75 34.8899C46.86 35.1699 46.98 35.4499 47.1 35.7399C47.1 35.7399 47.1 35.7399 47.1 35.7899C48.4577 39.0127 50.0694 42.1225 51.9199 45.0899C52.0089 45.2529 52.1582 45.3745 52.3358 45.4287C52.5134 45.4829 52.7051 45.4654 52.87 45.3799C53.9381 44.6401 54.8518 43.6993 55.56 42.6099C56.56 43.2299 57.51 43.8499 58.5 44.4499C58.908 44.7745 59.3883 44.9958 59.9001 45.095C60.412 45.1942 60.9402 45.1685 61.44 45.0199C61.9363 44.7446 62.3077 44.2888 62.4771 43.747C62.6466 43.2052 62.601 42.619 62.35 42.1099C61.86 40.9399 60.58 40.2499 59.59 39.5599L58.81 39.0199L58.4199 38.7499C58.3399 38.6999 58.23 38.5999 58.12 38.5199L58.33 38.2399L58.99 37.4399C59.39 36.9499 60.04 36.3899 60.11 35.7299C60.18 35.0699 59.66 34.6099 59.05 34.3699ZM47.65 33.8599C47.65 33.8599 47.6 33.8599 47.65 33.8599V33.8599ZM58 38.6999C58 38.6999 58 38.6299 58.06 38.6099C58.06 38.6099 58.06 38.6799 57.99 38.7099L58 38.6999Z" fill="#F7D651"/>
<path d="M22.0901 14.2001C21.9801 16.5101 24.4401 17.7301 26.4201 17.8801C27.4973 17.9403 28.5747 17.7658 29.5779 17.3687C30.581 16.9716 31.4859 16.3613 32.2301 15.5801L30.7201 15.1801C31.0126 16.1527 31.5825 17.0188 32.3599 17.6724C33.1374 18.3259 34.0886 18.7385 35.097 18.8595C36.1054 18.9805 37.1272 18.8047 38.0371 18.3537C38.9471 17.9026 39.7058 17.1959 40.2201 16.3201H38.6501C39.0234 16.9401 39.5665 17.4402 40.215 17.7613C40.8636 18.0825 41.5905 18.2112 42.3099 18.1323C43.0293 18.0534 43.7111 17.7702 44.2746 17.3162C44.8382 16.8622 45.2599 16.2562 45.4901 15.5701C45.5219 15.4559 45.5309 15.3364 45.5164 15.2187C45.502 15.101 45.4644 14.9873 45.4059 14.8841C45.3473 14.781 45.269 14.6904 45.1753 14.6176C45.0816 14.5449 44.9745 14.4913 44.8601 14.4601C44.628 14.3955 44.3798 14.4255 44.1699 14.5436C43.9599 14.6617 43.8054 14.8582 43.7401 15.0901C43.6028 15.4289 43.3753 15.7236 43.0823 15.9423C42.7893 16.1609 42.442 16.295 42.0781 16.33C41.7142 16.3651 41.3477 16.2997 41.0184 16.1411C40.689 15.9824 40.4095 15.7365 40.2101 15.4301C40.0819 15.2244 39.8784 15.0769 39.6431 15.019C39.4077 14.9611 39.1591 14.9974 38.9501 15.1201C38.8251 15.1992 38.7192 15.3051 38.6401 15.4301C38.3108 16.0058 37.82 16.4722 37.2282 16.7717C36.6365 17.0712 35.97 17.1905 35.3111 17.1149C34.6523 17.0393 34.03 16.7722 33.5215 16.3465C33.0129 15.9208 32.6404 15.3554 32.4501 14.7201C32.3805 14.4893 32.2231 14.2951 32.0118 14.1791C31.8005 14.0632 31.5521 14.0348 31.3201 14.1001C31.1763 14.1389 31.0453 14.2148 30.9401 14.3201C30.4129 14.8844 29.7748 15.3338 29.0658 15.6401C28.3569 15.9464 27.5923 16.103 26.8201 16.1001C25.7101 16.1001 23.8201 15.6101 23.8901 14.2201C23.9501 13.0601 22.1401 13.0601 22.0801 14.2201L22.0901 14.2001Z" fill="#8A87E2"/>
</g>
<defs>
<clipPath id="clip0_158:11345">
<rect width="71.85" height="72.12" fill="white"/>
</clipPath>
</defs>
</svg>
