<svg width="34" height="34" viewBox="0 0 34 34" fill="none" xmlns="http://www.w3.org/2000/svg">
<g clip-path="url(#clip0_937_12468)">
<path d="M25.4206 13.7437H8.58846C5.86232 13.7437 3.65234 15.946 3.65234 18.6626V28.353C3.65234 31.0697 5.86232 33.272 8.58846 33.272H25.4206C28.1468 33.272 30.3568 31.0697 30.3568 28.353V18.6626C30.3568 15.946 28.1468 13.7437 25.4206 13.7437Z" stroke="#B6B6B6" stroke-width="1.5" stroke-miterlimit="10"/>
<path d="M0.908203 19.8135H33.0917" stroke="#B6B6B6" stroke-width="1.5" stroke-miterlimit="10"/>
<path d="M14.4727 12.8976V11.9138C14.4727 11.2458 14.7389 10.6052 15.2129 10.1329C15.6869 9.66062 16.3297 9.39526 16.9999 9.39526C17.6702 9.39526 18.3131 9.66062 18.787 10.1329C19.261 10.6052 19.5273 11.2458 19.5273 11.9138V12.8976" stroke="#B6B6B6" stroke-width="1.5" stroke-miterlimit="10"/>
<path d="M11.0962 0.609863C11.5636 1.0177 11.8499 1.5934 11.8924 2.21102C11.935 2.82865 11.7303 3.43792 11.3233 3.90559L11.0962 4.13187C9.25999 6.0306 11.6491 7.49644 11.6491 7.49644" stroke="#B6B6B6" stroke-width="1.5" stroke-miterlimit="10"/>
<path d="M16.6939 0.609863C16.9264 0.811082 17.1169 1.05609 17.2542 1.33081C17.3915 1.60552 17.4731 1.90456 17.4942 2.21075C17.5152 2.51695 17.4755 2.82427 17.3771 3.11511C17.2787 3.40595 17.1237 3.67458 16.9209 3.90559L16.6939 4.13187C14.8576 6.0306 17.2467 7.49644 17.2467 7.49644" stroke="#B6B6B6" stroke-width="1.5" stroke-miterlimit="10"/>
<path d="M22.3013 0.609863C22.5332 0.811765 22.7227 1.05727 22.8592 1.33234C22.9956 1.6074 23.0763 1.90662 23.0964 2.2128C23.1166 2.51897 23.0759 2.8261 22.9768 3.11658C22.8776 3.40707 22.7219 3.6752 22.5185 3.90559C22.4512 3.98574 22.3787 4.06134 22.3013 4.13187C20.4651 6.0306 22.8541 7.49644 22.8541 7.49644" stroke="#B6B6B6" stroke-width="1.5" stroke-miterlimit="10"/>
</g>
<defs>
<clipPath id="clip0_937_12468">
<rect width="34" height="34" fill="white"/>
</clipPath>
</defs>
</svg>
