<svg width="34" height="28" viewBox="0 0 34 28" fill="none" xmlns="http://www.w3.org/2000/svg">
<g clip-path="url(#clip0_159_7436)">
<path d="M23.688 0.01347C26.6566 -0.142465 29.6672 1.17025 31.5691 3.45016C33.471 5.73007 34.2191 8.92249 33.5271 11.8074C32.8828 14.4945 31.1191 16.7617 29.3082 18.8523C26.0318 22.6344 22.281 24.9985 18.788 27.2582C18.3942 27.5133 17.8101 27.9253 17.3435 27.979C16.6732 28.0562 16.2782 27.9407 15.7306 27.5474C11.565 24.5552 8.05603 21.6646 4.61718 17.604C3.42254 16.1936 2.23041 14.7625 1.34293 13.1418C0.455459 11.5212 -0.117761 9.68125 0.0205427 7.83959C0.284234 4.33169 3.28974 1.33498 6.7549 0.692383C8.47929 0.372497 10.273 0.594138 11.9041 1.2185C13.6471 1.88563 14.8249 3.00515 16.213 4.17214C16.6211 3.65152 16.8018 3.29108 17.6762 2.55982C18.2563 2.07457 18.853 1.60567 19.5134 1.23658C20.7893 0.523716 22.2257 0.0901797 23.688 0.01347Z" fill="#1A4A9D"/>
<path d="M8.66465 8.13064C8.42647 8.20923 7.97266 8.30355 7.97266 9.02239L7.98604 9.49711C7.98604 9.50701 7.98699 9.51676 7.98699 9.5265L8.11301 12.5267C8.11301 12.6164 8.1412 12.7133 8.19917 12.8228C8.20782 12.8417 8.2176 12.8601 8.22847 12.8778C8.46633 13.191 9.37397 13.1528 9.54362 13.1427C9.56095 13.1418 9.57812 13.1399 9.59513 13.1374C9.83141 13.1018 10.0677 13.0671 10.2944 13.0135C10.532 12.9574 10.7642 12.8807 10.9884 12.7843C11.2217 12.684 11.4372 12.5467 11.6267 12.3778C12.0059 12.0294 12.2693 11.5736 12.3815 11.0716C12.4938 10.5696 12.4495 10.0453 12.2546 9.5691C12.1302 9.26446 11.9441 8.98879 11.7078 8.7594C11.4704 8.52865 11.1754 8.34316 10.831 8.20782C10.4867 8.07247 10.0949 8.00488 9.66428 8.00488C9.47782 8.00731 9.29167 8.0208 9.10681 8.04528C8.95634 8.05449 8.80771 8.08319 8.66465 8.13064Z" fill="white"/>
<path d="M13.4918 8.19537C13.4069 8.22256 13.3273 8.28418 13.2619 8.36199C13.1527 8.49307 13.0938 8.65869 13.0958 8.82917L13.0983 9.26302V12.3125C13.0901 12.4633 13.1353 12.7294 13.4982 12.9173C13.5182 12.9276 13.5393 12.9355 13.5612 12.9408C13.9172 13.0256 14.3073 13.0685 14.7207 13.0685C14.9912 13.0686 15.2614 13.0516 15.5298 13.0175C15.7961 12.9836 15.8705 12.9886 16.105 12.9256C16.123 12.9207 16.2864 12.8784 16.3366 12.8517C16.4673 12.7824 16.5678 12.7072 16.6373 12.6128C16.718 12.5043 16.7588 12.3886 16.7588 12.2695C16.7588 12.1437 16.7314 12.0139 16.5666 11.8881C16.4284 11.7828 16.2106 11.7801 15.9964 11.7924C15.9337 11.7965 15.8714 11.8044 15.8097 11.8161C15.6207 11.8476 15.5474 11.8683 15.3474 11.8947C15.0561 11.9324 14.7414 11.945 14.4679 11.9235C14.4598 11.923 14.4522 11.9195 14.4466 11.9137C14.441 11.9078 14.4377 11.9001 14.4375 11.892V11.1135C14.4378 11.105 14.4414 11.0969 14.4476 11.091C14.4538 11.0851 14.4621 11.0819 14.4706 11.082C14.7023 11.082 14.9334 11.0751 15.1585 11.0632C15.3967 11.0506 15.6377 11.0317 15.8746 11.0064C15.8833 11.0055 15.8918 11.0042 15.9003 11.0025C16.0797 10.9663 16.2534 10.9454 16.3522 10.8354C16.4585 10.7172 16.4842 10.6073 16.4842 10.4581C16.4842 10.337 16.4677 10.2695 16.3193 10.128C16.1903 10.005 15.936 10.0059 15.7084 10.021C15.4965 10.0405 15.2847 10.0554 15.0783 10.0652C14.8775 10.0749 14.6688 10.0774 14.4709 10.0796C14.4623 10.0799 14.4539 10.0767 14.4476 10.0708C14.4413 10.0649 14.4377 10.0568 14.4374 10.0482V9.22199C14.4376 9.21394 14.4408 9.20628 14.4464 9.20047C14.452 9.19466 14.4596 9.19113 14.4676 9.19055C14.5779 9.18081 14.6869 9.17483 14.7951 9.172C15.1226 9.16414 15.4666 9.16776 15.7993 9.16068C15.9214 9.15817 16.0369 9.15434 16.1458 9.14921C16.1594 9.1486 16.173 9.14698 16.1863 9.14434C16.3719 9.10803 16.5343 9.06574 16.6367 8.95712C16.7784 8.80732 16.7907 8.69854 16.7907 8.59417C16.7907 8.47454 16.7778 8.2834 16.5667 8.13171C16.4313 8.03409 16.3018 7.99747 16.1136 7.99023H16.0249C15.9152 7.99526 15.8042 7.99893 15.6917 8.00124C15.2599 8.01083 14.8096 8.00768 14.3744 8.03173C14.0384 8.05044 13.8073 8.10561 13.4913 8.19553L13.4918 8.19537Z" fill="white"/>
<path d="M22.4453 9.24954V12.1733C22.4453 12.186 22.4462 12.1988 22.448 12.2114C22.4795 12.4336 22.5958 12.5592 22.6873 12.6251C22.927 12.798 23.2411 12.7956 23.4857 12.6235C23.5881 12.5514 23.7121 12.4119 23.722 12.157C23.722 12.1534 23.722 12.1496 23.722 12.1458V11.4699C23.7224 11.4333 23.7364 11.3981 23.7615 11.3714C23.7865 11.3446 23.8206 11.3282 23.8572 11.3253C23.8925 11.322 23.9277 11.3183 23.9629 11.3141C23.9856 11.3106 24.0089 11.3124 24.0308 11.3192C24.0528 11.326 24.0729 11.3378 24.0897 11.3536C24.1239 11.3883 24.1634 11.4281 24.2078 11.4722C24.34 11.6039 24.4834 11.7445 24.638 11.8941C24.79 12.0409 24.9297 12.1791 25.0573 12.3088C25.1822 12.4355 25.2662 12.5226 25.3176 12.5792C25.3909 12.6551 25.4827 12.7107 25.5841 12.7406C25.6617 12.7632 25.7421 12.7748 25.8229 12.775C25.9701 12.7777 26.1138 12.7303 26.2304 12.6406C26.2949 12.5915 26.3471 12.5279 26.3826 12.4551C26.4182 12.3823 26.4362 12.3021 26.4352 12.2211C26.4352 12.0942 26.3846 11.9687 26.2802 11.8372C26.2739 11.8293 26.2672 11.8218 26.26 11.8148L25.4584 11.009C25.4445 10.9954 25.4338 10.979 25.4269 10.9609C25.42 10.9428 25.4172 10.9235 25.4185 10.9041C25.4209 10.8788 25.4287 10.8543 25.4413 10.8322C25.454 10.8101 25.4712 10.7909 25.4919 10.776C25.6345 10.665 25.7621 10.5359 25.8716 10.3922C25.9775 10.2524 26.0619 10.0976 26.122 9.93285C26.1816 9.76822 26.2122 9.59451 26.2123 9.41946C26.2112 9.19216 26.1547 8.96854 26.0477 8.7679C25.939 8.55962 25.7611 8.36643 25.5237 8.19714C25.3292 8.0517 25.1085 7.94496 24.8735 7.88275C24.3816 7.75212 23.7946 7.76423 23.257 7.91781C23.1609 7.94537 23.0672 7.97628 22.9757 8.01055C22.8237 8.06719 22.6924 8.16823 22.5989 8.30047C22.5053 8.43271 22.4539 8.59002 22.4513 8.75187L22.4453 9.24954ZM24.9508 9.40673C24.9495 9.46632 24.9364 9.52507 24.9124 9.57964C24.8829 9.64969 24.8425 9.71467 24.7927 9.7722C24.7357 9.83856 24.6712 9.89811 24.6005 9.94967C24.5325 9.99917 24.4563 10.0364 24.3754 10.0597C24.2314 10.1142 24.0809 10.15 23.9277 10.1663C23.9024 10.1688 23.8767 10.166 23.8525 10.158C23.8282 10.15 23.806 10.137 23.7871 10.1199C23.7668 10.1019 23.7506 10.0798 23.7395 10.0551C23.7285 10.0303 23.7228 10.0035 23.723 9.9764V9.09188C23.7235 9.0553 23.7373 9.02017 23.762 8.99308C23.7866 8.96599 23.8203 8.9488 23.8567 8.94474C23.9444 8.93274 24.0328 8.92675 24.1213 8.92682C24.2379 8.92657 24.3541 8.93917 24.4679 8.96439C24.5666 8.98638 24.6603 9.02686 24.7439 9.0837L24.7481 9.08653C24.8269 9.13699 24.882 9.19028 24.9089 9.24026C24.9368 9.29151 24.9512 9.34893 24.9508 9.4072V9.40673Z" fill="white"/>
<path d="M12.2538 16.0088C11.2457 16.3075 11.9269 14.8403 10.3746 15.4925C9.29886 15.9409 8.52275 18.1423 10.6061 17.8433C11.0283 17.7754 11.423 17.5715 11.8452 17.4901C12.2051 17.4226 12.3704 17.6622 12.4143 17.9241C12.4502 18.1379 12.1465 18.5057 11.7212 18.6943C10.7446 19.0402 9.81521 19.1345 8.91734 18.71C8.09823 18.3013 7.99159 17.4357 8.01947 17.096C8.27827 13.9977 12.3225 13.1688 12.7451 15.4381C12.8121 15.7643 12.458 15.9545 12.2538 16.0088Z" fill="white"/>
<path d="M21.2526 10.3228C21.23 10.2782 21.2115 10.2314 21.1896 10.1855C21.1376 10.0728 21.0883 9.97073 21.0404 9.87768C20.9695 9.74218 20.8935 9.5996 20.8125 9.44996C20.7296 9.29701 20.6392 9.14296 20.5428 8.99206C20.4449 8.83804 20.3393 8.68905 20.2265 8.54563C20.1093 8.39704 19.979 8.25921 19.8372 8.13379C19.663 7.9887 19.4456 7.9461 19.2251 8.01385C19.2215 8.01511 19.2179 8.01621 19.2142 8.01762C19.0813 8.07484 18.9413 8.13693 18.8003 8.35543C18.7991 8.35762 18.7981 8.35994 18.7974 8.36234C18.4578 8.96024 18.1675 9.58473 17.9293 10.2296C17.6935 10.8747 17.4941 11.5325 17.3322 12.1999C17.2802 12.4157 17.3322 12.613 17.4762 12.7549C17.6986 12.974 18.0432 13.0129 18.3057 12.8275C18.4133 12.751 18.498 12.6358 18.5577 12.4852C18.5633 12.4709 18.5678 12.4562 18.5711 12.4412C18.6144 12.2456 18.662 12.0598 18.7129 11.8889C18.7451 11.7796 18.7788 11.6673 18.814 11.5518C18.8168 11.5427 18.8225 11.5348 18.8301 11.5291C18.8378 11.5235 18.847 11.5204 18.8565 11.5203C19.1067 11.5196 19.3552 11.5174 19.6022 11.5139C19.8449 11.5102 20.0876 11.508 20.3303 11.5073C20.3395 11.5073 20.3485 11.5101 20.356 11.5154C20.3635 11.5208 20.3692 11.5283 20.3722 11.537C20.4171 11.6667 20.4563 11.7949 20.4895 11.9204C20.5376 12.1029 20.5735 12.2883 20.597 12.4756C20.6041 12.5225 20.6186 12.5681 20.6401 12.6105C20.6993 12.7208 20.7891 12.8117 20.8988 12.8723C21.0014 12.9298 21.1169 12.9603 21.2346 12.9608C21.388 12.9627 21.5368 12.909 21.6535 12.8096C21.7755 12.7054 21.8459 12.5581 21.8628 12.3712C21.8646 12.3494 21.864 12.3275 21.8609 12.3058C21.823 12.0223 21.7647 11.7418 21.6865 11.4666C21.6865 11.4666 21.4079 10.63 21.2526 10.3228ZM20.1685 10.4612C20.1987 10.5259 20.157 10.6011 20.0871 10.6026C19.9244 10.6046 19.7641 10.6073 19.6062 10.6107C19.4276 10.6144 19.246 10.6174 19.0611 10.6196C19.0454 10.6194 19.0299 10.6154 19.016 10.6078C19.0021 10.6003 18.9903 10.5895 18.9816 10.5764C18.9728 10.5633 18.9674 10.5483 18.9658 10.5326C18.9642 10.5169 18.9664 10.5011 18.9723 10.4865C19.0619 10.2574 19.1528 10.0305 19.245 9.80568C19.314 9.63764 19.3395 9.55559 19.4064 9.44493C19.4283 9.40909 19.5324 9.33489 19.6112 9.46064C19.6112 9.46002 19.8355 9.75129 20.1685 10.4612Z" fill="white"/>
<path d="M11.0426 10.0931L9.18493 10.1413C8.95012 10.1474 8.76472 10.3423 8.77082 10.5766L8.77309 10.6635C8.7792 10.8978 8.9745 11.0829 9.20931 11.0768L11.067 11.0285C11.3018 11.0224 11.4872 10.8276 11.4811 10.5932L11.4788 10.5063C11.4727 10.272 11.2774 10.087 11.0426 10.0931Z" fill="#1A4A9D"/>
<path d="M10.618 11.4968L10.5697 9.64302C10.5635 9.4087 10.3682 9.22369 10.1334 9.22979L10.0463 9.23205C9.81154 9.23814 9.62614 9.43304 9.63224 9.66736L9.68056 11.5211C9.68667 11.7554 9.88198 11.9405 10.1168 11.9344L10.2039 11.9321C10.4387 11.926 10.6241 11.7311 10.618 11.4968Z" fill="#1A4A9D"/>
<path d="M17.0309 16.4537C17.0083 16.4091 16.9898 16.3622 16.9679 16.3163C16.9159 16.2036 16.8666 16.1016 16.8187 16.0085C16.7478 15.873 16.6718 15.7305 16.5908 15.5808C16.5079 15.4279 16.4175 15.2738 16.3211 15.1229C16.2229 14.9689 16.117 14.8199 16.0038 14.6765C15.8866 14.5279 15.7564 14.3901 15.6146 14.2646C15.4404 14.1196 15.223 14.077 15.0025 14.1447L14.9916 14.1485C14.8586 14.2057 14.7186 14.2678 14.5776 14.4863C14.5764 14.4885 14.5755 14.4908 14.5748 14.4932C14.2351 15.0911 13.9448 15.7156 13.7067 16.3605C13.4708 17.0056 13.2714 17.6633 13.1095 18.3307C13.0575 18.5466 13.1095 18.7439 13.2535 18.8858C13.4759 19.1049 13.8206 19.1437 14.083 18.9584C14.1906 18.8819 14.2753 18.7666 14.335 18.6161C14.3407 18.6018 14.3451 18.587 14.3484 18.572C14.3918 18.3765 14.4393 18.1907 14.4902 18.0198C14.5224 17.9106 14.5562 17.7982 14.5913 17.6826C14.5942 17.6736 14.5998 17.6657 14.6075 17.66C14.6151 17.6544 14.6244 17.6513 14.6339 17.6512C14.884 17.6505 15.1326 17.6483 15.3796 17.6448C15.6223 17.6411 15.8649 17.6389 16.1076 17.6382C16.1168 17.6381 16.1258 17.641 16.1333 17.6463C16.1409 17.6516 16.1465 17.6592 16.1495 17.6679C16.1944 17.7975 16.2336 17.9258 16.2669 18.0513C16.315 18.2337 16.3509 18.4192 16.3743 18.6065C16.3814 18.6534 16.396 18.699 16.4175 18.7413C16.4766 18.8516 16.5665 18.9426 16.6761 19.0032C16.7787 19.0607 16.8943 19.0911 17.012 19.0917C17.1653 19.0936 17.3141 19.0398 17.4308 18.9405C17.5529 18.8363 17.6233 18.689 17.6402 18.5021C17.642 18.4803 17.6413 18.4584 17.6383 18.4367C17.6004 18.1531 17.5421 17.8727 17.4639 17.5974C17.4639 17.5974 17.1862 16.7609 17.0309 16.4537ZM15.9468 16.592C15.9771 16.6568 15.9353 16.7319 15.8654 16.7335C15.7027 16.7355 15.5424 16.7382 15.3845 16.7415C15.2059 16.7453 15.0243 16.7483 14.8394 16.7505C14.8236 16.7503 14.8082 16.7462 14.7943 16.7387C14.7804 16.7312 14.7686 16.7204 14.7599 16.7073C14.7511 16.6942 14.7457 16.6791 14.7441 16.6635C14.7425 16.6478 14.7447 16.632 14.7506 16.6173C14.8402 16.3883 14.9311 16.1613 15.0233 15.9365C15.0923 15.7685 15.1178 15.6865 15.1847 15.575C15.2066 15.5392 15.3107 15.465 15.3895 15.5907C15.3895 15.5909 15.6138 15.8822 15.9468 16.592Z" fill="white"/>
<path d="M18.2383 15.4751V18.3989C18.2383 18.4116 18.2392 18.4243 18.241 18.4369C18.2725 18.6592 18.3887 18.7848 18.4802 18.8507C18.72 19.0236 19.0341 19.0212 19.2787 18.8491C19.3811 18.7769 19.5051 18.6375 19.515 18.3825C19.515 18.3789 19.515 18.3752 19.515 18.3714V17.6955C19.5154 17.6589 19.5294 17.6237 19.5544 17.597C19.5795 17.5702 19.6136 17.5537 19.6502 17.5508C19.6854 17.5475 19.7207 17.5438 19.7559 17.5397C19.7786 17.5362 19.8019 17.538 19.8238 17.5448C19.8458 17.5516 19.8659 17.5634 19.8827 17.5791C19.9168 17.6139 19.9564 17.6536 20.0008 17.6978C20.133 17.8294 20.2764 17.9701 20.431 18.1197C20.583 18.2664 20.7227 18.4047 20.8503 18.5344C20.9752 18.6611 21.0592 18.7482 21.1105 18.8048C21.1839 18.8807 21.2757 18.9363 21.3771 18.9662C21.4547 18.9888 21.5351 19.0004 21.6159 19.0006C21.7631 19.0033 21.9068 18.9559 22.0234 18.8662C22.0879 18.8171 22.1401 18.7535 22.1756 18.6807C22.2112 18.6078 22.2292 18.5277 22.2282 18.4467C22.2282 18.3198 22.1776 18.1942 22.0732 18.0628C22.0669 18.0549 22.0602 18.0474 22.053 18.0403L21.2514 17.2346C21.2375 17.221 21.2268 17.2046 21.2199 17.1865C21.213 17.1684 21.2102 17.149 21.2115 17.1297C21.2139 17.1044 21.2217 17.0798 21.2343 17.0577C21.247 17.0356 21.2642 17.0165 21.2849 17.0016C21.4275 16.8905 21.5551 16.7615 21.6646 16.6178C21.7705 16.478 21.8549 16.3231 21.915 16.1584C21.9746 15.9938 22.0052 15.8201 22.0053 15.645C22.0042 15.4177 21.9477 15.1941 21.8407 14.9935C21.732 14.7852 21.5541 14.592 21.3167 14.4227C21.1222 14.2773 20.9014 14.1705 20.6665 14.1083C20.1746 13.9777 19.5876 13.9898 19.05 14.1434C18.9539 14.171 18.8601 14.2019 18.7687 14.2361C18.6167 14.2928 18.4854 14.3938 18.3918 14.5261C18.2983 14.6583 18.2469 14.8156 18.2443 14.9775L18.2383 15.4751ZM20.7438 15.6323C20.7425 15.6919 20.7294 15.7507 20.7054 15.8052C20.6758 15.8753 20.6354 15.9403 20.5857 15.9978C20.5287 16.0641 20.4642 16.1237 20.3935 16.1753C20.3255 16.2248 20.2493 16.262 20.1684 16.2853C20.0244 16.3398 19.8739 16.3756 19.7207 16.3919C19.6953 16.3943 19.6696 16.3914 19.6454 16.3832C19.6211 16.3751 19.5989 16.362 19.5801 16.3447C19.5598 16.3267 19.5436 16.3046 19.5325 16.2798C19.5214 16.2551 19.5158 16.2283 19.5159 16.2012V15.3164C19.5165 15.2798 19.5303 15.2447 19.5549 15.2176C19.5796 15.1905 19.6133 15.1733 19.6497 15.1692C19.7374 15.1572 19.8258 15.1512 19.9143 15.1513C20.0309 15.151 20.1471 15.1636 20.2609 15.1889C20.3596 15.2109 20.4533 15.2513 20.5369 15.3082L20.5411 15.311C20.6199 15.3615 20.675 15.4148 20.7019 15.4647C20.7299 15.5163 20.7443 15.5741 20.7438 15.6328V15.6323Z" fill="white"/>
<path d="M23.1558 14.1754C23.0709 14.2024 22.9912 14.2642 22.926 14.342C22.8167 14.4731 22.7578 14.6387 22.7598 14.8092L22.7623 15.2431V18.2926C22.7541 18.4433 22.7992 18.7095 23.1621 18.8973C23.1821 18.9076 23.2033 18.9155 23.2251 18.9209C23.581 19.0056 23.9712 19.0485 24.3846 19.0485C24.6551 19.0486 24.9254 19.0316 25.1937 18.9976C25.46 18.9636 25.5344 18.9687 25.7689 18.9056C25.7869 18.9008 25.9503 18.8585 26.0005 18.8318C26.1313 18.7624 26.2317 18.6873 26.3012 18.5927C26.3819 18.4844 26.4227 18.3687 26.4227 18.2495C26.4227 18.1238 26.3953 17.9939 26.2305 17.8682C26.0923 17.7628 25.8743 17.7602 25.6603 17.7724C25.5976 17.7765 25.5353 17.7845 25.4736 17.7962C25.2846 17.8276 25.2113 17.8484 25.0113 17.8748C24.7198 17.9136 24.4251 17.9233 24.1317 17.9035C24.1236 17.903 24.116 17.8995 24.1104 17.8937C24.1048 17.8879 24.1015 17.8802 24.1013 17.8721V17.0943C24.1015 17.0857 24.1051 17.0776 24.1114 17.0717C24.1176 17.0658 24.1259 17.0627 24.1345 17.0629C24.3662 17.0629 24.5973 17.056 24.8224 17.044C25.0604 17.0313 25.3016 17.0126 25.5385 16.9873C25.5472 16.9863 25.5557 16.9849 25.5642 16.9833C25.7436 16.9472 25.9172 16.9263 26.0161 16.8162C26.1224 16.698 26.1479 16.5881 26.1479 16.439C26.1479 16.3178 26.1322 16.2503 25.9832 16.1089C25.8542 15.9858 25.5998 15.9867 25.3723 16.0018C25.1603 16.0213 24.9484 16.0362 24.7422 16.046C24.5415 16.0557 24.3327 16.0583 24.1348 16.0605C24.1262 16.0607 24.1178 16.0575 24.1115 16.0516C24.1053 16.0458 24.1016 16.0376 24.1013 16.029V15.2034C24.1016 15.1954 24.1048 15.1878 24.1104 15.182C24.116 15.1762 24.1235 15.1726 24.1315 15.172C24.2418 15.1623 24.3509 15.1563 24.4592 15.1535C24.7866 15.1456 25.1307 15.1492 25.4634 15.1421C25.5855 15.1396 25.701 15.1358 25.8099 15.1307C25.8235 15.1301 25.8369 15.1284 25.8502 15.1258C26.0358 15.0895 26.1984 15.0472 26.3007 14.9384C26.4417 14.7888 26.4548 14.68 26.4548 14.5756C26.4548 14.4558 26.4419 14.2648 26.2308 14.1132C26.0953 14.0155 25.9659 13.9789 25.7776 13.9717C25.7699 13.9717 25.6965 13.9717 25.6889 13.9717C25.5793 13.9765 25.4682 13.9802 25.3558 13.9827C24.9238 13.9923 24.4736 13.9891 24.0384 14.013C23.7024 14.0319 23.4713 14.0871 23.1553 14.177L23.1558 14.1754Z" fill="white"/>
</g>
<defs>
<clipPath id="clip0_159_7436">
<rect width="33.7806" height="28" fill="white"/>
</clipPath>
</defs>
</svg>
