<svg width="51" height="51" viewBox="0 0 51 51" fill="none" xmlns="http://www.w3.org/2000/svg">
<path d="M13.7598 36.1338V38.4538C13.7572 39.747 13.2424 40.9864 12.3279 41.9008C11.4135 42.8153 10.1741 43.3301 8.8809 43.3327C7.58692 43.3327 6.34595 42.8187 5.43097 41.9037C4.51599 40.9888 4.00195 39.7478 4.00195 38.4538V36.1338" stroke="#4D3BA2" stroke-width="1.5" stroke-miterlimit="10"/>
<path d="M47.0157 36.1338V38.4538C47.0131 39.747 46.4982 40.9864 45.5838 41.9008C44.6694 42.8153 43.4299 43.3301 42.1368 43.3327C40.8428 43.3327 39.6018 42.8187 38.6868 41.9037C37.7718 40.9888 37.2578 39.7478 37.2578 38.4538V36.1338" stroke="#4D3BA2" stroke-width="1.5" stroke-miterlimit="10"/>
<path d="M7.26758 20.0635L10.3244 10.8632C10.6202 9.94249 11.1991 9.13871 11.9787 8.56653C12.7583 7.99436 13.6987 7.68301 14.6657 7.67691H36.2924C37.2628 7.66897 38.2098 7.97492 38.9921 8.54912C39.7745 9.12332 40.3503 9.93502 40.6337 10.8632L43.7004 20.0635" stroke="#4D3BA2" stroke-width="1.5" stroke-miterlimit="10"/>
<path d="M9.63785 19.5957H41.371C42.8683 19.5957 44.3043 20.1905 45.363 21.2493C46.4218 22.308 47.0166 23.744 47.0166 25.2414V36.443H3.99219V25.2414C3.99219 23.744 4.587 22.308 5.64576 21.2493C6.70452 20.1905 8.14053 19.5957 9.63785 19.5957V19.5957Z" stroke="#4D3BA2" stroke-width="1.5" stroke-miterlimit="10"/>
<path d="M12.2964 31.126C13.7977 31.126 15.0147 29.909 15.0147 28.4077C15.0147 26.9065 13.7977 25.6895 12.2964 25.6895C10.7951 25.6895 9.57812 26.9065 9.57812 28.4077C9.57812 29.909 10.7951 31.126 12.2964 31.126Z" stroke="#4D3BA2" stroke-width="1.5" stroke-miterlimit="10"/>
<path d="M38.7124 31.126C40.2137 31.126 41.4307 29.909 41.4307 28.4077C41.4307 26.9065 40.2137 25.6895 38.7124 25.6895C37.2112 25.6895 35.9941 26.9065 35.9941 28.4077C35.9941 29.909 37.2112 31.126 38.7124 31.126Z" stroke="#4D3BA2" stroke-width="1.5" stroke-miterlimit="10"/>
<path d="M32.2699 24.9326H18.7383V31.0064H32.2699V24.9326Z" stroke="#4D3BA2" stroke-width="1.5" stroke-linecap="round" stroke-linejoin="round"/>
</svg>
