<svg width="51" height="51" viewBox="0 0 51 51" fill="none" xmlns="http://www.w3.org/2000/svg">
<path d="M22.355 12.3268H25.5064M25.5069 9L25.5064 12.3268M32.2877 9.4691C31.2091 6.77884 28.5772 4.87891 25.5014 4.87891C22.4257 4.87891 19.7938 6.77884 18.7152 9.4691M32.2877 9.4691C32.6246 10.3094 32.8099 11.2267 32.8099 12.1874C32.8099 16.2237 29.5378 19.4959 25.5014 19.4959C21.4651 19.4959 18.193 16.2237 18.193 12.1874C18.193 11.2267 18.3783 10.3094 18.7152 9.4691M32.2877 9.4691H38.3958C39.0411 9.4691 39.6601 9.72475 40.1173 10.1801C40.5745 10.6354 40.8327 11.2534 40.8353 11.8986V46.1309H10.1875V11.8986C10.1875 11.2543 10.4435 10.6363 10.8991 10.1807C11.3547 9.72507 11.9727 9.4691 12.617 9.4691H18.7152M25.5064 12.3268L28.6583 12.3271M25.5064 12.3268L25.5069 15.5M23.6395 23.2098H27.3634V29.8014H23.6395V23.2098ZM23.6395 32.9478H27.3634V39.5394H23.6395V32.9478ZM16.0522 23.2098H19.7761V29.8014H16.0522V23.2098ZM31.2267 23.2098H34.9507V29.8014H31.2267V23.2098ZM16.0522 32.9478H19.7761V39.5394H16.0522V32.9478ZM31.2267 32.9478H34.9507V39.5394H31.2267V32.9478Z" stroke="#4D3F9E" stroke-width="1.5" stroke-linecap="round" stroke-linejoin="round"/>
</svg>
