<svg width="51" height="51" viewBox="0 0 51 51" fill="none" xmlns="http://www.w3.org/2000/svg">
<path d="M43.0539 40.0967H7.94531V48.3112H43.0539V40.0967Z" stroke="#4D3F9E" stroke-width="1.5" stroke-linecap="round" stroke-linejoin="round"/>
<path d="M11.002 39.9382V29.7222C11.002 25.8763 12.529 22.1878 15.2476 19.4674C17.9661 16.7471 21.6535 15.2175 25.4994 15.2148C29.347 15.2148 33.037 16.7433 35.7577 19.464C38.4784 22.1846 40.0068 25.8746 40.0068 29.7222V29.7222V39.6096" stroke="#4D3F9E" stroke-width="1.5" stroke-linecap="round" stroke-linejoin="round"/>
<path d="M25.4989 32.0222C27.3191 32.0222 28.7947 30.5467 28.7947 28.7264C28.7947 26.9062 27.3191 25.4307 25.4989 25.4307C23.6787 25.4307 22.2031 26.9062 22.2031 28.7264C22.2031 30.5467 23.6787 32.0222 25.4989 32.0222Z" stroke="#4D3F9E" stroke-width="1.5" stroke-linecap="round" stroke-linejoin="round"/>
<path d="M25.5 32.3506V38.9422" stroke="#4D3F9E" stroke-width="1.5" stroke-linecap="round" stroke-linejoin="round"/>
<path d="M25.5 2.68848V9.93721" stroke="#4D3F9E" stroke-width="1.5" stroke-linecap="round" stroke-linejoin="round"/>
<path d="M41.4599 7.0498L36.332 12.1777" stroke="#4D3F9E" stroke-width="1.5" stroke-linecap="round" stroke-linejoin="round"/>
<path d="M9.77734 8.16504L14.9052 13.2929" stroke="#4D3F9E" stroke-width="1.5" stroke-linecap="round" stroke-linejoin="round"/>
</svg>
