<svg width="51" height="51" viewBox="0 0 51 51" fill="none" xmlns="http://www.w3.org/2000/svg">
<path d="M25.499 44.4483C35.9639 44.4483 44.4473 35.9649 44.4473 25.5C44.4473 15.0352 35.9639 6.55176 25.499 6.55176C15.0342 6.55176 6.55078 15.0352 6.55078 25.5C6.55078 35.9649 15.0342 44.4483 25.499 44.4483Z" stroke="#4D3F9E" stroke-width="1.5" stroke-linecap="round" stroke-linejoin="round"/>
<path d="M18.648 25.0821C19.5334 25.0821 20.2511 24.3644 20.2511 23.4791C20.2511 22.5937 19.5334 21.876 18.648 21.876C17.7626 21.876 17.0449 22.5937 17.0449 23.4791C17.0449 24.3644 17.7626 25.0821 18.648 25.0821Z" fill="#4D3F9E"/>
<path d="M32.3492 25.0821C33.2345 25.0821 33.9523 24.3644 33.9523 23.4791C33.9523 22.5937 33.2345 21.876 32.3492 21.876C31.4638 21.876 30.7461 22.5937 30.7461 23.4791C30.7461 24.3644 31.4638 25.0821 32.3492 25.0821Z" fill="#4D3F9E"/>
<path d="M17.6426 29.2539C18.235 30.2855 19.0249 31.1902 19.9673 31.9163C20.9096 32.6424 21.9859 33.1756 23.1344 33.4853C24.283 33.7951 25.4813 33.8755 26.661 33.7218C27.8406 33.5681 28.9784 33.1833 30.0092 32.5895C31.399 31.7955 32.5508 30.6437 33.3448 29.2539" stroke="#4D3F9E" stroke-width="1.5" stroke-linecap="round" stroke-linejoin="round"/>
</svg>
