<svg width="51" height="51" viewBox="0 0 51 51" fill="none" xmlns="http://www.w3.org/2000/svg">
<path d="M41.3902 28.3076C41.8474 28.5687 42.1826 29.0001 42.3225 29.5076C42.4625 30.0152 42.3958 30.5575 42.137 31.0159L40.1455 34.5009C39.8845 34.9581 39.453 35.2933 38.9455 35.4333C38.438 35.5732 37.8957 35.5065 37.4372 35.2477L36.7402 34.8494" stroke="#4D3BA2" stroke-width="1.5" stroke-linecap="round" stroke-linejoin="round"/>
<path d="M36.3524 35.2279L9.38867 20.5711L12.5749 14.1787L39.5386 28.8056L36.3524 35.2279Z" stroke="#4D3BA2" stroke-width="1.5" stroke-linecap="round" stroke-linejoin="round"/>
<path d="M39.5379 28.8055L12.5742 14.1488L16.328 7.52734L47.2745 24.4543L39.5379 28.8055Z" stroke="#4D3BA2" stroke-width="1.5" stroke-linecap="round" stroke-linejoin="round"/>
<path d="M9.92647 43.4522H3.69336V25.6689H9.88665L9.92647 43.4522Z" stroke="#4D3BA2" stroke-width="1.5" stroke-linecap="round" stroke-linejoin="round"/>
<path d="M10.0254 34.561H18.4491L22.1332 28.2383" stroke="#4D3BA2" stroke-width="1.5" stroke-linecap="round" stroke-linejoin="round"/>
</svg>
