<svg width="44" height="44" viewBox="0 0 44 44" fill="none" xmlns="http://www.w3.org/2000/svg">
<path fill-rule="evenodd" clip-rule="evenodd" d="M41.7628 40.0441L39.8982 33.075C42.6009 28.7024 43.6127 23.4928 42.7431 18.4264C41.8735 13.36 39.1826 8.78598 35.1765 5.56483C31.1704 2.34367 26.1253 0.697417 20.9904 0.935775C15.8554 1.17413 10.9845 3.28072 7.29409 6.85914C3.60363 10.4376 1.34799 15.2411 0.9515 20.3663C0.555008 25.4915 2.04502 30.5849 5.14119 34.6883C8.23736 38.7918 12.7263 41.6225 17.7634 42.6478C22.8006 43.6731 28.0389 42.8223 32.4927 40.2556L39.647 42.1732C39.8006 42.1927 39.9561 42.1927 40.1098 42.1732C40.3742 42.1749 40.6355 42.1151 40.8729 41.9985C41.1103 41.8819 41.3173 41.7117 41.4776 41.5013C41.6379 41.291 41.7472 41.0463 41.7967 40.7865C41.8462 40.5267 41.8345 40.259 41.7628 40.0044V40.0441ZM19.6127 24.5457C19.6193 23.6228 19.7573 22.7056 20.0226 21.8216C20.3458 20.8407 20.8731 19.9393 21.5699 19.1768C22.1035 18.5742 22.5982 17.9381 23.051 17.2725C23.4157 16.7831 23.6149 16.1903 23.6196 15.5799C23.6313 15.0975 23.4667 14.6274 23.1567 14.2575C22.8025 13.9144 22.3275 13.7244 21.8343 13.7285C20.8345 13.8004 19.8947 14.2326 19.1895 14.945C19.0446 15.0599 18.8897 15.1619 18.7267 15.2493C18.5202 15.3689 18.2975 15.4579 18.0655 15.5137C17.8155 15.5895 17.5485 15.5895 17.2985 15.5137C17.1386 15.4763 16.9881 15.4065 16.8562 15.3087C16.7243 15.2109 16.6138 15.0871 16.5315 14.945C16.2971 14.6963 16.1568 14.3737 16.1348 14.0327C16.1024 13.7537 16.1434 13.4711 16.2538 13.2128C16.3309 12.9802 16.4521 12.7647 16.6109 12.5781C16.7319 12.4436 16.8599 12.3156 16.9943 12.1945C18.4036 10.9932 20.1941 10.3322 22.0459 10.3299C22.9144 10.3122 23.7789 10.4511 24.5981 10.7399C25.2707 10.9947 25.893 11.3662 26.4363 11.8374C26.9004 12.2963 27.2728 12.8393 27.5339 13.4375C27.7644 14.0324 27.8854 14.6641 27.8909 15.3021C27.8936 15.8055 27.8132 16.306 27.6529 16.7832C27.4612 17.2764 27.2313 17.754 26.9652 18.2115C26.6781 18.6701 26.3646 19.1116 26.0264 19.5339C25.6429 19.9703 25.2858 20.4067 24.9287 20.8563C24.425 21.3651 24.0489 21.9859 23.8312 22.668C23.6346 23.3104 23.5409 23.9799 23.5535 24.6516V25.392C23.5692 25.6648 23.5226 25.9376 23.4172 26.1896C23.3118 26.4417 23.1504 26.6663 22.9451 26.8467C22.5634 27.1868 22.0678 27.3709 21.5566 27.3624C21.3126 27.3722 21.0691 27.3315 20.8416 27.2428C20.614 27.154 20.4072 27.0191 20.2342 26.8467C20.0393 26.6607 19.8884 26.4337 19.7923 26.1821C19.6962 25.9304 19.6574 25.6605 19.6788 25.392L19.6127 24.5457ZM19.7582 29.3195C19.2819 29.8149 19.0082 30.4707 18.9912 31.1577C18.9821 31.5089 19.0545 31.8574 19.2028 32.176C19.32 32.4896 19.5104 32.7707 19.7582 32.9959C19.9915 33.2341 20.2703 33.423 20.5781 33.5513C20.9044 33.6707 21.2488 33.7334 21.5963 33.7365C21.937 33.7449 22.2758 33.6835 22.5919 33.5562C22.908 33.4288 23.1947 33.2381 23.4345 32.9959C23.6748 32.7548 23.8642 32.4679 23.9915 32.1521C24.1187 31.8363 24.1811 31.4981 24.175 31.1577C24.1733 30.8174 24.1059 30.4807 23.9766 30.1659C23.8432 29.8561 23.6601 29.5702 23.4345 29.3195C23.181 29.0991 22.9063 28.9043 22.6145 28.7378C22.2869 28.623 21.9433 28.5605 21.5963 28.5526C21.2525 28.5383 20.9097 28.5996 20.5921 28.7321C20.2745 28.8646 19.9899 29.0651 19.7582 29.3195Z" fill="#E5E3FF"/>
</svg>
