<svg width="30" height="46" viewBox="0 0 30 46" fill="none" xmlns="http://www.w3.org/2000/svg">
<path d="M11.9248 46C11.3486 45.4226 10.7188 44.8577 11.1342 43.9414C11.5496 43.0251 12.4742 43 13.2781 43H16.7219C17.5929 43 18.4504 43 18.8658 43.9414C19.2812 44.8828 18.6514 45.4226 18.0752 46H11.9248Z" fill="#E5E3FF"/>
<path d="M10.8105 40.9937C9.66219 40.9937 8.95881 40.4483 9.00187 39.4463C8.99557 39.2421 9.03963 39.0392 9.13097 38.8516C9.2223 38.664 9.35875 38.496 9.53083 38.3597C9.7029 38.2233 9.90649 38.1217 10.1275 38.0618C10.3484 38.0019 10.5815 37.9853 10.8105 38.013H19.1504C19.385 37.9939 19.6215 38.0182 19.8448 38.0844C20.0682 38.1506 20.2735 38.2572 20.4475 38.3975C20.6216 38.5377 20.7606 38.7084 20.8557 38.8988C20.9509 39.0892 21 39.2951 21 39.5033C21 39.7114 20.9509 39.9173 20.8557 40.1077C20.7606 40.2981 20.6216 40.469 20.4475 40.6092C20.2735 40.7495 20.0682 40.8561 19.8448 40.9223C19.6215 40.9885 19.385 41.0128 19.1504 40.9937H10.8105Z" fill="#E5E3FF"/>
<path fill-rule="evenodd" clip-rule="evenodd" d="M10.1179 36C8.33168 36 7.90638 35.5219 7.76461 33.792C7.67538 32.4556 7.50019 31.1263 7.24009 29.812C6.74919 27.9911 5.71671 26.359 4.27721 25.1287C2.19795 22.991 0.798862 20.2937 0.254342 17.3726C-0.290179 14.4516 0.0439521 11.4361 1.21509 8.70219C2.46511 6.0483 4.46672 3.81259 6.97571 2.26805C9.48469 0.723511 12.3926 -0.0631393 15.3446 0.00396115C18.2966 0.0710616 21.1651 0.989165 23.6001 2.64608C26.0352 4.303 27.9315 6.62709 29.0577 9.335C30.1148 12.1874 30.2869 15.2885 29.5516 18.2387C28.8164 21.189 27.2075 23.8532 24.9323 25.8882C23.27 27.5776 22.3346 29.8419 22.3238 32.2028C22.0261 36.0001 22.0545 36 18.2411 36H10.1179ZM17.5463 29.2244C17.6554 29.2681 17.772 29.2898 17.8895 29.288C18.12 29.2881 18.3414 29.1984 18.5068 29.038C18.6722 28.8775 18.7686 28.6588 18.7755 28.4284V21.7107L21.698 16.6459C21.7701 16.5109 21.8066 16.3596 21.8039 16.2065C21.8012 16.0535 21.7595 15.9036 21.6826 15.7712C21.6058 15.6387 21.4965 15.5281 21.3649 15.4498C21.2334 15.3714 21.084 15.328 20.931 15.3235H9.29389C9.14086 15.328 8.99151 15.3714 8.85998 15.4498C8.72844 15.5281 8.61906 15.6387 8.54225 15.7712C8.46544 15.9036 8.42371 16.0535 8.42102 16.2065C8.41833 16.3596 8.45476 16.5109 8.52687 16.6459L11.4494 21.7107V28.4021C11.4494 28.6371 11.5427 28.8624 11.7089 29.0286C11.8751 29.1948 12.1004 29.288 12.3354 29.288C12.5716 29.288 12.7983 29.1952 12.9666 29.0294C13.1349 28.8636 13.2311 28.6383 13.2346 28.4021V21.4463C13.2277 21.2938 13.1871 21.1446 13.1156 21.0098L10.8279 17.0426H19.3838L17.1093 21.0098C17.032 21.1422 16.9909 21.2929 16.9903 21.4463V28.4021C16.9903 28.5196 17.0136 28.6358 17.059 28.7442C17.1043 28.8525 17.1707 28.9508 17.2544 29.0333C17.3381 29.1157 17.4373 29.1807 17.5463 29.2244Z" fill="#E5E3FF"/>
</svg>
