<svg width="22" height="21" viewBox="0 0 22 21" fill="none" xmlns="http://www.w3.org/2000/svg">
<g clip-path="url(#clip0_159:4217)">
<path d="M10.81 0.75L0.75 9.45999H3.17V20.04H8.22V14.9C8.19804 14.547 8.2486 14.1933 8.36858 13.8606C8.48855 13.5279 8.67538 13.2232 8.91757 12.9655C9.15977 12.7078 9.45219 12.5024 9.77679 12.362C10.1014 12.2216 10.4513 12.1491 10.805 12.1491C11.1587 12.1491 11.5086 12.2216 11.8332 12.362C12.1578 12.5024 12.4502 12.7078 12.6924 12.9655C12.9346 13.2232 13.1215 13.5279 13.2414 13.8606C13.3614 14.1933 13.412 14.547 13.39 14.9V20.04H18.44V9.45999H20.86L10.81 0.75Z" fill="white" stroke="#4D3BA2" stroke-width="1.5" stroke-linecap="round" stroke-linejoin="round"/>
</g>
<defs>
<clipPath id="clip0_159:4217">
<rect width="21.6" height="20.82" fill="white"/>
</clipPath>
</defs>
</svg>
