<svg width="39" height="38" viewBox="0 0 39 38" fill="none" xmlns="http://www.w3.org/2000/svg">
<path d="M33.07 10.1426C31.8418 7.41097 29.9514 5.02903 27.57 3.21258C25.0759 1.31237 22.0705 0.201437 18.94 0.022577C17.3244 -0.0680303 15.705 0.114509 14.15 0.562555C12.5989 1.03144 11.1334 1.74729 9.81003 2.68255C7.29852 4.44556 5.19451 6.7269 3.64004 9.37255C2.09658 11.9768 1.10282 14.8696 0.720022 17.8726C0.5579 18.6591 0.553998 19.47 0.708517 20.2581C0.863037 21.0461 1.17289 21.7955 1.62003 22.4626C2.55147 23.5345 3.79136 24.2923 5.17003 24.6326C8.22582 25.4751 11.4729 25.2996 14.42 24.1326C15.1411 23.8603 15.8371 23.5257 16.5 23.1326C16.5552 23.1037 16.6031 23.0627 16.64 23.0126C18.17 23.4026 19.7 23.8126 21.24 24.1226C22.9209 24.5087 24.6507 24.6368 26.37 24.5026C27.9254 24.3723 29.4238 23.8568 30.73 23.0026C31.9572 22.148 32.9203 20.9667 33.51 19.5926C34.0986 18.0736 34.3635 16.4484 34.2877 14.8211C34.212 13.1938 33.7972 11.6003 33.07 10.1426Z" fill="#8C88EA"/>
<path d="M0.00999451 37.0025H38.25C38.53 36.5925 38.48 32.6525 38.42 32.1325C38.3406 31.4912 38.1792 30.8628 37.94 30.2625C36.8619 27.8015 34.899 25.8351 32.44 24.7525C29.8027 23.5643 26.918 23.0292 24.03 23.1925C22.4572 23.2535 20.8903 23.4206 19.34 23.6925C18.5912 23.8758 17.8199 23.9499 17.05 23.9125C16.32 23.8125 15.59 23.6425 14.85 23.5725C11.9442 23.294 9.01573 23.7729 6.34999 24.9625C5.07271 25.4725 3.9094 26.231 2.92751 27.194C1.94561 28.157 1.16467 29.3054 0.62999 30.5725C0.395616 31.2168 0.247658 31.8894 0.189987 32.5725C0.185134 32.6023 0.185134 32.6327 0.189987 32.6625L0 33.6625L0.00999451 37.0025Z" fill="#322290"/>
<path d="M7.37 28.3225H6.62999C6.57095 28.1689 6.52087 28.0119 6.48 27.8525C6.4639 27.8044 6.43017 27.7643 6.38562 27.7402C6.34107 27.716 6.28902 27.7098 6.23999 27.7225C6.21665 27.7263 6.19452 27.7354 6.1754 27.7493C6.15628 27.7632 6.14072 27.7814 6.12999 27.8025C6.03097 27.9698 5.96004 28.1523 5.92 28.3425H5.45C5.4222 28.3415 5.3945 28.3463 5.36867 28.3567C5.34284 28.367 5.31944 28.3826 5.29999 28.4025C5.26626 28.4394 5.24756 28.4875 5.24756 28.5375C5.24756 28.5874 5.26626 28.6356 5.29999 28.6725C5.41395 28.7973 5.5453 28.9051 5.68999 28.9925H5.75999C5.70116 29.2488 5.62087 29.4997 5.51999 29.7425C5.44999 29.9025 5.66999 30.0425 5.79999 29.9625C6.01083 29.8202 6.21134 29.6631 6.39999 29.4925L6.93999 29.9425C6.9752 29.967 7.01709 29.9802 7.06 29.9802C7.10291 29.9802 7.14478 29.967 7.17999 29.9425C7.21597 29.92 7.24341 29.8862 7.2579 29.8463C7.2724 29.8064 7.27314 29.7629 7.25999 29.7225C7.16999 29.4825 7.05999 29.2425 6.95999 29.0025C7.16098 28.8633 7.3515 28.7095 7.53 28.5425C7.54784 28.5248 7.56199 28.5038 7.57166 28.4806C7.58132 28.4575 7.58629 28.4326 7.58629 28.4075C7.58629 28.3824 7.58132 28.3575 7.57166 28.3343C7.56199 28.3112 7.54784 28.2902 7.53 28.2725C7.50131 28.2652 7.47116 28.2661 7.44292 28.2749C7.41467 28.2837 7.38943 28.3002 7.37 28.3225Z" fill="white"/>
<path d="M33.94 31.0626H33.18L33.03 30.5927C33.0231 30.5681 33.0114 30.5452 32.9955 30.5253C32.9796 30.5054 32.9599 30.4889 32.9375 30.4768C32.9152 30.4647 32.8906 30.4572 32.8652 30.4547C32.8399 30.4523 32.8143 30.455 32.79 30.4627C32.7455 30.4764 32.7068 30.5045 32.68 30.5426C32.5895 30.7139 32.519 30.8952 32.47 31.0827H32C31.9473 31.0834 31.8969 31.105 31.86 31.1426C31.8408 31.1595 31.8255 31.1803 31.815 31.2036C31.8045 31.2268 31.7991 31.2521 31.7991 31.2777C31.7991 31.3032 31.8045 31.3284 31.815 31.3517C31.8255 31.375 31.8408 31.3957 31.86 31.4126C31.9729 31.5347 32.1005 31.6422 32.24 31.7326H32.31C32.2512 31.9889 32.1709 32.2398 32.07 32.4826C32.01 32.6426 32.22 32.7826 32.35 32.7026C32.5645 32.5654 32.7654 32.408 32.95 32.2326L33.5 32.6826C33.5337 32.7063 33.5738 32.719 33.615 32.719C33.6562 32.719 33.6963 32.7063 33.73 32.6826C33.7666 32.6604 33.795 32.6271 33.8112 32.5875C33.8274 32.5479 33.8305 32.5041 33.82 32.4627C33.73 32.2227 33.62 31.9826 33.52 31.7426C33.7197 31.6059 33.9071 31.452 34.08 31.2827C34.0978 31.265 34.112 31.2439 34.1217 31.2208C34.1313 31.1976 34.1363 31.1728 34.1363 31.1477C34.1363 31.1225 34.1313 31.0976 34.1217 31.0745C34.112 31.0513 34.0978 31.0303 34.08 31.0126C34.0545 31.0105 34.0288 31.0139 34.0046 31.0225C33.9805 31.0312 33.9584 31.0448 33.94 31.0626Z" fill="white"/>
<path d="M21.4599 27.6926H20.9599C20.9206 27.5879 20.8872 27.4811 20.8599 27.3726C20.8554 27.3563 20.8476 27.3412 20.8369 27.3281C20.8262 27.3151 20.8129 27.3044 20.7978 27.2969C20.7827 27.2893 20.7662 27.285 20.7493 27.2843C20.7324 27.2836 20.7156 27.2864 20.6999 27.2926C20.689 27.2873 20.677 27.2845 20.6649 27.2845C20.6528 27.2845 20.6408 27.2873 20.6299 27.2926C20.5629 27.4037 20.5155 27.5255 20.4899 27.6526H20.1799C20.1642 27.6454 20.1471 27.6417 20.1299 27.6417C20.1126 27.6417 20.0956 27.6454 20.0799 27.6526C20.0567 27.6768 20.0437 27.7091 20.0437 27.7426C20.0437 27.7762 20.0567 27.8084 20.0799 27.8326C20.1538 27.9131 20.2379 27.9836 20.3299 28.0426H20.3799C20.3402 28.2133 20.2867 28.3806 20.2199 28.5426C20.2199 28.6426 20.3199 28.7426 20.4099 28.6826C20.5517 28.5907 20.6855 28.487 20.8099 28.3726L21.1799 28.6726C21.2012 28.6896 21.2276 28.699 21.2549 28.699C21.2821 28.699 21.3086 28.6896 21.3299 28.6726C21.3553 28.658 21.3751 28.6353 21.386 28.6081C21.3969 28.5809 21.3983 28.5507 21.3899 28.5226C21.3299 28.3626 21.2599 28.2026 21.1899 28.0426C21.3256 27.9509 21.4528 27.8472 21.5699 27.7326C21.591 27.7074 21.6026 27.6755 21.6026 27.6426C21.6026 27.6097 21.591 27.5778 21.5699 27.5526C21.5511 27.5419 21.5292 27.5383 21.508 27.5425C21.4868 27.5466 21.4678 27.5582 21.4545 27.5752C21.4412 27.5922 21.4344 27.6133 21.4354 27.6349C21.4364 27.6564 21.4451 27.6769 21.4599 27.6926Z" fill="white"/>
<path d="M31.04 28.0127H30.54L30.44 27.7027C30.4306 27.6696 30.4085 27.6415 30.3786 27.6246C30.3486 27.6078 30.3131 27.6034 30.28 27.6127C30.2501 27.6234 30.2252 27.6448 30.21 27.6727C30.1489 27.783 30.1018 27.9006 30.07 28.0227H29.75C29.7343 28.0155 29.7172 28.0118 29.7 28.0118C29.6827 28.0118 29.6657 28.0155 29.65 28.0227C29.6267 28.0469 29.6138 28.0791 29.6138 28.1127C29.6138 28.1462 29.6267 28.1785 29.65 28.2027C29.7246 28.2892 29.8123 28.3634 29.91 28.4227H29.96C29.91 28.5927 29.86 28.7627 29.8 28.9227C29.74 29.0827 29.9 29.1227 29.98 29.0727C30.1237 28.9797 30.2577 28.8725 30.38 28.7527L30.75 29.0527C30.7703 29.069 30.7951 29.0788 30.8211 29.0809C30.8471 29.0829 30.8731 29.0771 30.8958 29.0641C30.9184 29.0512 30.9367 29.0317 30.9481 29.0083C30.9596 28.9848 30.9637 28.9585 30.96 28.9327C30.9 28.7627 30.83 28.6027 30.76 28.4527C30.893 28.3574 31.0199 28.2538 31.14 28.1427C31.1632 28.1185 31.1761 28.0862 31.1761 28.0527C31.1761 28.0191 31.1632 27.9869 31.14 27.9627C31.1201 27.9585 31.0994 27.9612 31.0813 27.9703C31.0631 27.9793 31.0486 27.9943 31.04 28.0127Z" fill="white"/>
<path d="M3.03988 32.5326C3.26632 32.5326 3.44988 32.3491 3.44988 32.1226C3.44988 31.8962 3.26632 31.7126 3.03988 31.7126C2.81345 31.7126 2.62988 31.8962 2.62988 32.1226C2.62988 32.3491 2.81345 32.5326 3.03988 32.5326Z" fill="white"/>
<path d="M15.0499 27.2726C15.2763 27.2726 15.4599 27.0891 15.4599 26.8626C15.4599 26.6362 15.2763 26.4526 15.0499 26.4526C14.8235 26.4526 14.6399 26.6362 14.6399 26.8626C14.6399 27.0891 14.8235 27.2726 15.0499 27.2726Z" fill="white"/>
<path d="M27.5 17.5926C28.9912 17.5926 30.2 16.442 30.2 15.0226C30.2 13.6033 28.9912 12.4526 27.5 12.4526C26.0089 12.4526 24.8 13.6033 24.8 15.0226C24.8 16.442 26.0089 17.5926 27.5 17.5926Z" fill="#FFED92"/>
<path d="M7.18999 17.5926C8.68116 17.5926 9.88999 16.442 9.88999 15.0226C9.88999 13.6033 8.68116 12.4526 7.18999 12.4526C5.69882 12.4526 4.48999 13.6033 4.48999 15.0226C4.48999 16.442 5.69882 17.5926 7.18999 17.5926Z" fill="#FFED92"/>
<path d="M17.26 24.0225C22.9154 24.0225 27.5 19.8409 27.5 14.6825C27.5 9.52419 22.9154 5.34253 17.26 5.34253C11.6046 5.34253 7.02002 9.52419 7.02002 14.6825C7.02002 19.8409 11.6046 24.0225 17.26 24.0225Z" fill="#FFED92"/>
<path d="M14.7601 18.1225C15.3344 18.6376 16.0786 18.9225 16.8501 18.9225C17.6215 18.9225 18.3658 18.6376 18.9401 18.1225C19.2501 17.8625 18.8001 17.4125 18.4901 17.6825C18.0316 18.0702 17.4505 18.2829 16.8501 18.2829C16.2496 18.2829 15.6686 18.0702 15.2101 17.6825C14.9001 17.4425 14.4501 17.8625 14.7601 18.1225Z" fill="#43427C"/>
<path d="M15.3799 14.6926C15.0798 15.0793 14.9369 15.5651 14.9799 16.0526C15.0088 16.2752 15.0975 16.4858 15.2366 16.6619C15.3757 16.838 15.5601 16.973 15.7699 17.0526C15.852 17.0712 15.9381 17.0578 16.0106 17.0151C16.0831 16.9723 16.1365 16.9035 16.1599 16.8226C16.1782 16.7418 16.1645 16.6571 16.1216 16.5862C16.0787 16.5154 16.01 16.4639 15.9299 16.4426H15.8799L15.7999 16.3626V16.3126L15.7399 16.2126V16.0927C15.7296 16.0567 15.7296 16.0186 15.7399 15.9826V15.9126C15.7399 15.9126 15.7399 15.8426 15.7399 15.9126C15.7526 15.8234 15.7761 15.7362 15.8099 15.6526C15.8099 15.6526 15.8099 15.5926 15.8099 15.6526C15.8293 15.6073 15.8528 15.5638 15.8799 15.5226C15.924 15.4359 15.9741 15.3523 16.0299 15.2726C16.0724 15.201 16.0846 15.1155 16.064 15.0349C16.0433 14.9542 15.9915 14.8851 15.9199 14.8427C15.8483 14.8002 15.7628 14.788 15.6821 14.8086C15.6015 14.8292 15.5323 14.881 15.4899 14.9526L15.3799 14.6926Z" fill="#8C88EA"/>
<path d="M12.9199 13.9825V15.0825C12.9199 15.1939 12.9642 15.3008 13.0429 15.3795C13.1217 15.4583 13.2285 15.5025 13.3399 15.5025C13.4513 15.5025 13.5581 15.4583 13.6369 15.3795C13.7157 15.3008 13.7599 15.1939 13.7599 15.0825V13.9825C13.7599 13.8711 13.7157 13.7643 13.6369 13.6855C13.5581 13.6068 13.4513 13.5625 13.3399 13.5625C13.2293 13.565 13.124 13.6101 13.0457 13.6884C12.9675 13.7666 12.9225 13.8719 12.9199 13.9825Z" fill="#43427C"/>
<path d="M19.4 13.9826V15.0826C19.3906 15.1439 19.3945 15.2065 19.4116 15.2661C19.4286 15.3257 19.4583 15.3809 19.4987 15.428C19.539 15.475 19.5891 15.5128 19.6454 15.5387C19.7018 15.5646 19.763 15.578 19.825 15.578C19.887 15.578 19.9483 15.5646 20.0046 15.5387C20.0609 15.5128 20.111 15.475 20.1514 15.428C20.1917 15.3809 20.2215 15.3257 20.2385 15.2661C20.2555 15.2065 20.2595 15.1439 20.25 15.0826V13.9826C20.25 13.9266 20.2388 13.8712 20.2171 13.8196C20.1954 13.768 20.1636 13.7212 20.1235 13.6821C20.0834 13.6429 20.0359 13.6122 19.9838 13.5917C19.9317 13.5712 19.876 13.5613 19.82 13.5626C19.7102 13.5675 19.6062 13.6133 19.5285 13.691C19.4507 13.7688 19.4049 13.8728 19.4 13.9826Z" fill="#43427C"/>
<path d="M28.8099 7.77255C28.0915 6.28183 26.909 5.06424 25.4399 4.30251C23.9733 3.42333 22.3613 2.81373 20.6799 2.50253C17.3838 1.8821 13.9744 2.45268 11.0599 4.11251C9.66974 4.90186 8.41955 5.91551 7.3599 7.11251C6.82746 7.70302 6.35201 8.34257 5.9399 9.02255C5.50944 9.67976 5.30253 10.4583 5.34991 11.2425C5.39661 11.6133 5.55334 11.9616 5.7999 12.2425C5.84725 12.2948 5.91053 12.33 5.97991 12.3426C6.44398 12.6983 6.97721 12.9531 7.54546 13.0909C8.11372 13.2287 8.70447 13.2462 9.27992 13.1425C10.5532 12.8924 11.7111 12.2363 12.5799 11.2725C13.0107 10.8165 13.4022 10.3247 13.7499 9.80251C16.3228 12.0083 19.5469 13.3113 22.9299 13.5125C23.7961 13.6016 24.6714 13.5146 25.5031 13.2569C26.3349 12.9991 27.1059 12.5759 27.7699 12.0125C28.3487 11.4917 28.7573 10.8089 28.9428 10.0527C29.1283 9.29653 29.082 8.50204 28.8099 7.77255Z" fill="#8C88EA"/>
<path d="M15.2999 23.4426C15.295 23.5392 15.295 23.636 15.2999 23.7326C15.3438 23.9753 15.4422 24.205 15.5877 24.4042C15.7332 24.6034 15.922 24.767 16.1399 24.8826C16.5734 25.1203 17.0674 25.2246 17.5599 25.1826C17.8709 25.1833 18.1789 25.1217 18.4657 25.0014C18.7525 24.8812 19.0124 24.7048 19.2299 24.4826C19.436 24.2521 19.558 23.9587 19.5762 23.65C19.5943 23.3414 19.5075 23.0357 19.3299 22.7826C19.0878 22.5702 18.802 22.4135 18.4927 22.3237C18.1834 22.2338 17.8582 22.213 17.5399 22.2626C17.0796 22.2439 16.6195 22.3047 16.1799 22.4426C15.9435 22.5134 15.7283 22.6418 15.5537 22.8164C15.3792 22.9909 15.2507 23.2061 15.1799 23.4426" fill="#FFED92"/>
<path d="M28.34 31.8327H27.09C27.2082 28.9768 27.1213 26.1161 26.83 23.2727C25.9618 23.2027 25.0904 23.1827 24.22 23.2127L23.11 23.2727C23.19 24.9727 23.26 26.6827 23.34 28.3827L23.46 31.0227V31.8027C19.9 31.8027 16.34 31.8227 12.78 31.8627C12.5 29.1027 12.3333 26.3327 12.28 23.5527C11.3844 23.6118 10.4949 23.7422 9.61998 23.9427C9.41998 25.6627 9.24998 27.3727 9.11998 29.0927C9.05331 29.9794 8.9933 30.8694 8.93997 31.7627C8.9448 31.8193 8.9448 31.8761 8.93997 31.9327H7.47998C7.2334 33.5873 7.16968 35.2641 7.28998 36.9327H27.99H28.61C28.55 35.4427 28.43 33.4427 28.34 31.8327Z" fill="#FFD524"/>
<path d="M8.12 33.7326C13.0133 33.5459 17.9067 33.5459 22.8 33.7326C24.16 33.7326 25.53 33.8426 26.9 33.9226C27.31 33.9226 27.31 33.3126 26.9 33.2926C22.02 33.0126 17.12 32.9226 12.23 33.0226C10.8567 33.0226 9.48667 33.0626 8.12 33.1426C7.71 33.1426 7.71 33.7926 8.12 33.7726V33.7326Z" fill="#8C88EA"/>
</svg>
