<svg width="46" height="38" viewBox="0 0 46 38" fill="none" xmlns="http://www.w3.org/2000/svg">
<path d="M35.5563 21.4134C38.0953 18.7686 40.7269 16.1238 43.2791 13.479C44.2658 12.5234 44.9695 11.3139 45.3125 9.98383C45.6555 8.65378 45.6245 7.25498 45.2231 5.9414C44.748 4.15691 43.6419 2.60524 42.1099 1.57418C40.5779 0.543126 38.724 0.102496 36.8919 0.334271C35.089 0.547223 33.4157 1.3792 32.1577 2.68818L31.5098 3.33615L30.8486 2.68818C29.8357 1.66223 28.5503 0.947733 27.1443 0.629035C25.7383 0.310337 24.2704 0.400782 22.9142 0.889738C21.6573 1.31286 20.5304 2.05192 19.6415 3.03606C18.7526 4.0202 18.1316 5.21635 17.8382 6.50962C17.5447 7.80289 17.5886 9.1499 17.9658 10.4213C18.3429 11.6927 19.0405 12.8458 19.9917 13.7699L20.071 13.8493L27.331 20.9242L31.2982 24.8914L31.4833 25.0633C31.5612 25.1339 31.6625 25.173 31.7676 25.173C31.8728 25.173 31.9741 25.1339 32.052 25.0633L32.171 24.9443L35.5563 21.4134Z" fill="#E5E3FD"/>
<path d="M6.31776 37.7054L0.446289 27.5494C0.483515 27.5027 0.528164 27.4626 0.578497 27.4304C3.75226 25.6188 6.91282 23.7937 10.0998 22.0217C11.1825 21.3895 12.3866 20.9933 13.6332 20.8588C14.8798 20.7243 16.1407 20.8547 17.3333 21.2415C20.1236 22.1275 22.9271 23.0268 25.7174 23.8863C25.979 23.9541 26.2241 24.0746 26.4375 24.2405C26.6509 24.4064 26.8282 24.6143 26.9584 24.8512C27.0886 25.0881 27.169 25.349 27.1947 25.6181C27.2203 25.8872 27.1908 26.1586 27.1077 26.4159C27.0247 26.6731 26.89 26.9108 26.7118 27.1141C26.5336 27.3173 26.3158 27.482 26.0717 27.598C25.8275 27.7141 25.5622 27.779 25.2921 27.7888C25.022 27.7986 24.7527 27.7532 24.5008 27.6552C22.7817 27.113 21.0625 26.5443 19.3566 25.9757C19.2452 25.9209 19.1238 25.8894 18.9997 25.8832C18.8757 25.8769 18.7517 25.896 18.6354 25.9394C18.519 25.9827 18.4127 26.0493 18.323 26.1352C18.2332 26.221 18.162 26.3243 18.1136 26.4386C18.069 26.5591 18.0512 26.6877 18.0613 26.8157C18.0714 26.9437 18.1092 27.068 18.1721 27.1799C18.235 27.2919 18.3215 27.3888 18.4255 27.464C18.5296 27.5392 18.6487 27.5908 18.7748 27.6154C21.4196 28.3957 23.9983 29.2157 26.6431 29.8901C27.7125 30.1109 28.8051 30.1997 29.8962 30.1545C32.6468 30.1545 35.3973 30.1545 38.1479 30.1545C38.7504 30.1299 39.3402 30.3322 39.8005 30.7216C40.2609 31.111 40.5584 31.6589 40.6341 32.2571C40.6763 32.4367 40.6805 32.6232 40.6464 32.8045C40.6122 32.9858 40.5406 33.158 40.436 33.3099C40.3314 33.4618 40.1961 33.5901 40.0389 33.6867C39.8817 33.7832 39.7061 33.8459 39.5232 33.8705L34.9874 34.9548C31.8137 35.7086 28.6399 36.4491 25.4793 37.2161C23.9942 37.5279 22.4533 37.4459 21.0096 36.9781C18.4971 36.2773 15.9845 35.6557 13.4587 34.9681C12.9796 34.818 12.4745 34.7699 11.9757 34.8268C11.4769 34.8838 10.9956 35.0445 10.5627 35.2987C9.17413 36.1053 7.75917 36.8855 6.31776 37.7054Z" fill="#E5E3FD"/>
</svg>
