<svg width="156" height="65" viewBox="0 0 156 65" fill="none" xmlns="http://www.w3.org/2000/svg">
<rect width="156" height="65" rx="32.5" fill="white"/>
<path d="M68.648 28.156C70.484 28.156 71.636 27.052 71.636 25.66C71.636 24.352 70.844 23.752 69.824 23.308L68.564 22.768C67.88 22.48 67.112 22.156 67.112 21.304C67.112 20.512 67.76 20.008 68.756 20.008C69.572 20.008 70.22 20.332 70.76 20.836L71.348 20.128C70.724 19.48 69.8 19.036 68.756 19.036C67.16 19.036 65.984 20.02 65.984 21.376C65.984 22.66 66.956 23.284 67.772 23.632L69.044 24.184C69.872 24.556 70.508 24.844 70.508 25.744C70.508 26.608 69.812 27.184 68.66 27.184C67.748 27.184 66.86 26.752 66.224 26.092L65.564 26.848C66.332 27.652 67.4 28.156 68.648 28.156ZM74.9266 28H76.0426V20.14H78.7066V19.204H72.2626V20.14H74.9266V28ZM80.2742 28H85.4822V27.052H81.3902V23.848H84.7262V22.9H81.3902V20.14H85.3502V19.204H80.2742V28ZM87.3289 28H88.4449V24.508H89.8969C91.8169 24.508 93.1369 23.644 93.1369 21.784C93.1369 19.864 91.8169 19.204 89.8369 19.204H87.3289V28ZM88.4449 23.608V20.104H89.7049C91.2529 20.104 92.0329 20.512 92.0329 21.784C92.0329 23.044 91.3009 23.608 89.7529 23.608H88.4449ZM98.7705 28H99.9105C100.043 24.556 100.427 22.516 102.491 19.864V19.204H96.9825V20.14H101.243C99.5265 22.54 98.9145 24.664 98.7705 28Z" fill="black"/>
<path d="M70.057 35.068H68.328V36.797C68.328 39.072 67.418 41.399 65.39 42.335L66.456 43.713C67.795 43.037 68.692 41.789 69.212 40.255C69.706 41.698 70.577 42.868 71.89 43.505L72.904 42.14C70.928 41.256 70.057 39.059 70.057 36.797V35.068ZM73.892 34.132V37.889H71.591V39.267H73.892V46.144H75.608V34.132H73.892ZM85.721 34.132V46.144H87.437V34.132H85.721ZM78.103 35.094V43.349H84.005V35.094H82.302V37.993H79.806V35.094H78.103ZM79.806 39.332H82.302V41.984H79.806V39.332ZM99.942 39.787C97.238 39.319 95.756 37.46 95.756 35.705V34.847H93.923V35.705C93.923 37.421 92.428 39.319 89.737 39.787L90.465 41.217C92.545 40.814 94.066 39.644 94.833 38.123C95.6 39.644 97.134 40.801 99.214 41.217L99.942 39.787ZM89.477 43.271V44.662H100.319V43.271H89.477ZM109.022 35.068H107.306V36.81C107.306 39.137 106.318 41.451 104.225 42.348L105.252 43.765C106.682 43.089 107.657 41.802 108.19 40.203C108.723 41.672 109.646 42.855 111.024 43.479L111.999 42.088C109.971 41.217 109.022 39.033 109.022 36.81V35.068ZM112.584 34.132V46.144H114.3V34.132H112.584ZM123.49 39.618C121.605 39.007 120.786 37.59 120.747 36.212H123.087V34.847H116.613V36.212H118.992C118.953 37.694 118.108 39.189 116.158 39.826L117.055 41.165C118.433 40.71 119.369 39.787 119.902 38.63C120.422 39.683 121.319 40.528 122.619 40.944L123.49 39.618ZM117.77 43.258H124.049V46.131H125.765V41.893H117.77V43.258ZM127.351 37.031H125.765V34.145H124.049V41.36H125.765V38.448H127.351V37.031Z" fill="black"/>
<circle cx="32.5" cy="32.5" r="22.5" fill="#F5F5F5"/>
<g clip-path="url(#clip0_166:7457)">
<path d="M46.2994 28.61C45.3392 25.6582 43.3546 23.1474 40.7043 21.5316C38.054 19.9158 34.9131 19.3015 31.8494 19.8C31.7869 19.7851 31.7218 19.7851 31.6594 19.8C30.1639 19.7741 28.6796 20.0614 27.3018 20.6435C25.924 21.2256 24.6833 22.0897 23.6594 23.18C21.5523 25.4226 20.0757 28.1826 19.3793 31.18C18.96 32.7819 18.9189 34.4594 19.2594 36.0799C19.6266 37.5818 20.2821 38.998 21.1893 40.25C22.7847 42.4608 24.9573 44.1905 27.4694 45.25C29.987 46.3361 32.7619 46.6829 35.4694 46.25C38.0505 45.7922 40.4534 44.6253 42.4094 42.88C44.393 41.1568 45.8345 38.8955 46.5594 36.37C47.2375 33.814 47.147 31.1148 46.2994 28.61Z" fill="#DBDBDB"/>
<path d="M39.1791 31.43C39.6318 31.7039 39.9576 32.146 40.085 32.6596C40.2125 33.1731 40.1312 33.7162 39.8591 34.17C39.6931 34.4476 39.4591 34.6781 39.1791 34.84L31.0391 39.84C30.7366 40.0146 30.3938 40.1071 30.0446 40.108C29.6953 40.109 29.3519 40.0185 29.0485 39.8456C28.7451 39.6727 28.4923 39.4233 28.3152 39.1223C28.1381 38.8213 28.0429 38.4792 28.0391 38.13V28.24C28.0429 27.8908 28.1381 27.5487 28.3152 27.2477C28.4923 26.9467 28.7451 26.6974 29.0485 26.5244C29.3519 26.3515 29.6953 26.261 30.0446 26.262C30.3938 26.2629 30.7366 26.3553 31.0391 26.53L39.1791 31.43Z" fill="#B7B7B7"/>
</g>
<defs>
<clipPath id="clip0_166:7457">
<rect width="28" height="28" fill="white" transform="translate(19 19)"/>
</clipPath>
</defs>
</svg>
