<svg width="25" height="25" viewBox="0 0 25 25" fill="none" xmlns="http://www.w3.org/2000/svg">
<path d="M20.2297 22.99H15.1197C14.934 22.99 14.756 22.9162 14.6247 22.7849C14.4934 22.6536 14.4197 22.4756 14.4197 22.2899V17.08C14.4212 16.8144 14.3699 16.5511 14.2686 16.3055C14.1673 16.06 14.0181 15.8371 13.8297 15.6499C13.462 15.2993 12.9702 15.1087 12.4623 15.12C11.9543 15.1312 11.4715 15.3434 11.1197 15.71C10.9456 15.8902 10.8091 16.1032 10.7181 16.3367C10.6271 16.5701 10.5834 16.8194 10.5897 17.0699V22.2899C10.5897 22.3818 10.5716 22.4729 10.5364 22.5579C10.5012 22.6428 10.4496 22.7199 10.3846 22.7849C10.3196 22.8499 10.2425 22.9015 10.1576 22.9366C10.0727 22.9718 9.98164 22.99 9.88971 22.99H4.73969C4.64776 22.99 4.55673 22.9718 4.47181 22.9366C4.38688 22.9015 4.30969 22.8499 4.24469 22.7849C4.17969 22.7199 4.12814 22.6428 4.09296 22.5579C4.05778 22.4729 4.03968 22.3818 4.03968 22.2899V12.2899H1.42969C1.28358 12.2914 1.14067 12.2472 1.021 12.1633C0.901327 12.0795 0.81091 11.9602 0.762393 11.8224C0.713877 11.6846 0.709665 11.535 0.750431 11.3947C0.791196 11.2543 0.874871 11.1303 0.989688 11.0399L11.9897 2.17993C12.1118 2.07826 12.2658 2.02258 12.4247 2.02258C12.5836 2.02258 12.7375 2.07826 12.8597 2.17993L23.8597 11.0399C23.9745 11.1303 24.0582 11.2543 24.0989 11.3947C24.1397 11.535 24.1355 11.6846 24.087 11.8224C24.0385 11.9602 23.948 12.0795 23.8284 12.1633C23.7087 12.2472 23.5658 12.2914 23.4197 12.2899H20.8097V22.2899C20.8142 22.4571 20.7579 22.6203 20.6512 22.749C20.5446 22.8778 20.3948 22.9634 20.2297 22.99ZM15.8097 21.59H19.5297V11.59C19.5297 11.4043 19.6034 11.2262 19.7347 11.095C19.866 10.9637 20.044 10.8899 20.2297 10.8899H21.5497L12.5497 3.62L3.54969 10.8899H4.73969C4.92534 10.8899 5.10341 10.9637 5.23468 11.095C5.36596 11.2262 5.4397 11.4043 5.4397 11.59V21.59H9.15967V17.08C9.14508 16.2021 9.47984 15.3543 10.0903 14.7233C10.7007 14.0922 11.5368 13.7296 12.4147 13.715C13.2925 13.7004 14.1402 14.0351 14.7713 14.6455C15.4024 15.2559 15.7651 16.0921 15.7797 16.97L15.8097 21.59Z" fill="#B7B7B7"/>
</svg>
