<svg width="156" height="65" viewBox="0 0 156 65" fill="none" xmlns="http://www.w3.org/2000/svg">
<rect width="156" height="65" rx="32.5" fill="white"/>
<path d="M68.648 28.156C70.484 28.156 71.636 27.052 71.636 25.66C71.636 24.352 70.844 23.752 69.824 23.308L68.564 22.768C67.88 22.48 67.112 22.156 67.112 21.304C67.112 20.512 67.76 20.008 68.756 20.008C69.572 20.008 70.22 20.332 70.76 20.836L71.348 20.128C70.724 19.48 69.8 19.036 68.756 19.036C67.16 19.036 65.984 20.02 65.984 21.376C65.984 22.66 66.956 23.284 67.772 23.632L69.044 24.184C69.872 24.556 70.508 24.844 70.508 25.744C70.508 26.608 69.812 27.184 68.66 27.184C67.748 27.184 66.86 26.752 66.224 26.092L65.564 26.848C66.332 27.652 67.4 28.156 68.648 28.156ZM74.9266 28H76.0426V20.14H78.7066V19.204H72.2626V20.14H74.9266V28ZM80.2742 28H85.4822V27.052H81.3902V23.848H84.7262V22.9H81.3902V20.14H85.3502V19.204H80.2742V28ZM87.3289 28H88.4449V24.508H89.8969C91.8169 24.508 93.1369 23.644 93.1369 21.784C93.1369 19.864 91.8169 19.204 89.8369 19.204H87.3289V28ZM88.4449 23.608V20.104H89.7049C91.2529 20.104 92.0329 20.512 92.0329 21.784C92.0329 23.044 91.3009 23.608 89.7529 23.608H88.4449ZM97.7745 24.7L99.7785 21.7C100.031 21.268 100.271 20.836 100.487 20.404H100.535C100.511 20.86 100.463 21.568 100.463 22V24.7H97.7745ZM102.671 24.7H101.507V19.204H100.295L96.6345 24.856V25.576H100.463V28H101.507V25.576H102.671V24.7Z" fill="black"/>
<path d="M72.722 39.904C70.785 39.28 69.966 37.837 69.966 36.407V36.394H72.306V35.029H65.871V36.394H68.211V36.407C68.211 37.915 67.366 39.501 65.39 40.151L66.261 41.503C67.652 41.035 68.588 40.086 69.121 38.916C69.641 39.956 70.525 40.788 71.799 41.217L72.722 39.904ZM68.978 42.075H67.262V45.91H75.413V44.545H68.978V42.075ZM74.984 37.629V34.145H73.268V42.92H74.984V39.033H76.57V37.629H74.984ZM80.482 42.946H85.357V44.636H80.482V42.946ZM78.792 45.975H87.034V41.607H78.792V45.975ZM86.813 38.994C87.086 37.616 87.086 36.602 87.086 35.64V34.678H78.857V36.043H85.396C85.396 36.875 85.357 37.798 85.11 38.994H77.518V40.359H88.36V38.994H86.813ZM100.638 34.145V40.58H102.367V34.145H100.638ZM94.4113 41.1V45.975H102.367V41.1H100.664V42.218H96.1143V41.1H94.4113ZM96.1143 43.531H100.664V44.623H96.1143V43.531ZM95.8543 34.639C93.9953 34.639 92.5913 35.822 92.5913 37.46C92.5913 39.111 93.9953 40.294 95.8543 40.294C97.7133 40.294 99.1043 39.111 99.1043 37.46C99.1043 35.822 97.7133 34.639 95.8543 34.639ZM95.8543 36.056C96.7643 36.056 97.4273 36.589 97.4273 37.46C97.4273 38.357 96.7643 38.877 95.8543 38.877C94.9443 38.877 94.2683 38.357 94.2683 37.46C94.2683 36.589 94.9443 36.056 95.8543 36.056ZM107.345 42.946H112.22V44.636H107.345V42.946ZM105.655 45.975H113.897V41.607H105.655V45.975ZM113.676 38.994C113.949 37.616 113.949 36.602 113.949 35.64V34.678H105.72V36.043H112.259C112.259 36.875 112.22 37.798 111.973 38.994H104.381V40.359H115.223V38.994H113.676Z" fill="black"/>
<circle cx="32.5" cy="32.5" r="22.5" fill="#F5F5F5"/>
<g clip-path="url(#clip0_166:7454)">
<path d="M46.3093 28.3755C45.3535 25.2884 43.3681 22.6618 40.7141 20.9735C38.0601 19.2851 34.9137 18.647 31.8471 19.1754C31.7857 19.1611 31.7219 19.1611 31.6604 19.1754C30.1605 19.1475 28.6716 19.447 27.2889 20.0545C25.9063 20.662 24.6604 21.5642 23.6311 22.7034C21.5212 25.0537 20.0458 27.9457 19.355 31.0848C18.9322 32.7571 18.8907 34.5094 19.2336 36.2014C19.6085 37.7469 20.2647 39.2028 21.1662 40.4897C22.756 42.8103 24.9311 44.6253 27.4497 45.733C29.9655 46.8751 32.7414 47.2436 35.451 46.7952C38.0336 46.3156 40.4382 45.0977 42.3973 43.277C44.4111 41.4889 45.8617 39.1086 46.5596 36.4468C47.2574 33.7849 47.1702 30.9653 46.3093 28.356V28.3755Z" fill="#DBDBDB"/>
<path d="M33.1906 44.7586C31.1694 44.7422 29.1804 44.2289 27.3848 43.2604C25.5891 42.2918 24.0373 40.8952 22.8552 39.1839C22.0632 38.0432 21.4924 36.7521 21.1746 35.383C20.8716 33.8944 20.9067 32.3523 21.2773 30.8804C21.8674 28.2118 23.1237 25.7538 24.9185 23.7562C25.8227 22.7521 26.9194 21.958 28.1372 21.4257C29.3549 20.8934 30.6664 20.6348 31.9862 20.6667C32.0421 20.662 32.0983 20.662 32.1542 20.6667C34.7846 20.2401 37.4742 20.8118 39.7353 22.278C41.9964 23.7443 43.6792 26.0079 44.4784 28.6583C45.1987 30.9234 45.2701 33.3588 44.6838 35.6656C44.0447 37.9306 42.8012 39.9588 41.0986 41.5132C38.9345 43.566 36.1147 44.7024 33.1906 44.7001V44.7586ZM31.6034 22.343C29.4785 22.4052 27.464 23.3445 26.0015 24.9549C24.3958 26.7409 23.2744 28.9408 22.7524 31.3287C22.4463 32.5488 22.4143 33.8263 22.6591 35.0614C22.9372 36.2195 23.4252 37.3112 24.0969 38.2775C25.2842 40.0274 26.9176 41.3948 28.8118 42.2247C30.7019 43.0846 32.7883 43.3618 34.8245 43.0238C36.7584 42.6618 38.5584 41.7476 40.0249 40.3827C41.5304 39.0493 42.6156 37.2728 43.1387 35.2855C43.6617 33.2981 43.5982 31.1922 42.9565 29.2431C42.253 26.9393 40.7743 24.9791 38.7938 23.725C36.8132 22.471 34.4646 22.0077 32.1823 22.421H31.9302L31.7808 22.343H31.6034Z" fill="#B7B7B7"/>
<path d="M26.9267 30.6757C27.5067 33.3818 28.3547 36.0176 29.4569 38.5406C29.5496 38.7079 29.6879 38.8426 29.8542 38.9277C30.0204 39.0127 30.2071 39.0442 30.3906 39.0182C30.5733 38.9888 30.7445 38.9066 30.8848 38.7808C31.025 38.6551 31.1287 38.4909 31.1842 38.3068L33.8824 31.4846H32.0151C32.6958 33.6033 33.581 35.6442 34.6573 37.5758C34.9934 38.1606 35.3856 38.794 36.1231 38.7745C36.34 38.7636 36.5506 38.6953 36.7352 38.576C36.9198 38.4566 37.0722 38.2901 37.1782 38.0923C37.3053 37.8076 37.4054 37.5106 37.4769 37.2055L38.4853 33.8431L39.6336 30.013C39.6667 29.885 39.6754 29.7514 39.659 29.62C39.6427 29.4885 39.6017 29.3617 39.5384 29.2468C39.4751 29.1318 39.3908 29.031 39.2902 28.9501C39.1896 28.8692 39.0747 28.8098 38.9521 28.7752C38.8295 28.7407 38.7015 28.7317 38.5756 28.7488C38.4497 28.7658 38.3282 28.8086 38.2181 28.8746C38.108 28.9407 38.0114 29.0287 37.9339 29.1337C37.8564 29.2388 37.7995 29.3587 37.7664 29.4867L35.9737 35.4902L35.5163 37.0008C35.5121 37.0592 35.5121 37.1178 35.5163 37.1762C35.5163 37.2737 35.5163 37.0983 35.5163 37.0885L35.6003 36.991L36.4312 36.8741C36.5806 36.9618 36.5246 36.9618 36.4312 36.8741C36.3379 36.7864 36.5339 37.0495 36.4312 36.8741L36.3379 36.7182L36.1605 36.4063C35.6937 35.5616 35.2642 34.6943 34.872 33.8041C34.76 33.5605 34.6573 33.3071 34.5453 33.0537L34.4799 32.888C34.4799 32.9855 34.4799 32.9465 34.4799 32.888C34.4799 32.8296 34.3772 32.6054 34.3212 32.4592C34.1251 31.9524 33.9477 31.4846 33.7797 30.9193C33.7268 30.7049 33.6055 30.5157 33.4358 30.3828C33.266 30.25 33.0581 30.1814 32.846 30.1884C32.6377 30.1969 32.4369 30.2714 32.2701 30.402C32.1033 30.5326 31.9786 30.713 31.9124 30.9193L29.2235 37.7415L30.9601 37.5076L30.764 37.03L30.6706 36.8156C30.6706 36.8156 30.5586 36.5232 30.6706 36.7084L30.3345 35.841C30.1011 35.2173 29.8864 34.5838 29.681 33.9503C29.2795 32.6833 28.9434 31.4066 28.6633 30.0519C28.6321 29.9254 28.5767 29.8066 28.5006 29.7028C28.4245 29.599 28.3292 29.5123 28.2203 29.4477C28.1114 29.3831 27.9912 29.3421 27.8668 29.3271C27.7424 29.312 27.6164 29.3232 27.4963 29.36C27.2556 29.4371 27.0522 29.6069 26.9273 29.8351C26.8024 30.0632 26.7655 30.3325 26.824 30.588L26.9267 30.6757Z" fill="#B7B7B7"/>
<path d="M25.3202 34.7299C29.3162 34.4766 33.2967 34.0282 37.2616 33.385C38.3819 33.1998 39.493 33.0049 40.604 32.7905C40.7263 32.758 40.841 32.6999 40.9412 32.6198C41.0415 32.5397 41.1251 32.4392 41.187 32.3245C41.249 32.2097 41.288 32.083 41.3017 31.952C41.3155 31.8211 41.3036 31.6886 41.2669 31.5625C41.2358 31.4349 41.1801 31.315 41.1034 31.2104C41.0267 31.1058 40.9304 31.0186 40.8205 30.9539C40.7105 30.8892 40.5891 30.8485 40.4637 30.8341C40.3382 30.8198 40.2113 30.8322 40.0905 30.8705C38.1672 31.2409 36.2252 31.5625 34.2832 31.8451H34.0965L33.723 31.9036L32.9761 32.001L31.529 32.1765L28.6253 32.4786C27.5143 32.5761 26.4126 32.6638 25.2922 32.732C25.1656 32.7318 25.0402 32.7586 24.9238 32.8106C24.8074 32.8626 24.7023 32.9387 24.615 33.0345C24.5276 33.1302 24.4599 33.2435 24.4158 33.3674C24.3717 33.4913 24.3523 33.6233 24.3586 33.7554C24.3586 34.0138 24.457 34.2617 24.632 34.4445C24.8071 34.6273 25.0446 34.7299 25.2922 34.7299H25.3202Z" fill="#B7B7B7"/>
</g>
<defs>
<clipPath id="clip0_166:7454">
<rect width="28" height="28" fill="white" transform="translate(19 19)"/>
</clipPath>
</defs>
</svg>
