<svg width="156" height="65" viewBox="0 0 156 65" fill="none" xmlns="http://www.w3.org/2000/svg">
<rect width="156" height="65" rx="32.5" fill="white"/>
<path d="M68.648 28.156C70.484 28.156 71.636 27.052 71.636 25.66C71.636 24.352 70.844 23.752 69.824 23.308L68.564 22.768C67.88 22.48 67.112 22.156 67.112 21.304C67.112 20.512 67.76 20.008 68.756 20.008C69.572 20.008 70.22 20.332 70.76 20.836L71.348 20.128C70.724 19.48 69.8 19.036 68.756 19.036C67.16 19.036 65.984 20.02 65.984 21.376C65.984 22.66 66.956 23.284 67.772 23.632L69.044 24.184C69.872 24.556 70.508 24.844 70.508 25.744C70.508 26.608 69.812 27.184 68.66 27.184C67.748 27.184 66.86 26.752 66.224 26.092L65.564 26.848C66.332 27.652 67.4 28.156 68.648 28.156ZM74.9266 28H76.0426V20.14H78.7066V19.204H72.2626V20.14H74.9266V28ZM80.2742 28H85.4822V27.052H81.3902V23.848H84.7262V22.9H81.3902V20.14H85.3502V19.204H80.2742V28ZM87.3289 28H88.4449V24.508H89.8969C91.8169 24.508 93.1369 23.644 93.1369 21.784C93.1369 19.864 91.8169 19.204 89.8369 19.204H87.3289V28ZM88.4449 23.608V20.104H89.7049C91.2529 20.104 92.0329 20.512 92.0329 21.784C92.0329 23.044 91.3009 23.608 89.7529 23.608H88.4449ZM97.4505 28H102.275V27.088H100.511V19.204H99.6705C99.1905 19.48 98.6265 19.684 97.8465 19.828V20.524H99.4065V27.088H97.4505V28Z" fill="black"/>
<path d="M70.031 41.984H67.626V39.332H70.031V41.984ZM70.031 37.993H67.626V35.094H65.923V43.349H71.734V35.094H70.031V37.993ZM76.674 38.604H74.932V34.158H73.216V46.118H74.932V40.034H76.674V38.604ZM82.913 35.913C84.473 35.913 85.474 36.381 85.474 37.239C85.474 38.11 84.473 38.578 82.913 38.578C81.34 38.578 80.339 38.11 80.339 37.239C80.339 36.381 81.34 35.913 82.913 35.913ZM82.913 39.943C85.461 39.943 87.242 38.89 87.242 37.239C87.242 35.614 85.461 34.548 82.913 34.548C80.352 34.548 78.584 35.614 78.584 37.239C78.584 38.89 80.352 39.943 82.913 39.943ZM88.36 40.84H77.518V42.218H82.042V46.131H83.758V42.218H88.36V40.84ZM93.949 37.46H96.328V36.095H93.949V34.431H92.233V36.095H89.815V37.46H92.233V37.876C92.233 39.67 91.336 41.698 89.412 42.595L90.322 43.908C91.674 43.297 92.61 42.088 93.117 40.658C93.637 42.01 94.573 43.128 95.886 43.713L96.796 42.4C94.872 41.542 93.949 39.592 93.949 37.876V37.46ZM97.81 34.145V38.721H95.691V40.112H97.81V46.144H99.526V34.145H97.81ZM102.528 41.217C104.608 40.84 106.116 39.8 106.857 38.37C107.611 39.774 109.132 40.775 111.238 41.152L111.888 39.8C109.314 39.423 107.923 37.98 107.767 36.42H111.355V35.055H102.333V36.42H105.921C105.765 37.98 104.374 39.475 101.865 39.865L102.528 41.217ZM107.715 43.336V40.697H105.999V43.336H101.436V44.727H112.278V43.336H107.715ZM120.883 35.471H118.153V34.184H116.437V35.471H113.694V36.81H120.883V35.471ZM115.956 39.54C115.956 38.916 116.502 38.578 117.295 38.578C118.101 38.578 118.634 38.916 118.634 39.54C118.634 40.151 118.101 40.489 117.295 40.489C116.502 40.489 115.956 40.151 115.956 39.54ZM118.153 41.698C119.427 41.451 120.259 40.645 120.259 39.54C120.259 38.188 119.037 37.278 117.295 37.278C115.54 37.278 114.318 38.188 114.318 39.54C114.318 40.645 115.15 41.451 116.437 41.698V42.712C115.371 42.738 114.357 42.738 113.46 42.738L113.668 44.129C115.787 44.129 118.556 44.116 121.169 43.635L121.039 42.4C120.103 42.53 119.128 42.595 118.153 42.647V41.698ZM121.663 34.145V46.118H123.379V34.145H121.663Z" fill="black"/>
<circle cx="32.5" cy="32.5" r="22.5" fill="#F5F5F5"/>
<path d="M31.7009 39C36.1137 39 39.6909 35.4228 39.6909 31.01C39.6909 26.5973 36.1137 23.02 31.7009 23.02C27.2882 23.02 23.7109 26.5973 23.7109 31.01C23.7109 35.4228 27.2882 39 31.7009 39Z" fill="#F5F5F5" stroke="#DBDBDB" stroke-width="5" stroke-linecap="round" stroke-linejoin="round"/>
<path d="M36.8809 37.76L42.5009 43.39" stroke="#DBDBDB" stroke-width="5" stroke-linecap="round" stroke-linejoin="round"/>
</svg>
