<svg width="26" height="26" viewBox="0 0 26 26" fill="none" xmlns="http://www.w3.org/2000/svg">
<path d="M5.30957 14.9299C6.27607 14.9299 7.05957 14.1464 7.05957 13.1799C7.05957 12.2134 6.27607 11.4299 5.30957 11.4299C4.34307 11.4299 3.55957 12.2134 3.55957 13.1799C3.55957 14.1464 4.34307 14.9299 5.30957 14.9299Z" fill="#B7B7B7"/>
<path d="M13.21 14.9299C14.1765 14.9299 14.96 14.1464 14.96 13.1799C14.96 12.2134 14.1765 11.4299 13.21 11.4299C12.2435 11.4299 11.46 12.2134 11.46 13.1799C11.46 14.1464 12.2435 14.9299 13.21 14.9299Z" fill="#B7B7B7"/>
<path d="M21.1094 14.9299C22.0759 14.9299 22.8594 14.1464 22.8594 13.1799C22.8594 12.2134 22.0759 11.4299 21.1094 11.4299C20.1429 11.4299 19.3594 12.2134 19.3594 13.1799C19.3594 14.1464 20.1429 14.9299 21.1094 14.9299Z" fill="#B7B7B7"/>
</svg>
