<svg width="26" height="26" viewBox="0 0 26 26" fill="none" xmlns="http://www.w3.org/2000/svg">
<path d="M24.4096 6.4599H19.9096C20.2643 5.89006 20.4177 5.21778 20.3452 4.55048C20.2727 3.88318 19.9785 3.25935 19.5096 2.779C19.0408 2.29864 18.4244 1.9895 17.7591 1.90082C17.0937 1.81214 16.4179 1.94906 15.8396 2.28986C14.8391 3.18716 14.0326 4.27961 13.4696 5.49994C12.9058 4.27454 12.0957 3.17834 11.0896 2.27985C10.394 1.92341 9.58679 1.85262 8.83972 2.08234C8.09265 2.31206 7.46473 2.82427 7.0896 3.50995C6.83567 3.97344 6.71184 4.49696 6.7312 5.02509C6.75057 5.55322 6.9124 6.06631 7.19958 6.50995H2.55957V12.9299H3.87958V24.5799H23.1396V12.9399H24.4596L24.4096 6.4599ZM11.5396 22.9699V12.9699H15.3796V22.9699H11.5396ZM15.3796 7.96991V11.3699H11.5396V7.96991H15.3796ZM22.8996 11.3699H16.8996V7.96991H22.8996V11.3699ZM16.6296 3.56989C16.9516 3.36428 17.3414 3.29313 17.7153 3.37165C18.0892 3.45017 18.4175 3.67216 18.6296 3.98993C18.8301 4.31336 18.8984 4.7016 18.8202 5.07404C18.742 5.44648 18.5233 5.7745 18.2096 5.98993L18.0596 6.0799C16.9462 6.38086 15.7895 6.48904 14.6396 6.39985C15.124 5.35496 15.7797 4.39848 16.5796 3.56989H16.6296ZM8.36957 4.18988C8.4976 3.95995 8.68463 3.7683 8.91138 3.63471C9.13813 3.50112 9.39643 3.43042 9.65961 3.42987C9.89216 3.43193 10.1212 3.48667 10.3296 3.58991C11.1202 4.42175 11.7688 5.37777 12.2496 6.41987C11.1102 6.50197 9.96511 6.39732 8.85956 6.10993C8.5521 5.912 8.33079 5.60523 8.23993 5.25104C8.14907 4.89686 8.19537 4.52139 8.36957 4.19989V4.18988ZM4.01959 7.9599H10.0196V11.3599H4.01959V7.9599ZM5.3396 12.9599H10.0296V22.9599H5.3396V12.9599ZM21.5796 22.9599H16.8896V12.9599H21.5796V22.9599Z" fill="#B7B7B7"/>
</svg>
