<svg width="156" height="65" viewBox="0 0 156 65" fill="none" xmlns="http://www.w3.org/2000/svg">
<rect width="156" height="65" rx="32.5" fill="white"/>
<path d="M68.648 28.156C70.484 28.156 71.636 27.052 71.636 25.66C71.636 24.352 70.844 23.752 69.824 23.308L68.564 22.768C67.88 22.48 67.112 22.156 67.112 21.304C67.112 20.512 67.76 20.008 68.756 20.008C69.572 20.008 70.22 20.332 70.76 20.836L71.348 20.128C70.724 19.48 69.8 19.036 68.756 19.036C67.16 19.036 65.984 20.02 65.984 21.376C65.984 22.66 66.956 23.284 67.772 23.632L69.044 24.184C69.872 24.556 70.508 24.844 70.508 25.744C70.508 26.608 69.812 27.184 68.66 27.184C67.748 27.184 66.86 26.752 66.224 26.092L65.564 26.848C66.332 27.652 67.4 28.156 68.648 28.156ZM74.9266 28H76.0426V20.14H78.7066V19.204H72.2626V20.14H74.9266V28ZM80.2742 28H85.4822V27.052H81.3902V23.848H84.7262V22.9H81.3902V20.14H85.3502V19.204H80.2742V28ZM87.3289 28H88.4449V24.508H89.8969C91.8169 24.508 93.1369 23.644 93.1369 21.784C93.1369 19.864 91.8169 19.204 89.8369 19.204H87.3289V28ZM88.4449 23.608V20.104H89.7049C91.2529 20.104 92.0329 20.512 92.0329 21.784C92.0329 23.044 91.3009 23.608 89.7529 23.608H88.4449ZM99.5265 23.848C98.4825 23.848 97.9545 23.08 97.9545 21.892C97.9545 20.692 98.6025 19.9 99.4425 19.9C100.571 19.9 101.243 20.86 101.363 22.672C100.775 23.512 100.115 23.848 99.5265 23.848ZM97.0905 27.256C97.5825 27.772 98.2545 28.156 99.2025 28.156C100.859 28.156 102.395 26.788 102.395 23.224C102.395 20.428 101.135 19.036 99.4425 19.036C98.0745 19.036 96.9225 20.188 96.9225 21.892C96.9225 23.716 97.8825 24.664 99.3465 24.664C100.091 24.664 100.847 24.232 101.375 23.572C101.291 26.308 100.307 27.244 99.1665 27.244C98.6025 27.244 98.0625 26.992 97.6905 26.572L97.0905 27.256Z" fill="black"/>
<path d="M73.762 34.132V46.144H75.478V34.132H73.762ZM69.043 34.977C67.236 34.977 65.897 36.615 65.897 39.241C65.897 41.88 67.236 43.531 69.043 43.531C70.85 43.531 72.189 41.88 72.189 39.241C72.189 36.615 70.85 34.977 69.043 34.977ZM69.043 36.524C69.927 36.524 70.538 37.473 70.538 39.241C70.538 41.022 69.927 41.971 69.043 41.971C68.159 41.971 67.548 41.022 67.548 39.241C67.548 37.473 68.159 36.524 69.043 36.524ZM87.723 34.145H86.098V43.18H87.723V34.145ZM81.093 39.761H79.546V38.201H81.093V39.761ZM82.679 38.825H83.693V42.829H85.292V34.34H83.693V37.447H82.679V35.055H81.093V36.888H79.546V35.055H77.934V41.126H82.679V38.825ZM81.379 44.545V42.01H79.663V45.91H88.022V44.545H81.379ZM99.162 40.32H92.493V38.981H98.798V37.655H92.493V36.394H99.071V35.016H90.751V41.672H99.162V40.32ZM89.477 43.349V44.74H100.319V43.349H89.477ZM108.599 39.553C106.714 39.059 105.882 37.863 105.83 36.68H108.196V35.328H105.83V34.106H104.114V35.328H101.774V36.68H104.114C104.075 37.98 103.217 39.241 101.345 39.761L102.138 41.087C103.529 40.697 104.478 39.878 104.998 38.825C105.544 39.787 106.467 40.528 107.819 40.879L108.599 39.553ZM104.764 42.998H109.184V44.636H104.764V42.998ZM103.074 45.975H110.861V41.659H103.074V45.975ZM112.447 36.953H110.861V34.145H109.145V41.152H110.861V38.357H112.447V36.953ZM119.687 40.307C119.739 39.982 119.765 39.618 119.765 39.241C119.765 38.786 119.726 38.357 119.648 37.967H121.728V40.307H119.687ZM116.671 41.971C115.8 41.971 115.202 41.022 115.202 39.241C115.202 37.473 115.8 36.524 116.671 36.524C117.555 36.524 118.153 37.473 118.153 39.241C118.153 41.022 117.555 41.971 116.671 41.971ZM121.728 34.132V36.589H119.18C118.647 35.562 117.75 34.977 116.671 34.977C114.89 34.977 113.577 36.615 113.577 39.241C113.577 41.88 114.89 43.531 116.671 43.531C117.828 43.544 118.751 42.868 119.284 41.698H121.728V46.144H123.444V34.132H121.728Z" fill="black"/>
<circle cx="32.5" cy="32.5" r="22.5" fill="#F5F5F5"/>
<path d="M26.7498 24.62C24.52 25.5977 22.4012 26.8113 20.4297 28.24C20.7297 33.54 21.1897 38.83 21.8097 44.11C27.3857 44.2235 32.9637 44.0365 38.5197 43.55C38.7529 43.5533 38.9842 43.5069 39.198 43.4138C39.4118 43.3207 39.6034 43.183 39.7598 43.01L44.1997 39.08C44.3578 38.9845 44.4863 38.847 44.571 38.6828C44.6558 38.5187 44.6934 38.3342 44.6797 38.15C44.9879 33.3128 45.0414 28.4628 44.8397 23.62C39.624 23.3249 34.3939 23.4051 29.1897 23.86C28.1377 23.8169 27.1086 24.1742 26.3097 24.86" fill="#DBDBDB"/>
<path d="M44.2003 39.1499C44.3554 39.0488 44.4814 38.9088 44.5656 38.7439C44.6499 38.579 44.6893 38.3949 44.6803 38.2099C44.9835 33.3725 45.037 28.5228 44.8403 23.6799C43.8403 23.6299 42.8403 23.5799 41.8403 23.5499C40.853 24.25 39.988 25.1082 39.2802 26.0899C39.1736 31.8432 39.1936 37.5999 39.3403 43.3599C39.4902 43.2587 39.6337 43.1485 39.7702 43.0299L44.2003 39.1499Z" fill="#949494"/>
<path d="M44.84 23.62C39.6243 23.3249 34.3941 23.4051 29.1899 23.86C28.1899 23.8389 27.2126 24.16 26.4199 24.77C24.306 25.7175 22.2954 26.8803 20.4199 28.24C22.5599 28.36 24.7 28.47 26.84 28.55C29.42 28.65 32.0033 28.72 34.59 28.76H38.9399C38.9887 28.7761 39.0413 28.7761 39.09 28.76C39.1525 28.7505 39.2094 28.7185 39.25 28.67C40.7736 27.1193 42.4262 25.7009 44.1899 24.43L44.84 23.87C44.85 23.79 44.84 23.7 44.84 23.62Z" fill="#B7B7B7"/>
<path d="M29.4203 40.43C29.6136 40.43 29.7703 40.2733 29.7703 40.08C29.7703 39.8867 29.6136 39.73 29.4203 39.73C29.227 39.73 29.0703 39.8867 29.0703 40.08C29.0703 40.2733 29.227 40.43 29.4203 40.43Z" fill="#DBDBDB"/>
<path d="M37.7699 23.49C36.2799 23.49 34.7699 23.55 33.2899 23.62C31.1999 24.99 29.1499 26.42 27.1499 27.93C26.9701 28.0202 26.8249 28.1668 26.7364 28.3474C26.648 28.528 26.6211 28.7327 26.6599 28.93C26.9599 34.01 27.25 39.1 27.98 44.13C29.1 44.13 30.22 44.13 31.34 44.03L29.9199 28.79C32.2199 27.36 34.49 25.87 36.71 24.31C37.0843 24.065 37.4387 23.7908 37.7699 23.49Z" fill="#949494"/>
<path d="M31.5493 25.37C32.4462 24.5491 33.5316 23.9617 34.7094 23.66C35.2557 23.4848 35.843 23.4848 36.3893 23.66C36.4881 23.6903 36.571 23.7587 36.6194 23.85C36.6427 23.9364 36.6467 24.0269 36.6311 24.115C36.6156 24.2032 36.5808 24.2868 36.5293 24.36C35.8666 25.6419 35.0397 26.8319 34.0694 27.9C33.711 28.3334 33.2553 28.6761 32.7394 28.9C32.6539 28.92 32.5649 28.92 32.4794 28.9C32.37 28.8643 32.2729 28.7985 32.1994 28.71C31.861 28.3966 31.5651 28.0402 31.3194 27.65C31.0685 27.2291 30.9697 26.735 31.0393 26.25C31.1632 25.8673 31.3649 25.5143 31.6316 25.2132C31.8983 24.912 32.2244 24.6692 32.5894 24.5" fill="#949494"/>
<path d="M30.7791 24.92C30.7168 24.3302 30.5171 23.7633 30.1957 23.2648C29.8744 22.7664 29.4405 22.3503 28.9291 22.05C28.7403 21.9317 28.5219 21.8693 28.2991 21.87C27.9291 21.87 27.6792 22.26 27.4992 22.58C26.6606 24.0317 26.1678 25.6571 26.0591 27.33C26.035 27.4116 26.035 27.4984 26.0591 27.58C26.1391 27.71 26.3292 27.71 26.4792 27.69C27.2625 27.622 28.0311 27.4366 28.7592 27.14C29.4882 26.8454 30.1021 26.3226 30.5092 25.65C30.6683 25.4116 30.7531 25.1315 30.7531 24.845C30.7531 24.5584 30.6683 24.2783 30.5092 24.04" fill="#949494"/>
<path d="M30.5805 24.08C30.0897 24.2077 29.6632 24.5119 29.3828 24.9345C29.1023 25.357 28.9875 25.8681 29.0605 26.37C29.0681 26.4615 29.1029 26.5485 29.1605 26.62C29.229 26.6892 29.3157 26.7377 29.4105 26.76C29.999 26.9495 30.6124 27.0506 31.2305 27.06C31.2855 27.0799 31.3455 27.0799 31.4005 27.06C31.4504 27.027 31.4916 26.9824 31.5205 26.93L32.1505 25.93C32.2777 25.7476 32.3724 25.5447 32.4305 25.33C32.4622 25.061 32.3972 24.7895 32.2469 24.5641C32.0966 24.3387 31.8711 24.1742 31.6105 24.1C31.3474 24.036 31.073 24.0344 30.8091 24.0952C30.5453 24.1559 30.2992 24.2774 30.0905 24.45" fill="#949494"/>
</svg>
