<svg width="25" height="25" viewBox="0 0 25 25" fill="none" xmlns="http://www.w3.org/2000/svg">
<path d="M12.4998 23.99C10.2273 23.99 8.00581 23.3161 6.11628 22.0536C4.22676 20.791 2.75406 18.9966 1.88441 16.8971C1.01476 14.7975 0.787198 12.4872 1.23054 10.2584C1.67389 8.02955 2.76817 5.98224 4.37507 4.37533C5.98198 2.76843 8.02935 1.67415 10.2582 1.2308C12.487 0.787458 14.7973 1.01496 16.8968 1.88461C18.9963 2.75426 20.7908 4.22702 22.0534 6.11654C23.3159 8.00606 23.9898 10.2275 23.9898 12.5C23.9898 15.5473 22.7792 18.4698 20.6244 20.6246C18.4696 22.7794 15.5471 23.99 12.4998 23.99ZM12.4998 2.51999C10.522 2.51999 8.58853 3.10648 6.94404 4.20529C5.29955 5.3041 4.01781 6.86594 3.26094 8.6932C2.50406 10.5205 2.30605 12.5311 2.69191 14.4709C3.07776 16.4107 4.03014 18.1925 5.42866 19.591C6.82719 20.9896 8.60903 21.942 10.5488 22.3278C12.4887 22.7137 14.4994 22.5156 16.3266 21.7588C18.1539 21.0019 19.7157 19.7201 20.8145 18.0757C21.9133 16.4312 22.4998 14.4978 22.4998 12.52C22.4998 9.86782 21.4462 7.32431 19.5708 5.44894C17.6954 3.57358 15.1519 2.51999 12.4998 2.51999Z" fill="#B7B7B7"/>
<path d="M10.0896 17.36C9.93279 17.3599 9.78 17.3106 9.65265 17.2191C9.52529 17.1276 9.42981 16.9985 9.37964 16.85L6.9696 9.66002C6.92863 9.56406 6.90841 9.46052 6.91027 9.35619C6.91214 9.25186 6.93608 9.14911 6.98047 9.05467C7.02485 8.96024 7.08871 8.87623 7.16784 8.80821C7.24698 8.7402 7.3396 8.68971 7.43963 8.66002C7.62794 8.59652 7.83372 8.61035 8.01184 8.69847C8.18996 8.78659 8.32587 8.94177 8.38964 9.12999L10.0896 14.2001L11.7896 9.12999C11.8183 9.03328 11.8662 8.94336 11.9304 8.86559C11.9947 8.78781 12.074 8.72378 12.1635 8.67735C12.2531 8.63093 12.351 8.60312 12.4516 8.59544C12.5522 8.58777 12.6533 8.60037 12.7488 8.63268C12.8444 8.66498 12.9325 8.71631 13.0077 8.78343C13.083 8.85056 13.1441 8.93218 13.1871 9.02342C13.2301 9.11466 13.2542 9.21364 13.2581 9.31444C13.262 9.41524 13.2455 9.5157 13.2096 9.60997L10.7996 16.8C10.7583 16.9579 10.6666 17.098 10.5385 17.1991C10.4104 17.3001 10.2528 17.3566 10.0896 17.36Z" fill="#B7B7B7"/>
<path d="M14.9094 17.36C14.7529 17.3584 14.6008 17.3086 14.4737 17.2173C14.3466 17.126 14.2509 16.9978 14.1994 16.85L11.7894 9.66007C11.75 9.56394 11.731 9.46069 11.7336 9.35685C11.7363 9.253 11.7605 9.15081 11.8047 9.0568C11.8489 8.96278 11.9121 8.879 11.9904 8.8107C12.0686 8.74241 12.1603 8.6911 12.2594 8.66007C12.3519 8.62736 12.45 8.6136 12.5479 8.61966C12.6458 8.62573 12.7415 8.65148 12.8292 8.69535C12.917 8.73922 12.995 8.80035 13.0586 8.87503C13.1222 8.94972 13.1701 9.03643 13.1994 9.13004L14.8993 14.2001L16.5994 9.13004C16.6317 9.03177 16.6837 8.94114 16.7523 8.86368C16.8208 8.78622 16.9045 8.7236 16.9981 8.6796C17.0917 8.6356 17.1934 8.61118 17.2967 8.60782C17.4001 8.60447 17.5031 8.62223 17.5994 8.66007C17.6994 8.69002 17.7921 8.74055 17.8715 8.80838C17.9508 8.87622 18.0152 8.95986 18.0604 9.05399C18.1055 9.14812 18.1306 9.25065 18.1338 9.35501C18.1371 9.45938 18.1186 9.56329 18.0794 9.66007L15.6594 16.85C15.6072 17.0052 15.5056 17.1391 15.3702 17.2312C15.2347 17.3233 15.0729 17.3686 14.9094 17.36Z" fill="#B7B7B7"/>
<path d="M18.8998 12.24H6.08984C5.89093 12.24 5.70016 12.161 5.55951 12.0204C5.41886 11.8797 5.33984 11.6889 5.33984 11.49C5.33984 11.2911 5.41886 11.1004 5.55951 10.9597C5.70016 10.8191 5.89093 10.74 6.08984 10.74H18.8998C19.0988 10.74 19.2895 10.8191 19.4302 10.9597C19.5708 11.1004 19.6498 11.2911 19.6498 11.49C19.6498 11.6889 19.5708 11.8797 19.4302 12.0204C19.2895 12.161 19.0988 12.24 18.8998 12.24Z" fill="#B7B7B7"/>
</svg>
