<svg width="14" height="14" viewBox="0 0 14 14" fill="none" xmlns="http://www.w3.org/2000/svg">
<path d="M7 14C10.866 14 14 10.866 14 7C14 3.13401 10.866 0 7 0C3.13401 0 0 3.13401 0 7C0 10.866 3.13401 14 7 14Z" fill="#4D3BA2"/>
<path d="M5.84095 3.47987C5.82077 3.27905 5.86183 3.07684 5.95873 2.89979C6.05564 2.72274 6.20385 2.57917 6.38389 2.48793C6.56392 2.39669 6.76735 2.36202 6.96743 2.38856C7.16751 2.4151 7.35488 2.50159 7.50491 2.63661C7.65493 2.77163 7.76058 2.9489 7.80798 3.14509C7.85537 3.34128 7.84229 3.54723 7.77045 3.73585C7.69862 3.92447 7.57138 4.0869 7.40548 4.20186C7.23958 4.31681 7.04278 4.37888 6.84095 4.37989C6.71555 4.38941 6.58953 4.37341 6.4705 4.33284C6.35146 4.29226 6.24189 4.22794 6.14841 4.14381C6.05494 4.05968 5.97949 3.95751 5.92664 3.8434C5.8738 3.72928 5.84465 3.60558 5.84095 3.47987ZM5.97095 5.16987H7.74096V10.8799H5.97095V5.16987Z" fill="white"/>
</svg>
