<svg width="23" height="23" viewBox="0 0 23 23" fill="none" xmlns="http://www.w3.org/2000/svg">
<g clip-path="url(#clip0_216_6172)">
<path d="M17.1369 11.7303C17.1129 10.9321 17.314 10.1432 17.7173 9.4539C18.1205 8.76458 18.7096 8.20264 19.4172 7.83235C18.9748 7.21674 18.3952 6.71253 17.7243 6.3596C17.0534 6.00667 16.3096 5.8147 15.5517 5.7989C13.9275 5.66896 12.1604 6.74092 11.5108 6.74092C10.8611 6.74092 9.24992 5.84438 8.01556 5.84438C5.46887 5.88336 2.75977 7.87135 2.75977 11.9253C2.76979 13.1892 2.98933 14.4427 3.40943 15.6348C3.99413 17.311 6.10555 21.4234 8.30791 21.3519C9.45782 21.3519 10.2569 20.5333 11.7706 20.5333C13.2843 20.5333 13.9795 21.3519 15.2593 21.3519C17.4812 21.3194 19.3912 17.5838 19.9499 15.9012C19.1174 15.5592 18.4051 14.9778 17.9031 14.2307C17.4012 13.4836 17.1323 12.6044 17.1304 11.7044L17.1369 11.7303ZM14.5382 4.2332C14.942 3.7879 15.2482 3.26314 15.4372 2.69256C15.6263 2.12199 15.6941 1.51821 15.6361 0.919922C14.4389 1.04528 13.3316 1.61285 12.5307 2.51159C12.1206 2.94991 11.8051 3.46799 11.6039 4.03355C11.4027 4.59911 11.3201 5.20003 11.3613 5.7989C11.9783 5.81193 12.5893 5.67581 13.1424 5.40209C13.6955 5.12838 14.1743 4.72516 14.5382 4.22672V4.2332Z" fill="#B7B7B7"/>
</g>
<defs>
<clipPath id="clip0_216_6172">
<rect width="17.1966" height="20.458" fill="white" transform="translate(2.75977 0.919922)"/>
</clipPath>
</defs>
</svg>
