<svg width="29" height="27" viewBox="0 0 29 27" fill="none" xmlns="http://www.w3.org/2000/svg">
<path fill-rule="evenodd" clip-rule="evenodd" d="M14.5007 0C6.49236 0 0.00292969 5.201 0.00292969 11.6178C0.00292969 15.7933 2.75374 19.4535 6.88222 21.5013C6.78896 21.8574 6.64755 22.3939 6.49241 22.9824C6.14777 24.2899 5.73431 25.8584 5.62399 26.3019C5.42794 27.1012 5.91395 27.0906 6.2317 26.8751C6.48034 26.7069 10.2047 24.1422 11.8115 23.0345C12.7026 23.1681 13.6021 23.235 14.5029 23.2348C22.5112 23.2348 29.0007 18.033 29.0007 11.6178C29.0007 5.20253 22.509 0 14.5029 0H14.5007ZM8.66714 8.19507H4.42524C4.23398 8.19507 4.05055 8.27207 3.91532 8.40912C3.78008 8.54618 3.7041 8.73206 3.7041 8.92589C3.7041 9.11972 3.78008 9.3056 3.91532 9.44266C4.05055 9.57971 4.23398 9.65671 4.42524 9.65671H5.80365V14.8044C5.80404 14.9934 5.87822 15.1744 6.00997 15.3081C6.14172 15.4418 6.32033 15.5171 6.50675 15.5177H6.65698C6.8434 15.5173 7.02204 15.442 7.15371 15.3083C7.28539 15.1746 7.35934 14.9933 7.35934 14.8044V9.65747H8.66714C8.85839 9.65747 9.04182 9.58047 9.17705 9.44342C9.31229 9.30636 9.38827 9.12048 9.38827 8.92665C9.38827 8.73283 9.31229 8.54694 9.17705 8.40988C9.04182 8.27283 8.85839 8.19507 8.66714 8.19507ZM12.6206 8.71351L14.7337 14.5753C14.7952 14.7531 14.7846 14.9491 14.7041 15.1189C14.6236 15.2888 14.4798 15.4192 14.3044 15.4816C14.1289 15.544 13.9362 15.5332 13.7687 15.4516C13.6011 15.37 13.4724 15.2243 13.4108 15.0465L13.0518 14.0028H10.1597L9.79991 15.0427C9.77125 15.133 9.72502 15.2166 9.66397 15.2885C9.60293 15.3604 9.52829 15.4192 9.44446 15.4613C9.36063 15.5035 9.26931 15.5283 9.1759 15.5341C9.08248 15.54 8.98885 15.5268 8.90054 15.4953C8.81223 15.4639 8.73102 15.4149 8.66172 15.3511C8.59241 15.2874 8.53641 15.2102 8.49701 15.1242C8.45761 15.0381 8.43561 14.945 8.43232 14.8502C8.42903 14.7554 8.4445 14.6609 8.47783 14.5723L10.5556 8.92362C10.5673 8.89089 10.5808 8.85886 10.5962 8.8277C10.681 8.409 11.1077 8.09003 11.623 8.09003C12.088 8.09003 12.4779 8.35038 12.6138 8.70666C12.6159 8.70914 12.6181 8.71143 12.6206 8.71351ZM10.6202 12.6782L11.59 9.86988H11.6215L12.5928 12.6774L10.6202 12.6782ZM18.8553 14.1436H16.8842V8.8863C16.8874 8.78011 16.8696 8.67434 16.8317 8.57527C16.7939 8.4762 16.7368 8.38585 16.6638 8.30957C16.5908 8.2333 16.5035 8.17265 16.4069 8.13124C16.3104 8.08982 16.2066 8.06848 16.1018 8.06848C15.997 8.06848 15.8932 8.08982 15.7967 8.13124C15.7002 8.17265 15.6128 8.2333 15.5398 8.30957C15.4669 8.38585 15.4098 8.4762 15.3719 8.57527C15.3341 8.67434 15.3162 8.78011 15.3195 8.8863V14.5532C15.32 14.5958 15.324 14.6384 15.3315 14.6803C15.3237 14.722 15.3197 14.7643 15.3195 14.8067C15.3193 14.8939 15.336 14.9803 15.3688 15.0609C15.4016 15.1415 15.4498 15.2148 15.5106 15.2765C15.5713 15.3383 15.6435 15.3873 15.723 15.4207C15.8025 15.4541 15.8877 15.4713 15.9737 15.4713H18.8553C19.029 15.4713 19.1956 15.4014 19.3184 15.2769C19.4413 15.1524 19.5103 14.9835 19.5103 14.8075C19.5103 14.6314 19.4413 14.4626 19.3184 14.3381C19.1956 14.2136 19.029 14.1436 18.8553 14.1436ZM22.9591 11.4602L25.1571 14.385C25.215 14.4592 25.257 14.5445 25.282 14.6357C25.307 14.727 25.3136 14.8223 25.3017 14.9162C25.2897 15.0102 25.2593 15.1007 25.2122 15.1825C25.1652 15.2643 25.1025 15.3357 25.0278 15.3926C24.9531 15.4495 24.8679 15.4906 24.7772 15.5136C24.6866 15.5366 24.5923 15.5409 24.5 15.5264C24.4077 15.5119 24.3191 15.4788 24.2396 15.429C24.1601 15.3793 24.0912 15.314 24.0371 15.2368L21.9585 12.4726L21.5123 12.9256V14.7275C21.5156 14.8337 21.4978 14.9395 21.4599 15.0386C21.422 15.1376 21.3649 15.228 21.292 15.3043C21.219 15.3805 21.1317 15.4412 21.0351 15.4826C20.9386 15.524 20.8348 15.5453 20.73 15.5453C20.6252 15.5453 20.5214 15.524 20.4249 15.4826C20.3283 15.4412 20.241 15.3805 20.168 15.3043C20.095 15.228 20.0379 15.1376 20.0001 15.0386C19.9622 14.9395 19.9444 14.8337 19.9476 14.7275V8.8863C19.9444 8.78011 19.9622 8.67434 20.0001 8.57527C20.0379 8.4762 20.095 8.38585 20.168 8.30957C20.241 8.2333 20.3283 8.17265 20.4249 8.13124C20.5214 8.08982 20.6252 8.06848 20.73 8.06848C20.8348 8.06848 20.9386 8.08982 21.0351 8.13124C21.1317 8.17265 21.219 8.2333 21.292 8.30957C21.3649 8.38585 21.422 8.4762 21.4599 8.57527C21.4978 8.67434 21.5156 8.78011 21.5123 8.8863V10.9516L23.9679 8.4577C24.0321 8.39272 24.1082 8.34117 24.192 8.30601C24.2757 8.27084 24.3655 8.25274 24.4562 8.25274C24.5469 8.25274 24.6367 8.27084 24.7205 8.30601C24.8042 8.34117 24.8804 8.39272 24.9445 8.4577C25.0086 8.52268 25.0595 8.59983 25.0942 8.68473C25.1289 8.76963 25.1467 8.86063 25.1467 8.95253C25.1467 9.04442 25.1289 9.13542 25.0942 9.22033C25.0595 9.30523 25.0086 9.38237 24.9445 9.44735L22.9591 11.4602Z" fill="black"/>
</svg>
