<svg width="17" height="30" viewBox="0 0 17 30" fill="none" xmlns="http://www.w3.org/2000/svg">
<path d="M10.0497 4.36688C10.3162 4.08221 10.4936 3.72587 10.5603 3.34164C10.6269 2.95742 10.5797 2.56208 10.4246 2.20432C10.2694 1.84655 10.0131 1.54194 9.68707 1.32797C9.36106 1.114 8.97961 1 8.58965 1C8.1997 1 7.81824 1.114 7.49223 1.32797C7.16622 1.54194 6.90988 1.84655 6.75474 2.20432C6.5996 2.56208 6.55243 2.95742 6.61904 3.34164C6.68565 3.72587 6.86313 4.08221 7.12965 4.36688C6.1871 4.67491 5.36613 5.27317 4.78418 6.07605C4.20223 6.87893 3.88912 7.84528 3.88965 8.83688H13.2897C13.2933 7.84454 12.9813 6.87675 12.399 6.07327C11.8166 5.26979 10.9939 4.67221 10.0497 4.36688Z" fill="white" stroke="#4D3BA2" stroke-width="1.5" stroke-linecap="round" stroke-linejoin="round"/>
<path d="M10.9402 10.7168H6.24023C3.47881 10.7168 1.24023 12.9554 1.24023 15.7168V23.7568C1.24023 26.5182 3.47881 28.7568 6.24023 28.7568H10.9402C13.7017 28.7568 15.9402 26.5182 15.9402 23.7568V15.7168C15.9402 12.9554 13.7017 10.7168 10.9402 10.7168Z" fill="white" stroke="#4D3BA2" stroke-width="1.5" stroke-miterlimit="10"/>
<path d="M13.8196 7.95703H3.35965C2.27165 7.95703 1.38965 8.83903 1.38965 9.92703C1.38965 11.015 2.27165 11.897 3.35965 11.897H13.8196C14.9076 11.897 15.7896 11.015 15.7896 9.92703C15.7896 8.83903 14.9076 7.95703 13.8196 7.95703Z" fill="white" stroke="#4D3BA2" stroke-width="1.5" stroke-miterlimit="10"/>
<path d="M1 16.417H4.31" stroke="#4D3BA2" stroke-width="1.5" stroke-miterlimit="10"/>
<path d="M1 20.0571H4.31" stroke="#4D3BA2" stroke-width="1.5" stroke-miterlimit="10"/>
<path d="M1 23.687H4.31" stroke="#4D3BA2" stroke-width="1.5" stroke-miterlimit="10"/>
</svg>
