<svg width="140" height="127" viewBox="0 0 140 127" fill="none" xmlns="http://www.w3.org/2000/svg">
<path d="M60.8498 0.376215C51.3933 1.41288 18.6361 2.31315 3.10229 55.8925C-12.4315 109.472 34.9602 121.366 43.9807 124.094C53.0012 126.822 111.757 138.226 135.221 84.8647C156.124 37.4508 104.263 -4.4252 60.8498 0.376215ZM105.189 90.921C104.946 90.9598 104.697 90.9598 104.453 90.921C103.704 90.6714 103.084 90.1361 102.727 89.4312C102.369 88.7263 102.304 87.9088 102.546 87.1563C102.742 86.4202 103.212 85.7876 103.861 85.3888C104.509 84.99 105.286 84.8554 106.03 85.0129C106.775 85.1703 107.43 85.6078 107.862 86.235C108.294 86.8622 108.469 87.6314 108.351 88.3839C108.255 89.1345 107.872 89.8185 107.282 90.2919C106.692 90.7652 105.942 90.9907 105.189 90.921ZM98.1309 36.1685C98.1138 36.5522 98.0198 36.9285 97.8545 37.275C97.6892 37.6216 97.4559 37.9313 97.1686 38.1858C96.8814 38.4403 96.5459 38.6344 96.1822 38.7565C95.8184 38.8786 95.4339 38.9263 95.0514 38.8966L94.3429 38.7329C93.9441 38.6503 93.5673 38.4842 93.2371 38.2455C92.907 38.0068 92.631 37.701 92.4272 37.348C92.2235 36.995 92.0966 36.6029 92.0549 36.1974C92.0132 35.7919 92.0576 35.3821 92.1852 34.995C92.3128 34.6079 92.5207 34.2521 92.7954 33.9511C93.07 33.6501 93.4051 33.4106 93.7787 33.2484C94.1523 33.0861 94.5559 33.0048 94.9631 33.0097C95.3704 33.0146 95.7719 33.1056 96.1415 33.2768C96.7392 33.4813 97.2553 33.8729 97.6135 34.3936C97.9718 34.9144 98.1532 35.5367 98.1309 36.1685ZM75.6478 64.7042C75.6626 64.4337 75.7591 64.1741 75.9245 63.9597C76.09 63.7454 76.3166 63.5864 76.5744 63.5039H76.9014C78.5911 63.2583 80.2807 63.1219 81.9976 63.0128C82.4609 61.3214 82.9242 59.6573 83.3602 57.9931C83.3385 57.6314 83.4613 57.2758 83.7015 57.0047C83.9417 56.7335 84.2797 56.569 84.6411 56.5473C85.0024 56.5256 85.3576 56.6485 85.6285 56.8889C85.8994 57.1294 86.0637 57.4677 86.0854 57.8295L87.5843 62.7673H91.8084C91.991 62.76 92.1732 62.7888 92.3446 62.852C92.516 62.9153 92.6733 63.0117 92.8075 63.1359C92.9416 63.26 93.05 63.4095 93.1264 63.5756C93.2028 63.7417 93.2458 63.9213 93.2528 64.104C93.2578 64.4424 93.1418 64.7713 92.9258 65.0316C91.9368 66.0668 90.8301 66.9824 89.6282 67.7597L89.1922 68.0325L90.9363 73.7614C91.0057 74.0156 91.0015 74.2843 90.9242 74.5362C90.847 74.7881 90.6999 75.0128 90.5001 75.1843C90.3002 75.3558 90.0558 75.4669 89.7954 75.5048C89.5349 75.5427 89.269 75.5057 89.0287 75.3983C87.339 74.4434 85.7039 73.3795 84.096 72.2883C83.268 73.3673 82.3568 74.3798 81.3708 75.3164C81.1503 75.6239 80.8169 75.8312 80.4438 75.8926C80.0707 75.9539 79.6886 75.8645 79.3814 75.6438C79.0742 75.4231 78.8672 75.0893 78.8058 74.7158C78.7445 74.3424 78.8339 73.9598 79.0543 73.6523C79.4631 72.1246 79.8992 70.5696 80.3352 69.0418C78.9181 67.9233 77.61 66.7503 76.1929 65.5499C76.0742 65.4531 75.9767 65.3329 75.9064 65.1968C75.8361 65.0607 75.7944 64.9116 75.7841 64.7588C75.7712 64.7142 75.7712 64.6669 75.7841 64.6224L75.6478 64.7042ZM28.8284 77.417C29.0022 76.9012 29.3166 76.4443 29.7361 76.0979C30.1556 75.7515 30.6635 75.5295 31.2025 75.4568C31.7414 75.3842 32.2899 75.4639 32.786 75.6869C33.2821 75.9099 33.706 76.2673 34.0098 76.7187C34.3137 77.1702 34.4854 77.6977 34.5055 78.2417C34.5257 78.7857 34.3934 79.3245 34.1238 79.7972C33.8541 80.27 33.4578 80.6578 32.9796 80.9169C32.5013 81.176 31.9602 81.2961 31.4174 81.2636C31.167 81.2352 30.9204 81.1803 30.6816 81.0999C29.9485 80.8568 29.3416 80.3326 28.9942 79.6421C28.6468 78.9517 28.5872 78.1514 28.8284 77.417ZM49.0769 39.9333C50.0841 41.7317 51.7487 43.0692 53.7206 43.6644C55.6925 44.2597 57.8182 44.0664 59.6507 43.1251C59.9227 42.9951 60.2269 42.9486 60.5252 42.9915C60.8235 43.0344 61.1024 43.1647 61.3269 43.366C61.5513 43.5673 61.7111 43.8306 61.7863 44.1227C61.8614 44.4149 61.8485 44.7227 61.7492 45.0075C60.5185 48.2234 58.1293 50.8612 55.0523 52.4013C51.9753 53.9414 48.4337 54.2721 45.1253 53.3281C41.738 52.3396 38.858 50.089 37.0781 47.0394C35.2982 43.9897 34.7538 40.3731 35.5569 36.9338C36.3599 33.4946 38.4494 30.4943 41.3952 28.5504C44.3411 26.6065 47.9192 25.8669 51.3933 26.4839C51.6847 26.5434 51.9519 26.6883 52.1608 26.9002C52.3698 27.1121 52.511 27.3815 52.5665 27.674C52.622 27.9665 52.5893 28.269 52.4726 28.5428C52.3559 28.8167 52.1604 29.0496 51.9111 29.212C50.1343 30.2752 48.8432 31.9918 48.3137 33.9951C47.7841 35.9983 48.058 38.1295 49.0769 39.9333ZM66.164 96.8955C66.0416 97.1477 65.8269 97.3431 65.5645 97.4411C64.327 97.9159 63.0504 98.281 61.7492 98.5323C61.7492 99.9782 61.7492 101.397 61.7492 102.815C61.7119 103.048 61.6023 103.263 61.436 103.429C61.2696 103.596 61.0549 103.706 60.8226 103.743C60.5921 103.759 60.362 103.706 60.1625 103.589C59.9631 103.472 59.8037 103.298 59.7052 103.088C59.1329 101.915 58.5334 100.769 57.9338 99.6236C56.6259 100.111 55.2757 100.477 53.9005 100.715C53.0557 100.715 52.2654 99.6508 52.9467 98.9961C53.933 97.9723 54.8438 96.8782 55.6719 95.7224L55.4266 95.3132C54.9067 94.5511 54.4855 93.7261 54.173 92.8579C54.0816 92.5969 54.0927 92.3108 54.204 92.0575C54.3153 91.8043 54.5185 91.6028 54.7726 91.4939C54.905 91.4327 55.0491 91.4011 55.195 91.4011C55.3408 91.4011 55.485 91.4327 55.6174 91.4939L58.0156 92.4214C58.6615 91.5748 59.4124 90.8139 60.2503 90.1571C60.4862 89.9977 60.7751 89.937 61.0552 89.9879C61.3353 90.0389 61.5844 90.1976 61.7492 90.43C61.8852 90.65 61.9428 90.9096 61.9127 91.1665C61.7764 92.0668 61.6947 92.9671 61.6401 93.8946C62.921 94.3857 64.1746 94.904 65.4282 95.4496C65.5687 95.4984 65.6981 95.5748 65.8088 95.6743C65.9194 95.7738 66.0091 95.8945 66.0725 96.0292C66.136 96.1638 66.172 96.3098 66.1783 96.4586C66.1847 96.6074 66.1613 96.7559 66.1095 96.8955H66.164Z" fill="#503AA9"/>
</svg>
