<svg width="59" height="48" viewBox="0 0 59 48" fill="none" xmlns="http://www.w3.org/2000/svg">
<path d="M57 7.14999L29.5 25.15L2 7.14999M7.5 2H51.5C52.2223 2 52.9374 2.14227 53.6047 2.41867C54.272 2.69507 54.8783 3.10018 55.3891 3.6109C55.8998 4.12162 56.3049 4.72794 56.5813 5.39523C56.8577 6.06252 57 6.77773 57 7.5V40.5C56.9974 41.9579 56.417 43.3553 55.3862 44.3862C54.3553 45.417 52.9579 45.9974 51.5 46H7.5C6.04293 45.9947 4.64704 45.4136 3.61673 44.3833C2.58642 43.353 2.00527 41.9571 2 40.5V7.5C2.00527 6.04293 2.58642 4.64704 3.61673 3.61673C4.64704 2.58642 6.04293 2.00527 7.5 2Z" stroke="#503AA9" stroke-width="4" stroke-linecap="round" stroke-linejoin="round"/>
</svg>
