<svg width="66" height="66" viewBox="0 0 66 66" fill="none" xmlns="http://www.w3.org/2000/svg">
<path d="M12.42 29.5523H3.5C3.38879 29.5525 3.27821 29.5402 3.17035 29.5156C2.89566 29.4537 2.64159 29.3152 2.43933 29.1129C2.15803 28.8316 2 28.4501 2 28.0523V19.1023C2 18.7045 2.15803 18.3229 2.43933 18.0416C2.72064 17.7603 3.10218 17.6023 3.5 17.6023C3.89782 17.6023 4.27936 17.7603 4.56067 18.0416C4.84197 18.3229 5 18.7045 5 19.1023V24.5745V26.5223H7.28184H12.42C12.8178 26.5223 13.1993 26.6803 13.4807 26.9616C13.762 27.2429 13.92 27.6245 13.92 28.0223C13.92 28.4201 13.762 28.8016 13.4807 29.0829C13.1993 29.3643 12.8178 29.5223 12.42 29.5223V29.5523Z" fill="#4D3DA2"/>
<path d="M61.83 49.0023C61.4322 49.0023 61.0506 48.8442 60.7693 48.5629C60.488 48.2816 60.33 47.9001 60.33 47.5023V42.0851V40.1523H58.0631H52.99C52.5922 40.1523 52.2107 39.9942 51.9294 39.7129C51.648 39.4316 51.49 39.0501 51.49 38.6523C51.49 38.2544 51.648 37.8729 51.9294 37.5916C52.2107 37.3103 52.5922 37.1523 52.99 37.1523H61.3229H61.83C62.2278 37.1523 62.6094 37.3103 62.8907 37.5916C63.172 37.8729 63.33 38.2544 63.33 38.6523V39.1747V47.5023C63.33 47.9001 63.172 48.2816 62.8907 48.5629C62.6094 48.8442 62.2278 49.0023 61.83 49.0023Z" fill="#4D3DA2"/>
<path d="M32.66 58.7023C27.4159 58.7056 22.2998 57.0832 18.016 54.0584C13.7322 51.0336 10.4915 46.7552 8.74001 41.8123C8.67435 41.6264 8.64592 41.4295 8.65636 41.2327C8.66681 41.0359 8.71593 40.8431 8.80089 40.6653C8.88586 40.4874 9.00502 40.3281 9.15157 40.1963C9.29812 40.0646 9.46917 39.9629 9.65499 39.8973C9.84081 39.8316 10.0377 39.8032 10.2345 39.8136C10.4314 39.8241 10.6242 39.8732 10.802 39.9582C10.9798 40.0431 11.1392 40.1623 11.271 40.3088C11.4027 40.4554 11.5043 40.6264 11.57 40.8123C12.8293 44.3743 14.9707 47.5592 17.7942 50.0696C20.6178 52.5799 24.0313 54.3339 27.7163 55.1678C31.4012 56.0016 35.2374 55.8882 38.8666 54.838C42.4958 53.7878 45.7998 51.8351 48.47 49.1623L58.0631 40.1523L60.81 37.5723C60.944 37.4003 61.1139 37.2595 61.3078 37.1599C61.3128 37.1573 61.3178 37.1548 61.3229 37.1523C61.5128 37.0574 61.7207 37.0039 61.9329 36.9953C62.1508 36.9865 62.3679 37.0253 62.5692 37.109C62.7706 37.1928 62.9513 37.3194 63.0987 37.48C63.2461 37.6407 63.3567 37.8316 63.4228 38.0393C63.4889 38.2471 63.5088 38.4668 63.4813 38.6831C63.4595 38.8548 63.4082 39.0211 63.33 39.1747C63.3097 39.2146 63.2875 39.2537 63.2636 39.2918C63.1477 39.4764 62.9929 39.6336 62.81 39.7523L60.33 42.0851L50.51 51.3223C45.7726 56.0498 39.3527 58.7041 32.66 58.7023ZM3.5 29.5523C3.38879 29.5525 3.27821 29.5402 3.17035 29.5156C3.07927 29.4949 2.99014 29.4655 2.9042 29.4276C2.71647 29.345 2.54814 29.2239 2.40999 29.0723C2.1369 28.7831 1.98981 28.3974 2.00106 27.9999C2.01231 27.6023 2.18099 27.2255 2.46999 26.9523L5 24.5745L14.77 15.3923C17.4462 12.7408 20.6722 10.7096 24.22 9.44227C30.5618 7.20889 37.5303 7.58105 43.5981 10.4772C49.666 13.3733 54.3379 18.5571 56.59 24.8923C56.7226 25.2675 56.7007 25.6801 56.5291 26.0393C56.3575 26.3984 56.0503 26.6747 55.675 26.8073C55.2997 26.9399 54.8871 26.918 54.528 26.7464C54.1689 26.5748 53.8926 26.2675 53.76 25.8923C52.5029 22.3284 50.3625 19.1414 47.5392 16.6294C44.7158 14.1174 41.3016 12.3623 37.6157 11.5282C33.9297 10.6941 30.0925 10.8083 26.4627 11.8601C22.8329 12.9118 19.529 14.8668 16.86 17.5423L7.28184 26.5223L4.52999 29.1023C4.25736 29.3792 3.88845 29.5404 3.5 29.5523Z" fill="#4D3DA2"/>
<path d="M33.1 49.5823C29.8683 49.5823 26.7091 48.624 24.022 46.8285C21.3349 45.033 19.2406 42.4811 18.0038 39.4953C16.7671 36.5096 16.4435 33.2241 17.074 30.0545C17.7045 26.8848 19.2607 23.9733 21.5459 21.6882C23.8311 19.403 26.7426 17.8467 29.9122 17.2162C33.0819 16.5858 36.3673 16.9093 39.3531 18.1461C42.3388 19.3828 44.8908 21.4772 46.6862 24.1643C48.4817 26.8514 49.44 30.0105 49.44 33.2423C49.4347 37.5743 47.7115 41.7274 44.6483 44.7906C41.5851 47.8538 37.432 49.577 33.1 49.5823ZM33.1 19.9023C30.4616 19.9023 27.8825 20.6847 25.6887 22.1505C23.4949 23.6163 21.7851 25.6997 20.7755 28.1373C19.7658 30.5748 19.5016 33.2571 20.0163 35.8448C20.5311 38.4325 21.8016 40.8095 23.6672 42.6751C25.5328 44.5407 27.9098 45.8112 30.4975 46.3259C33.0852 46.8407 35.7675 46.5765 38.205 45.5668C40.6426 44.5571 42.726 42.8473 44.1918 40.6536C45.6576 38.4598 46.44 35.8807 46.44 33.2423C46.4347 29.7059 45.0276 26.3159 42.527 23.8153C40.0264 21.3147 36.6364 19.9076 33.1 19.9023Z" fill="#4D3DA2"/>
<path d="M29.72 40.4523C29.4074 40.4541 29.1021 40.3589 28.8459 40.1798C28.5898 40.0007 28.3956 39.7465 28.29 39.4523L26.2364 33.3223L25.2314 30.3223L24.94 29.4523C24.8637 29.2626 24.827 29.0592 24.8321 28.8548C24.8373 28.6503 24.8842 28.4491 24.97 28.2635C25.0558 28.0778 25.1786 27.9117 25.3309 27.7752C25.4833 27.6388 25.6619 27.5349 25.8558 27.4701C26.0498 27.4052 26.2549 27.3807 26.4587 27.398C26.6625 27.4153 26.8605 27.4741 27.0408 27.5708C27.221 27.6674 27.3795 27.8 27.5066 27.9601C27.6338 28.1203 27.7268 28.3048 27.78 28.5023L28.3919 30.3223L29.72 34.2723L31.0412 30.3223L31.5434 28.821L31.65 28.5023C31.7069 28.3105 31.8017 28.132 31.9287 27.9774C32.0556 27.8228 32.2123 27.6951 32.3893 27.602C32.5663 27.5088 32.7602 27.452 32.9596 27.4348C33.1589 27.4177 33.3597 27.4406 33.55 27.5023C33.7372 27.5643 33.9102 27.6629 34.059 27.7922C34.0707 27.8024 34.0823 27.8128 34.0937 27.8234C34.2268 27.9466 34.3363 28.0932 34.4169 28.2559C34.4854 28.3944 34.5318 28.5425 34.5547 28.6948C34.5611 28.7368 34.5656 28.7792 34.5683 28.8218C34.5809 29.0186 34.5543 29.2159 34.49 29.4023L33.0637 33.6598L31.14 39.4023C31.0435 39.7042 30.8544 39.9681 30.5995 40.1565C30.3446 40.345 30.0369 40.4485 29.72 40.4523Z" fill="#4D3DA2"/>
<path d="M36.43 40.4523C36.1188 40.4535 35.815 40.3579 35.5605 40.1787C35.3061 39.9995 35.1137 39.7457 35.01 39.4523L33.0637 33.6598L31.65 29.4523C31.5737 29.2626 31.537 29.0592 31.5421 28.8548C31.5424 28.8435 31.5428 28.8323 31.5434 28.821C31.5526 28.6282 31.5989 28.4389 31.68 28.2635C31.7658 28.0778 31.8886 27.9117 32.0409 27.7752C32.1932 27.6388 32.3719 27.5349 32.5658 27.4701C32.7598 27.4052 32.9649 27.3807 33.1687 27.398C33.3725 27.4153 33.5705 27.4741 33.7508 27.5708C33.8768 27.6384 33.9922 27.7235 34.0937 27.8234C34.1374 27.8663 34.1784 27.912 34.2166 27.9601C34.3438 28.1203 34.4368 28.3048 34.49 28.5023L34.5547 28.6948L35.1019 30.3223L36.43 34.2723L37.7581 30.3223L38.37 28.5023C38.4232 28.3048 38.5162 28.1203 38.6434 27.9601C38.7705 27.8 38.929 27.6674 39.1092 27.5708C39.2895 27.4741 39.4875 27.4153 39.6913 27.398C39.8951 27.3807 40.1002 27.4052 40.2942 27.4701C40.4881 27.5349 40.6667 27.6388 40.8191 27.7752C40.9714 27.9117 41.0942 28.0778 41.18 28.2635C41.2658 28.4491 41.3127 28.6503 41.3179 28.8548C41.323 29.0592 41.2863 29.2626 41.21 29.4523L40.9177 30.3223L39.9097 33.3223L37.85 39.4523C37.7463 39.7457 37.5539 39.9995 37.2995 40.1787C37.045 40.3579 36.7412 40.4535 36.43 40.4523Z" fill="#4D3DA2"/>
<path d="M41.99 33.3223H39.9097H26.2364H24.16C23.7622 33.3223 23.3806 33.1643 23.0993 32.8829C22.818 32.6016 22.66 32.2201 22.66 31.8223C22.66 31.4245 22.818 31.0429 23.0993 30.7616C23.3806 30.4803 23.7622 30.3223 24.16 30.3223H25.2314H28.3919H31.0412H35.1019H37.7581H40.9177H41.99C42.3878 30.3223 42.7694 30.4803 43.0507 30.7616C43.332 31.0429 43.49 31.4245 43.49 31.8223C43.49 32.2201 43.332 32.6016 43.0507 32.8829C42.7694 33.1643 42.3878 33.3223 41.99 33.3223Z" fill="#4D3DA2"/>
<path fill-rule="evenodd" clip-rule="evenodd" d="M12.42 29.5523H3.5C3.38879 29.5525 3.27821 29.5402 3.17035 29.5156C2.89566 29.4537 2.64159 29.3152 2.43933 29.1129C2.15803 28.8316 2 28.4501 2 28.0523V19.1023C2 18.7045 2.15803 18.3229 2.43933 18.0416C2.72064 17.7603 3.10218 17.6023 3.5 17.6023C3.89782 17.6023 4.27936 17.7603 4.56067 18.0416C4.84197 18.3229 5 18.7045 5 19.1023V24.5745L14.77 15.3923C17.4462 12.7408 20.6722 10.7096 24.22 9.44227C30.5618 7.20889 37.5303 7.58105 43.5981 10.4772C49.666 13.3733 54.3379 18.5571 56.59 24.8923C56.7226 25.2675 56.7007 25.6801 56.5291 26.0393C56.3575 26.3984 56.0503 26.6747 55.675 26.8073C55.2997 26.9399 54.8871 26.918 54.528 26.7464C54.1689 26.5748 53.8926 26.2675 53.76 25.8923C52.5029 22.3284 50.3625 19.1414 47.5392 16.6294C44.7158 14.1174 41.3016 12.3623 37.6157 11.5282C33.9297 10.6941 30.0925 10.8083 26.4627 11.8601C22.8329 12.9118 19.529 14.8668 16.86 17.5423L7.28184 26.5223H12.42C12.8178 26.5223 13.1993 26.6803 13.4807 26.9616C13.762 27.2429 13.92 27.6245 13.92 28.0223C13.92 28.4201 13.762 28.8016 13.4807 29.0829C13.1993 29.3643 12.8178 29.5223 12.42 29.5223V29.5523ZM61.83 49.0023C61.4322 49.0023 61.0506 48.8442 60.7693 48.5629C60.488 48.2816 60.33 47.9001 60.33 47.5023V42.0851L50.51 51.3223C45.7726 56.0498 39.3527 58.7041 32.66 58.7023C27.4159 58.7056 22.2998 57.0832 18.016 54.0584C13.7322 51.0336 10.4915 46.7552 8.74001 41.8123C8.67435 41.6264 8.64592 41.4295 8.65636 41.2327C8.66681 41.0359 8.71593 40.8431 8.80089 40.6653C8.88586 40.4874 9.00502 40.3281 9.15157 40.1963C9.29812 40.0646 9.46917 39.9629 9.65499 39.8973C9.84081 39.8316 10.0377 39.8032 10.2345 39.8136C10.4314 39.8241 10.6242 39.8732 10.802 39.9582C10.9798 40.0431 11.1392 40.1623 11.271 40.3088C11.4027 40.4554 11.5043 40.6264 11.57 40.8123C12.8293 44.3743 14.9707 47.5592 17.7942 50.0696C20.6178 52.5799 24.0313 54.3339 27.7163 55.1678C31.4012 56.0016 35.2374 55.8882 38.8666 54.838C42.4958 53.7878 45.7998 51.8351 48.47 49.1623L58.0631 40.1523H52.99C52.5922 40.1523 52.2107 39.9942 51.9294 39.7129C51.648 39.4316 51.49 39.0501 51.49 38.6523C51.49 38.2544 51.648 37.8729 51.9294 37.5916C52.2107 37.3103 52.5922 37.1523 52.99 37.1523H61.3229C61.5128 37.0574 61.7207 37.0039 61.9329 36.9953C62.1508 36.9865 62.3679 37.0253 62.5692 37.109C62.7706 37.1928 62.9513 37.3194 63.0987 37.48C63.2461 37.6407 63.3567 37.8316 63.4228 38.0393C63.4889 38.2471 63.5088 38.4668 63.4813 38.6831C63.4595 38.8548 63.4082 39.0211 63.33 39.1747V47.5023C63.33 47.9001 63.172 48.2816 62.8907 48.5629C62.6094 48.8442 62.2278 49.0023 61.83 49.0023ZM24.022 46.8285C26.7091 48.624 29.8683 49.5823 33.1 49.5823C37.432 49.577 41.5851 47.8538 44.6483 44.7906C47.7115 41.7274 49.4347 37.5743 49.44 33.2423C49.44 30.0105 48.4817 26.8514 46.6862 24.1643C44.8908 21.4772 42.3388 19.3828 39.3531 18.1461C36.3673 16.9093 33.0819 16.5858 29.9122 17.2162C26.7426 17.8467 23.8311 19.403 21.5459 21.6882C19.2607 23.9733 17.7045 26.8848 17.074 30.0545C16.4435 33.2241 16.7671 36.5096 18.0038 39.4953C19.2406 42.4811 21.3349 45.033 24.022 46.8285ZM25.6887 22.1505C27.8825 20.6847 30.4616 19.9023 33.1 19.9023C36.6364 19.9076 40.0264 21.3147 42.527 23.8153C45.0276 26.3159 46.4347 29.7059 46.44 33.2423C46.44 35.8807 45.6576 38.4598 44.1918 40.6536C42.726 42.8473 40.6426 44.5571 38.205 45.5668C35.7675 46.5765 33.0852 46.8407 30.4975 46.3259C27.9098 45.8112 25.5328 44.5407 23.6672 42.6751C21.8016 40.8095 20.5311 38.4325 20.0163 35.8448C19.5016 33.2571 19.7658 30.5748 20.7755 28.1373C21.7851 25.6997 23.4949 23.6163 25.6887 22.1505ZM28.8459 40.1798C29.1021 40.3589 29.4074 40.4541 29.72 40.4523C30.0369 40.4485 30.3446 40.345 30.5995 40.1565C30.8544 39.9681 31.0435 39.7042 31.14 39.4023L33.0637 33.6598L35.01 39.4523C35.1137 39.7457 35.3061 39.9995 35.5605 40.1787C35.815 40.3579 36.1188 40.4535 36.43 40.4523C36.7412 40.4535 37.045 40.3579 37.2995 40.1787C37.5539 39.9995 37.7463 39.7457 37.85 39.4523L39.9097 33.3223H41.99C42.3878 33.3223 42.7694 33.1643 43.0507 32.8829C43.332 32.6016 43.49 32.2201 43.49 31.8223C43.49 31.4245 43.332 31.0429 43.0507 30.7616C42.7694 30.4803 42.3878 30.3223 41.99 30.3223H40.9177L41.21 29.4523C41.2863 29.2626 41.323 29.0592 41.3179 28.8548C41.3127 28.6503 41.2658 28.4491 41.18 28.2635C41.0942 28.0778 40.9714 27.9117 40.8191 27.7752C40.6667 27.6388 40.4881 27.5349 40.2942 27.4701C40.1002 27.4052 39.8951 27.3807 39.6913 27.398C39.4875 27.4153 39.2895 27.4741 39.1092 27.5708C38.929 27.6674 38.7705 27.8 38.6434 27.9601C38.5162 28.1203 38.4232 28.3048 38.37 28.5023L37.7581 30.3223H35.1019L34.5547 28.6948C34.5318 28.5425 34.4854 28.3944 34.4169 28.2559C34.3363 28.0932 34.2268 27.9466 34.0937 27.8234C33.9922 27.7235 33.8768 27.6384 33.7508 27.5708C33.5705 27.4741 33.3725 27.4153 33.1687 27.398C32.9649 27.3807 32.7598 27.4052 32.5658 27.4701C32.3719 27.5349 32.1932 27.6388 32.0409 27.7752C31.8886 27.9117 31.7658 28.0778 31.68 28.2635C31.5989 28.4389 31.5526 28.6282 31.5434 28.821L31.0412 30.3223H28.3919L27.78 28.5023C27.7268 28.3048 27.6338 28.1203 27.5066 27.9601C27.3795 27.8 27.221 27.6674 27.0408 27.5708C26.8605 27.4741 26.6625 27.4153 26.4587 27.398C26.2549 27.3807 26.0498 27.4052 25.8558 27.4701C25.6619 27.5349 25.4833 27.6388 25.3309 27.7752C25.1786 27.9117 25.0558 28.0778 24.97 28.2635C24.8842 28.4491 24.8373 28.6503 24.8321 28.8548C24.827 29.0592 24.8637 29.2626 24.94 29.4523L25.2314 30.3223H24.16C23.7622 30.3223 23.3806 30.4803 23.0993 30.7616C22.818 31.0429 22.66 31.4245 22.66 31.8223C22.66 32.2201 22.818 32.6016 23.0993 32.8829C23.3806 33.1643 23.7622 33.3223 24.16 33.3223H26.2364L28.29 39.4523C28.3956 39.7465 28.5898 40.0007 28.8459 40.1798Z" fill="#4D3DA2"/>
</svg>
