<svg width="66" height="66" viewBox="0 0 66 66" fill="none" xmlns="http://www.w3.org/2000/svg">
<path d="M49.67 58.4721C49.4735 58.4823 49.2765 58.4823 49.08 58.4721C41.7643 57.6787 34.7347 55.1893 28.55 51.202C22.5996 47.3801 17.579 42.2761 13.8556 36.2636C10.1321 30.251 7.80006 23.4821 7.03001 16.4521C6.94746 15.5933 7.03562 14.7267 7.28944 13.9022C7.54326 13.0777 7.95769 12.3115 8.50889 11.6478C9.06009 10.9841 9.73716 10.4361 10.5011 10.0352C11.265 9.63434 12.1007 9.38857 12.96 9.31207H20.43C22.0014 9.31981 23.5178 9.89137 24.7033 10.9228C25.8889 11.9542 26.6648 13.3769 26.89 14.9321C27.1545 16.9817 27.651 18.9946 28.37 20.9321C28.809 22.1026 28.9038 23.3742 28.6433 24.5969C28.3828 25.8195 27.7779 26.9421 26.9 27.8321L25.11 29.6221C27.8588 33.981 31.5534 37.6654 35.92 40.4021L37.7 38.6221C38.5933 37.7428 39.7188 37.1366 40.9445 36.8744C42.1702 36.6123 43.4452 36.7051 44.62 37.1421C46.5387 37.8551 48.5311 38.3515 50.56 38.6221C52.1482 38.8399 53.6011 39.6335 54.6427 40.852C55.6843 42.0706 56.242 43.6293 56.21 45.2321V52.0121C56.2127 53.7458 55.5279 55.4098 54.3057 56.6395C53.0835 57.8692 51.4237 58.5641 49.69 58.5721L49.67 58.4721ZM20.41 13.2621H13.32C12.9868 13.291 12.6627 13.3854 12.3661 13.5399C12.0696 13.6944 11.8064 13.9059 11.5918 14.1623C11.3772 14.4187 11.2153 14.715 11.1155 15.0342C11.0156 15.3533 10.9798 15.689 11.01 16.0221C11.7258 22.7318 14.0108 29.179 17.68 34.8421C21.0145 40.0708 25.4513 44.5076 30.68 47.8421C36.3311 51.4893 42.7542 53.7695 49.44 54.5021C49.5062 54.5133 49.5738 54.5133 49.64 54.5021C50.3146 54.4994 50.9606 54.2296 51.4367 53.7517C51.9127 53.2737 52.18 52.6266 52.18 51.952V45.0921C52.1936 44.4686 51.9782 43.8618 51.5747 43.3864C51.1711 42.911 50.6074 42.6 49.99 42.5121C47.6666 42.2083 45.3853 41.6413 43.19 40.8221C42.7325 40.6493 42.2351 40.6111 41.7566 40.7121C41.2781 40.8131 40.8386 41.0491 40.49 41.3921L37.61 44.2621C37.3011 44.5721 36.8991 44.7722 36.4656 44.8318C36.0321 44.8914 35.5911 44.8072 35.21 44.5921C29.2088 41.1827 24.2377 36.2186 20.82 30.2221C20.6049 29.841 20.5207 29.3999 20.5803 28.9664C20.6399 28.5329 20.84 28.1309 21.15 27.8221L24.04 24.9421C24.3766 24.5957 24.6079 24.1609 24.7071 23.6883C24.8062 23.2156 24.7691 22.7245 24.6 22.2721C23.7798 20.0695 23.2096 17.7819 22.9 15.4521C22.8142 14.8501 22.5162 14.2986 22.0596 13.8971C21.603 13.4955 21.018 13.2703 20.41 13.2621ZM47.41 29.0321C46.9393 29.0406 46.4806 28.8829 46.1148 28.5865C45.7489 28.2902 45.4994 27.8743 45.41 27.4121C45.0541 25.5838 44.1591 23.904 42.8403 22.5887C41.5215 21.2735 39.8392 20.383 38.01 20.0321C37.4888 19.9313 37.0291 19.6276 36.7318 19.1878C36.4346 18.7481 36.3242 18.2082 36.425 17.6871C36.5258 17.1659 36.8295 16.7061 37.2692 16.4089C37.709 16.1117 38.2488 16.0013 38.77 16.1021C41.3828 16.6004 43.786 17.8713 45.6686 19.7504C47.5513 21.6294 48.8267 24.0302 49.33 26.6421C49.433 27.1618 49.3255 27.7013 49.0312 28.1419C48.7368 28.5825 48.2796 28.8882 47.76 28.9921C47.6378 29.0143 47.5141 29.0277 47.39 29.0321H47.41ZM56.5 29.0321C56.0071 29.0353 55.5304 28.8565 55.1613 28.5298C54.7922 28.2031 54.5567 27.7517 54.5 27.2621C54.0457 23.0982 52.1798 19.2152 49.2126 16.2589C46.2453 13.3025 42.3556 11.451 38.19 11.0121C37.9274 10.9832 37.673 10.9028 37.4414 10.7756C37.2098 10.6484 37.0055 10.4769 36.8402 10.2707C36.6749 10.0646 36.5519 9.82789 36.478 9.57418C36.4042 9.32047 36.3811 9.05471 36.41 8.79206C36.4389 8.52942 36.5192 8.27505 36.6464 8.04345C36.7736 7.81186 36.9452 7.60757 37.1513 7.44228C37.3575 7.277 37.5942 7.15393 37.8479 7.08012C38.1016 7.0063 38.3674 6.98317 38.63 7.01206C43.6977 7.55019 48.4289 9.80555 52.0379 13.4036C55.6469 17.0017 57.9165 21.726 58.47 26.7921C58.5291 27.3184 58.3769 27.8467 58.047 28.261C57.717 28.6753 57.2362 28.9418 56.71 29.0021L56.5 29.0321Z" fill="#503AA9"/>
<path fill-rule="evenodd" clip-rule="evenodd" d="M49.08 58.4721C49.2765 58.4823 49.4735 58.4823 49.67 58.4721L49.69 58.5721C51.4237 58.5641 53.0835 57.8692 54.3057 56.6395C55.5279 55.4098 56.2127 53.7458 56.21 52.0121V45.2321C56.242 43.6293 55.6843 42.0706 54.6427 40.852C53.6011 39.6335 52.1482 38.8399 50.56 38.6221C48.5311 38.3515 46.5387 37.8551 44.62 37.1421C43.4452 36.7051 42.1702 36.6123 40.9445 36.8744C39.7188 37.1366 38.5933 37.7428 37.7 38.6221L35.92 40.4021C31.5534 37.6654 27.8588 33.981 25.11 29.6221L26.9 27.8321C27.7779 26.9421 28.3828 25.8195 28.6433 24.5969C28.9038 23.3742 28.809 22.1026 28.37 20.9321C27.651 18.9946 27.1545 16.9817 26.89 14.9321C26.6648 13.3769 25.8889 11.9542 24.7033 10.9228C23.5178 9.89137 22.0014 9.31981 20.43 9.31207H12.96C12.1007 9.38857 11.265 9.63434 10.5011 10.0352C9.73716 10.4361 9.06009 10.9841 8.50889 11.6478C7.95769 12.3115 7.54326 13.0777 7.28944 13.9022C7.03562 14.7267 6.94746 15.5933 7.03001 16.4521C7.80006 23.4821 10.1321 30.251 13.8556 36.2636C17.579 42.2761 22.5996 47.3801 28.55 51.202C34.7347 55.1893 41.7643 57.6787 49.08 58.4721ZM46.1148 28.5865C46.4806 28.8829 46.9393 29.0406 47.41 29.0321H47.39C47.5141 29.0277 47.6378 29.0143 47.76 28.9921C48.2796 28.8882 48.7368 28.5825 49.0312 28.1419C49.3255 27.7013 49.433 27.1618 49.33 26.6421C48.8267 24.0302 47.5513 21.6294 45.6686 19.7504C43.786 17.8713 41.3828 16.6004 38.77 16.1021C38.2488 16.0013 37.709 16.1117 37.2692 16.4089C36.8295 16.7061 36.5258 17.1659 36.425 17.6871C36.3242 18.2082 36.4346 18.7481 36.7318 19.1878C37.0291 19.6276 37.4888 19.9313 38.01 20.0321C39.8392 20.383 41.5215 21.2735 42.8403 22.5887C44.1591 23.904 45.0541 25.5838 45.41 27.4121C45.4994 27.8743 45.7489 28.2902 46.1148 28.5865ZM55.1613 28.5298C55.5304 28.8565 56.0071 29.0353 56.5 29.0321L56.71 29.0021C57.2362 28.9418 57.717 28.6753 58.047 28.261C58.3769 27.8467 58.5291 27.3184 58.47 26.7921C57.9165 21.726 55.6469 17.0017 52.0379 13.4036C48.4289 9.80555 43.6977 7.55019 38.63 7.01206C38.3674 6.98317 38.1016 7.0063 37.8479 7.08012C37.5942 7.15393 37.3575 7.277 37.1513 7.44228C36.9452 7.60757 36.7736 7.81186 36.6464 8.04345C36.5192 8.27505 36.4389 8.52942 36.41 8.79206C36.3811 9.05471 36.4042 9.32047 36.478 9.57418C36.5519 9.82789 36.6749 10.0646 36.8402 10.2707C37.0055 10.4769 37.2098 10.6484 37.4414 10.7756C37.673 10.9028 37.9274 10.9832 38.19 11.0121C42.3556 11.451 46.2453 13.3025 49.2126 16.2589C52.1798 19.2152 54.0457 23.0982 54.5 27.2621C54.5567 27.7517 54.7922 28.2031 55.1613 28.5298ZM13.32 13.2621H20.41C21.018 13.2703 21.603 13.4955 22.0596 13.8971C22.5162 14.2986 22.8142 14.8501 22.9 15.4521C23.2096 17.7819 23.7798 20.0695 24.6 22.2721C24.7691 22.7245 24.8062 23.2156 24.7071 23.6883C24.6079 24.1609 24.3766 24.5957 24.04 24.9421L21.15 27.8221C20.84 28.1309 20.6399 28.5329 20.5803 28.9664C20.5207 29.3999 20.6049 29.841 20.82 30.2221C24.2377 36.2186 29.2088 41.1827 35.21 44.5921C35.5911 44.8072 36.0321 44.8914 36.4656 44.8318C36.8991 44.7722 37.3011 44.5721 37.61 44.2621L40.49 41.3921C40.8386 41.0491 41.2781 40.8131 41.7566 40.7121C42.2351 40.6111 42.7325 40.6493 43.19 40.8221C45.3853 41.6413 47.6666 42.2083 49.99 42.5121C50.6074 42.6 51.1711 42.911 51.5747 43.3864C51.9782 43.8618 52.1936 44.4686 52.18 45.0921V51.952C52.18 52.6266 51.9127 53.2737 51.4367 53.7517C50.9606 54.2296 50.3146 54.4994 49.64 54.5021C49.5738 54.5133 49.5062 54.5133 49.44 54.5021C42.7542 53.7695 36.3311 51.4893 30.68 47.8421C25.4513 44.5076 21.0145 40.0708 17.68 34.8421C14.0108 29.179 11.7258 22.7318 11.01 16.0221C10.9798 15.689 11.0156 15.3533 11.1155 15.0342C11.2153 14.715 11.3772 14.4187 11.5918 14.1623C11.8064 13.9059 12.0696 13.6944 12.3661 13.5399C12.6627 13.3854 12.9868 13.291 13.32 13.2621Z" fill="#503AA9"/>
</svg>
