<svg width="147" height="145" viewBox="0 0 147 145" fill="none" xmlns="http://www.w3.org/2000/svg">
<path d="M63.8246 0.394831C53.9011 1.4929 19.536 2.43596 3.23504 58.8056C-12.9951 114.936 36.6413 127.532 46.0692 130.697C55.4971 133.862 117.155 145.404 141.848 89.2608C163.754 39.4021 109.368 -4.64982 63.8246 0.394831Z" fill="#F0EFFE"/>
<path d="M122.432 64.4501C122.11 62.0509 121.657 59.6711 121.075 57.3212C119.931 52.5689 118.189 47.981 115.889 43.6676C111.678 35.7327 105.17 29.2537 97.2164 25.0786C89.5872 20.9996 80.9813 19.1022 72.3442 19.5948C70.2634 19.7248 68.1947 20.0043 66.1541 20.4313C66.0736 20.45 65.9977 20.4848 65.931 20.5335C61.8248 21.4713 57.9636 23.2673 54.601 25.8035L53.5507 26.6307C50.6747 28.5751 47.9945 30.7946 45.5481 33.2577C39.4886 39.3454 34.8762 46.7183 32.0525 54.8303C30.6388 58.8648 29.7029 63.0511 29.2642 67.3035C28.7441 71.7453 28.9103 76.2406 29.7567 80.6319C30.2164 82.8774 31.0223 85.0378 32.1454 87.0358C33.327 89.0669 34.9079 90.8376 36.7927 92.2407C38.676 93.618 40.7166 94.7662 42.8713 95.6611C45.2507 96.7021 47.7045 97.6037 50.1675 98.4495C60.3574 101.788 71.0511 103.326 81.7689 102.994C91.5932 102.688 101.845 100.736 110.024 94.9733C113.606 92.4791 116.652 89.2936 118.984 85.6044C121.418 81.7109 122.787 77.2461 122.953 72.6572C123.014 69.9117 122.84 67.1659 122.432 64.4501Z" fill="#5042A5"/>
<path d="M121.893 105.077C121.351 101.034 119.919 97.1611 117.702 93.7372C115.196 90.1136 112.083 86.9503 108.5 84.3869C101.936 79.5266 94.3999 76.1406 86.4069 74.4604C78.4112 72.7442 70.145 72.7189 62.139 74.386C60.2072 74.8008 58.2991 75.3189 56.4228 75.9382H56.3392C49.1078 78.2343 42.89 82.9551 38.7354 89.3037C36.3108 92.9599 34.4525 96.9614 33.2237 101.173C31.8689 105.53 31.1489 110.06 31.086 114.622C30.9852 119.029 32.0806 123.381 34.2554 127.216C36.2324 130.424 38.8956 133.154 42.0535 135.209C49.1824 139.968 57.8542 141.279 66.275 140.721C71.1992 140.322 76.0903 139.586 80.9138 138.518C83.3769 138.007 85.84 137.468 88.303 136.938L91.9279 136.167C93.0787 135.859 94.2699 135.731 95.4598 135.786C97.6905 135.971 99.7631 136.994 101.966 137.152C103.872 137.277 105.781 136.959 107.543 136.222C111.18 134.56 114.266 131.893 116.438 128.536C121.065 121.647 123.006 113.3 121.893 105.077V105.077Z" fill="#8C88EA"/>
<path d="M61.5158 93.5328H59.3223C59.1529 93.0789 59.0072 92.6167 58.8855 92.1479C58.8642 92.0754 58.8287 92.0079 58.781 91.9493C58.7333 91.8907 58.6744 91.8422 58.6078 91.8067C58.5411 91.7712 58.468 91.7494 58.3928 91.7426C58.3176 91.7357 58.2418 91.7439 58.1698 91.7668C58.0383 91.8058 57.9258 91.8918 57.8537 92.0085C57.5709 92.5023 57.3612 93.0345 57.231 93.5885C56.7663 93.5885 56.3016 93.5885 55.8461 93.6443H55.7811C55.6224 93.6436 55.4695 93.7034 55.3535 93.8116C55.2501 93.919 55.1924 94.0622 55.1924 94.2113C55.1924 94.3603 55.2501 94.5035 55.3535 94.6109C55.6882 94.97 56.0696 95.2826 56.4875 95.5404L56.7012 95.6984C56.5164 96.451 56.2804 97.1901 55.9948 97.9105C55.7996 98.3752 56.4317 98.7841 56.822 98.5518C57.4482 98.1401 58.0389 97.6768 58.588 97.1669C59.1271 97.6038 59.6662 98.0406 60.196 98.4867C60.2842 98.5728 60.3978 98.6282 60.5199 98.6449C60.642 98.6617 60.7663 98.6388 60.8744 98.5797C60.9837 98.5177 61.0689 98.4207 61.1161 98.3043C61.1633 98.1879 61.1699 98.0589 61.1347 97.9383C60.8652 97.2227 60.5585 96.5163 60.2053 95.8192C60.7931 95.4131 61.3464 94.9592 61.8597 94.4622C61.9133 94.4094 61.956 94.3465 61.9851 94.2771C62.0142 94.2077 62.0292 94.1332 62.0292 94.0579C62.0292 93.9826 62.0142 93.9081 61.9851 93.8387C61.956 93.7693 61.9133 93.7064 61.8597 93.6536C61.7599 93.5794 61.64 93.5373 61.5158 93.5328V93.5328Z" fill="white"/>
<path d="M86.6207 104.807C85.8957 104.807 85.1615 104.807 84.4365 104.807C84.2672 104.35 84.1214 103.885 83.9997 103.413C83.9667 103.307 83.9041 103.213 83.8192 103.142C83.7343 103.071 83.6309 103.026 83.5211 103.013C83.4113 102.999 83.2999 103.017 83.2002 103.065C83.1004 103.113 83.0166 103.188 82.9587 103.283C82.6797 103.777 82.4731 104.309 82.3453 104.863C81.8805 104.863 81.4158 104.863 80.9604 104.909H80.8953C80.8169 104.904 80.7383 104.915 80.6647 104.943C80.591 104.97 80.5239 105.012 80.4678 105.067C80.3644 105.175 80.3066 105.318 80.3066 105.467C80.3066 105.616 80.3644 105.759 80.4678 105.867C80.8025 106.226 81.1839 106.538 81.6017 106.796L81.8155 106.954C81.6307 107.707 81.3947 108.446 81.1091 109.166C80.9139 109.631 81.5459 110.04 81.9363 109.807C82.5646 109.399 83.1555 108.935 83.7022 108.423C84.2413 108.859 84.7804 109.296 85.3009 109.742C85.3914 109.828 85.5064 109.883 85.6298 109.9C85.7532 109.916 85.8787 109.894 85.9887 109.835C86.098 109.773 86.1831 109.676 86.2304 109.56C86.2776 109.444 86.2842 109.315 86.249 109.194C85.9794 108.478 85.6727 107.772 85.3195 107.075C85.9078 106.669 86.4611 106.215 86.9739 105.718C87.0801 105.61 87.1396 105.465 87.1396 105.314C87.1396 105.162 87.0801 105.017 86.9739 104.909C86.8687 104.841 86.7459 104.806 86.6207 104.807V104.807Z" fill="white"/>
<path d="M66.9816 104.919H64.7881C64.6188 104.465 64.473 104.002 64.3513 103.534C64.3311 103.461 64.2966 103.394 64.2498 103.336C64.203 103.277 64.1449 103.229 64.079 103.193C64.013 103.158 63.9407 103.136 63.8661 103.129C63.7915 103.122 63.7163 103.13 63.6449 103.153C63.5091 103.188 63.3924 103.274 63.3195 103.394C63.043 103.891 62.8336 104.422 62.6968 104.974L61.312 105.03H61.2562C61.0958 105.025 60.9396 105.082 60.8193 105.188C60.7159 105.295 60.6582 105.439 60.6582 105.588C60.6582 105.737 60.7159 105.88 60.8193 105.987C61.1547 106.346 61.536 106.658 61.9533 106.917L62.167 107.066C61.9879 107.82 61.7518 108.559 61.4606 109.278C61.2655 109.742 61.9068 110.161 62.2972 109.919C62.9238 109.508 63.5145 109.045 64.0631 108.534C64.5929 108.98 65.132 109.408 65.6618 109.863C65.7523 109.949 65.8673 110.004 65.9907 110.02C66.1141 110.037 66.2396 110.015 66.3496 109.956C66.4577 109.893 66.5418 109.796 66.5889 109.68C66.636 109.564 66.6434 109.435 66.6098 109.315C66.3403 108.599 66.0336 107.893 65.6804 107.186C66.2685 106.784 66.8219 106.333 67.3348 105.839C67.4409 105.731 67.5004 105.586 67.5004 105.434C67.5004 105.283 67.4409 105.138 67.3348 105.03C67.2347 104.951 67.109 104.911 66.9816 104.919V104.919Z" fill="#7167CE"/>
<path d="M91.928 93.7836H90.4595C90.348 93.4769 90.255 93.1702 90.1714 92.8542C90.1414 92.7583 90.0747 92.6782 89.986 92.6312C89.8972 92.5842 89.7935 92.5742 89.6973 92.6032C89.6528 92.6136 89.6109 92.6329 89.5741 92.6601C89.5374 92.6873 89.5065 92.7217 89.4836 92.7613C89.2906 93.0909 89.1495 93.4482 89.0653 93.8208H88.1359C88.0819 93.8163 88.0276 93.8231 87.9764 93.8407C87.9252 93.8583 87.8782 93.8863 87.8384 93.9231C87.7712 93.9967 87.7339 94.0928 87.7339 94.1926C87.7339 94.2923 87.7712 94.3885 87.8384 94.4621C88.0661 94.7028 88.322 94.915 88.6006 95.0942L88.74 95.1964C88.6187 95.7 88.4602 96.194 88.266 96.6742C88.1359 96.9903 88.5634 97.2598 88.8237 97.1018C89.2458 96.8262 89.6439 96.5153 90.0134 96.1723L91.0822 97.0553C91.1415 97.113 91.2175 97.1504 91.2994 97.1621C91.3812 97.1737 91.4647 97.1592 91.5377 97.1204C91.6089 97.0772 91.6644 97.0125 91.6961 96.9356C91.7279 96.8586 91.7343 96.7736 91.7143 96.6928C91.5377 96.2095 91.3332 95.7634 91.1194 95.2708C91.5152 94.9946 91.8853 94.6836 92.2255 94.3413C92.2623 94.3058 92.2916 94.2632 92.3116 94.2161C92.3316 94.169 92.3419 94.1183 92.3419 94.0671C92.3419 94.016 92.3316 93.9653 92.3116 93.9182C92.2916 93.8711 92.2623 93.8285 92.2255 93.7929C92.1792 93.771 92.1289 93.7588 92.0777 93.7572C92.0265 93.7556 91.9756 93.7646 91.928 93.7836V93.7836Z" fill="#7167CE"/>
<path d="M72.0843 103.655C72.7567 103.655 73.3019 103.109 73.3019 102.437C73.3019 101.764 72.7567 101.219 72.0843 101.219C71.4118 101.219 70.8667 101.764 70.8667 102.437C70.8667 103.109 71.4118 103.655 72.0843 103.655Z" fill="white"/>
<path d="M63.6448 92.5011C64.3173 92.5011 64.8624 91.9559 64.8624 91.2835C64.8624 90.611 64.3173 90.0659 63.6448 90.0659C62.9724 90.0659 62.4272 90.611 62.4272 91.2835C62.4272 91.9559 62.9724 92.5011 63.6448 92.5011Z" fill="white"/>
<path d="M51.4129 99.6393C52.0853 99.6393 52.6305 99.0941 52.6305 98.4217C52.6305 97.7492 52.0853 97.2041 51.4129 97.2041C50.7404 97.2041 50.1953 97.7492 50.1953 98.4217C50.1953 99.0941 50.7404 99.6393 51.4129 99.6393Z" fill="white"/>
<path d="M70.0116 83.3459C84.862 83.3459 96.9006 71.8898 96.9006 57.7581C96.9006 43.6263 84.862 32.1703 70.0116 32.1703C55.1612 32.1703 43.1226 43.6263 43.1226 57.7581C43.1226 71.8898 55.1612 83.3459 70.0116 83.3459Z" fill="#FFED92"/>
<path d="M95.9335 68.6606C100.861 68.6606 104.856 64.8614 104.856 60.1747C104.856 55.4881 100.861 51.6888 95.9335 51.6888C91.0056 51.6888 87.0107 55.4881 87.0107 60.1747C87.0107 64.8614 91.0056 68.6606 95.9335 68.6606Z" fill="#FFED92"/>
<path d="M102.84 31.4825C101.597 29.5815 99.9963 27.9401 98.1274 26.6493C94.1865 23.861 89.3534 22.569 84.5946 22.095C79.6891 21.6487 74.7444 21.9463 69.9279 22.978C65.1062 23.9928 60.4507 25.6792 56.0976 27.9877C51.7224 30.2925 47.7003 33.2128 44.1542 36.6595C42.3776 38.387 40.7398 40.2516 39.256 42.2362C37.7417 44.1409 36.6059 46.3178 35.9099 48.6494C35.6025 49.7841 35.4831 50.9616 35.5567 52.1349C35.5614 52.2806 35.6089 52.4218 35.6932 52.5407C35.7774 52.6597 35.8948 52.7513 36.0308 52.8041C35.9674 52.9119 35.9292 53.0326 35.9192 53.1573C35.9239 53.3456 36.0009 53.5249 36.1341 53.6581C36.2673 53.7914 36.4466 53.8683 36.6349 53.873C44.2461 54.4035 51.7853 52.1067 57.8078 47.4226C59.3366 46.2392 60.7467 44.9101 62.0182 43.4538C65.595 46.4217 69.6324 48.7857 73.971 50.4526C78.4902 52.2451 83.2937 53.2147 88.1544 53.3153C92.8017 53.3711 97.83 52.3859 101.418 49.2257C103.087 47.7606 104.309 45.853 104.94 43.7234C105.509 41.6737 105.598 39.5206 105.201 37.431C104.807 35.3137 104.005 33.2932 102.84 31.4825V31.4825Z" fill="#5042A5"/>
<path d="M63.9423 60.658C63.0789 61.7638 62.6641 63.1543 62.7805 64.5524C62.8581 65.1726 63.1034 65.7599 63.4899 66.2512C63.8763 66.7425 64.3894 67.1192 64.9739 67.3407C65.1687 67.3918 65.3757 67.3638 65.5498 67.2628C65.7239 67.1618 65.8511 66.996 65.9034 66.8016C65.9524 66.6083 65.9246 66.4035 65.8258 66.2302C65.727 66.0569 65.5649 65.9285 65.3736 65.8722C65.3736 65.8722 65.2621 65.8257 65.3736 65.8722L65.2063 65.7792L65.0762 65.6956C64.9739 65.6305 65.1505 65.7607 65.0762 65.6956C64.991 65.6198 64.9103 65.5391 64.8345 65.4539C64.8345 65.4539 64.7602 65.3703 64.8345 65.4539L64.7416 65.3238C64.6753 65.226 64.6162 65.1235 64.565 65.0171C64.565 65.0171 64.4999 64.8777 64.565 64.9334V64.8405C64.565 64.729 64.4999 64.6174 64.4721 64.5059V64.3479C64.4721 64.4501 64.4721 64.3479 64.4721 64.2828C64.4705 63.2662 64.822 62.2806 65.4665 61.4945C65.5283 61.407 65.5712 61.3076 65.5925 61.2026C65.6138 61.0977 65.613 60.9895 65.5901 60.8848C65.5673 60.7802 65.5229 60.6815 65.4598 60.5949C65.3967 60.5084 65.3163 60.436 65.2237 60.3822C65.131 60.3284 65.0282 60.2946 64.9218 60.2827C64.8154 60.2708 64.7077 60.2813 64.6055 60.3133C64.5033 60.3454 64.4089 60.3984 64.3283 60.4689C64.2477 60.5394 64.1827 60.626 64.1374 60.723L63.9423 60.658Z" fill="#8C88EA"/>
<path d="M72.4932 59.7936V63.0374C72.4932 63.3086 72.6009 63.5686 72.7926 63.7604C72.9844 63.9521 73.2444 64.0598 73.5156 64.0598C73.7868 64.0598 74.0468 63.9521 74.2386 63.7604C74.4303 63.5686 74.538 63.3086 74.538 63.0374V59.7936C74.538 59.5225 74.4303 59.2624 74.2386 59.0707C74.0468 58.8789 73.7868 58.7712 73.5156 58.7712C73.2444 58.7712 72.9844 58.8789 72.7926 59.0707C72.6009 59.2624 72.4932 59.5225 72.4932 59.7936V59.7936Z" fill="#43427C"/>
<path d="M57.7329 59.7936V63.0374C57.7329 63.3086 57.8406 63.5686 58.0323 63.7604C58.2241 63.9521 58.4841 64.0598 58.7553 64.0598C59.0264 64.0598 59.2865 63.9521 59.4782 63.7604C59.67 63.5686 59.7777 63.3086 59.7777 63.0374V59.7936C59.7777 59.5225 59.67 59.2624 59.4782 59.0707C59.2865 58.8789 59.0264 58.7712 58.7553 58.7712C58.4841 58.7712 58.2241 58.8789 58.0323 59.0707C57.8406 59.2624 57.7329 59.5225 57.7329 59.7936Z" fill="#43427C"/>
<path d="M65.1597 71.7184C65.1597 71.7184 65.1597 71.7184 65.1597 71.7745C65.1608 71.7558 65.1608 71.7371 65.1597 71.7184V71.7184Z" fill="#43427C"/>
<path d="M68.9143 69.841C68.6756 69.425 68.3117 69.0951 67.8744 68.8981C67.4372 68.7012 66.9489 68.6473 66.4792 68.7442C66.347 68.721 66.2117 68.721 66.0795 68.7442C65.4961 68.8189 64.9431 69.0477 64.4775 69.4071C64.0119 69.7665 63.6505 70.2435 63.4305 70.789C63.238 71.3267 63.2354 71.9142 63.4231 72.4536C63.6108 72.993 63.9775 73.4519 64.4623 73.754C65.1108 74.0628 65.8451 74.1414 66.5442 73.977C67.1471 73.8626 67.7123 73.6008 68.1894 73.2149C68.6714 72.8155 69.005 72.2656 69.1365 71.6536C69.268 71.0416 69.1897 70.4031 68.9143 69.841ZM67.3157 70.7983C67.2692 70.7054 67.2878 70.7518 67.3157 70.7983V70.7983Z" fill="#43427C"/>
<path d="M64.3044 81.673C64.3044 81.9518 64.3044 82.2307 64.3695 82.5095C64.4979 83.2252 64.785 83.903 65.2096 84.4933C65.6342 85.0835 66.1856 85.5712 66.8233 85.9206C68.1162 86.6027 69.5766 86.9026 71.0337 86.785C71.9474 86.7797 72.8508 86.593 73.6917 86.2355C74.5326 85.8781 75.2941 85.3572 75.9319 84.703C76.5482 84.0275 76.9155 83.1618 76.973 82.2491C77.0304 81.3364 76.7747 80.4315 76.2479 79.684C75.0396 78.2154 72.8647 78.1225 70.9687 78.1504C69.5471 78.1024 68.1273 78.2908 66.7675 78.7081C66.09 78.927 65.4757 79.3069 64.9771 79.8151C64.4786 80.3234 64.1106 80.9449 63.9048 81.6265" fill="#FFED92"/>
<path d="M72.1117 98.496C69.4163 90.7444 66.4204 83.1043 63.124 75.5757C62.1883 73.438 61.2278 71.3095 60.2426 69.1904C60.1278 68.9952 59.9514 68.8436 59.7411 68.7595C59.5309 68.6754 59.2986 68.6635 59.0808 68.7257L43.2801 75.3341L35.3798 78.6336C32.9074 79.6746 30.3979 80.6691 27.9442 81.8124C25.3536 82.9657 22.9432 84.4871 20.7874 86.3295C20.5199 86.7456 20.4049 87.2416 20.4621 87.733C23.1755 95.4819 26.3157 103.075 29.8681 110.477C30.8843 112.583 31.9315 114.675 33.0097 116.75C33.1523 116.979 33.377 117.145 33.6377 117.214C33.8985 117.284 34.1759 117.251 34.4132 117.122L49.1822 110.765C51.2208 116.961 53.5196 123.052 56.0787 129.038C56.9152 130.99 57.7796 132.932 58.6718 134.865C58.7878 135.059 58.9644 135.21 59.1743 135.294C59.3842 135.378 59.6158 135.391 59.8337 135.33C62.9633 134.279 65.9778 132.912 68.8307 131.25C69.0597 131.107 69.2258 130.883 69.2948 130.622C69.3639 130.361 69.3309 130.084 69.2025 129.846L59.7872 109.398L58.5139 106.61C60.3232 105.761 62.1201 104.881 63.9047 103.97C66.5257 102.632 69.1003 101.182 71.6005 99.6578C71.7998 99.5453 71.9572 99.3714 72.0493 99.1619C72.1415 98.9525 72.1634 98.7189 72.1117 98.496Z" fill="#FFD524"/>
<path d="M86.6303 114.278C82.4362 113.769 78.1862 114.546 74.4445 116.509C70.7028 118.471 67.6462 121.524 65.6805 125.264C64.2415 127.908 63.6969 130.947 64.1283 133.927C64.9369 138.36 68.6083 141.892 72.8187 143.519C77.0291 145.145 81.6949 145.117 86.1656 144.541C91.8867 143.806 97.466 142.22 102.719 139.838C104.462 139.077 106.125 138.142 107.682 137.05C110.575 134.898 112.893 132.066 114.43 128.806C115.33 127.147 115.827 125.301 115.88 123.415C115.81 122.086 115.469 120.785 114.877 119.592C114.286 118.4 113.457 117.341 112.441 116.481C110.4 114.771 108.012 113.525 105.442 112.828C97.7817 110.506 89.5444 110.987 82.2061 114.185" fill="#8C88EA"/>
<path d="M65.2991 125.264C63.8664 127.911 63.3222 130.947 63.7469 133.927C64.5648 138.369 68.2362 141.901 72.4373 143.528C75.4132 144.599 78.574 145.06 81.7318 144.885C82.8362 134.769 80.9796 124.549 76.3874 115.468C71.6083 117.252 67.6585 120.741 65.2991 125.264V125.264Z" fill="#FFED92"/>
<path d="M57.7518 127.885C56.9001 123.772 54.7025 120.061 51.5059 117.336C49.3696 115.712 46.7536 114.846 44.0703 114.873C43.158 114.974 42.2654 115.209 41.4213 115.57C39.0488 116.697 37.2204 118.72 36.3373 121.193C35.4128 123.774 35.1111 126.538 35.4568 129.257C35.8024 131.977 36.7856 134.577 38.3263 136.845C39.8586 139.071 41.9837 140.822 44.4606 141.901C46.9531 143.055 49.7695 143.305 52.4261 142.608C55.2144 141.753 56.7387 139.308 57.4637 136.576C58.2187 133.738 58.3172 130.766 57.7518 127.885V127.885Z" fill="#FFED92"/>
<path d="M50.0097 91.2556L51.7943 84.6565C51.8348 84.4339 51.8024 84.2043 51.7019 84.0017C51.6015 83.799 51.4382 83.6342 51.2366 83.5318C50.1076 82.8358 48.8374 82.4007 47.5188 82.2585H47.3422C47.2563 82.2148 47.1659 82.1806 47.0727 82.1562C46.8061 82.1115 46.5326 82.1703 46.308 82.3206C46.0833 82.4709 45.9247 82.7014 45.8644 82.9648C45.316 84.7122 44.7955 86.4689 44.3215 88.2441C42.6299 87.3611 40.929 86.506 39.2281 85.6509C38.982 85.5371 38.7013 85.5229 38.4449 85.6112C38.1885 85.6996 37.9763 85.8836 37.8525 86.125C37.303 87.1662 36.8488 88.255 36.4955 89.3781C36.4955 89.3781 36.4955 89.4245 36.4955 89.4524C36.3977 89.55 36.3201 89.6659 36.2672 89.7935C36.2142 89.921 36.187 90.0578 36.187 90.196C36.187 90.3341 36.2142 90.4709 36.2672 90.5985C36.3201 90.7261 36.3977 90.842 36.4955 90.9395C37.5379 91.8543 38.7293 92.5836 40.0181 93.0959L42.8065 94.3692C42.3696 96.3303 41.97 98.2915 41.6075 100.271C41.5627 100.538 41.6216 100.811 41.7719 101.036C41.9222 101.261 42.1526 101.419 42.4161 101.48C43.7227 101.887 45.1034 102.002 46.4593 101.814C46.6799 101.791 46.8879 101.7 47.0545 101.553C47.221 101.407 47.3378 101.212 47.3887 100.996L48.4761 96.981L53.0119 99.0722C53.2577 99.1885 53.5392 99.204 53.7962 99.1155C54.0533 99.0269 54.2655 98.8412 54.3874 98.5982C54.7035 97.6688 55.0474 96.7393 55.3169 95.8099C55.4474 95.3598 55.403 94.877 55.1928 94.4582C54.9825 94.0394 54.6219 93.7155 54.183 93.5513C52.8074 92.7427 51.4039 91.9991 50.0097 91.2556Z" fill="#5042A5"/>
<path d="M77.8373 115.635C84.6788 113.002 91.8026 111.171 99.066 110.179C101.157 109.9 103.267 109.696 105.368 109.556C105.639 109.556 105.899 109.449 106.091 109.257C106.282 109.065 106.39 108.805 106.39 108.534C106.39 108.263 106.282 108.003 106.091 107.811C105.899 107.619 105.639 107.512 105.368 107.512C97.8601 108.004 90.4359 109.373 83.2467 111.592C81.2298 112.224 79.2408 112.912 77.2704 113.674C77.0112 113.752 76.7921 113.927 76.6588 114.162C76.5254 114.398 76.4882 114.676 76.5547 114.938C76.6286 115.198 76.8013 115.418 77.0359 115.552C77.2705 115.686 77.5482 115.722 77.8095 115.654L77.8373 115.635Z" fill="#5042A5"/>
</svg>
