<svg width="47" height="57" viewBox="0 0 47 57" fill="none" xmlns="http://www.w3.org/2000/svg">
<path d="M29.0218 1.69849H7.69034C6.27673 1.69849 4.92103 2.26004 3.92146 3.25961C2.92189 4.25918 2.36035 5.61488 2.36035 7.02849V49.6914C2.36035 51.105 2.92189 52.4607 3.92146 53.4602C4.92103 54.4598 6.27673 55.0213 7.69034 55.0213H39.6475C41.0622 55.0213 42.4191 54.4602 43.4205 53.4609C44.4218 52.4617 44.9859 51.106 44.9889 49.6914V17.7341L29.0218 1.69849ZM29.0218 1.69849L29.0218 17.6771H45.0004M34.3178 31.0191H13.032M34.3178 41.6907H13.032M18.3391 20.3593H13.0092" stroke="#503AA9" stroke-width="3" stroke-linecap="round" stroke-linejoin="round"/>
</svg>
