<svg width="61" height="58" viewBox="0 0 61 58" fill="none" xmlns="http://www.w3.org/2000/svg">
<g clip-path="url(#clip0_781_11051)">
<path d="M58.7495 19.3282C56.7046 12.9588 52.4391 7.5362 46.7305 4.04863C41.0219 0.561057 34.2502 -0.759275 27.6496 0.328231C27.5206 0.267288 27.3817 0.229982 27.2395 0.218185C20.7395 -0.111815 14.4495 2.92821 9.95955 7.49821C5.41341 12.3356 2.23788 18.2966 0.759553 24.7682C-0.150884 28.2128 -0.239942 31.823 0.499551 35.3082C1.28464 38.5495 2.69429 41.6065 4.64955 44.3082C8.06283 49.1095 12.7389 52.8718 18.1595 55.1782C23.5749 57.5298 29.5491 58.2861 35.3795 57.3582C40.9357 56.3744 46.1086 53.8641 50.3195 50.1082C54.65 46.4241 57.7703 41.521 59.274 36.0379C60.7776 30.5549 60.5949 24.746 58.7495 19.3682V19.3282Z" fill="#F7D651"/>
<path d="M30.5291 53.4389C26.1276 53.4104 21.7951 52.3421 17.885 50.321C13.9749 48.2999 10.5978 45.3832 8.02911 41.8089C6.3042 39.4342 5.06393 36.743 4.3791 33.8889C3.71307 30.789 3.785 27.5759 4.5891 24.5089C5.87919 18.9392 8.61834 13.8093 12.5291 9.63891C14.4951 7.53946 16.8822 5.87878 19.5343 4.76556C22.1864 3.65234 25.0437 3.11165 27.9191 3.17889L28.2891 3.22888C34.0183 2.33886 39.8769 3.53101 44.8027 6.58923C49.7285 9.64745 53.3955 14.3693 55.1391 19.8989C56.7097 24.6217 56.8592 29.7018 55.5691 34.5089C54.199 39.2592 51.4913 43.5151 47.7691 46.7689C44.1064 50.0395 39.6046 52.2245 34.7691 53.0789C33.368 53.3149 31.9499 53.4353 30.5291 53.4389ZM27.0691 6.58886C22.4751 6.74338 18.1258 8.69714 14.9591 12.0289C11.4948 15.7642 9.07983 20.3492 7.95911 25.3189C7.27822 27.8667 7.20969 30.5395 7.75911 33.1189C8.34968 35.5365 9.40607 37.8157 10.8691 39.8289C13.4637 43.4749 17.0238 46.3249 21.1491 48.0589C25.2649 49.8489 29.8057 50.4282 34.2391 49.7289C38.4363 48.9463 42.3381 47.0266 45.5191 44.1789C48.7418 41.3646 51.0911 37.6863 52.2891 33.5789C53.397 29.4214 53.2614 25.0302 51.8991 20.9489C50.386 16.1263 47.1734 12.0171 42.8584 9.38501C38.5434 6.75296 33.4195 5.77714 28.4391 6.63891L27.8791 6.72888L27.5591 6.5589H27.0691V6.58886Z" fill="#8A87E2"/>
<path d="M18.1499 24.658C19.297 29.8165 20.9725 34.843 23.1499 39.658C23.3388 39.9804 23.6195 40.2391 23.9562 40.4011C24.2928 40.5632 24.6701 40.6214 25.0399 40.5681C25.4036 40.5135 25.7443 40.3567 26.0222 40.1159C26.3002 39.8751 26.504 39.5603 26.6099 39.2081L31.9699 26.2081H28.3099C29.678 30.2349 31.4398 34.117 33.5699 37.7981C34.2199 38.9081 35.0199 40.1081 36.4799 40.0681C36.9088 40.0523 37.3262 39.925 37.6909 39.6988C38.0556 39.4726 38.3552 39.1552 38.5599 38.778C38.8189 38.2374 39.02 37.671 39.1599 37.088L41.1599 30.6981L43.4399 23.408C43.5717 22.9227 43.5057 22.405 43.2564 21.9682C43.0071 21.5315 42.5948 21.2114 42.1099 21.0781C41.6263 20.9565 41.1145 21.0258 40.6806 21.2716C40.2468 21.5174 39.9242 21.9207 39.7799 22.398L36.2099 33.8281L35.3099 36.7081C35.3099 36.8181 35.2399 36.9281 35.2099 37.0381C35.1799 37.1481 35.2799 36.8781 35.2899 36.8681L35.4499 36.6781L37.0999 36.4581C37.3999 36.6181 37.2899 36.6181 37.1899 36.4581C37.1899 36.5081 37.3899 36.7881 37.2499 36.5181L37.0699 36.218C36.9499 36.018 36.8299 35.8181 36.7199 35.6181C35.7866 34.0114 34.9332 32.3647 34.1599 30.6781C33.9399 30.1981 33.7299 29.6781 33.5299 29.2481C33.4799 29.1381 33.4299 29.0381 33.3899 28.9281C33.4599 29.1081 33.4399 29.0381 33.3899 28.9281L33.0599 28.1281C32.6799 27.1614 32.3199 26.1814 31.9799 25.1881C31.8628 24.7916 31.622 24.443 31.2929 24.193C30.9637 23.9429 30.5632 23.8046 30.1499 23.7981C29.739 23.8135 29.3428 23.9553 29.0153 24.204C28.6879 24.4527 28.445 24.7964 28.3199 25.1881L22.9699 38.1881L26.4299 37.7381C26.2999 37.4381 26.1699 37.138 26.0299 36.838L25.8599 36.4281C25.8599 36.4281 25.6299 35.8781 25.7699 36.2281C25.5399 35.6781 25.3199 35.1281 25.0999 34.5781C24.6299 33.3881 24.1999 32.178 23.7999 30.968C23.0086 28.5672 22.341 26.1273 21.7999 23.658C21.6461 23.1974 21.3217 22.8131 20.8934 22.5841C20.4651 22.3552 19.9654 22.2989 19.4969 22.4269C19.0284 22.5549 18.6267 22.8574 18.3743 23.2724C18.122 23.6873 18.0381 24.1832 18.1399 24.658H18.1499Z" fill="#6F67C7"/>
<path d="M14.8197 32.1083C22.7597 31.6283 30.6663 30.7716 38.5397 29.5383C40.7597 29.1883 42.9696 28.8183 45.1796 28.4083C45.6612 28.2706 46.0695 27.9492 46.3164 27.5134C46.5633 27.0776 46.6291 26.5622 46.4996 26.0783C46.3432 25.6092 46.0185 25.2146 45.5882 24.9708C45.1579 24.727 44.6525 24.6513 44.1697 24.7583C40.343 25.425 36.4997 26.0349 32.6397 26.5883C32.4097 26.5883 32.6397 26.5883 32.6397 26.5883L32.2696 26.6383L31.5297 26.7383L30.0397 26.9283C29.0397 27.0383 28.1297 27.1583 27.1697 27.2583C25.2497 27.4783 23.3197 27.6683 21.3997 27.8283C19.1997 28.0283 16.9996 28.1883 14.7796 28.3183C14.2876 28.3047 13.8095 28.4825 13.4461 28.8144C13.0826 29.1463 12.8621 29.6063 12.8309 30.0975C12.7998 30.5887 12.9606 31.0728 13.2793 31.4479C13.598 31.823 14.0499 32.0597 14.5397 32.1083C14.6194 32.1179 14.6999 32.1179 14.7796 32.1083H14.8197Z" fill="#6F67C7"/>
</g>
<defs>
<clipPath id="clip0_781_11051">
<rect width="60.24" height="57.71" fill="white"/>
</clipPath>
</defs>
</svg>
