<svg width="34" height="34" viewBox="0 0 34 34" fill="none" xmlns="http://www.w3.org/2000/svg">
<path d="M21.1656 10.3265C23.4392 10.3265 25.2823 8.48335 25.2823 6.20974C25.2823 3.93614 23.4392 2.09302 21.1656 2.09302C18.8919 2.09302 17.0488 3.93614 17.0488 6.20974C17.0488 8.48335 18.8919 10.3265 21.1656 10.3265Z" stroke="#B6B6B6" stroke-width="1.5" stroke-miterlimit="10"/>
<path d="M21.2053 13.002C19.5731 13.0072 18.0093 13.6579 16.8551 14.812C15.701 15.9662 15.0503 17.53 15.045 19.1623V19.5966H12.7843C11.1505 19.5966 9.5836 20.2456 8.42833 21.4009C7.27305 22.5562 6.62402 24.1231 6.62402 25.7569C6.62402 27.3907 7.27305 28.9576 8.42833 30.1129C9.5836 31.2681 11.1505 31.9172 12.7843 31.9172H27.3656V19.1228C27.35 17.4974 26.6948 15.9436 25.5417 14.798C24.3887 13.6523 22.8307 13.0071 21.2053 13.002V13.002Z" stroke="#B6B6B6" stroke-width="1.5" stroke-miterlimit="10"/>
</svg>
