<svg width="86" height="72" viewBox="0 0 86 72" fill="none" xmlns="http://www.w3.org/2000/svg">
<g clip-path="url(#clip0_159:3922)">
<path d="M83.9802 38.66C83.7003 36.5972 83.3098 34.5509 82.8102 32.53C81.8296 28.4427 80.3308 24.4974 78.3503 20.79C74.7338 13.9619 69.1396 8.38518 62.3003 4.79C55.7435 1.28069 48.3447 -0.349242 40.9202 0.0800113C39.1317 0.189384 37.3536 0.430033 35.6003 0.800013C35.5286 0.811832 35.4603 0.839149 35.4003 0.88003C31.8709 1.68766 28.5519 3.23132 25.6603 5.41003L24.7603 6.13003C22.2891 7.80079 19.9851 9.70627 17.8803 11.82C12.6741 17.0573 8.71001 23.3965 6.28025 30.37C5.06396 33.8373 4.25847 37.4352 3.88026 41.09C3.43756 44.9096 3.58256 48.7744 4.31025 52.55C4.70058 54.4923 5.39228 56.3615 6.36025 58.09C7.37495 59.8371 8.73617 61.3583 10.3603 62.56C11.9761 63.762 13.7282 64.769 15.5803 65.56C17.6327 66.4514 19.7287 67.239 21.8603 67.92C30.6184 70.7883 39.8087 72.1114 49.0203 71.83C57.4703 71.56 66.2803 69.88 73.3102 64.93C76.389 62.7808 79.0098 60.0411 81.0203 56.87C83.1109 53.5228 84.2835 49.6841 84.4202 45.74C84.4771 43.3718 84.3298 41.003 83.9802 38.66Z" fill="#4E439E"/>
<path d="M0 71.9302H84.55C85.0523 70.9101 85.1865 69.7478 84.93 68.6402C84.7786 67.2225 84.4424 65.8307 83.93 64.5002C81.7 58.8802 76.93 54.7702 71.76 52.3002C65.9242 49.683 59.5459 48.5033 53.16 48.8602C49.6798 49.0013 46.2125 49.3688 42.78 49.9602C41.1292 50.3661 39.4273 50.5245 37.73 50.4302C36.11 50.2202 34.51 49.8502 32.87 49.6902C26.4489 49.0739 19.9778 50.1352 14.09 52.7702C8.65 55.2002 3.65 59.2502 1.44 65.1702C0.917486 66.5597 0.581231 68.0124 0.440002 69.4902C0.430241 69.5531 0.430241 69.6172 0.440002 69.6802C0.310002 70.3802 0.169999 71.0802 0.0299988 71.7802C0.0250025 71.8311 0.0149541 71.8813 0 71.9302Z" fill="#F7D651"/>
<path d="M68.1099 32.3602C67.7868 31.5775 67.2831 30.8823 66.6401 30.3314C65.9971 29.7805 65.2329 29.3894 64.4099 29.1902C62.4178 28.782 60.3553 28.8783 58.4099 29.4702C58.1671 26.5932 56.946 23.8862 54.9499 21.8002C52.6941 19.5127 50.0964 17.5897 47.2499 16.1002C45.7951 15.2394 44.2615 14.5195 42.6699 13.9502C41.0479 13.4353 39.3685 13.123 37.6699 13.0202C34.6618 12.7843 31.6358 12.9457 28.6699 13.5002C25.8403 14.0172 23.1718 15.1921 20.8799 16.9302C20.6099 17.1502 20.3399 17.3802 20.0799 17.6202C19.9911 17.6958 19.9359 17.8036 19.9265 17.9198C19.9172 18.0361 19.9543 18.1513 20.0299 18.2402C18.8896 20.0312 18.0707 22.0076 17.6099 24.0802C17.0404 26.5648 16.7287 29.1016 16.6799 31.6502C16.5011 34.3417 16.879 37.0412 17.7899 39.5802C18.6284 41.679 19.872 43.592 21.4499 45.2102C24.9686 48.6864 29.5403 50.8984 34.4499 51.5002C39.2188 52.221 44.0882 51.8795 48.7099 50.5002C52.9161 49.3434 56.6348 46.8561 59.3099 43.4102C59.5399 43.0902 59.7599 42.7502 59.9699 42.4102C63.2799 43.1502 66.3999 40.1902 67.6799 37.4102C68.0797 36.6379 68.3235 35.7944 68.3973 34.9279C68.4711 34.0615 68.3734 33.1889 68.1099 32.3602Z" fill="#FBED9D"/>
<path d="M64.7602 18.46C64.2817 16.9417 63.5106 15.5319 62.4902 14.31C60.2554 11.7672 57.404 9.84216 54.2102 8.72002C51.0029 7.50787 47.6322 6.78313 44.2102 6.57C40.7663 6.36014 37.31 6.62939 33.9402 7.37002C30.563 8.11231 27.3076 9.32762 24.2702 10.98C22.7506 11.8103 21.2994 12.7599 19.9302 13.82C18.5527 14.8197 17.3813 16.0761 16.4802 17.52C16.061 18.231 15.7573 19.0039 15.5802 19.81C15.5611 19.9082 15.5698 20.0098 15.6051 20.1034C15.6404 20.1969 15.701 20.2789 15.7802 20.34C15.7167 20.4006 15.6707 20.4771 15.6468 20.5615C15.623 20.646 15.6223 20.7353 15.6448 20.8201C15.6673 20.9049 15.7121 20.9821 15.7746 21.0436C15.8371 21.1052 15.915 21.1488 16.0002 21.17C21.0273 22.9598 26.5396 22.8209 31.4702 20.78C32.7232 20.2702 33.9224 19.6371 35.0502 18.89C36.9088 21.5681 39.1843 23.9313 41.7902 25.89C44.4949 27.9358 47.5426 29.4833 50.7902 30.46C53.9202 31.37 57.4902 31.64 60.4902 30.18C61.891 29.5082 63.0707 28.45 63.8902 27.13C64.6591 25.8534 65.1212 24.4156 65.2402 22.93C65.3755 21.4229 65.2124 19.904 64.7602 18.46Z" fill="#4E439E"/>
<path d="M22.4001 31.3801C23.1558 32.2508 24.1733 32.853 25.3002 33.0964C26.4271 33.3398 27.6025 33.2112 28.6501 32.7301C28.8333 32.6216 28.9664 32.4454 29.0207 32.2396C29.075 32.0337 29.046 31.8148 28.9401 31.6301C28.8283 31.4506 28.6514 31.3212 28.4464 31.269C28.2414 31.2168 28.0242 31.2459 27.8401 31.3501H27.7001L27.3901 31.4501L27.0301 31.5201H26.8401C26.6206 31.5401 26.3997 31.5401 26.1801 31.5201H26.0001C26.0801 31.5201 26.0601 31.5201 26.0001 31.5201L25.6401 31.4501C25.426 31.3971 25.2156 31.3303 25.0101 31.2501C25.0901 31.2501 25.0101 31.2501 25.0101 31.2501L24.8401 31.1701L24.5501 31.0101L24.2501 30.8101C24.2501 30.8101 24.1701 30.7501 24.2501 30.8101L24.1101 30.6901C23.9377 30.5358 23.7772 30.3687 23.6301 30.1901C23.4779 30.0522 23.2786 29.9781 23.0733 29.9832C22.868 29.9882 22.6725 30.072 22.5273 30.2172C22.3821 30.3624 22.2983 30.5579 22.2932 30.7632C22.2882 30.9685 22.3622 31.1679 22.5001 31.3201L22.4001 31.3801Z" fill="#434278"/>
<path d="M37.0895 33.04C37.7912 33.8098 38.7608 34.2821 39.7995 34.36C40.9375 34.4371 42.079 34.2736 43.1495 33.8801C43.2527 33.8524 43.3493 33.8044 43.4336 33.7388C43.518 33.6732 43.5883 33.5914 43.6405 33.4982C43.6927 33.405 43.7257 33.3023 43.7375 33.1961C43.7494 33.0899 43.7399 32.9825 43.7095 32.8801C43.649 32.6746 43.5105 32.501 43.3236 32.3963C43.1367 32.2917 42.9163 32.2643 42.7095 32.32C41.8277 32.6487 40.8901 32.8016 39.9495 32.7701H39.8295C39.9095 32.7701 39.8995 32.7701 39.8295 32.7701L39.5095 32.7L39.2795 32.6301L39.1295 32.57C39.1895 32.57 39.1795 32.57 39.1295 32.57C38.7975 32.4305 38.5079 32.2064 38.2895 31.92C38.1379 31.7698 37.933 31.6855 37.7195 31.6855C37.5061 31.6855 37.3012 31.7698 37.1495 31.92C37.004 32.0741 36.9229 32.2781 36.9229 32.4901C36.9229 32.702 37.004 32.906 37.1495 33.0601L37.0895 33.04Z" fill="#434278"/>
<path d="M28.5502 40.4601C30.0114 41.7481 31.8923 42.4588 33.8402 42.4588C35.788 42.4588 37.669 41.7481 39.1302 40.4601C39.9202 39.7801 38.7802 38.6601 38.0002 39.3301C36.8356 40.3103 35.3623 40.8478 33.8402 40.8478C32.318 40.8478 30.8447 40.3103 29.6802 39.3301C28.9002 38.6601 27.7602 39.7901 28.5502 40.4601Z" fill="#434278"/>
<path d="M30.15 31.7501C29.3926 32.7285 29.0352 33.9581 29.15 35.1901C29.2174 35.7565 29.4398 36.2932 29.7926 36.7414C30.1455 37.1895 30.6152 37.5316 31.15 37.73C31.2518 37.7583 31.3581 37.7662 31.4629 37.7533C31.5678 37.7405 31.669 37.7071 31.761 37.6551C31.8529 37.6031 31.9337 37.5335 31.9987 37.4503C32.0637 37.367 32.1117 37.2718 32.14 37.17C32.1682 37.0683 32.1761 36.9619 32.1633 36.8571C32.1504 36.7523 32.117 36.651 32.065 36.5591C32.013 36.4672 31.9434 36.3864 31.8602 36.3213C31.777 36.2563 31.6817 36.2083 31.58 36.1801C31.5 36.1801 31.53 36.1801 31.58 36.1801L31.43 36.1001L31.32 36.0301C31.22 35.9801 31.4 36.1101 31.32 36.0301L31.1 35.83C31.04 35.76 31.1 35.78 31.1 35.83L31.03 35.7201C30.9705 35.6392 30.9202 35.552 30.88 35.4601V35.4001C30.88 35.4901 30.88 35.4001 30.88 35.3401C30.8423 35.2459 30.8122 35.149 30.79 35.05C30.79 35 30.79 34.9601 30.79 34.9101C30.79 35.0201 30.79 34.9801 30.79 34.9101C30.7848 34.8135 30.7848 34.7167 30.79 34.6201C30.785 34.5668 30.785 34.5133 30.79 34.4601C30.79 34.4101 30.79 34.27 30.79 34.39C30.8299 34.1585 30.8901 33.931 30.97 33.7101V33.61C30.9683 33.5801 30.9683 33.55 30.97 33.52C31.0206 33.4038 31.0773 33.2903 31.14 33.1801C31.26 32.9701 31.4 32.76 31.54 32.55C31.5937 32.4589 31.6289 32.3581 31.6434 32.2533C31.658 32.1485 31.6515 32.0418 31.6246 31.9395C31.5976 31.8372 31.5506 31.7413 31.4863 31.6573C31.422 31.5732 31.3417 31.5028 31.25 31.45C31.0647 31.3467 30.8466 31.3192 30.6415 31.3733C30.4364 31.4274 30.2602 31.5588 30.15 31.74V31.7501Z" fill="#8A87E2"/>
<path d="M33.55 50.52C33.55 50.76 33.55 51 33.6 51.23C33.7114 51.8473 33.9596 52.4317 34.3265 52.9405C34.6933 53.4492 35.1695 53.8694 35.72 54.17C36.8296 54.7518 38.0809 55.0084 39.33 54.91C40.1162 54.9057 40.8937 54.7442 41.6167 54.4351C42.3397 54.1259 42.9936 53.6754 43.54 53.11C44.0702 52.5307 44.3869 51.7879 44.4379 51.0043C44.4888 50.2206 44.2708 49.443 43.82 48.8C42.82 47.54 40.91 47.46 39.28 47.49C38.0581 47.4441 36.8374 47.6065 35.67 47.97C35.0872 48.1547 34.5584 48.479 34.1297 48.9147C33.7009 49.3504 33.3852 49.8844 33.21 50.47" fill="#FBED9D"/>
<path d="M19.8402 61.73H17.9602C17.8202 61.33 17.6902 60.94 17.5802 60.53C17.562 60.4684 17.5316 60.411 17.4909 60.3614C17.4501 60.3118 17.3998 60.2708 17.3429 60.241C17.286 60.2111 17.2237 60.193 17.1597 60.1877C17.0957 60.1824 17.0312 60.1899 16.9702 60.21C16.857 60.2436 16.7606 60.3185 16.7002 60.42C16.4506 60.8425 16.2684 61.3013 16.1602 61.78H14.9702C14.8338 61.7791 14.7019 61.829 14.6002 61.92C14.5138 62.0141 14.4658 62.1372 14.4658 62.265C14.4658 62.3927 14.5138 62.5159 14.6002 62.61C14.8973 62.9219 15.2334 63.1942 15.6002 63.42L15.7802 63.55C15.6256 64.1967 15.4251 64.8317 15.1802 65.45C15.0102 65.85 15.5602 66.21 15.8902 66C16.431 65.649 16.9397 65.2507 17.4102 64.81C17.8702 65.19 18.3402 65.56 18.7902 65.95C18.8685 66.0221 18.9671 66.0685 19.0726 66.0828C19.1781 66.0971 19.2855 66.0786 19.3802 66.03C19.4725 65.9751 19.5447 65.8921 19.5862 65.793C19.6276 65.694 19.636 65.5842 19.6102 65.48C19.3702 64.86 19.1102 64.26 18.8502 63.65C19.352 63.2995 19.8267 62.9118 20.2702 62.49C20.3618 62.3965 20.4131 62.2708 20.4131 62.14C20.4131 62.0091 20.3618 61.8834 20.2702 61.79C20.2074 61.7489 20.1362 61.7223 20.0619 61.7119C19.9876 61.7015 19.9119 61.7077 19.8402 61.73Z" fill="white"/>
<path d="M51.7103 61.0901H49.8303C49.6903 60.6901 49.5603 60.3001 49.4603 59.8901C49.441 59.8282 49.4096 59.7706 49.3679 59.7209C49.3261 59.6712 49.2749 59.6303 49.2173 59.6005C49.1596 59.5707 49.0966 59.5527 49.0318 59.5475C48.9671 59.5423 48.902 59.55 48.8403 59.5701C48.7272 59.6037 48.6308 59.6787 48.5703 59.7801C48.329 60.2067 48.1473 60.6642 48.0303 61.1401H46.8403C46.7039 61.1393 46.572 61.1892 46.4703 61.2801C46.3839 61.3742 46.3359 61.4974 46.3359 61.6251C46.3359 61.7529 46.3839 61.876 46.4703 61.9701C46.7674 62.2821 47.1035 62.5543 47.4703 62.7801L47.6603 62.9102C47.5025 63.5572 47.2986 64.1921 47.0503 64.8101C46.8803 65.2101 47.4303 65.5701 47.7603 65.3601C48.3011 65.0091 48.8098 64.6109 49.2803 64.1701C49.7503 64.5501 50.2103 64.9201 50.6603 65.3101C50.7387 65.3823 50.8372 65.4286 50.9427 65.4429C51.0483 65.4572 51.1556 65.4388 51.2503 65.3901C51.3426 65.3353 51.4148 65.2522 51.4563 65.1532C51.4977 65.0541 51.5061 64.9444 51.4803 64.8401C51.2503 64.2201 50.9803 63.6101 50.7203 63.0101C51.2221 62.6597 51.6968 62.2719 52.1403 61.8502C52.2069 61.7811 52.2517 61.694 52.2692 61.5997C52.2868 61.5054 52.2763 61.4081 52.239 61.3197C52.2017 61.2314 52.1394 61.1559 52.0596 61.1026C51.9799 61.0494 51.8862 61.0207 51.7903 61.0201L51.7103 61.0901Z" fill="white"/>
<path d="M62.38 57.9H61.12C61.03 57.64 60.94 57.37 60.87 57.1C60.8446 57.0166 60.7872 56.9466 60.7103 56.9054C60.6335 56.8642 60.5435 56.8551 60.46 56.88C60.3882 56.9092 60.3259 56.9576 60.28 57.02C60.1207 57.3063 59.9997 57.6122 59.92 57.93H59.12C59.0284 57.928 58.9393 57.9601 58.87 58.02C58.8391 58.0498 58.8146 58.0856 58.7978 58.1251C58.7811 58.1646 58.7725 58.2071 58.7725 58.25C58.7725 58.2929 58.7811 58.3354 58.7978 58.3749C58.8146 58.4144 58.8391 58.4501 58.87 58.48C59.0606 58.6892 59.2794 58.8709 59.52 59.02L59.64 59.11C59.537 59.5423 59.4033 59.9667 59.24 60.38C59.12 60.65 59.49 60.88 59.71 60.75C60.0647 60.5112 60.3991 60.2436 60.71 59.95C61.02 60.2 61.33 60.45 61.63 60.71C61.6834 60.7585 61.7504 60.7894 61.8221 60.7984C61.8937 60.8073 61.9663 60.7939 62.03 60.76C62.0889 60.7226 62.1349 60.668 62.1617 60.6036C62.1886 60.5392 62.1949 60.4681 62.18 60.4C62.02 59.98 61.84 59.58 61.67 59.17C62.0063 58.9386 62.324 58.6811 62.62 58.4C62.6511 58.3693 62.6758 58.3327 62.6927 58.2923C62.7096 58.252 62.7183 58.2087 62.7183 58.165C62.7183 58.1212 62.7096 58.078 62.6927 58.0376C62.6758 57.9973 62.6511 57.9607 62.62 57.93C62.5848 57.9074 62.5449 57.8929 62.5034 57.8877C62.4618 57.8825 62.4197 57.8867 62.38 57.9Z" fill="#6F67C7"/>
<path d="M71.4296 64.5699H70.0296C69.9296 64.2799 69.8296 63.9899 69.7496 63.6899C69.7217 63.598 69.6592 63.5205 69.5752 63.4738C69.4912 63.4271 69.3924 63.415 69.2996 63.4399C69.2142 63.4693 69.1406 63.5254 69.0896 63.5999C68.9136 63.9145 68.7792 64.2507 68.6896 64.5999H67.8096C67.7081 64.6028 67.61 64.6377 67.5296 64.6999C67.4676 64.7723 67.4336 64.8645 67.4336 64.9599C67.4336 65.0552 67.4676 65.1474 67.5296 65.2199C67.7473 65.4493 67.9925 65.6508 68.2596 65.8199L68.3896 65.9199C68.2791 66.4016 68.1286 66.8732 67.9396 67.3299C67.8196 67.6299 68.2296 67.8899 68.4696 67.7399C68.8698 67.4744 69.2477 67.1767 69.5996 66.8499L70.5996 67.6999C70.6562 67.7537 70.7287 67.7877 70.8063 67.7967C70.8838 67.8058 70.9622 67.7893 71.0296 67.7499C71.0989 67.7121 71.1534 67.6521 71.1842 67.5795C71.2151 67.5069 71.2205 67.426 71.1996 67.3499C71.0296 66.8899 70.8296 66.4399 70.6396 65.9899C70.9947 65.7259 71.329 65.435 71.6396 65.1199C71.6744 65.0872 71.7022 65.0477 71.7211 65.0038C71.7401 64.9599 71.7499 64.9127 71.7499 64.8649C71.7499 64.8171 71.7401 64.7698 71.7211 64.726C71.7022 64.6821 71.6744 64.6426 71.6396 64.6099C71.576 64.5736 71.5021 64.5595 71.4296 64.5699Z" fill="white"/>
<path d="M28.59 58.5702C29.1699 58.5702 29.64 58.1001 29.64 57.5202C29.64 56.9403 29.1699 56.4702 28.59 56.4702C28.0101 56.4702 27.54 56.9403 27.54 57.5202C27.54 58.1001 28.0101 58.5702 28.59 58.5702Z" fill="white"/>
</g>
<defs>
<clipPath id="clip0_159:3922">
<rect width="85.06" height="71.92" fill="white"/>
</clipPath>
</defs>
</svg>
