<svg width="69" height="70" viewBox="0 0 69 70" fill="none" xmlns="http://www.w3.org/2000/svg">
<g clip-path="url(#clip0_1481_13371)">
<path d="M68.0443 30.1755C67.8271 28.565 67.5262 26.967 67.1427 25.3882C66.3764 22.2023 65.211 19.127 63.6747 16.236C60.8754 10.9017 56.5373 6.54268 51.2296 3.73109C46.1392 0.99681 40.3985 -0.276632 34.6362 0.0502172C33.2477 0.138309 31.8671 0.324105 30.5044 0.60624C30.4499 0.618871 30.3989 0.643565 30.3551 0.678523C27.6145 1.30415 25.0373 2.5076 22.794 4.20927C22.5562 4.39275 22.3239 4.57624 22.0971 4.76529C20.1779 6.07418 18.387 7.56362 16.7485 9.21347C12.712 13.298 9.63368 18.237 7.73825 23.6701C6.79049 26.3852 6.16483 29.2034 5.87426 32.066C5.52514 35.0456 5.6371 38.0616 6.20613 41.0068C6.50348 42.5218 7.03737 43.9799 7.78803 45.3271C8.58468 46.6911 9.64772 47.8789 10.9131 48.819C12.1692 49.7434 13.5302 50.5142 14.9675 51.1153C16.5604 51.8159 18.1921 52.422 19.8404 52.9613C26.6411 55.2007 33.7779 56.2317 40.9306 56.0083C47.485 55.8026 54.3271 54.4904 59.7808 50.626C62.1738 48.9553 64.2089 46.8188 65.7655 44.343C67.3912 41.7317 68.3049 38.7364 68.4149 35.6579C68.4465 33.8232 68.3226 31.9891 68.0443 30.1755V30.1755Z" fill="#4E439E"/>
<path d="M67.6845 57.4258C67.3194 54.7143 66.3638 52.1171 64.8858 49.8194C63.2142 47.3886 61.1371 45.2667 58.7462 43.5474C54.3663 40.2818 49.3362 38.0058 44.0002 36.8752C38.663 35.7189 33.1437 35.7018 27.7995 36.8251C26.5114 37.0999 25.2392 37.4452 23.9885 37.8593H23.9332C19.1045 39.2939 14.9838 42.6578 12.1795 46.828C10.5621 49.281 9.32207 51.9653 8.50133 54.7902C7.59926 57.7143 7.1187 60.7533 7.07431 63.8145C7.0091 66.7729 7.74313 69.6937 9.19826 72.266C10.5135 74.4189 12.2897 76.25 14.3975 77.6261C19.1543 80.8232 24.9454 81.7017 30.5651 81.3292C33.8509 81.0619 37.1146 80.5677 40.333 79.8502C41.9924 79.5054 43.6241 79.144 45.2668 78.7937L47.684 78.2711C48.4526 78.0697 49.2465 77.9835 50.0402 78.0153C51.5281 78.1432 52.9109 78.8271 54.4098 78.9383C55.6917 79.0138 56.9735 78.7892 58.1544 78.2822C60.5826 77.1731 62.6427 75.3859 64.0893 73.1334C67.1533 68.5135 68.4319 62.9272 67.6845 57.4258Z" fill="#8A87E2"/>
<path d="M27.385 49.6864H25.9193C25.8068 49.3805 25.7107 49.0686 25.6316 48.7523C25.6171 48.7035 25.5931 48.6581 25.561 48.6187C25.5288 48.5794 25.4892 48.5468 25.4444 48.523C25.3996 48.4992 25.3505 48.4846 25.3001 48.48C25.2496 48.4755 25.1987 48.4811 25.1504 48.4965C25.0619 48.5233 24.9868 48.583 24.9403 48.6633C24.7529 48.9959 24.6133 49.3535 24.5254 49.7253L23.6017 49.7587H23.563C23.4869 49.7542 23.4112 49.7732 23.346 49.813C23.2808 49.8527 23.2291 49.9115 23.1979 49.9815C23.1667 50.0515 23.1574 50.1293 23.1713 50.2047C23.1851 50.2801 23.2214 50.3495 23.2754 50.4037C23.4974 50.6456 23.7504 50.8569 24.0276 51.032L24.1714 51.1376C24.0482 51.6426 23.8911 52.1386 23.7013 52.6222C23.5685 52.9336 23.9944 53.2116 24.2544 53.0503C24.6717 52.7738 25.0658 52.4632 25.4325 52.1218C25.792 52.4165 26.1516 52.6778 26.5056 53.0114C26.5651 53.0686 26.6414 53.105 26.7232 53.115C26.8049 53.125 26.8877 53.1082 26.9591 53.067C27.0317 53.0255 27.0885 52.9609 27.1206 52.8834C27.1526 52.8059 27.1581 52.7199 27.1361 52.6389C26.9536 52.1607 26.7489 51.6881 26.5443 51.2155C26.9372 50.9445 27.3072 50.6414 27.6505 50.3092C27.6873 50.2729 27.7165 50.2297 27.7365 50.1819C27.7564 50.1342 27.7667 50.0829 27.7667 50.0311C27.7667 49.9794 27.7564 49.9281 27.7365 49.8804C27.7165 49.8326 27.6873 49.7894 27.6505 49.7531C27.5735 49.6982 27.4787 49.6743 27.385 49.6864Z" fill="white"/>
<path d="M44.1443 57.2535H42.6786C42.5661 56.9494 42.47 56.6395 42.3909 56.3249C42.3615 56.2276 42.2949 56.146 42.2058 56.0981C42.1166 56.0501 42.0121 56.0397 41.9153 56.0692C41.8258 56.0939 41.7488 56.1514 41.6995 56.2304C41.5122 56.565 41.3725 56.9243 41.2847 57.298L40.361 57.3313H40.3223C40.216 57.331 40.1134 57.3707 40.0347 57.4425C39.9972 57.4784 39.9673 57.5215 39.9469 57.5693C39.9265 57.6171 39.916 57.6685 39.916 57.7205C39.916 57.7726 39.9265 57.824 39.9469 57.8718C39.9673 57.9196 39.9972 57.9627 40.0347 57.9986C40.2566 58.2422 40.5095 58.4553 40.7869 58.6324L40.9307 58.7381C40.8092 59.2435 40.6521 59.7396 40.4606 60.2226C40.3278 60.534 40.7537 60.812 41.0137 60.6508C41.4324 60.3741 41.8266 60.0615 42.1918 59.7167C42.5513 60.0169 42.9108 60.3061 43.2648 60.6063C43.3233 60.6662 43.3999 60.7048 43.4827 60.7161C43.5654 60.7274 43.6495 60.7107 43.7217 60.6687C43.7939 60.6266 43.8502 60.5616 43.8817 60.4839C43.9131 60.4062 43.9179 60.3201 43.8954 60.2393C43.7184 59.7556 43.5082 59.283 43.3036 58.8159C43.6966 58.543 44.0666 58.238 44.4098 57.904C44.4597 57.8502 44.4931 57.7831 44.5062 57.7107C44.5192 57.6384 44.5112 57.5637 44.4832 57.4958C44.4553 57.4278 44.4084 57.3693 44.3483 57.3274C44.2882 57.2854 44.2174 57.2617 44.1443 57.2591V57.2535Z" fill="white"/>
<path d="M31.0357 57.3265H29.57C29.4575 57.0224 29.3614 56.7124 29.2823 56.3979C29.2618 56.3266 29.221 56.2628 29.1651 56.2143C29.1092 56.1658 29.0404 56.1346 28.9672 56.1246C28.894 56.1146 28.8195 56.1262 28.7527 56.1579C28.6859 56.1896 28.6297 56.2402 28.5909 56.3034C28.4045 56.6364 28.2649 56.9938 28.1761 57.3654L27.2524 57.4043H27.2137C27.1053 57.4014 27 57.4413 26.9205 57.5155C26.8476 57.5894 26.8066 57.6894 26.8066 57.7935C26.8066 57.8977 26.8476 57.9976 26.9205 58.0715C27.1456 58.314 27.4002 58.5269 27.6783 58.7054L27.8221 58.8055C27.6997 59.3107 27.5426 59.8067 27.352 60.2901C27.2192 60.607 27.6451 60.8794 27.9051 60.7238C28.3228 60.4456 28.7168 60.1332 29.0832 59.7896C29.4427 60.0843 29.8023 60.379 30.1563 60.6793C30.2147 60.7391 30.2914 60.7778 30.3741 60.7891C30.4568 60.8004 30.5409 60.7837 30.6131 60.7416C30.6854 60.6996 30.7416 60.6346 30.7731 60.5568C30.8045 60.4791 30.8094 60.3931 30.7868 60.3123C30.6043 59.8286 30.3996 59.3559 30.195 58.8833C30.5892 58.6141 30.9594 58.3108 31.3012 57.977C31.3394 57.9416 31.3699 57.8986 31.3908 57.8508C31.4116 57.8029 31.4224 57.7512 31.4224 57.699C31.4224 57.6467 31.4116 57.5951 31.3908 57.5472C31.3699 57.4994 31.3394 57.4564 31.3012 57.421C31.2657 57.3878 31.2239 57.3623 31.1782 57.346C31.1325 57.3298 31.084 57.3231 31.0357 57.3265Z" fill="#6F67C7"/>
<path d="M47.684 49.8534H46.705C46.6331 49.6533 46.5667 49.442 46.5114 49.2307C46.491 49.1655 46.446 49.1109 46.386 49.0787C46.326 49.0465 46.2559 49.0392 46.1906 49.0583C46.1329 49.0804 46.0829 49.1191 46.0468 49.1695C45.9239 49.3935 45.831 49.6328 45.7703 49.8812H45.1563C45.085 49.8799 45.0158 49.9057 44.9627 49.9535C44.9176 50.0028 44.8926 50.0673 44.8926 50.1342C44.8926 50.2012 44.9176 50.2657 44.9627 50.3149C45.1129 50.4779 45.284 50.62 45.4716 50.7375L45.5656 50.8042C45.4831 51.1428 45.3778 51.4753 45.2503 51.7995C45.1618 52.0108 45.4439 52.1943 45.6209 52.0831C45.8993 51.8996 46.162 51.6932 46.4063 51.4659C46.6497 51.6605 46.8876 51.8551 47.1254 52.0608C47.1656 52.0987 47.2169 52.1224 47.2716 52.1284C47.3263 52.1344 47.3815 52.1224 47.4289 52.0942C47.4763 52.066 47.5133 52.0231 47.5344 51.972C47.5554 51.9209 47.5594 51.8643 47.5458 51.8106C47.4241 51.4881 47.2913 51.1712 47.153 50.8598C47.414 50.678 47.66 50.4753 47.8887 50.2538C47.9367 50.2049 47.9635 50.139 47.9635 50.0703C47.9635 50.0016 47.9367 49.9357 47.8887 49.8868C47.8587 49.8674 47.825 49.8545 47.7898 49.8487C47.7546 49.843 47.7186 49.8446 47.684 49.8534V49.8534Z" fill="#6F67C7"/>
<path d="M34.4371 56.4755C34.8862 56.4755 35.2502 56.1096 35.2502 55.6582C35.2502 55.2068 34.8862 54.8408 34.4371 54.8408C33.9881 54.8408 33.624 55.2068 33.624 55.6582C33.624 56.1096 33.9881 56.4755 34.4371 56.4755Z" fill="white"/>
<path d="M28.8121 48.9911C29.2612 48.9911 29.6252 48.6252 29.6252 48.1738C29.6252 47.7224 29.2612 47.3564 28.8121 47.3564C28.3631 47.3564 27.999 47.7224 27.999 48.1738C27.999 48.6252 28.3631 48.9911 28.8121 48.9911Z" fill="white"/>
<path d="M20.6422 53.7783C21.0912 53.7783 21.4553 53.4123 21.4553 52.9609C21.4553 52.5095 21.0912 52.1436 20.6422 52.1436C20.1931 52.1436 19.8291 52.5095 19.8291 52.9609C19.8291 53.4123 20.1931 53.7783 20.6422 53.7783Z" fill="white"/>
<path d="M33.0599 42.8526C42.9726 42.8526 51.0084 35.1654 51.0084 25.6827C51.0084 16.2 42.9726 8.5127 33.0599 8.5127C23.1472 8.5127 15.1113 16.2 15.1113 25.6827C15.1113 35.1654 23.1472 42.8526 33.0599 42.8526Z" fill="#FBED9D"/>
<path d="M50.3555 32.9948C53.6455 32.9948 56.3125 30.4456 56.3125 27.3011C56.3125 24.1566 53.6455 21.6074 50.3555 21.6074C47.0655 21.6074 44.3984 24.1566 44.3984 27.3011C44.3984 30.4456 47.0655 32.9948 50.3555 32.9948Z" fill="#FBED9D"/>
<path d="M54.9687 8.05664C54.1398 6.77711 53.0708 5.67227 51.8214 4.80391C49.1886 2.93011 45.9584 2.07384 42.7891 1.75691C39.5081 1.4458 36.1992 1.64081 32.9768 2.33517C29.7568 3.01775 26.6476 4.15005 23.7398 5.6991C20.8207 7.24576 18.1368 9.20426 15.7695 11.5151C14.5865 12.6736 13.4971 13.9249 12.5116 15.2571C11.505 16.539 10.7538 18.004 10.2992 19.5719C10.0958 20.3343 10.0155 21.1247 10.0613 21.9127C10.066 22.0094 10.0982 22.1027 10.1541 22.1816C10.21 22.2604 10.2872 22.3215 10.3766 22.3575C10.3329 22.4295 10.3099 22.5123 10.3102 22.5966C10.313 22.7226 10.3641 22.8425 10.4527 22.9316C10.5413 23.0207 10.6606 23.072 10.7859 23.0748C15.8616 23.4242 20.8873 21.8801 24.9014 18.7378C25.9216 17.9437 26.8626 17.0517 27.7112 16.0745C30.0988 18.0649 32.7902 19.6552 35.6816 20.784C38.6976 21.9842 41.9024 22.6338 45.1453 22.7023C48.2483 22.7356 51.6002 22.074 53.9952 19.9555C55.1084 18.9724 55.9215 17.6923 56.3404 16.2635C56.7205 14.8889 56.7791 13.4445 56.5118 12.0433C56.2598 10.6263 55.7356 9.27223 54.9687 8.05664V8.05664Z" fill="#4E439E"/>
<path d="M29.006 27.6292C28.4287 28.3708 28.1502 29.3038 28.2261 30.2425C28.2748 30.6623 28.4372 31.0607 28.6957 31.394C28.9542 31.7274 29.2988 31.983 29.6919 32.133C29.8198 32.1591 29.9527 32.1354 30.0639 32.0666C30.175 31.9979 30.256 31.8893 30.2904 31.7627C30.3249 31.6362 30.3102 31.5013 30.2494 31.3852C30.1886 31.2692 30.0862 31.1807 29.9629 31.1377C29.9629 31.1377 29.8965 31.1377 29.9629 31.1377L29.8523 31.0765L29.7638 31.0209C29.6919 30.9764 29.808 31.0654 29.7638 31.0209C29.7045 30.9714 29.649 30.9175 29.5979 30.8597V30.8597L29.537 30.7763C29.493 30.7108 29.4542 30.6421 29.4209 30.5705L29.3932 30.5149C29.3922 30.4946 29.3922 30.4741 29.3932 30.4538C29.3653 30.3796 29.3431 30.3034 29.3268 30.2258C29.3294 30.1925 29.3294 30.159 29.3268 30.1257C29.3268 30.198 29.3268 30.1257 29.3268 30.0757C29.3177 29.3863 29.553 28.7161 29.9906 28.1852C30.0573 28.0661 30.0749 27.9256 30.0398 27.7936C30.0046 27.6616 29.9195 27.5487 29.8025 27.479C29.6831 27.4194 29.5462 27.4051 29.4171 27.4388C29.2881 27.4725 29.1755 27.552 29.1 27.6625L29.006 27.6292Z" fill="#8A87E2"/>
<path d="M34.7137 27.0456V29.2196C34.7052 29.315 34.7165 29.4111 34.7469 29.5019C34.7774 29.5926 34.8263 29.6759 34.8905 29.7466C34.9548 29.8173 35.033 29.8738 35.1202 29.9124C35.2073 29.951 35.3015 29.971 35.3968 29.971C35.4921 29.971 35.5863 29.951 35.6734 29.9124C35.7606 29.8738 35.8388 29.8173 35.9031 29.7466C35.9673 29.6759 36.0162 29.5926 36.0467 29.5019C36.0771 29.4111 36.0884 29.315 36.0799 29.2196V27.0456C36.0645 26.8741 35.9859 26.7147 35.8595 26.5985C35.7331 26.4824 35.568 26.418 35.3968 26.418C35.2255 26.418 35.0605 26.4824 34.9341 26.5985C34.8077 26.7147 34.7291 26.8741 34.7137 27.0456V27.0456Z" fill="#434278"/>
<path d="M24.8631 27.0456V29.2196C24.8546 29.315 24.8659 29.4111 24.8963 29.5019C24.9268 29.5926 24.9757 29.6759 25.0399 29.7466C25.1042 29.8173 25.1824 29.8738 25.2696 29.9124C25.3568 29.951 25.451 29.971 25.5462 29.971C25.6415 29.971 25.7357 29.951 25.8228 29.9124C25.91 29.8738 25.9882 29.8173 26.0525 29.7466C26.1167 29.6759 26.1657 29.5926 26.1961 29.5019C26.2266 29.4111 26.2379 29.315 26.2293 29.2196V27.0456C26.2139 26.8741 26.1353 26.7147 26.0089 26.5985C25.8825 26.4824 25.7175 26.418 25.5462 26.418C25.375 26.418 25.2099 26.4824 25.0835 26.5985C24.9571 26.7147 24.8785 26.8741 24.8631 27.0456V27.0456Z" fill="#434278"/>
<path d="M29.8182 35.0518C29.8158 35.0646 29.8158 35.0778 29.8182 35.0907C29.819 35.0777 29.819 35.0647 29.8182 35.0518V35.0518Z" fill="#434278"/>
<path d="M29.8906 35.2578C29.8906 35.2578 29.9254 35.2925 29.8906 35.2578V35.2578Z" fill="#434278"/>
<path d="M32.3295 33.7894C32.1678 33.511 31.9237 33.2901 31.6312 33.1576C31.3388 33.0251 31.0126 32.9874 30.6979 33.0499C30.6097 33.0388 30.5205 33.0388 30.4324 33.0499C30.042 33.1007 29.6722 33.2553 29.361 33.4977C29.0499 33.7401 28.8087 34.0615 28.6624 34.4289C28.5335 34.7892 28.5318 35.1832 28.6577 35.5447C28.7836 35.9062 29.0294 36.2131 29.3538 36.4139C29.7854 36.6237 30.276 36.6768 30.7421 36.564C31.148 36.4905 31.5287 36.3144 31.8483 36.0525C32.1723 35.7863 32.3965 35.4172 32.4839 35.0058C32.5714 34.5945 32.5169 34.1655 32.3295 33.7894V33.7894ZM31.2565 34.4622C31.2233 34.3733 31.2399 34.3955 31.2565 34.4344V34.4622Z" fill="#434278"/>
<path d="M29.2489 41.7238C29.2489 41.9073 29.2489 42.0963 29.2876 42.2798C29.3744 42.7628 29.5687 43.2197 29.8561 43.6164C30.1434 44.0132 30.5164 44.3394 30.9469 44.5706C31.8046 45.0259 32.7734 45.2265 33.7402 45.1489C34.3495 45.1453 34.952 45.0196 35.5123 44.779C36.0727 44.5384 36.5797 44.1878 37.0036 43.7477C37.4094 43.298 37.6516 42.7234 37.6908 42.1175C37.73 41.5116 37.5638 40.9103 37.2193 40.4116C36.4117 39.4274 34.9626 39.3607 33.6959 39.383C32.7471 39.3504 31.7995 39.4763 30.8916 39.7555C30.4392 39.9011 30.0289 40.1555 29.6964 40.4965C29.3639 40.8376 29.1191 41.255 28.9834 41.7127" fill="#FBED9D"/>
<path d="M34.4815 53.0173C32.6857 47.8277 30.6872 42.7012 28.4858 37.6377C27.8626 36.2031 27.221 34.776 26.5609 33.3563C26.4854 33.2244 26.3682 33.1216 26.2279 33.0642C26.0876 33.0068 25.9323 32.998 25.7866 33.0394L15.2442 37.4876L9.97304 39.7117C8.3137 40.4067 6.65436 41.0739 4.99501 41.8412C3.2688 42.616 1.66146 43.6345 0.221636 44.866C0.0438129 45.1467 -0.0305589 45.4811 0.0114498 45.8112C1.81765 51.0124 3.91169 56.1079 6.28376 61.074C6.96409 62.4863 7.66103 63.8875 8.38561 65.2831C8.48074 65.4364 8.63064 65.5471 8.80451 65.5926C8.97838 65.6381 9.16299 65.6149 9.32037 65.5278L19.1769 61.2575C20.5375 65.4092 22.0733 69.4959 23.7843 73.5178C24.3374 74.83 24.9127 76.1274 25.51 77.41C25.5871 77.5402 25.7047 77.6413 25.8447 77.6976C25.9847 77.7539 26.1392 77.7622 26.2844 77.7214C28.373 77.0147 30.3854 76.0982 32.2912 74.9857C32.4436 74.8901 32.5538 74.7394 32.599 74.5646C32.6443 74.3898 32.6212 74.2043 32.5346 74.0461L26.2512 60.3123L25.3994 58.4496C26.6089 57.8825 27.8091 57.2931 29.0002 56.6815C30.748 55.7807 32.4682 54.8188 34.1386 53.7846C34.2713 53.7119 34.3767 53.5976 34.4387 53.459C34.5006 53.3204 34.5156 53.1653 34.4815 53.0173V53.0173Z" fill="#F7D651"/>
<path d="M44.144 63.6033C41.345 63.2607 38.5086 63.7819 36.0112 65.0977C33.5138 66.4136 31.4735 68.4618 30.1613 70.9706C29.1931 72.7435 28.8225 74.7841 29.1048 76.7866C29.6579 79.7613 32.0972 82.1355 34.907 83.2253C37.7168 84.3151 40.8308 84.2929 43.8121 83.9092C47.6356 83.417 51.3643 82.3524 54.8744 80.751C56.0396 80.2428 57.1513 79.6188 58.1931 78.8883C60.1264 77.4358 61.6729 75.5259 62.6954 73.3281C63.296 72.2165 63.6276 70.9784 63.6634 69.714C63.6166 68.8227 63.3888 67.9505 62.9941 67.1511C62.5993 66.3516 62.0459 65.6419 61.368 65.0656C60.0069 63.9167 58.4142 63.0783 56.6997 62.608C51.5924 61.0616 46.1052 61.3847 41.2125 63.5199" fill="#8A87E2"/>
<path d="M29.9133 70.9762C28.9528 72.7497 28.5899 74.7883 28.8789 76.7866C29.432 79.7669 31.8713 82.1355 34.6811 83.2253C36.6638 83.9459 38.771 84.256 40.876 84.1372C41.616 77.3497 40.3785 70.4922 37.3139 64.3984C34.1222 65.5947 31.4853 67.9384 29.9133 70.9762V70.9762Z" fill="#FBED9D"/>
<path d="M24.8737 72.7336C24.3041 69.9741 22.8367 67.4838 20.7032 65.6555C19.2861 64.5646 17.5487 63.9779 15.7639 63.9874C15.1557 64.0531 14.5609 64.2105 13.9994 64.4545C13.2147 64.8276 12.5108 65.3526 11.928 65.9995C11.3453 66.6464 10.8951 67.4024 10.6033 68.2243C9.98692 69.9608 9.78838 71.8194 10.0239 73.6479C10.2595 75.4764 10.9224 77.2228 11.9584 78.7442C12.979 80.2365 14.395 81.4115 16.046 82.136C17.7116 82.9077 19.5915 83.0767 21.3669 82.6142C23.2586 82.0581 24.2431 80.3901 24.7299 78.5663C25.2195 76.6585 25.2687 74.6635 24.8737 72.7336V72.7336Z" fill="#FBED9D"/>
<path d="M19.7026 48.1574L20.8973 43.7092C20.9238 43.56 20.9015 43.4063 20.8337 43.2709C20.7659 43.1356 20.6562 43.026 20.5212 42.9586C19.7675 42.4981 18.9208 42.2131 18.0432 42.1246H17.9271C17.8697 42.0924 17.8083 42.0681 17.7446 42.0523C17.5653 42.0227 17.3816 42.0641 17.2321 42.1678C17.0826 42.2715 16.9788 42.4294 16.9426 42.6083C16.5738 43.7797 16.229 44.9584 15.9082 46.1446C14.802 45.5608 13.646 44.977 12.5121 44.4098C12.3489 44.3325 12.1621 44.3224 11.9916 44.3816C11.8211 44.4408 11.6804 44.5647 11.5995 44.7267C11.2291 45.4247 10.9253 46.1563 10.6924 46.9119C10.6898 46.9285 10.6898 46.9454 10.6924 46.962C10.5616 47.0942 10.4883 47.2731 10.4883 47.4596C10.4883 47.6461 10.5616 47.825 10.6924 47.9572V47.9572C11.3894 48.5687 12.1842 49.0574 13.0431 49.4029L14.896 50.2592C14.6029 51.5714 14.3429 52.8892 14.094 54.2181C14.066 54.3981 14.1078 54.582 14.2107 54.732C14.3136 54.882 14.4698 54.9866 14.6471 55.0243C15.5197 55.2965 16.4408 55.3743 17.3463 55.2523C17.4961 55.2376 17.6375 55.176 17.7506 55.0762C17.8637 54.9765 17.9429 54.8436 17.9769 54.6962L18.7015 52.0051L21.727 53.4007C21.8908 53.4797 22.0789 53.4908 22.2507 53.4315C22.4225 53.3722 22.5642 53.2473 22.6452 53.0838C22.8553 52.4666 23.0876 51.8438 23.2757 51.2155C23.3546 50.9139 23.3211 50.5937 23.1815 50.3152C23.042 50.0367 22.806 49.819 22.5179 49.7032C21.5721 49.1582 20.6374 48.6578 19.7026 48.1574Z" fill="#4E439E"/>
<path d="M38.2755 64.5158C42.8483 62.7428 47.6116 61.5131 52.4684 60.8516C53.8622 60.6626 55.2672 60.5236 56.6721 60.4346C56.8526 60.4304 57.0246 60.3564 57.1524 60.228C57.2801 60.0996 57.3537 59.9267 57.3579 59.7451C57.3551 59.5632 57.2819 59.3895 57.1539 59.2608C57.0259 59.1321 56.8531 59.0585 56.6721 59.0557C51.6596 59.3855 46.703 60.3055 41.9039 61.7969C40.5617 62.2157 39.2305 62.6809 37.9104 63.1925C37.7387 63.2455 37.5936 63.3626 37.5051 63.5198C37.4167 63.677 37.3915 63.8623 37.4347 64.0376C37.4838 64.2127 37.5997 64.3612 37.7572 64.4507C37.9146 64.5403 38.1009 64.5637 38.2755 64.5158V64.5158Z" fill="#4E439E"/>
</g>
<defs>
<clipPath id="clip0_1481_13371">
<rect width="69" height="70" fill="white"/>
</clipPath>
</defs>
</svg>
