<svg width="147" height="145" viewBox="0 0 147 145" fill="none" xmlns="http://www.w3.org/2000/svg">
<path d="M63.8246 0.394831C53.9011 1.4929 19.536 2.43596 3.23504 58.8056C-12.9951 114.936 36.6413 127.532 46.0692 130.697C55.4971 133.862 117.155 145.404 141.848 89.2608C163.754 39.4021 109.368 -4.64982 63.8246 0.394831Z" fill="#F0EFFE"/>
<path d="M122.433 64.4493C122.111 62.05 121.658 59.6702 121.076 57.3204C119.932 52.5681 118.189 47.9802 115.889 43.6667C111.679 35.7318 105.171 29.2529 97.2168 25.0777C89.5877 20.9987 80.9818 19.1013 72.3447 19.594C70.2639 19.7239 68.1952 20.0035 66.1546 20.4305C66.0741 20.4492 65.9982 20.4839 65.9315 20.5327C61.8253 21.4704 57.9641 23.2665 54.6015 25.8027L53.5512 26.6299C50.6752 28.5743 47.995 30.7937 45.5486 33.2569C39.4891 39.3446 34.8767 46.7175 32.053 54.8295C30.6392 58.8639 29.7034 63.0503 29.2647 67.3027C28.7446 71.7445 28.9108 76.2398 29.7572 80.631C30.2169 82.8765 31.0227 85.037 32.1459 87.035C33.3275 89.0661 34.9084 90.8367 36.7932 92.2399C38.6765 93.6171 40.7171 94.7653 42.8718 95.6603C45.2512 96.7013 47.705 97.6028 50.168 98.4486C60.3579 101.787 71.0516 103.325 81.7694 102.994C91.5937 102.687 101.845 100.735 110.025 94.9725C113.606 92.4782 116.653 89.2928 118.985 85.6036C121.419 81.71 122.787 77.2452 122.953 72.6563C123.015 69.9108 122.84 67.1651 122.433 64.4493Z" fill="#5042A5"/>
<path d="M121.894 105.077C121.351 101.034 119.919 97.1612 117.702 93.7373C115.196 90.1138 112.083 86.9505 108.501 84.387C101.936 79.5267 94.4004 76.1407 86.4074 74.4605C78.4117 72.7443 70.1455 72.719 62.1395 74.3861C60.2077 74.8009 58.2995 75.319 56.4233 75.9383H56.3397C49.1083 78.2344 42.8905 82.9552 38.7359 89.3039C36.3113 92.96 34.453 96.9615 33.2242 101.173C31.8694 105.53 31.1494 110.06 31.0864 114.622C30.9857 119.029 32.081 123.382 34.2559 127.216C36.2329 130.424 38.896 133.154 42.054 135.209C49.1829 139.968 57.8546 141.279 66.2755 140.721C71.1997 140.322 76.0908 139.586 80.9143 138.518C83.3774 138.007 85.8404 137.468 88.3035 136.938L91.9284 136.167C93.0792 135.859 94.2704 135.731 95.4603 135.786C97.691 135.972 99.7636 136.994 101.966 137.152C103.872 137.277 105.781 136.959 107.543 136.223C111.18 134.56 114.266 131.894 116.438 128.536C121.066 121.647 123.007 113.301 121.894 105.077Z" fill="#8C88EA"/>
<path d="M61.5167 93.5328H59.3232C59.1539 93.0789 59.0081 92.6167 58.8864 92.1479C58.8652 92.0754 58.8297 92.0079 58.782 91.9493C58.7343 91.8907 58.6754 91.8422 58.6087 91.8067C58.5421 91.7712 58.469 91.7494 58.3938 91.7426C58.3186 91.7357 58.2427 91.7439 58.1707 91.7668C58.0393 91.8058 57.9267 91.8918 57.8547 92.0085C57.5719 92.5023 57.3622 93.0345 57.232 93.5885C56.7673 93.5885 56.3025 93.5885 55.8471 93.6443H55.782C55.6234 93.6436 55.4705 93.7034 55.3545 93.8116C55.2511 93.919 55.1934 94.0622 55.1934 94.2113C55.1934 94.3603 55.2511 94.5035 55.3545 94.6109C55.6892 94.97 56.0706 95.2826 56.4884 95.5404L56.7022 95.6984C56.5174 96.451 56.2814 97.1901 55.9958 97.9105C55.8006 98.3752 56.4326 98.7842 56.823 98.5518C57.4492 98.1401 58.0399 97.6768 58.589 97.1669C59.1281 97.6038 59.6671 98.0406 60.1969 98.4867C60.2852 98.5728 60.3987 98.6282 60.5209 98.6449C60.643 98.6617 60.7673 98.6388 60.8754 98.5797C60.9847 98.5177 61.0698 98.4207 61.1171 98.3043C61.1643 98.1879 61.1709 98.0589 61.1357 97.9383C60.8661 97.2227 60.5594 96.5163 60.2062 95.8192C60.794 95.4131 61.3473 94.9592 61.8606 94.4622C61.9143 94.4094 61.957 94.3465 61.9861 94.2771C62.0152 94.2077 62.0301 94.1332 62.0301 94.0579C62.0301 93.9826 62.0152 93.9081 61.9861 93.8387C61.957 93.7693 61.9143 93.7064 61.8606 93.6536C61.7609 93.5794 61.641 93.5373 61.5167 93.5328Z" fill="white"/>
<path d="M86.6207 104.807C85.8957 104.807 85.1615 104.807 84.4365 104.807C84.2672 104.35 84.1214 103.884 83.9997 103.412C83.9667 103.307 83.9041 103.213 83.8192 103.142C83.7343 103.071 83.6309 103.026 83.5211 103.012C83.4113 102.999 83.2999 103.017 83.2002 103.065C83.1004 103.112 83.0166 103.188 82.9587 103.282C82.6797 103.777 82.4731 104.309 82.3453 104.862C81.8805 104.862 81.4158 104.862 80.9604 104.909H80.8953C80.8169 104.904 80.7383 104.915 80.6647 104.942C80.591 104.969 80.5239 105.012 80.4678 105.067C80.3644 105.174 80.3066 105.317 80.3066 105.466C80.3066 105.615 80.3644 105.759 80.4678 105.866C80.8025 106.225 81.1839 106.538 81.6017 106.796L81.8155 106.954C81.6307 107.706 81.3947 108.445 81.1091 109.166C80.9139 109.63 81.5459 110.039 81.9363 109.807C82.5646 109.398 83.1555 108.935 83.7022 108.422C84.2413 108.859 84.7804 109.296 85.3009 109.742C85.3914 109.827 85.5064 109.882 85.6298 109.899C85.7532 109.916 85.8787 109.893 85.9887 109.835C86.098 109.773 86.1831 109.676 86.2304 109.559C86.2776 109.443 86.2842 109.314 86.249 109.194C85.9794 108.478 85.6727 107.772 85.3195 107.074C85.9078 106.669 86.4611 106.215 86.9739 105.717C87.0801 105.61 87.1396 105.464 87.1396 105.313C87.1396 105.162 87.0801 105.017 86.9739 104.909C86.8687 104.841 86.7459 104.805 86.6207 104.807Z" fill="white"/>
<path d="M66.9816 104.919H64.7881C64.6188 104.465 64.473 104.003 64.3513 103.534C64.3311 103.462 64.2966 103.395 64.2498 103.336C64.203 103.278 64.1449 103.229 64.079 103.194C64.013 103.158 63.9407 103.136 63.8661 103.129C63.7915 103.122 63.7163 103.131 63.6449 103.153C63.5091 103.188 63.3924 103.275 63.3195 103.395C63.043 103.892 62.8336 104.423 62.6968 104.975L61.312 105.031H61.2562C61.0958 105.026 60.9396 105.083 60.8193 105.189C60.7159 105.296 60.6582 105.439 60.6582 105.588C60.6582 105.737 60.7159 105.881 60.8193 105.988C61.1547 106.346 61.536 106.659 61.9533 106.918L62.167 107.066C61.9879 107.82 61.7518 108.56 61.4606 109.278C61.2655 109.743 61.9068 110.161 62.2972 109.92C62.9238 109.509 63.5145 109.045 64.0631 108.535C64.5929 108.981 65.132 109.408 65.6618 109.864C65.7523 109.949 65.8673 110.004 65.9907 110.021C66.1141 110.038 66.2396 110.015 66.3496 109.957C66.4577 109.894 66.5418 109.797 66.5889 109.681C66.636 109.565 66.6434 109.436 66.6098 109.316C66.3403 108.6 66.0336 107.893 65.6804 107.187C66.2685 106.785 66.8219 106.334 67.3348 105.839C67.4409 105.732 67.5004 105.586 67.5004 105.435C67.5004 105.284 67.4409 105.139 67.3348 105.031C67.2347 104.952 67.109 104.912 66.9816 104.919Z" fill="#7167CE"/>
<path d="M91.9285 93.7846H90.46C90.3485 93.4779 90.2555 93.1712 90.1719 92.8552C90.1419 92.7593 90.0752 92.6792 89.9865 92.6322C89.8977 92.5852 89.794 92.5751 89.6978 92.6042C89.6533 92.6145 89.6114 92.6339 89.5746 92.6611C89.5378 92.6883 89.507 92.7227 89.4841 92.7622C89.2911 93.0918 89.15 93.4492 89.0658 93.8218H88.1364C88.0824 93.8173 88.0281 93.824 87.9769 93.8416C87.9257 93.8592 87.8787 93.8873 87.8389 93.924C87.7717 93.9977 87.7344 94.0938 87.7344 94.1936C87.7344 94.2933 87.7717 94.3895 87.8389 94.4631C88.0666 94.7037 88.3225 94.916 88.6011 95.0951L88.7405 95.1974C88.6191 95.701 88.4607 96.195 88.2665 96.6752C88.1364 96.9912 88.5639 97.2608 88.8241 97.1028C89.2463 96.8272 89.6444 96.5163 90.0139 96.1733L91.0827 97.0563C91.1419 97.114 91.218 97.1513 91.2999 97.163C91.3817 97.1747 91.4652 97.1601 91.5382 97.1214C91.6093 97.0782 91.6649 97.0135 91.6966 96.9365C91.7284 96.8596 91.7348 96.7746 91.7148 96.6938C91.5382 96.2105 91.3337 95.7643 91.1199 95.2717C91.5157 94.9956 91.8858 94.6846 92.226 94.3423C92.2628 94.3067 92.2921 94.2642 92.3121 94.2171C92.3321 94.1699 92.3424 94.1193 92.3424 94.0681C92.3424 94.0169 92.3321 93.9663 92.3121 93.9192C92.2921 93.8721 92.2628 93.8295 92.226 93.7939C92.1797 93.772 92.1294 93.7598 92.0782 93.7582C92.027 93.7566 91.9761 93.7656 91.9285 93.7846Z" fill="#7167CE"/>
<path d="M72.0848 103.654C72.7572 103.654 73.3024 103.109 73.3024 102.436C73.3024 101.764 72.7572 101.219 72.0848 101.219C71.4123 101.219 70.8672 101.764 70.8672 102.436C70.8672 103.109 71.4123 103.654 72.0848 103.654Z" fill="white"/>
<path d="M63.6453 92.5016C64.3178 92.5016 64.8629 91.9564 64.8629 91.284C64.8629 90.6115 64.3178 90.0664 63.6453 90.0664C62.9729 90.0664 62.4277 90.6115 62.4277 91.284C62.4277 91.9564 62.9729 92.5016 63.6453 92.5016Z" fill="white"/>
<path d="M51.4129 99.6383C52.0853 99.6383 52.6305 99.0932 52.6305 98.4207C52.6305 97.7483 52.0853 97.2031 51.4129 97.2031C50.7404 97.2031 50.1953 97.7483 50.1953 98.4207C50.1953 99.0932 50.7404 99.6383 51.4129 99.6383Z" fill="white"/>
<path d="M70.0121 83.3455C84.8625 83.3455 96.9011 71.8895 96.9011 57.7577C96.9011 43.626 84.8625 32.1699 70.0121 32.1699C55.1617 32.1699 43.123 43.626 43.123 57.7577C43.123 71.8895 55.1617 83.3455 70.0121 83.3455Z" fill="#FFED92"/>
<path d="M95.9345 68.6612C100.862 68.6612 104.857 64.862 104.857 60.1753C104.857 55.4887 100.862 51.6895 95.9345 51.6895C91.0066 51.6895 87.0117 55.4887 87.0117 60.1753C87.0117 64.862 91.0066 68.6612 95.9345 68.6612Z" fill="#FFED92"/>
<path d="M102.839 31.4831C101.596 29.5821 99.9958 27.9407 98.1269 26.6499C94.186 23.8616 89.3529 22.5697 84.5941 22.0956C79.6886 21.6493 74.7439 21.947 69.9274 22.9786C65.1057 23.9934 60.4502 25.6798 56.0971 27.9884C51.7219 30.2932 47.6998 33.2135 44.1537 36.6601C42.3771 38.3876 40.7393 40.2522 39.2555 42.2368C37.7413 44.1416 36.6055 46.3184 35.9094 48.65C35.602 49.7847 35.4827 50.9622 35.5562 52.1355C35.5609 52.2812 35.6084 52.4224 35.6927 52.5414C35.777 52.6603 35.8943 52.7519 36.0303 52.8047C35.9669 52.9125 35.9287 53.0332 35.9187 53.1579C35.9234 53.3462 36.0004 53.5255 36.1336 53.6588C36.2668 53.792 36.4461 53.8689 36.6344 53.8736C44.2456 54.4041 51.7848 52.1073 57.8073 47.4232C59.3361 46.2399 60.7462 44.9107 62.0178 43.4544C65.5945 46.4223 69.6319 48.7863 73.9705 50.4532C78.4897 52.2457 83.2932 53.2153 88.1539 53.3159C92.8012 53.3717 97.8295 52.3865 101.417 49.2263C103.087 47.7612 104.308 45.8536 104.94 43.724C105.508 41.6743 105.597 39.5212 105.2 37.4316C104.807 35.3143 104.005 33.2938 102.839 31.4831Z" fill="#5042A5"/>
<path d="M63.9428 60.6574C63.0794 61.7631 62.6646 63.1537 62.7809 64.5518C62.8586 65.172 63.1039 65.7593 63.4903 66.2506C63.8768 66.7419 64.3899 67.1186 64.9744 67.3401C65.1692 67.3912 65.3762 67.3632 65.5503 67.2622C65.7244 67.1612 65.8516 66.9954 65.9039 66.801C65.9529 66.6076 65.9251 66.4028 65.8263 66.2295C65.7275 66.0563 65.5654 65.9279 65.3741 65.8716C65.3741 65.8716 65.2626 65.8251 65.3741 65.8716L65.2068 65.7786L65.0767 65.695C64.9744 65.6299 65.151 65.7601 65.0767 65.695C64.9915 65.6192 64.9108 65.5385 64.835 65.4533C64.835 65.4533 64.7606 65.3697 64.835 65.4533L64.7421 65.3232C64.6758 65.2254 64.6167 65.1229 64.5655 65.0165C64.5655 65.0165 64.5004 64.8771 64.5655 64.9328V64.8399C64.5655 64.7283 64.5004 64.6168 64.4726 64.5053V64.3473C64.4726 64.4495 64.4726 64.3473 64.4726 64.2822C64.471 63.2656 64.8225 62.28 65.467 61.4939C65.5288 61.4064 65.5717 61.307 65.593 61.202C65.6143 61.0971 65.6135 60.9889 65.5906 60.8842C65.5678 60.7796 65.5234 60.6809 65.4603 60.5943C65.3972 60.5078 65.3168 60.4353 65.2242 60.3816C65.1315 60.3278 65.0287 60.2939 64.9223 60.2821C64.8159 60.2702 64.7082 60.2807 64.606 60.3127C64.5038 60.3448 64.4094 60.3978 64.3288 60.4683C64.2482 60.5388 64.1832 60.6254 64.1379 60.7224L63.9428 60.6574Z" fill="#8C88EA"/>
<path d="M72.4922 59.7939V63.0377C72.4922 63.3088 72.5999 63.5689 72.7917 63.7606C72.9834 63.9524 73.2435 64.0601 73.5146 64.0601C73.7858 64.0601 74.0458 63.9524 74.2376 63.7606C74.4293 63.5689 74.537 63.3088 74.537 63.0377V59.7939C74.537 59.5227 74.4293 59.2627 74.2376 59.0709C74.0458 58.8792 73.7858 58.7715 73.5146 58.7715C73.2435 58.7715 72.9834 58.8792 72.7917 59.0709C72.5999 59.2627 72.4922 59.5227 72.4922 59.7939Z" fill="#43427C"/>
<path d="M57.7324 59.7939V63.0377C57.7324 63.3088 57.8401 63.5689 58.0318 63.7606C58.2236 63.9524 58.4836 64.0601 58.7548 64.0601C59.026 64.0601 59.286 63.9524 59.4778 63.7606C59.6695 63.5689 59.7772 63.3088 59.7772 63.0377V59.7939C59.7772 59.5227 59.6695 59.2627 59.4778 59.0709C59.286 58.8792 59.026 58.7715 58.7548 58.7715C58.4836 58.7715 58.2236 58.8792 58.0318 59.0709C57.8401 59.2627 57.7324 59.5227 57.7324 59.7939Z" fill="#43427C"/>
<path d="M65.1602 71.7188C65.1602 71.7188 65.1602 71.7187 65.1602 71.7749C65.1613 71.7562 65.1613 71.7375 65.1602 71.7188Z" fill="#43427C"/>
<path d="M68.9153 69.841C68.6766 69.425 68.3127 69.0951 67.8754 68.8981C67.4381 68.7012 66.9498 68.6473 66.4802 68.7442C66.3479 68.721 66.2127 68.721 66.0805 68.7442C65.4971 68.8189 64.9441 69.0477 64.4785 69.4071C64.0129 69.7665 63.6515 70.2435 63.4315 70.789C63.239 71.3267 63.2363 71.9142 63.424 72.4536C63.6117 72.993 63.9785 73.4519 64.4633 73.754C65.1117 74.0628 65.846 74.1414 66.5452 73.977C67.1481 73.8626 67.7133 73.6008 68.1904 73.2149C68.6724 72.8155 69.006 72.2656 69.1375 71.6536C69.269 71.0416 69.1907 70.4031 68.9153 69.841ZM67.3167 70.7983C67.2702 70.7054 67.2888 70.7518 67.3167 70.7983V70.7983Z" fill="#43427C"/>
<path d="M64.304 81.6725C64.304 81.9513 64.304 82.2302 64.369 82.509C64.4975 83.2247 64.7845 83.9025 65.2091 84.4928C65.6337 85.083 66.1851 85.5707 66.8228 85.9201C68.1157 86.6023 69.5761 86.9021 71.0332 86.7845C71.9469 86.7792 72.8504 86.5925 73.6912 86.2351C74.5321 85.8776 75.2936 85.3567 75.9314 84.7025C76.5477 84.027 76.915 83.1613 76.9725 82.2486C77.03 81.3359 76.7742 80.431 76.2474 79.6835C75.0392 78.2149 72.8642 78.122 70.9682 78.1499C69.5466 78.1019 68.1269 78.2904 66.767 78.7076C66.0895 78.9265 65.4752 79.3064 64.9766 79.8146C64.4781 80.3229 64.1101 80.9445 63.9043 81.626" fill="#FFED92"/>
<path d="M72.1112 98.4951C69.4158 90.7435 66.4199 83.1034 63.1235 75.5749C62.1878 73.4371 61.2273 71.3087 60.2421 69.1895C60.1273 68.9943 59.9509 68.8428 59.7406 68.7587C59.5304 68.6746 59.2981 68.6626 59.0803 68.7248L43.2796 75.3332L35.3793 78.6328C32.907 79.6737 30.3974 80.6683 27.9437 81.8115C25.3531 82.9648 22.9427 84.4862 20.787 86.3286C20.5194 86.7447 20.4044 87.2407 20.4616 87.7321C23.175 95.481 26.3152 103.074 29.8677 110.476C30.8839 112.583 31.931 114.674 33.0092 116.75C33.1518 116.979 33.3765 117.145 33.6373 117.214C33.8981 117.283 34.1754 117.25 34.4127 117.121L49.1817 110.764C51.2203 116.96 53.5191 123.051 56.0782 129.037C56.9147 130.989 57.7791 132.931 58.6714 134.865C58.7873 135.059 58.9639 135.209 59.1738 135.293C59.3837 135.377 59.6153 135.39 59.8332 135.329C62.9628 134.278 65.9773 132.911 68.8303 131.249C69.0593 131.106 69.2253 130.882 69.2944 130.621C69.3634 130.36 69.3304 130.083 69.2021 129.846L59.7867 109.398L58.5134 106.609C60.3227 105.76 62.1196 104.88 63.9042 103.97C66.5252 102.631 69.0998 101.181 71.6001 99.657C71.7993 99.5445 71.9567 99.3705 72.0488 99.1611C72.141 98.9517 72.1629 98.718 72.1112 98.4951Z" fill="#FFD524"/>
<path d="M86.6303 114.278C82.4362 113.768 78.1862 114.546 74.4445 116.508C70.7028 118.471 67.6462 121.524 65.6805 125.264C64.2415 127.908 63.6969 130.947 64.1283 133.927C64.9369 138.36 68.6083 141.892 72.8187 143.518C77.0291 145.145 81.6949 145.117 86.1656 144.541C91.8867 143.805 97.466 142.22 102.719 139.838C104.462 139.076 106.125 138.142 107.682 137.049C110.575 134.898 112.893 132.066 114.43 128.805C115.33 127.147 115.827 125.3 115.88 123.414C115.81 122.085 115.469 120.784 114.877 119.592C114.286 118.4 113.457 117.341 112.441 116.481C110.4 114.771 108.012 113.524 105.442 112.828C97.7817 110.506 89.5444 110.987 82.2061 114.185" fill="#8C88EA"/>
<path d="M65.3001 125.265C63.8673 127.912 63.3232 130.948 63.7479 133.928C64.5658 138.37 68.2371 141.902 72.4383 143.529C75.4141 144.6 78.575 145.061 81.7328 144.886C82.8372 134.77 80.9806 124.55 76.3884 115.469C71.6093 117.253 67.6595 120.742 65.3001 125.265Z" fill="#FFED92"/>
<path d="M57.7523 127.886C56.9006 123.773 54.7029 120.061 51.5064 117.337C49.3701 115.713 46.7541 114.846 44.0708 114.874C43.1584 114.975 42.2659 115.21 41.4218 115.571C39.0493 116.698 37.2209 118.72 36.3377 121.194C35.4133 123.775 35.1116 126.538 35.4572 129.258C35.8029 131.978 36.7861 134.578 38.3268 136.846C39.8591 139.071 41.9842 140.823 44.4611 141.902C46.9536 143.056 49.77 143.305 52.4265 142.609C55.2149 141.753 56.7392 139.309 57.4642 136.576C58.2192 133.739 58.3177 130.767 57.7523 127.886Z" fill="#FFED92"/>
<path d="M50.0102 91.2565L51.7948 84.6574C51.8353 84.4349 51.8029 84.2053 51.7024 84.0026C51.602 83.8 51.4387 83.6352 51.2371 83.5328C50.1081 82.8367 48.8379 82.4017 47.5193 82.2594H47.3427C47.2567 82.2158 47.1664 82.1815 47.0732 82.1572C46.8066 82.1125 46.5331 82.1713 46.3084 82.3216C46.0838 82.4719 45.9252 82.7024 45.8649 82.9658C45.3165 84.7132 44.796 86.4698 44.322 88.2451C42.6304 87.3621 40.9295 86.507 39.2286 85.6519C38.9825 85.538 38.7018 85.5238 38.4454 85.6122C38.189 85.7005 37.9767 85.8846 37.853 86.1259C37.3035 87.1672 36.8493 88.256 36.496 89.379C36.496 89.379 36.496 89.4255 36.496 89.4534C36.3982 89.551 36.3206 89.6668 36.2677 89.7944C36.2147 89.922 36.1875 90.0588 36.1875 90.197C36.1875 90.3351 36.2147 90.4719 36.2677 90.5995C36.3206 90.7271 36.3982 90.8429 36.496 90.9405C37.5384 91.8552 38.7298 92.5846 40.0186 93.0968L42.8069 94.3702C42.3701 96.3313 41.9705 98.2925 41.608 100.272C41.5632 100.539 41.6221 100.812 41.7724 101.037C41.9227 101.262 42.1531 101.42 42.4166 101.481C43.7232 101.888 45.1038 102.003 46.4597 101.815C46.6804 101.792 46.8884 101.701 47.0549 101.554C47.2215 101.408 47.3383 101.213 47.3892 100.997L48.4766 96.9819L53.0124 99.0732C53.2581 99.1895 53.5396 99.205 53.7967 99.1164C54.0538 99.0278 54.266 98.8422 54.3879 98.5992C54.7039 97.6698 55.0478 96.7403 55.3174 95.8108C55.4479 95.3608 55.4035 94.878 55.1933 94.4592C54.983 94.0404 54.6224 93.7165 54.1835 93.5523C52.8079 92.7436 51.4044 92.0001 50.0102 91.2565Z" fill="#5042A5"/>
<path d="M77.8363 115.635C84.6778 113.002 91.8017 111.171 99.065 110.179C101.156 109.9 103.266 109.696 105.367 109.556C105.638 109.556 105.898 109.449 106.09 109.257C106.281 109.065 106.389 108.805 106.389 108.534C106.389 108.263 106.281 108.003 106.09 107.811C105.898 107.619 105.638 107.512 105.367 107.512C97.8591 108.004 90.4349 109.373 83.2457 111.592C81.2288 112.224 79.2398 112.912 77.2694 113.674C77.0102 113.752 76.7911 113.927 76.6578 114.162C76.5244 114.398 76.4872 114.676 76.5537 114.938C76.6276 115.198 76.8003 115.418 77.0349 115.552C77.2695 115.686 77.5473 115.722 77.8085 115.654L77.8363 115.635Z" fill="#5042A5"/>
</svg>
