<svg width="23" height="23" viewBox="0 0 23 23" fill="none" xmlns="http://www.w3.org/2000/svg">
<path d="M5.56775 4H18.1204C18.3407 4.01121 18.5566 4.06642 18.7552 4.16237C18.9538 4.25831 19.1312 4.39303 19.2769 4.55862C19.4226 4.72421 19.5337 4.91731 19.6037 5.12652C19.6736 5.33572 19.7009 5.55681 19.684 5.77675V14.5094C19.6996 14.7291 19.6715 14.9497 19.6011 15.1584C19.5307 15.3671 19.4196 15.5597 19.2741 15.725C19.1286 15.8904 18.9517 16.0251 18.7536 16.1215C18.5556 16.2178 18.3403 16.2738 18.1204 16.2862H5.56775C5.34787 16.2738 5.13262 16.2178 4.93457 16.1215C4.73653 16.0251 4.55962 15.8904 4.41412 15.725C4.26863 15.5597 4.15746 15.3671 4.08708 15.1584C4.01671 14.9497 3.98855 14.7291 4.00421 14.5094V5.77675C3.98855 5.55707 4.01671 5.33648 4.08708 5.12779C4.15746 4.9191 4.26863 4.72648 4.41412 4.56114C4.55962 4.39581 4.73653 4.26106 4.93457 4.16473C5.13262 4.06839 5.34787 4.0124 5.56775 4V4Z" stroke="#B7B7B7" stroke-width="2.5" stroke-linecap="round" stroke-linejoin="round"/>
<path d="M8.35742 19.6797H15.34" stroke="#B7B7B7" stroke-width="2.5" stroke-linecap="round" stroke-linejoin="round"/>
<path d="M12.0049 17L12.0049 19" stroke="#B7B7B7" stroke-width="2.5" stroke-linecap="round" stroke-linejoin="round"/>
</svg>
