<svg width="22" height="22" viewBox="0 0 22 22" fill="none" xmlns="http://www.w3.org/2000/svg">
<g clip-path="url(#clip0_159:4235)">
<path d="M10.7897 20.8199H6.78967C5.99976 20.8393 5.22969 20.5712 4.62268 20.0653C4.01567 19.5595 3.61304 18.8504 3.48967 18.0699C3.40482 17.613 3.41988 17.1432 3.53381 16.6927C3.64774 16.2421 3.85784 15.8216 4.14967 15.4599L7.14967 11.5099C7.48967 11.0799 7.81967 10.6399 8.14967 10.2099C8.40993 9.86074 8.73654 9.56632 9.11079 9.34358C9.48504 9.12083 9.89956 8.97415 10.3306 8.91191C10.7617 8.84966 11.2008 8.8731 11.6227 8.98087C12.0447 9.08864 12.4413 9.27861 12.7897 9.53993C13.0412 9.72986 13.2635 9.9556 13.4497 10.2099C14.7897 11.9599 16.1397 13.7099 17.4497 15.4799C17.8425 15.9621 18.0844 16.5496 18.1448 17.1686C18.2053 17.7877 18.0818 18.4108 17.7897 18.9599C17.543 19.5062 17.1437 19.9695 16.6398 20.2942C16.136 20.6189 15.5491 20.791 14.9497 20.7899C13.5497 20.7899 12.1497 20.7899 10.7597 20.7899L10.7897 20.8199Z" stroke="#4D3BA2" stroke-width="1.5" stroke-miterlimit="10"/>
<path d="M16.3994 3.56007C16.3896 3.93934 16.3495 4.31722 16.2794 4.69008C16.1395 5.22865 15.8006 5.69416 15.3312 5.9929C14.8617 6.29165 14.2965 6.40141 13.7494 6.30006C13.2421 6.21205 12.7812 5.95049 12.4455 5.5601C12.1099 5.16972 11.9203 4.67481 11.9094 4.16008C11.8844 3.6804 11.8844 3.19975 11.9094 2.72008C11.9619 2.15547 12.2284 1.63236 12.6543 1.25804C13.0803 0.88372 13.6333 0.686548 14.2 0.707014C14.7666 0.727481 15.304 0.964015 15.7018 1.36809C16.0996 1.77216 16.3277 2.31316 16.3394 2.88008C16.3394 3.10008 16.3394 3.33006 16.3394 3.55006L16.3994 3.56007Z" stroke="#4D3BA2" stroke-width="1.5" stroke-miterlimit="10"/>
<path d="M20.8598 9.12996C20.8501 9.50923 20.81 9.88708 20.7398 10.2599C20.6028 10.785 20.2774 11.2414 19.8256 11.542C19.3737 11.8426 18.8271 11.9665 18.2898 11.8899C17.7679 11.8149 17.2893 11.5581 16.9381 11.1648C16.5868 10.7715 16.3856 10.267 16.3698 9.73995C16.3298 9.24409 16.3298 8.74582 16.3698 8.24996C16.4443 7.69481 16.7259 7.18833 17.1581 6.83208C17.5904 6.47583 18.1413 6.29614 18.7005 6.32903C19.2596 6.36192 19.7857 6.60495 20.1732 7.00942C20.5607 7.41389 20.7809 7.94988 20.7898 8.50994V9.11995L20.8598 9.12996Z" stroke="#4D3BA2" stroke-width="1.5" stroke-miterlimit="10"/>
<path d="M5.22959 9.13029C5.23813 9.43781 5.2214 9.74549 5.17958 10.0503C5.09297 10.6184 4.78652 11.1297 4.32631 11.4739C3.86611 11.8182 3.28903 11.9677 2.71958 11.8903C2.16886 11.8332 1.65908 11.5733 1.28942 11.1611C0.919747 10.7489 0.716624 10.2139 0.719576 9.66029C0.684621 9.18093 0.684621 8.69965 0.719576 8.22029C0.796954 7.66223 1.08643 7.15544 1.52782 6.80531C1.96921 6.45518 2.52856 6.28864 3.08959 6.34028C3.64414 6.38516 4.16189 6.63572 4.54119 7.04277C4.92048 7.44981 5.13392 7.98392 5.13959 8.54026V9.13029H5.22959Z" stroke="#4D3BA2" stroke-width="1.5" stroke-miterlimit="10"/>
<path d="M5.17969 3.54025C5.19774 3.16111 5.24118 2.78362 5.30969 2.41028C5.44751 1.86986 5.78544 1.40194 6.25513 1.1012C6.72481 0.800451 7.29119 0.689299 7.83969 0.790254C8.3536 0.883512 8.81877 1.15345 9.15475 1.55335C9.49074 1.95324 9.67642 2.45796 9.67969 2.98026C9.71481 3.47964 9.71481 3.98087 9.67969 4.48026C9.60285 5.01471 9.32773 5.50071 8.90901 5.84161C8.49029 6.18252 7.95863 6.35337 7.41969 6.32025C6.84747 6.30473 6.30358 6.06779 5.90256 5.6593C5.50153 5.25082 5.27465 4.70269 5.26968 4.13028V3.54025H5.17969Z" stroke="#4D3BA2" stroke-width="1.5" stroke-miterlimit="10"/>
</g>
<defs>
<clipPath id="clip0_159:4235">
<rect width="21.62" height="21.58" fill="white"/>
</clipPath>
</defs>
</svg>
