<svg width="84" height="79" viewBox="0 0 84 79" fill="none" xmlns="http://www.w3.org/2000/svg">
<path d="M65.6341 78.9907C66.1819 69.1957 66.6005 59.3823 66.8899 49.5505C67.2038 39.2229 67.3792 28.8922 67.4162 18.5584C67.4162 12.7182 67.3977 6.87787 67.3608 1.03758C67.3614 0.8925 67.3231 0.749876 67.25 0.624356C67.2106 0.447928 67.1087 0.291481 66.9629 0.183584C66.8171 0.0756864 66.6371 0.0235375 66.4559 0.036655L47.9882 0.541714L29.4098 1.05595L18.9756 1.34979C18.4223 1.65989 17.9776 2.13093 17.7013 2.69967L17.0365 32.4245L16.3624 62.1402C16.2393 67.7111 16.1131 73.2821 15.9838 78.853C15.9793 78.8988 15.9793 78.9449 15.9838 78.9907H65.6341Z" fill="#6F67C7"/>
<path d="M9.30774 78.9908C9.30774 78.8255 9.30774 78.651 9.30774 78.5041C9.25234 77.9715 9.15076 77.4481 9.11383 76.9063C9.04919 75.8319 9.20617 74.7575 9.1877 73.6739C9.20601 73.4089 9.16827 73.143 9.0769 72.8934C8.98971 72.7224 8.8581 72.5777 8.69573 72.4744C8.53336 72.3711 8.34615 72.3128 8.15352 72.3057C7.65836 72.2411 7.15582 72.2598 6.66687 72.3608C6.42573 72.4156 6.19502 72.5086 5.98356 72.6363C5.84886 72.5416 5.68675 72.4932 5.52187 72.4985C5.29731 72.5009 5.08263 72.5907 4.92384 72.7486C4.76504 72.9065 4.67477 73.12 4.67236 73.3433C4.80164 75.1799 4.87552 77.1083 4.91245 78.9908H9.30774ZM7.96884 73.9953C8.05195 73.9586 8.06118 73.9678 7.95037 73.9678L7.96884 73.9953ZM7.46098 73.4811C7.46098 73.3617 7.46098 73.3709 7.46098 73.4811V73.4811Z" fill="#4E439E"/>
<path d="M64.1197 78.9908C64.1299 78.8164 64.1299 78.6417 64.1197 78.4673C64.0643 77.9347 63.9535 77.4113 63.9166 76.8695C63.852 75.7951 64.0089 74.7208 63.9997 73.6372C64.0143 73.3715 63.9734 73.1058 63.8797 72.8566C63.7933 72.685 63.6618 72.5398 63.4993 72.4364C63.3368 72.3329 63.1492 72.2751 62.9563 72.2689C62.4611 72.2046 61.9586 72.2232 61.4696 72.324C61.2309 72.3772 61.003 72.4704 60.7956 72.5995C60.6609 72.5048 60.4988 72.4564 60.3339 72.4618C60.1086 72.4618 59.8925 72.5508 59.7332 72.7092C59.5739 72.8676 59.4844 73.0825 59.4844 73.3066C59.6044 75.1983 59.6875 77.0899 59.7152 78.9908H64.1197ZM62.7901 73.9586C62.8639 73.9586 62.8639 73.9678 62.7901 73.9678V73.9586ZM62.2545 73.426C62.2545 73.3066 62.2545 73.3158 62.2545 73.426V73.426Z" fill="#4E439E"/>
<path d="M28.043 7.46558C26.9292 7.34719 25.8035 7.40921 24.7096 7.64924H24.5804C24.473 7.62018 24.361 7.6126 24.2507 7.62694C24.1404 7.64128 24.0341 7.67726 23.9379 7.73279C23.8417 7.78831 23.7575 7.86227 23.6903 7.95039C23.623 8.03851 23.574 8.13904 23.5462 8.24613C23.5366 8.31313 23.5366 8.38114 23.5462 8.44814L23.4354 15.2894C23.4354 16.2077 23.1307 17.732 24.3588 18.0442C24.9069 18.1223 25.4634 18.1223 26.0116 18.0442H27.7845C28.0083 18.0395 28.2217 17.949 28.38 17.7916C28.5383 17.6342 28.6293 17.422 28.634 17.1994C28.8187 14.218 28.9172 11.2305 28.9295 8.23694C28.9063 8.02107 28.8023 7.8218 28.638 7.67884C28.4737 7.53589 28.2613 7.45974 28.043 7.46558Z" fill="#DCE7FB"/>
<path d="M35.3839 7.43774H32.6876C32.5712 7.4349 32.4556 7.45725 32.3488 7.50323C32.242 7.54921 32.1465 7.61772 32.0689 7.70404C31.9643 7.68438 31.8568 7.68608 31.7529 7.70904C31.649 7.73199 31.5509 7.77573 31.4646 7.83757C31.3782 7.89941 31.3054 7.97807 31.2505 8.06878C31.1957 8.15949 31.16 8.26034 31.1455 8.3652C31.1409 8.41407 31.1409 8.46326 31.1455 8.51213C31.2194 11.3772 31.4287 14.233 31.7734 17.0797C31.7904 17.2982 31.8854 17.5034 32.0411 17.6583C32.1969 17.8132 32.4033 17.9077 32.6229 17.9245H34.1835C34.4429 17.9738 34.7097 17.969 34.9672 17.9105C35.2247 17.852 35.4671 17.7411 35.6793 17.5848C36.0044 17.1929 36.175 16.6968 36.1595 16.189C36.2241 15.6656 36.2795 15.1513 36.3165 14.6279C36.4781 12.514 36.4411 10.3896 36.2057 8.28256C36.1896 8.0684 36.0986 7.8666 35.9485 7.71225C35.7984 7.5579 35.5986 7.46077 35.3839 7.43774Z" fill="#DCE7FB"/>
<path d="M43.6945 7.502C42.7729 7.2928 41.8099 7.35666 40.9244 7.68567C40.791 7.72895 40.6693 7.80189 40.5685 7.89895C40.4677 7.99601 40.3905 8.11464 40.3427 8.24583C40.2597 8.38489 40.2151 8.54327 40.2134 8.70497C40.2134 11.4139 40.2134 14.1228 40.2134 16.8318C40.2134 17.0558 40.3029 17.2707 40.4622 17.4292C40.6215 17.5876 40.8376 17.6766 41.0629 17.6766H43.6945C43.9184 17.6719 44.1317 17.5814 44.29 17.424C44.4483 17.2665 44.5393 17.0544 44.544 16.8318C44.581 13.9851 44.4886 11.1476 44.267 8.31928C44.2696 8.14061 44.2157 7.96567 44.113 7.81905C44.0103 7.67244 43.8639 7.56155 43.6945 7.502Z" fill="#DCE7FB"/>
<path d="M52.3188 9.89888C52.3188 9.403 52.3188 8.90713 52.2542 8.41126C52.2724 7.94838 52.1141 7.49573 51.811 7.14402C51.1369 6.50122 49.9642 6.77671 49.087 6.80426C48.932 6.81485 48.7822 6.86416 48.6514 6.94763C48.5207 7.0311 48.4133 7.14603 48.339 7.28177C48.1751 7.3303 48.0319 7.43133 47.9317 7.56917C47.8315 7.70702 47.7799 7.87394 47.785 8.04395C47.785 9.77951 47.785 11.5059 47.8681 13.2414C47.8681 14.1597 47.9604 15.0229 48.0251 15.9136C48.0245 16.2581 48.0711 16.601 48.1636 16.9329C48.2524 17.1687 48.4133 17.3709 48.6236 17.5109C48.834 17.6509 49.0833 17.7218 49.3363 17.7135C49.7518 17.7135 50.1673 17.7135 50.5736 17.7135C50.9928 17.7541 51.4144 17.6677 51.7833 17.4655C52.5404 16.9789 52.365 15.8126 52.3834 15.0321C52.4081 13.3302 52.3865 11.6191 52.3188 9.89888Z" fill="#DCE7FB"/>
<path d="M60.9152 7.62168C60.9105 7.39908 60.8195 7.18692 60.6612 7.02949C60.5029 6.87206 60.2896 6.78154 60.0657 6.77686H57.4895C57.2067 6.84486 56.9433 6.97616 56.7193 7.16075C56.4952 7.34535 56.3165 7.57838 56.1968 7.84207C56.1968 10.5969 56.1968 13.4069 56.1968 16.1893C56.2015 16.4119 56.2925 16.624 56.4508 16.7815C56.6091 16.9389 56.8225 17.0294 57.0463 17.0341H59.918C60.1418 17.0294 60.3552 16.9389 60.5135 16.7815C60.6718 16.624 60.7628 16.4119 60.7675 16.1893C61.0567 13.3425 61.1061 10.4766 60.9152 7.62168Z" fill="#DCE7FB"/>
<path d="M27.6463 23.8018H24.5715C24.4337 23.8006 24.2976 23.8321 24.1744 23.8936C24.0482 23.9352 23.935 24.0086 23.8459 24.1068C23.7569 24.2051 23.6951 24.3246 23.6666 24.4538C23.1038 27.3254 23.0196 30.2695 23.4172 33.1683C23.466 33.3478 23.573 33.5063 23.7216 33.6192C23.8702 33.7321 24.0521 33.7931 24.2391 33.7927H25.8734C26.3626 33.8464 26.8568 33.8309 27.3416 33.7468C28.4774 33.4346 28.265 31.9929 28.265 31.0838C28.3296 28.9442 28.4035 26.8046 28.4681 24.6558C28.4661 24.4362 28.38 24.2256 28.2273 24.067C28.0746 23.9083 27.8669 23.8135 27.6463 23.8018Z" fill="#DCE7FB"/>
<path d="M36.243 29.1462V27.1444C36.2799 26.447 36.2799 25.7481 36.243 25.0507C36.086 23.4988 34.073 23.7467 32.9465 23.7926C32.7936 23.7922 32.6437 23.8351 32.5145 23.9165C32.3853 23.9978 32.2821 24.1141 32.217 24.2518C32.0616 24.3054 31.928 24.4079 31.8364 24.5437C31.7447 24.6796 31.7001 24.8414 31.7092 25.0048V33.2693C31.7092 33.4934 31.7987 33.7083 31.958 33.8667C32.1173 34.0251 32.3334 34.1142 32.5587 34.1142L34.7102 34.1601C35.0277 34.2118 35.3534 34.1473 35.6268 33.9784C35.9002 33.8096 36.1027 33.5478 36.1968 33.2418C36.2754 32.5676 36.2754 31.8866 36.1968 31.2124L36.243 29.1462Z" fill="#DCE7FB"/>
<path d="M44.1932 26.0241C44.2285 25.5681 44.1492 25.1105 43.9623 24.6926C43.8284 24.4996 43.6442 24.3464 43.4296 24.2494C43.2149 24.1523 42.9777 24.1151 42.7435 24.1416H41.2753C41.099 24.1368 40.9264 24.1919 40.7859 24.2977C40.5802 24.2476 40.363 24.2803 40.1814 24.3886C39.9999 24.497 39.8687 24.6722 39.8163 24.8763C39.8067 24.9525 39.8067 25.0296 39.8163 25.1058L40.0379 33.2785C40.0427 33.5011 40.1337 33.7133 40.292 33.8707C40.4503 34.0282 40.6636 34.1187 40.8875 34.1234H43.1867C43.4105 34.1187 43.6238 34.0282 43.7821 33.8707C43.9405 33.7133 44.0315 33.5011 44.0362 33.2785C44.2239 31.3223 44.301 29.3572 44.267 27.3923C44.2301 26.9516 44.2209 26.4924 44.1932 26.0241ZM42.4664 25.4548V25.519C42.4713 25.5107 42.4739 25.5012 42.4739 25.4915C42.4739 25.4818 42.4713 25.4723 42.4664 25.464V25.4548Z" fill="#DCE7FB"/>
<path d="M52.3374 30.3216C52.3374 28.4391 52.3374 26.5566 52.2635 24.6833C52.2611 24.46 52.1709 24.2465 52.0121 24.0886C51.8533 23.9307 51.6386 23.8409 51.414 23.8385H49.438C49.3236 23.834 49.2097 23.8547 49.1043 23.8992C48.9989 23.9436 48.9048 24.0107 48.8286 24.0956C48.652 24.1358 48.4949 24.2355 48.3838 24.3778C48.2727 24.52 48.2146 24.6961 48.2191 24.8762C48.156 27.5018 48.2361 30.1289 48.4592 32.7458C48.4616 32.9692 48.5519 33.1827 48.7107 33.3406C48.8695 33.4985 49.0842 33.5883 49.3087 33.5907L50.6753 33.4621C51.1464 33.4961 51.6143 33.3626 51.9958 33.0856C52.1456 32.9081 52.2554 32.7006 52.3175 32.4772C52.3796 32.2538 52.3927 32.0197 52.3559 31.7908L52.3374 30.3216Z" fill="#DCE7FB"/>
<path d="M60.1863 24.022C59.6921 23.9396 59.1893 23.921 58.6904 23.9669H57.0375C56.8753 23.9615 56.7153 24.0063 56.5797 24.0951C56.4441 24.184 56.3395 24.3124 56.2804 24.4628C56.144 24.5277 56.0286 24.6291 55.9471 24.7556C55.8655 24.8821 55.821 25.0288 55.8187 25.179C55.7247 27.7571 55.7741 30.3384 55.9664 32.911C55.9711 33.1336 56.0621 33.3458 56.2204 33.5032C56.3788 33.6606 56.5921 33.7511 56.8159 33.7558H60.4356C60.6601 33.7534 60.8748 33.6637 61.0336 33.5057C61.1924 33.3478 61.2827 33.1343 61.2851 32.911C61.2851 30.7439 61.2851 28.5767 61.2851 26.4004C61.3036 25.5004 61.3036 24.2975 60.1863 24.022ZM59.5953 25.5739C59.5399 25.5464 59.623 25.5096 59.5953 25.5739V25.5739Z" fill="#DCE7FB"/>
<path d="M27.3136 39.6608C26.8241 39.5404 26.3219 39.4788 25.8177 39.4771L24.2018 39.321C24.0518 39.3089 23.902 39.3477 23.777 39.4312C23.5963 39.4682 23.4348 39.568 23.3214 39.7127C23.208 39.8575 23.1502 40.0376 23.1584 40.2209V47.0071C23.104 47.5157 23.1479 48.03 23.2877 48.5222C23.4011 48.7652 23.5824 48.9706 23.81 49.1139C24.0376 49.2572 24.3018 49.3323 24.5712 49.3303C25.6607 49.4313 26.7596 49.4681 27.8584 49.5323C28.0813 49.5276 28.2937 49.4368 28.4505 49.2791C28.6073 49.1214 28.6963 48.9093 28.6987 48.6875C28.5602 46.5663 28.4309 44.4542 28.2924 42.333C28.237 41.3964 28.4217 40.0373 27.3136 39.6608ZM26.5103 41.0658C26.5103 41.0658 26.501 41.0015 26.5103 41.0658V41.0658Z" fill="#DCE7FB"/>
<path d="M36.6029 39.7434C36.6009 39.5594 36.5398 39.3808 36.4285 39.2338C36.3172 39.0868 36.1615 38.979 35.9843 38.9261C35.0866 38.6197 34.1118 38.6197 33.2141 38.9261C32.9246 39.0461 32.6612 39.2207 32.4385 39.4404C32.2497 39.4656 32.0782 39.5633 31.9609 39.7126C31.8435 39.8619 31.7896 40.0509 31.8106 40.2393V40.6617V40.8178C31.8051 40.9315 31.8272 41.045 31.8752 41.1484C32.0322 43.4992 32.2908 45.85 32.6601 48.1824C32.7103 48.3612 32.8176 48.5188 32.9659 48.6315C33.1142 48.7441 33.2953 48.8057 33.4819 48.8069H35.9289C36.1542 48.8069 36.3703 48.7179 36.5296 48.5594C36.6889 48.401 36.7784 48.1861 36.7784 47.962C36.6306 45.2256 36.5722 42.486 36.6029 39.7434Z" fill="#DCE7FB"/>
<path d="M44.2948 45.9328C44.2948 43.9034 44.2116 41.874 44.1655 39.8446C44.1608 39.622 44.0697 39.4098 43.9114 39.2524C43.7531 39.0949 43.5398 39.0044 43.316 38.9997H41.0906C40.8806 38.9947 40.677 39.0717 40.5234 39.2142C40.3698 39.3566 40.2784 39.5533 40.2688 39.7619V39.817C40.1942 39.9416 40.1588 40.0855 40.1672 40.2302C40.1602 42.9902 40.2958 45.7487 40.5735 48.4948C40.5905 48.7132 40.6854 48.9185 40.8412 49.0734C40.997 49.2283 41.2034 49.3228 41.423 49.3396C42.2356 49.3396 43.593 49.661 44.1193 48.8529C44.3227 48.437 44.3967 47.9702 44.3317 47.5122C44.3132 46.9888 44.304 46.4654 44.2948 45.9328Z" fill="#DCE7FB"/>
<path d="M52.0695 38.4579H50.7491C50.3011 38.4073 49.8489 38.4073 49.4009 38.4579C49.1662 38.5033 48.949 38.6135 48.7743 38.7759C48.5996 38.9383 48.4744 39.1463 48.4129 39.3761C48.317 39.5218 48.2598 39.6892 48.2467 39.8628C48.0803 42.521 48.1917 45.1891 48.5791 47.8244C48.6296 48.0022 48.7373 48.1586 48.8857 48.2697C49.0342 48.3809 49.2151 48.4405 49.4009 48.4396H52.5127C52.7373 48.4372 52.952 48.3474 53.1108 48.1895C53.2696 48.0316 53.3598 47.8181 53.3622 47.5948C53.0662 44.8498 52.9183 42.091 52.919 39.3302C52.9215 39.1029 52.8337 38.8837 52.6746 38.7204C52.5155 38.557 52.2981 38.4627 52.0695 38.4579Z" fill="#DCE7FB"/>
<path d="M61.0169 41.0566C61.011 40.4098 60.9305 39.7659 60.7768 39.1374C60.5552 38.4579 59.9273 38.3293 59.2994 38.2191C58.6456 38.0526 57.9677 37.9998 57.2957 38.063C57.0257 38.126 56.7734 38.2488 56.5576 38.422C56.3418 38.5953 56.168 38.8147 56.0491 39.0639C55.974 39.1414 55.9162 39.2339 55.8796 39.3352C55.843 39.4365 55.8284 39.5443 55.8367 39.6516C55.8922 41.5617 55.9537 43.4656 56.0214 45.3634C55.9981 45.8424 56.026 46.3226 56.1045 46.7959C56.1674 47.0528 56.3136 47.282 56.5205 47.448C56.7275 47.614 56.9837 47.7075 57.2495 47.7142C58.1729 47.7876 59.0963 47.7142 60.0197 47.7142C60.2435 47.7095 60.4568 47.619 60.6151 47.4615C60.7735 47.3041 60.8645 47.0919 60.8692 46.8693C61.0263 45.5991 61.1004 44.3199 61.0908 43.0401C61.0816 42.3238 61.0169 41.6902 61.0169 41.0566ZM57.6096 39.7067C57.6189 39.7618 57.6004 39.7435 57.6004 39.7067H57.6096Z" fill="#DCE7FB"/>
<path d="M31.1459 78.9908H50.8601C50.9126 78.8756 50.9379 78.7499 50.9339 78.6235C50.7062 73.3831 50.5399 68.1397 50.4353 62.8933C50.4306 62.6707 50.3396 62.4585 50.1813 62.3011C50.023 62.1436 49.8096 62.0531 49.5858 62.0484C43.75 61.7913 37.9019 61.675 32.0415 61.6995C31.914 61.691 31.7866 61.7163 31.6722 61.7729C31.4991 61.8168 31.3462 61.918 31.2387 62.0599C31.1313 62.2018 31.0757 62.3759 31.0812 62.5535L31.0258 77.898C31.0214 78.0285 31.05 78.1579 31.1089 78.2745C31.1551 78.4857 31.1551 78.7245 31.1459 78.9908Z" fill="#DCE7FB"/>
<path d="M12.4196 65.9972C12.1696 65.1358 12.0974 64.2331 12.2072 63.3433C12.4012 62.2506 13.0383 61.3047 12.8444 60.1477C12.6974 59.5418 12.4202 58.9748 12.0318 58.4856C11.7261 58.0434 11.4982 57.5528 11.3577 57.0347C11.0438 55.9052 10.9884 54.7114 10.5821 53.6095C10.4246 53.0584 10.1457 52.5491 9.76556 52.1187C9.38542 51.6882 8.91361 51.3474 8.38444 51.1209C7.98989 50.973 7.56181 50.9367 7.14778 51.0162C6.73374 51.0956 6.34997 51.2876 6.03906 51.5709C5.84569 51.5814 5.65677 51.6327 5.48484 51.7214C5.31292 51.8101 5.1619 51.934 5.04181 52.0851C4.69117 52.5445 4.52643 53.1179 4.58012 53.6921C4.60344 53.8878 4.55058 54.085 4.43237 54.2431C4.28291 54.4413 4.15884 54.6572 4.06303 54.8859C3.87835 55.3634 3.91528 55.8685 3.59209 56.2725C2.89823 57.0425 2.40377 57.9692 2.15162 58.9723C1.93933 59.9886 2.01281 61.0435 2.36399 62.021C2.5025 62.3791 2.67794 62.6638 2.41939 63.0035C2.06478 63.41 1.7378 63.8395 1.44061 64.2891C0.941608 65.1921 0.580618 66.1639 0.369501 67.1726C-0.0259878 68.2456 -0.102919 69.409 0.147884 70.5243C0.523115 71.5342 1.08007 72.4677 1.7915 73.2791C2.51305 74.1218 3.52972 74.6601 4.63552 74.7851C5.137 74.8293 5.64203 74.7602 6.11292 74.5831C6.66926 74.3879 7.26452 74.3281 7.84888 74.4086C8.98929 74.569 10.1515 74.4685 11.2469 74.1148C11.746 73.9669 12.2128 73.7271 12.6228 73.4077C13.033 73.01 13.2855 72.4786 13.3338 71.9109C13.6477 69.8815 12.8905 67.9715 12.4196 65.9972ZM6.18679 53.2789C6.1349 53.2884 6.08171 53.2884 6.02982 53.2789C6.08171 53.2884 6.1349 53.2884 6.18679 53.2789Z" fill="#FBED9D"/>
<path d="M68.561 69.7067C68.3392 68.6266 68.0462 67.5621 67.6838 66.5203C67.3886 65.3563 67.2123 64.1657 67.1574 62.9665C67.2219 61.8047 67.0459 60.642 66.6404 59.5505C66.3345 59.0708 66.1041 58.5475 65.9571 57.9986C65.874 57.4385 65.9571 56.8691 65.8739 56.2998C65.8024 55.6478 65.539 55.0313 65.1168 54.5275C64.8003 54.2009 64.5129 53.8476 64.258 53.4715C64.0926 52.9184 63.9904 52.3485 63.9533 51.7726C63.8493 51.352 63.6283 50.9691 63.3155 50.6676C63.0027 50.3662 62.6108 50.1586 62.1848 50.0685C61.7588 49.9784 61.3158 50.0095 60.9068 50.1582C60.4977 50.307 60.1391 50.5673 59.872 50.9095C59.4102 51.0663 59.0198 51.3817 58.771 51.7992C58.5222 52.2166 58.4313 52.7087 58.5146 53.1868C58.5146 53.5908 58.7916 54.1969 58.6346 54.5918C58.5318 54.7597 58.4042 54.9114 58.256 55.0417C58.0635 55.2458 57.899 55.4743 57.7667 55.7213C57.3568 56.6602 57.1886 57.6859 57.2773 58.7057C57.2863 59.135 57.2678 59.5644 57.2219 59.9913C57.1291 60.4638 56.9706 60.9212 56.7509 61.3503C56.5032 61.8608 56.3351 62.4058 56.2523 62.9665C56.2447 63.5582 56.2693 64.1498 56.3262 64.7388C56.2808 65.2085 56.1494 65.666 55.9384 66.0887C55.7255 66.6627 55.5708 67.2564 55.4767 67.861C55.1953 68.9476 55.1575 70.0824 55.3659 71.1852C55.6356 72.1121 56.1871 72.9332 56.9449 73.536C57.6943 74.1404 58.6066 74.511 59.5672 74.6012C60.073 74.6283 60.5801 74.5819 61.0724 74.4634C61.3014 74.4022 61.537 74.3683 61.7741 74.3624C62.0919 74.4172 62.4019 74.5096 62.6975 74.6379C63.6281 74.9452 64.6416 74.8861 65.5297 74.4727C66.4177 74.0593 67.1126 73.3231 67.4714 72.4157C67.5285 72.221 67.6191 72.0377 67.7392 71.8739C67.8869 71.6902 68.0624 71.5341 68.2009 71.3321C68.5021 70.8463 68.6291 70.2734 68.561 69.7067Z" fill="#FBED9D"/>
<path d="M8.23681 56.3552C8.22688 56.335 8.21267 56.3171 8.19513 56.3028C8.1776 56.2886 8.15716 56.2782 8.13524 56.2726L7.59045 56.1991L7.35037 55.7032C7.3333 55.6764 7.30742 55.6563 7.27714 55.6462C7.24685 55.6362 7.214 55.6369 7.18416 55.6481L7.12876 55.7032L6.88868 56.1991L6.34388 56.2726C6.32803 56.2748 6.3128 56.2802 6.29907 56.2883C6.28534 56.2965 6.2734 56.3073 6.26393 56.3202C6.25447 56.333 6.24768 56.3476 6.24397 56.3631C6.24025 56.3785 6.23968 56.3946 6.24231 56.4103C6.23303 56.4339 6.23303 56.4602 6.24231 56.4838L6.63937 56.8603L6.54702 57.4021C6.5444 57.4178 6.54497 57.4338 6.54869 57.4493C6.5524 57.4648 6.55919 57.4794 6.56865 57.4922C6.57811 57.505 6.59006 57.5159 6.60379 57.524C6.61752 57.5322 6.63275 57.5376 6.6486 57.5398C6.67235 57.549 6.69872 57.549 6.72247 57.5398L7.21186 57.2827L7.70125 57.5398H7.75666C7.77324 57.5398 7.78964 57.5365 7.80484 57.5299C7.82004 57.5234 7.8337 57.5137 7.84498 57.5017C7.85625 57.4896 7.86489 57.4753 7.87035 57.4597C7.87581 57.4442 7.87797 57.4277 7.87669 57.4112L7.78436 56.8695L8.18141 56.493C8.20141 56.4764 8.21695 56.4551 8.22663 56.4311C8.2363 56.407 8.23979 56.3809 8.23681 56.3552Z" fill="#6F67C7"/>
<path d="M10.6377 61.6167C10.6308 61.597 10.6185 61.5797 10.6022 61.5667C10.5859 61.5537 10.5661 61.5455 10.5454 61.5432L9.99133 61.4606L9.75124 60.9647C9.74355 60.9506 9.73311 60.9383 9.72051 60.9283C9.70792 60.9183 9.69342 60.911 9.67792 60.9067C9.66241 60.9024 9.64621 60.9013 9.63025 60.9033C9.6143 60.9054 9.59892 60.9107 9.58504 60.9188C9.56536 60.9291 9.54927 60.9451 9.53887 60.9647L9.28955 61.4606L8.74476 61.5432C8.72308 61.5469 8.70283 61.5565 8.68623 61.5708C8.66964 61.5852 8.65734 61.6038 8.65067 61.6247C8.644 61.6455 8.64322 61.6678 8.64841 61.6891C8.65361 61.7103 8.66458 61.7297 8.68013 61.7452L9.07718 62.1309L8.98483 62.6635C8.98075 62.6792 8.97992 62.6956 8.9824 62.7116C8.98487 62.7276 8.99061 62.743 8.99925 62.7567C9.00789 62.7705 9.01926 62.7823 9.03265 62.7915C9.04605 62.8008 9.0612 62.8072 9.07718 62.8104C9.10423 62.8189 9.13323 62.8189 9.16028 62.8104L9.64044 62.5533L10.1298 62.8104C10.1487 62.8239 10.1713 62.8311 10.1945 62.8311C10.2177 62.8311 10.2403 62.8239 10.2591 62.8104C10.2774 62.7969 10.2915 62.7786 10.2996 62.7574C10.3078 62.7363 10.3098 62.7133 10.3053 62.6911L10.2129 62.1585L10.61 61.7728C10.6223 61.7645 10.6329 61.7538 10.641 61.7414C10.6491 61.729 10.6546 61.7151 10.6572 61.7006C10.6597 61.686 10.6594 61.6711 10.656 61.6566C10.6527 61.6422 10.6464 61.6286 10.6377 61.6167Z" fill="#6F67C7"/>
<path d="M4.97712 67.8888C4.96915 67.8673 4.95553 67.8483 4.93767 67.8337C4.91981 67.8192 4.89835 67.8097 4.87555 67.8062L4.33075 67.7235L4.09068 67.2368C4.07499 67.2086 4.04918 67.1872 4.01839 67.177C3.98759 67.1668 3.95407 67.1685 3.92446 67.1817C3.91139 67.1857 3.8995 67.1928 3.88983 67.2024C3.88017 67.212 3.87303 67.2238 3.86906 67.2368L3.62899 67.7235L3.08418 67.8062C3.06834 67.8084 3.05311 67.8138 3.03938 67.8219C3.02565 67.8301 3.0137 67.8409 3.00424 67.8538C2.99478 67.8666 2.98799 67.8812 2.98427 67.8967C2.98056 67.9121 2.97999 67.9282 2.98261 67.9439C2.97829 67.9541 2.97607 67.965 2.97607 67.9761C2.97607 67.9871 2.97829 67.998 2.98261 68.0082L3.37967 68.3939L3.28733 68.9357C3.28471 68.9514 3.28528 68.9674 3.28899 68.9829C3.2927 68.9984 3.29949 69.013 3.30896 69.0258C3.31842 69.0386 3.33037 69.0495 3.3441 69.0576C3.35783 69.0658 3.37306 69.0712 3.3889 69.0734C3.41265 69.0826 3.43902 69.0826 3.46277 69.0734L3.95217 68.8163L4.44156 69.0734C4.46121 69.0847 4.48351 69.0906 4.5062 69.0906C4.52889 69.0906 4.55118 69.0847 4.57083 69.0734C4.58136 69.0552 4.58692 69.0347 4.58692 69.0137C4.58692 68.9927 4.58136 68.9722 4.57083 68.954L4.4785 68.4122L4.87555 68.0265C4.9065 68.0199 4.93394 68.0023 4.95266 67.9769C4.97138 67.9515 4.98009 67.9202 4.97712 67.8888Z" fill="#6F67C7"/>
<path d="M6.33451 63.0493C6.32918 63.0279 6.31755 63.0086 6.30109 62.9939C6.28463 62.9791 6.2641 62.9696 6.24217 62.9666L5.69738 62.884L5.44807 62.3973C5.4422 62.3827 5.43328 62.3696 5.42191 62.3588C5.41054 62.3479 5.39697 62.3396 5.38212 62.3344C5.36726 62.3292 5.35146 62.3272 5.33576 62.3285C5.32007 62.3299 5.30483 62.3345 5.29109 62.3422C5.27801 62.3461 5.26612 62.3532 5.25645 62.3628C5.24679 62.3724 5.23965 62.3843 5.23568 62.3973L4.99561 62.884L4.44158 62.9666C4.42573 62.9688 4.4105 62.9742 4.39677 62.9824C4.38304 62.9906 4.3711 63.0014 4.36163 63.0142C4.35217 63.027 4.34538 63.0416 4.34167 63.0571C4.33795 63.0726 4.33738 63.0887 4.34 63.1044C4.33523 63.1255 4.33523 63.1475 4.34 63.1686L4.73707 63.5543L4.64472 64.0961C4.6421 64.1118 4.64267 64.1279 4.64638 64.1433C4.6501 64.1588 4.65689 64.1734 4.66635 64.1862C4.67581 64.1991 4.68776 64.2099 4.70149 64.2181C4.71522 64.2262 4.73045 64.2316 4.74629 64.2338H4.82017L5.30956 63.9767L5.79895 64.2338H5.85435C5.88619 64.2338 5.91673 64.2213 5.93924 64.1989C5.96175 64.1765 5.97439 64.1461 5.97439 64.1145L5.88205 63.5727L6.26988 63.187C6.28378 63.183 6.29665 63.1761 6.30764 63.1667C6.31863 63.1573 6.32749 63.1458 6.33361 63.1327C6.33973 63.1197 6.34298 63.1055 6.34313 63.0911C6.34329 63.0767 6.34035 63.0624 6.33451 63.0493Z" fill="#6F67C7"/>
<path d="M10.065 70.3129C10.0597 70.2916 10.048 70.2723 10.0315 70.2575C10.0151 70.2428 9.99457 70.2333 9.97264 70.2303L9.42784 70.1476L9.17853 69.6609C9.17266 69.6464 9.16374 69.6333 9.15236 69.6224C9.14099 69.6116 9.12743 69.6033 9.11257 69.5981C9.09772 69.5929 9.08191 69.5909 9.06622 69.5922C9.05052 69.5935 9.0353 69.5982 9.02155 69.6058C9.00848 69.6098 8.99657 69.6169 8.98691 69.6265C8.97724 69.6361 8.97012 69.6479 8.96615 69.6609L8.71684 70.1476L8.17205 70.2303C8.1562 70.2325 8.14096 70.2379 8.12723 70.2461C8.1135 70.2542 8.10155 70.2651 8.09209 70.2779C8.08262 70.2907 8.07583 70.3053 8.07212 70.3208C8.06841 70.3363 8.06785 70.3523 8.07047 70.368C8.0657 70.3892 8.0657 70.4111 8.07047 70.4323L8.46752 70.818L8.37519 71.3598C8.36969 71.3902 8.37623 71.4215 8.39345 71.4472C8.41067 71.4728 8.43721 71.4909 8.46752 71.4975C8.49457 71.506 8.52357 71.506 8.55062 71.4975L9.04003 71.2496L9.52942 71.4975C9.54876 71.5077 9.57053 71.5125 9.59238 71.5112C9.61424 71.51 9.63535 71.5029 9.65342 71.4906C9.67149 71.4783 9.68582 71.4613 9.69489 71.4415C9.70395 71.4217 9.7074 71.3998 9.70485 71.3781L9.61252 70.8363L10.0003 70.4507C10.0142 70.4467 10.0271 70.4397 10.0381 70.4304C10.0491 70.421 10.0579 70.4094 10.0641 70.3964C10.0702 70.3833 10.0734 70.3691 10.0736 70.3548C10.0737 70.3404 10.0708 70.3261 10.065 70.3129Z" fill="#6F67C7"/>
<path d="M23.722 78.9908C23.722 78.8255 23.722 78.651 23.6759 78.5041C23.6205 77.9715 23.5097 77.4481 23.482 76.9063C23.4173 75.8319 23.5743 74.7575 23.5558 73.6739C23.5757 73.4081 23.5346 73.1412 23.4358 72.8934C23.3502 72.7212 23.219 72.5754 23.0562 72.4719C22.8935 72.3683 22.7055 72.3108 22.5124 72.3057C22.0142 72.2411 21.5086 72.2598 21.0165 72.3608C20.7783 72.4158 20.5507 72.5088 20.3424 72.6363C20.2077 72.5415 20.0456 72.4932 19.8808 72.4985C19.6555 72.4985 19.4394 72.5875 19.2801 72.746C19.1208 72.9044 19.0312 73.1193 19.0312 73.3433C19.1513 75.1799 19.2344 77.1083 19.2713 78.9908H23.722ZM22.3831 73.9953C22.4847 73.9586 22.4939 73.9678 22.3831 73.9678V73.9953ZM21.8568 73.4627C21.8568 73.3433 21.8568 73.3525 21.8568 73.4627V73.4627Z" fill="#4E439E"/>
<path d="M26.8522 65.997C26.6022 65.1357 26.53 64.233 26.6398 63.3432C26.8337 62.2504 27.4709 61.3046 27.277 60.1475C27.13 59.5417 26.8527 58.9746 26.4644 58.4854C26.1587 58.0433 25.9308 57.5527 25.7903 57.0346C25.4764 55.9051 25.421 54.7113 25.0054 53.6094C24.8492 53.0577 24.5707 52.5479 24.1904 52.1172C23.8101 51.6866 23.3377 51.3461 22.8078 51.1208C22.4148 50.9726 21.9881 50.9362 21.5754 51.0157C21.1628 51.0951 20.7806 51.2874 20.4716 51.5708C20.2772 51.5823 20.0873 51.634 19.914 51.7225C19.7407 51.8111 19.5878 51.9345 19.4651 52.085C19.1223 52.5482 18.9585 53.1186 19.0035 53.692C19.0294 53.8865 18.9799 54.0835 18.865 54.243C18.7093 54.4387 18.5819 54.655 18.4864 54.8858C18.3017 55.3633 18.3386 55.8683 18.0154 56.2724C17.3216 57.0424 16.8271 57.9691 16.575 58.9721C16.3627 59.9885 16.4362 61.0433 16.7873 62.0209C16.9259 62.379 17.1013 62.6636 16.8427 63.0034C16.4881 63.4098 16.1611 63.8393 15.864 64.289C15.365 65.1919 15.004 66.1637 14.7928 67.1724C14.3974 68.2454 14.3204 69.4089 14.5712 70.5242C14.9465 71.534 15.5034 72.4675 16.2148 73.279C16.9364 74.1217 17.9531 74.66 19.0589 74.785C19.5603 74.8292 20.0654 74.7601 20.5363 74.583C21.0804 74.3905 21.6623 74.3276 22.2353 74.3993C23.3757 74.5597 24.5379 74.4592 25.6333 74.1055C26.1324 73.9576 26.5992 73.7178 27.0092 73.3984C27.4194 73.0007 27.6719 72.4693 27.7202 71.9016C28.0803 69.8814 27.3231 67.9713 26.8522 65.997ZM20.6194 53.2788C20.5643 53.2879 20.5082 53.2879 20.4532 53.2788C20.5082 53.2879 20.5643 53.2879 20.6194 53.2788Z" fill="#FBED9D"/>
<path d="M22.6691 56.3552C22.6591 56.335 22.6449 56.3171 22.6274 56.3028C22.6098 56.2886 22.5894 56.2782 22.5675 56.2726L22.0227 56.1991L21.7826 55.7032C21.7655 55.6764 21.7397 55.6563 21.7094 55.6462C21.6791 55.6362 21.6462 55.6369 21.6164 55.6481C21.5935 55.6615 21.5745 55.6805 21.561 55.7032L21.3209 56.1991L20.7761 56.2726C20.7536 56.2769 20.7326 56.2867 20.7149 56.3012C20.6971 56.3156 20.6833 56.3342 20.6745 56.3552C20.6632 56.3748 20.6572 56.3969 20.6572 56.4195C20.6572 56.4421 20.6632 56.4642 20.6745 56.4838L21.0716 56.8603L20.9793 57.4021C20.9766 57.4178 20.9772 57.4338 20.9809 57.4493C20.9846 57.4648 20.9914 57.4794 21.0009 57.4922C21.0103 57.505 21.0223 57.5159 21.036 57.524C21.0498 57.5322 21.065 57.5376 21.0808 57.5398C21.1046 57.549 21.131 57.549 21.1547 57.5398L21.6441 57.2827L22.1335 57.5398H22.1889C22.2055 57.5398 22.2219 57.5365 22.2371 57.5299C22.2523 57.5234 22.2659 57.5137 22.2772 57.5017C22.2885 57.4896 22.2971 57.4753 22.3026 57.4597C22.3081 57.4442 22.3102 57.4277 22.3089 57.4112L22.2166 56.8695L22.6137 56.493C22.6337 56.4764 22.6492 56.4551 22.6589 56.4311C22.6685 56.407 22.672 56.3809 22.6691 56.3552Z" fill="#6F67C7"/>
<path d="M25.0697 61.6168C25.0648 61.6008 25.0564 61.5859 25.0453 61.5732C25.0342 61.5606 25.0205 61.5504 25.0051 61.5434L24.4603 61.4607L24.2202 60.9649C24.2045 60.9366 24.1787 60.9152 24.1479 60.905C24.1171 60.8948 24.0836 60.8965 24.054 60.9098L23.9986 60.9649L23.7585 61.4607L23.1583 61.5434C23.1366 61.5471 23.1164 61.5566 23.0998 61.571C23.0832 61.5854 23.0709 61.604 23.0642 61.6248C23.0576 61.6457 23.0568 61.668 23.062 61.6892C23.0672 61.7105 23.0781 61.7299 23.0937 61.7454L23.4815 62.1311L23.3892 62.6637C23.3837 62.6965 23.3912 62.7301 23.4102 62.7575C23.4291 62.7849 23.458 62.8039 23.4908 62.8106C23.5145 62.8198 23.5409 62.8198 23.5646 62.8106L24.054 62.5535L24.5434 62.8106C24.5573 62.8187 24.5727 62.824 24.5886 62.826C24.6046 62.8281 24.6208 62.827 24.6363 62.8227C24.6518 62.8184 24.6663 62.811 24.6789 62.8011C24.6915 62.7911 24.7019 62.7788 24.7096 62.7647C24.7188 62.7379 24.7188 62.7088 24.7096 62.6821L24.6173 62.1494L25.0143 61.7638C25.0386 61.7488 25.0572 61.7263 25.0672 61.6997C25.0772 61.6731 25.0781 61.644 25.0697 61.6168Z" fill="#6F67C7"/>
<path d="M19.4097 67.8886C19.4018 67.8671 19.3881 67.8481 19.3703 67.8335C19.3524 67.819 19.331 67.8095 19.3082 67.806L18.7634 67.7233L18.5141 67.2366C18.5082 67.2221 18.4993 67.209 18.4879 67.1981C18.4765 67.1873 18.463 67.179 18.4481 67.1738C18.4332 67.1686 18.4174 67.1665 18.4017 67.1679C18.3861 67.1692 18.3708 67.1739 18.3571 67.1815C18.344 67.1855 18.3321 67.1926 18.3224 67.2022C18.3128 67.2118 18.3056 67.2236 18.3017 67.2366L18.0616 67.7233L17.5168 67.806C17.5004 67.8068 17.4844 67.8113 17.4699 67.819C17.4554 67.8268 17.4428 67.8377 17.4331 67.8509C17.4234 67.864 17.4167 67.8792 17.4137 67.8953C17.4106 67.9113 17.4111 67.9279 17.4152 67.9437C17.4109 67.9539 17.4087 67.9648 17.4087 67.9759C17.4087 67.9869 17.4109 67.9978 17.4152 68.008L17.8123 68.3937L17.7199 68.9355C17.7173 68.9512 17.7179 68.9672 17.7216 68.9827C17.7253 68.9982 17.7321 69.0128 17.7416 69.0256C17.751 69.0384 17.763 69.0493 17.7767 69.0574C17.7904 69.0656 17.8057 69.071 17.8215 69.0732C17.8453 69.0824 17.8716 69.0824 17.8954 69.0732L18.3848 68.8161L18.8742 69.0732H18.9296C18.9614 69.0732 18.9919 69.0606 19.0145 69.0382C19.037 69.0159 19.0496 68.9855 19.0496 68.9538L18.9573 68.412L19.3543 68.0264C19.3768 68.0119 19.3941 67.9909 19.404 67.9662C19.414 67.9416 19.4159 67.9145 19.4097 67.8886Z" fill="#6F67C7"/>
<path d="M20.7671 63.0493C20.7618 63.0279 20.7502 63.0086 20.7337 62.9939C20.7172 62.9791 20.6967 62.9696 20.6748 62.9666L20.13 62.884L19.8807 62.3973C19.8748 62.3827 19.8659 62.3696 19.8545 62.3588C19.8432 62.3479 19.8296 62.3396 19.8147 62.3344C19.7999 62.3292 19.7841 62.3272 19.7684 62.3285C19.7527 62.3299 19.7374 62.3345 19.7237 62.3422C19.7106 62.3461 19.6987 62.3532 19.6891 62.3628C19.6794 62.3724 19.6723 62.3843 19.6683 62.3973L19.4282 62.884L18.8742 62.9666C18.8583 62.9688 18.8431 62.9742 18.8294 62.9824C18.8157 62.9906 18.8037 63.0014 18.7942 63.0142C18.7848 63.027 18.778 63.0416 18.7743 63.0571C18.7706 63.0726 18.77 63.0887 18.7726 63.1044C18.7679 63.1255 18.7679 63.1475 18.7726 63.1686L19.1697 63.5543L19.0773 64.0961C19.0747 64.1118 19.0753 64.1279 19.079 64.1433C19.0827 64.1588 19.0895 64.1734 19.099 64.1862C19.1084 64.1991 19.1204 64.2099 19.1341 64.2181C19.1478 64.2262 19.1631 64.2316 19.1789 64.2338H19.2528L19.7422 63.9767L20.2316 64.2338H20.287C20.3188 64.2338 20.3493 64.2213 20.3718 64.1989C20.3944 64.1765 20.407 64.1461 20.407 64.1145L20.3147 63.5727L20.7117 63.187C20.7365 63.175 20.756 63.1543 20.7662 63.1288C20.7765 63.1033 20.7768 63.075 20.7671 63.0493Z" fill="#6F67C7"/>
<path d="M24.4976 70.3129C24.4923 70.2916 24.4806 70.2723 24.4642 70.2575C24.4477 70.2428 24.4272 70.2333 24.4053 70.2303L23.8605 70.1476L23.6112 69.6609C23.6053 69.6464 23.5964 69.6333 23.585 69.6224C23.5736 69.6116 23.5601 69.6033 23.5452 69.5981C23.5304 69.5929 23.5145 69.5909 23.4989 69.5922C23.4832 69.5935 23.4679 69.5982 23.4542 69.6058C23.4411 69.6098 23.4292 69.6169 23.4195 69.6265C23.4099 69.6361 23.4027 69.6479 23.3988 69.6609L23.1495 70.1476L22.6047 70.2303C22.5888 70.2325 22.5736 70.2379 22.5599 70.2461C22.5461 70.2542 22.5342 70.2651 22.5247 70.2779C22.5153 70.2907 22.5085 70.3053 22.5048 70.3208C22.501 70.3363 22.5005 70.3523 22.5031 70.368C22.4983 70.3892 22.4983 70.4111 22.5031 70.4323L22.9002 70.818L22.8078 71.3598C22.8037 71.3749 22.803 71.3907 22.8055 71.4062C22.8081 71.4216 22.8139 71.4364 22.8226 71.4494C22.8314 71.4625 22.8428 71.4735 22.8562 71.4818C22.8695 71.4901 22.8845 71.4954 22.9002 71.4975C22.9272 71.506 22.9562 71.506 22.9833 71.4975L23.4726 71.2496L23.9528 71.4975C23.9716 71.511 23.9942 71.5182 24.0174 71.5182C24.0406 71.5182 24.0632 71.511 24.0821 71.4975C24.1005 71.4864 24.115 71.4697 24.1233 71.4499C24.1316 71.4301 24.1333 71.4082 24.1283 71.3873L24.0359 70.8455L24.433 70.4599C24.4481 70.4562 24.4622 70.449 24.4741 70.439C24.486 70.4291 24.4955 70.4165 24.5017 70.4023C24.508 70.3881 24.5109 70.3726 24.5102 70.3571C24.5094 70.3416 24.5051 70.3265 24.4976 70.3129Z" fill="#6F67C7"/>
<path d="M62.5775 55.9144C62.5705 55.8923 62.5572 55.8727 62.5391 55.858C62.5211 55.8433 62.4991 55.8342 62.476 55.8317L61.9312 55.7491L61.6911 55.2624C61.6842 55.2475 61.6744 55.2343 61.6622 55.2234C61.6499 55.2125 61.6356 55.2042 61.62 55.199C61.6044 55.1938 61.5879 55.1919 61.5716 55.1933C61.5552 55.1947 61.5393 55.1995 61.5249 55.2073C61.5139 55.2129 61.5041 55.2207 61.4962 55.2302C61.4883 55.2396 61.4823 55.2506 61.4787 55.2624L61.2294 55.7491L60.6846 55.8317C60.6688 55.8339 60.6535 55.8393 60.6398 55.8475C60.6261 55.8557 60.6141 55.8665 60.6047 55.8793C60.5952 55.8921 60.5884 55.9067 60.5847 55.9222C60.581 55.9377 60.5804 55.9537 60.583 55.9694C60.5771 55.9905 60.5771 56.0127 60.583 56.0337L60.9709 56.4194L60.8785 56.9612C60.8759 56.9769 60.8765 56.993 60.8802 57.0084C60.8839 57.0239 60.8907 57.0385 60.9001 57.0513C60.9096 57.0642 60.9216 57.075 60.9353 57.0832C60.949 57.0913 60.9643 57.0967 60.9801 57.0989C61.0039 57.1082 61.0302 57.1082 61.054 57.0989L61.5434 56.851L62.0328 57.0989H62.0882C62.12 57.0989 62.1505 57.0864 62.173 57.064C62.1955 57.0416 62.2082 57.0112 62.2082 56.9796L62.1159 56.4378L62.5129 56.0521C62.5381 56.0402 62.5583 56.0199 62.5701 55.9948C62.5819 55.9696 62.5845 55.9412 62.5775 55.9144Z" fill="#6F67C7"/>
<path d="M64.9785 61.1762C64.9732 61.1548 64.9616 61.1355 64.9451 61.1208C64.9287 61.1061 64.9081 61.0966 64.8862 61.0936L64.3414 61.0109L64.0921 60.5242C64.0862 60.5097 64.0773 60.4966 64.0659 60.4857C64.0546 60.4749 64.041 60.4666 64.0261 60.4614C64.0113 60.4561 63.9955 60.4541 63.9798 60.4555C63.9641 60.4568 63.9489 60.4615 63.9351 60.4691C63.9221 60.4731 63.9101 60.4802 63.9005 60.4898C63.8908 60.4994 63.8837 60.5112 63.8797 60.5242L63.6396 61.0109L63.0856 61.0936C63.0698 61.0958 63.0545 61.1012 63.0408 61.1093C63.0271 61.1175 63.0151 61.1283 63.0057 61.1412C62.9962 61.154 62.9894 61.1686 62.9857 61.1841C62.982 61.1995 62.9814 61.2156 62.984 61.2313C62.9793 61.2525 62.9793 61.2744 62.984 61.2956L63.3811 61.6813L63.2888 62.2231C63.2861 62.2388 63.2867 62.2548 63.2904 62.2703C63.2941 62.2858 63.3009 62.3004 63.3104 62.3132C63.3198 62.326 63.3318 62.3369 63.3455 62.345C63.3592 62.3532 63.3745 62.3586 63.3903 62.3608H63.4642L63.9536 62.1037L64.443 62.3608C64.4567 62.3684 64.472 62.3731 64.4877 62.3744C64.5034 62.3758 64.5192 62.3738 64.534 62.3686C64.5489 62.3633 64.5624 62.355 64.5738 62.3442C64.5852 62.3334 64.5941 62.3202 64.6 62.3057C64.6092 62.2821 64.6092 62.2559 64.6 62.2322L64.5076 61.6904L64.8954 61.3048C64.9099 61.3027 64.9237 61.2976 64.936 61.2898C64.9482 61.2819 64.9587 61.2716 64.9666 61.2594C64.9744 61.2472 64.9796 61.2334 64.9817 61.2191C64.9837 61.2047 64.9827 61.1901 64.9785 61.1762Z" fill="#6F67C7"/>
<path d="M59.3182 67.4386C59.3083 67.4184 59.2941 67.4005 59.2765 67.3862C59.259 67.372 59.2386 67.3616 59.2167 67.356L58.6719 67.2825L58.4318 66.7866C58.4161 66.7584 58.3903 66.737 58.3595 66.7268C58.3287 66.7166 58.2952 66.7183 58.2656 66.7315L58.2102 66.7866L57.9701 67.2825L57.4253 67.356C57.3943 67.3626 57.3669 67.3803 57.3482 67.4056C57.3295 67.431 57.3208 67.4624 57.3237 67.4937C57.3153 67.5175 57.3153 67.5434 57.3237 67.5672L57.7115 67.9437L57.6192 68.4855C57.6166 68.5012 57.6171 68.5172 57.6209 68.5327C57.6246 68.5482 57.6314 68.5628 57.6408 68.5756C57.6503 68.5884 57.6622 68.5993 57.676 68.6074C57.6897 68.6156 57.7049 68.621 57.7208 68.6232C57.7445 68.6324 57.7709 68.6324 57.7946 68.6232L58.284 68.3661L58.7734 68.6232C58.7958 68.6445 58.8256 68.6564 58.8565 68.6564C58.8875 68.6564 58.9173 68.6445 58.9396 68.6232C58.9488 68.5964 58.9488 68.5674 58.9396 68.5406L58.8473 67.9988L59.2444 67.6223C59.2761 67.6049 59.3008 67.577 59.3143 67.5436C59.3277 67.5101 59.3291 67.473 59.3182 67.4386Z" fill="#6F67C7"/>
<path d="M60.6848 62.5992C60.6749 62.579 60.6607 62.5611 60.6431 62.5469C60.6256 62.5326 60.6052 62.5223 60.5832 62.5166L60.0384 62.4431L59.7983 61.9473C59.7827 61.919 59.7569 61.8977 59.7261 61.8875C59.6953 61.8772 59.6617 61.8789 59.6321 61.8922L59.5767 61.9473L59.3367 62.4431L58.7919 62.5166C58.7609 62.5232 58.7335 62.5409 58.7148 62.5663C58.696 62.5917 58.6873 62.623 58.6903 62.6544C58.6846 62.6658 58.6816 62.6783 58.6816 62.6911C58.6816 62.7038 58.6846 62.7164 58.6903 62.7278L59.0781 63.1043L58.9858 63.6461C58.9832 63.6618 58.9837 63.6779 58.9874 63.6933C58.9911 63.7088 58.9979 63.7234 59.0074 63.7362C59.0169 63.7491 59.0288 63.7599 59.0425 63.7681C59.0563 63.7762 59.0715 63.7816 59.0874 63.7838C59.1111 63.7931 59.1375 63.7931 59.1612 63.7838L59.6506 63.5267L60.14 63.7838C60.1539 63.7919 60.1693 63.7972 60.1852 63.7992C60.2012 63.8013 60.2174 63.8002 60.2329 63.7959C60.2484 63.7916 60.2629 63.7843 60.2755 63.7743C60.2881 63.7644 60.2985 63.752 60.3062 63.7379C60.3107 63.7106 60.3107 63.6826 60.3062 63.6553L60.2139 63.1227L60.6109 62.737C60.6343 62.7225 60.6535 62.7021 60.6664 62.678C60.6794 62.6538 60.6857 62.6266 60.6848 62.5992Z" fill="#6F67C7"/>
<path d="M64.4152 69.863C64.4072 69.8415 64.3936 69.8225 64.3757 69.8079C64.3579 69.7934 64.3364 69.7839 64.3136 69.7804L63.7688 69.7069L63.5287 69.2111C63.5117 69.1842 63.4858 69.1641 63.4555 69.154C63.4252 69.144 63.3924 69.1447 63.3625 69.1559C63.3379 69.167 63.3182 69.1866 63.3071 69.2111L63.0671 69.7069L62.5223 69.7804C62.5056 69.7815 62.4894 69.786 62.4746 69.7936C62.4598 69.8013 62.4467 69.812 62.4363 69.8249C62.4259 69.8379 62.4183 69.8529 62.414 69.8689C62.4097 69.885 62.4088 69.9017 62.4114 69.9181C62.4065 69.9424 62.4065 69.9674 62.4114 69.9916L62.8085 70.3681L62.7162 70.9099C62.7135 70.9256 62.7141 70.9416 62.7178 70.9571C62.7215 70.9726 62.7283 70.9872 62.7378 71C62.7473 71.0129 62.7592 71.0237 62.7729 71.0319C62.7867 71.04 62.8019 71.0454 62.8177 71.0476C62.8415 71.0568 62.8679 71.0568 62.8916 71.0476L63.381 70.7905L63.8704 71.0476C63.89 71.0589 63.9123 71.0648 63.935 71.0648C63.9577 71.0648 63.98 71.0589 63.9997 71.0476C64.0102 71.0295 64.0157 71.0089 64.0157 70.9879C64.0157 70.967 64.0102 70.9464 63.9997 70.9282L63.9073 70.3865L64.3044 70.01C64.3361 70.0003 64.3639 69.9808 64.3838 69.9544C64.4037 69.928 64.4147 69.896 64.4152 69.863Z" fill="#6F67C7"/>
<path d="M79.5402 78.9909C79.5503 78.8166 79.5503 78.6418 79.5402 78.4675C79.4848 77.9349 79.3739 77.4115 79.337 76.8697C79.2724 75.7953 79.4293 74.7209 79.4201 73.6373C79.4355 73.3716 79.3946 73.1057 79.3001 72.8568C79.2137 72.6852 79.0823 72.54 78.9197 72.4365C78.7572 72.3331 78.5696 72.2752 78.3767 72.269C77.8815 72.2045 77.379 72.2231 76.8901 72.3242C76.6513 72.3774 76.4234 72.4705 76.216 72.5996C76.0807 72.5061 75.919 72.4579 75.7543 72.4619C75.529 72.4619 75.3129 72.5509 75.1536 72.7093C74.9943 72.8678 74.9048 73.0827 74.9048 73.3067C75.0217 75.1984 75.0987 77.0931 75.1356 78.9909H79.5402ZM78.2013 73.9587C78.3121 73.9587 78.3213 73.9587 78.2013 73.9587V73.9587ZM77.638 73.4812C77.638 73.3618 77.638 73.371 77.638 73.4812V73.4812Z" fill="#4E439E"/>
<path d="M83.9814 69.7067C83.7445 68.6255 83.4361 67.561 83.0581 66.5203C82.7629 65.3563 82.5866 64.1657 82.5317 62.9665C82.5962 61.8047 82.4202 60.642 82.0147 59.5505C81.7088 59.0708 81.4784 58.5475 81.3313 57.9986C81.2482 57.4385 81.3313 56.8691 81.2482 56.2998C81.1767 55.6478 80.9133 55.0313 80.4911 54.5275C80.1772 54.1986 79.8901 53.8455 79.6323 53.4715C79.4669 52.9184 79.3647 52.3485 79.3276 51.7726C79.2236 51.352 79.0026 50.9691 78.6898 50.6676C78.377 50.3662 77.9851 50.1586 77.5591 50.0685C77.1331 49.9784 76.6901 50.0095 76.2811 50.1582C75.872 50.307 75.5134 50.5673 75.2463 50.9095C74.7948 51.0764 74.4168 51.3962 74.1788 51.8126C73.9407 52.2291 73.8577 52.7156 73.9443 53.1868C73.9443 53.5908 74.2213 54.1969 74.0643 54.5918C73.9615 54.7597 73.8339 54.9114 73.6857 55.0417C73.4932 55.2458 73.3287 55.4743 73.1964 55.7213C72.7906 56.6614 72.6225 57.6861 72.707 58.7057C72.716 59.135 72.6975 59.5644 72.6516 59.9913C72.5588 60.4638 72.4003 60.9212 72.1806 61.3503C71.9329 61.8608 71.7648 62.4058 71.682 62.9665C71.6744 63.5582 71.699 64.1498 71.7559 64.7388C71.7105 65.2085 71.5791 65.666 71.3681 66.0887C71.1552 66.6627 71.0005 67.2564 70.9064 67.861C70.625 68.9476 70.5872 70.0824 70.7956 71.1852C71.0653 72.1121 71.6168 72.9332 72.3745 73.536C73.124 74.1404 74.0363 74.511 74.9969 74.6012C75.5027 74.6283 76.0098 74.5819 76.5021 74.4634C76.7311 74.4022 76.9667 74.3683 77.2038 74.3624C77.5216 74.4172 77.8316 74.5096 78.1272 74.6379C79.0578 74.9452 80.0713 74.8861 80.9594 74.4727C81.8474 74.0593 82.5423 73.3231 82.9011 72.4157C82.9582 72.221 83.0488 72.0377 83.1689 71.8739C83.3166 71.6902 83.4921 71.5341 83.6306 71.3321C83.9286 70.8452 84.0523 70.2724 83.9814 69.7067Z" fill="#FBED9D"/>
<path d="M77.9983 55.9144C77.9913 55.8923 77.9779 55.8727 77.9599 55.858C77.9419 55.8433 77.9199 55.8342 77.8967 55.8317L77.352 55.7491L77.1119 55.2624C77.105 55.2475 77.0952 55.2343 77.0829 55.2234C77.0707 55.2125 77.0564 55.2042 77.0408 55.199C77.0252 55.1938 77.0087 55.1919 76.9924 55.1933C76.976 55.1947 76.9601 55.1995 76.9457 55.2073C76.9326 55.2112 76.9207 55.2183 76.911 55.2279C76.9014 55.2375 76.8942 55.2494 76.8903 55.2624L76.6502 55.7491L76.1054 55.8317C76.089 55.8325 76.0729 55.837 76.0585 55.8448C76.044 55.8525 76.0314 55.8634 76.0217 55.8766C76.012 55.8898 76.0053 55.905 76.0022 55.921C75.9991 55.9371 75.9997 55.9536 76.0038 55.9694C75.9968 55.9903 75.9968 56.0129 76.0038 56.0337L76.4009 56.4194L76.3085 56.9612C76.3059 56.9769 76.3065 56.993 76.3102 57.0084C76.3139 57.0239 76.3207 57.0385 76.3302 57.0513C76.3396 57.0642 76.3516 57.075 76.3653 57.0832C76.379 57.0913 76.3943 57.0967 76.4101 57.0989C76.4339 57.1082 76.4602 57.1082 76.484 57.0989L76.9734 56.851L77.4628 57.0989H77.5182C77.5365 57.0994 77.5548 57.0957 77.5715 57.0881C77.5882 57.0804 77.603 57.0691 77.6146 57.0549C77.6262 57.0407 77.6343 57.024 77.6384 57.0062C77.6425 56.9884 77.6425 56.9698 77.6382 56.952L77.5459 56.4102L77.9429 56.0246C77.9601 56.0117 77.9741 55.9951 77.9837 55.976C77.9933 55.9568 77.9983 55.9357 77.9983 55.9144Z" fill="#6F67C7"/>
<path d="M80.4082 61.1762C80.4029 61.1548 80.3913 61.1355 80.3748 61.1208C80.3584 61.1061 80.3378 61.0966 80.3159 61.0936L79.7711 61.0109L79.5218 60.5242C79.5159 60.5097 79.507 60.4966 79.4956 60.4857C79.4843 60.4749 79.4707 60.4666 79.4558 60.4614C79.441 60.4561 79.4252 60.4541 79.4095 60.4555C79.3938 60.4568 79.3786 60.4615 79.3648 60.4691C79.3517 60.4731 79.3398 60.4802 79.3302 60.4898C79.3205 60.4994 79.3134 60.5112 79.3094 60.5242L79.0601 61.0109L78.5153 61.0936C78.4995 61.0958 78.4842 61.1012 78.4705 61.1093C78.4568 61.1175 78.4448 61.1283 78.4354 61.1412C78.4259 61.154 78.4191 61.1686 78.4154 61.1841C78.4117 61.1995 78.4111 61.2156 78.4137 61.2313C78.409 61.2525 78.409 61.2744 78.4137 61.2956L78.8108 61.6813L78.7185 62.2231C78.7158 62.2388 78.7164 62.2548 78.7201 62.2703C78.7238 62.2858 78.7306 62.3004 78.7401 62.3132C78.7495 62.326 78.7615 62.3369 78.7752 62.345C78.7889 62.3532 78.8042 62.3586 78.82 62.3608H78.8939L79.3833 62.1037L79.8727 62.3608C79.8864 62.3684 79.9016 62.3731 79.9173 62.3744C79.933 62.3758 79.9488 62.3738 79.9637 62.3686C79.9785 62.3633 79.9921 62.355 80.0035 62.3442C80.0149 62.3334 80.0238 62.3202 80.0296 62.3057C80.0389 62.2821 80.0389 62.2559 80.0296 62.2322L79.9373 61.6904L80.3251 61.3048C80.3396 61.3027 80.3534 61.2976 80.3657 61.2898C80.3779 61.2819 80.3884 61.2716 80.3962 61.2594C80.4041 61.2472 80.4093 61.2334 80.4113 61.2191C80.4134 61.2047 80.4124 61.1901 80.4082 61.1762Z" fill="#6F67C7"/>
<path d="M74.7386 67.4386C74.7287 67.4184 74.7145 67.4005 74.6969 67.3862C74.6794 67.372 74.659 67.3616 74.6371 67.356L74.0923 67.2825L73.8522 66.7866C73.8365 66.7584 73.8107 66.737 73.7799 66.7268C73.7491 66.7166 73.7156 66.7183 73.686 66.7315L73.6306 66.7866L73.3905 67.2825L72.8457 67.356C72.8147 67.3626 72.7873 67.3803 72.7686 67.4056C72.7499 67.431 72.7412 67.4624 72.7441 67.4937C72.7357 67.5175 72.7357 67.5434 72.7441 67.5672L73.1319 67.9437L73.0396 68.4855C73.037 68.5012 73.0376 68.5172 73.0413 68.5327C73.045 68.5482 73.0518 68.5628 73.0612 68.5756C73.0707 68.5884 73.0826 68.5993 73.0964 68.6074C73.1101 68.6156 73.1253 68.621 73.1412 68.6232C73.1649 68.6324 73.1913 68.6324 73.2151 68.6232L73.7045 68.3661L74.1938 68.6232C74.2162 68.6445 74.246 68.6564 74.2769 68.6564C74.3079 68.6564 74.3377 68.6445 74.36 68.6232C74.3692 68.5964 74.3692 68.5674 74.36 68.5406L74.2677 67.9988L74.6648 67.6223C74.6828 67.6165 74.6994 67.6068 74.7133 67.5939C74.7271 67.581 74.738 67.5652 74.745 67.5477C74.7521 67.5302 74.7552 67.5113 74.7541 67.4924C74.753 67.4736 74.7477 67.4552 74.7386 67.4386Z" fill="#6F67C7"/>
<path d="M76.1052 62.5992C76.0953 62.579 76.0811 62.5611 76.0635 62.5469C76.046 62.5326 76.0256 62.5223 76.0036 62.5166L75.4588 62.4431L75.2188 61.9473C75.2031 61.919 75.1773 61.8977 75.1465 61.8875C75.1157 61.8772 75.0822 61.8789 75.0526 61.8922L74.9972 61.9473L74.7571 62.4431L74.2123 62.5166C74.1813 62.5232 74.1539 62.5409 74.1352 62.5663C74.1164 62.5917 74.1077 62.623 74.1107 62.6544C74.105 62.6658 74.1021 62.6783 74.1021 62.6911C74.1021 62.7038 74.105 62.7164 74.1107 62.7278L74.4985 63.1043L74.4062 63.6461C74.4036 63.6618 74.4041 63.6779 74.4078 63.6933C74.4116 63.7088 74.4183 63.7234 74.4278 63.7362C74.4373 63.7491 74.4492 63.7599 74.463 63.7681C74.4767 63.7762 74.4919 63.7816 74.5078 63.7838C74.5315 63.7931 74.5579 63.7931 74.5816 63.7838L75.071 63.5267L75.5604 63.7838H75.6158C75.6477 63.7838 75.6782 63.7712 75.7007 63.7489C75.7232 63.7265 75.7359 63.6961 75.7359 63.6645L75.6435 63.1318L76.0406 62.7462C76.0637 62.7298 76.0819 62.7075 76.0933 62.6816C76.1047 62.6557 76.1088 62.6273 76.1052 62.5992Z" fill="#6F67C7"/>
<path d="M79.8357 69.8629C79.8277 69.8414 79.8141 69.8224 79.7962 69.8078C79.7784 69.7933 79.7569 69.7838 79.7341 69.7803L79.1893 69.7068L78.9492 69.211C78.9335 69.1827 78.9078 69.1613 78.877 69.1511C78.8462 69.1409 78.8126 69.1426 78.783 69.1559L78.7276 69.211L78.4875 69.7068L77.9428 69.7803C77.9269 69.7825 77.9117 69.7879 77.8979 69.7961C77.8842 69.8042 77.8723 69.8151 77.8628 69.8279C77.8533 69.8407 77.8465 69.8553 77.8428 69.8708C77.8391 69.8863 77.8386 69.9023 77.8412 69.918C77.8355 69.9294 77.8325 69.942 77.8325 69.9548C77.8325 69.9675 77.8355 69.9801 77.8412 69.9915L78.229 70.368L78.1367 70.9098C78.134 70.9255 78.1346 70.9415 78.1383 70.957C78.142 70.9725 78.1488 70.9871 78.1583 70.9999C78.1678 71.0127 78.1797 71.0236 78.1934 71.0317C78.2072 71.0399 78.2224 71.0453 78.2382 71.0475C78.262 71.0567 78.2884 71.0567 78.3121 71.0475L78.8015 70.7904L79.2909 71.0475C79.3105 71.0588 79.3328 71.0647 79.3555 71.0647C79.3782 71.0647 79.4005 71.0588 79.4202 71.0475C79.4384 71.034 79.4525 71.0156 79.4607 70.9945C79.4689 70.9734 79.4708 70.9503 79.4663 70.9281L79.374 70.3864L79.771 70.0099C79.7942 69.9935 79.8124 69.9712 79.8238 69.9453C79.8352 69.9194 79.8393 69.8909 79.8357 69.8629Z" fill="#6F67C7"/>
<path d="M40.3059 62.7461C40.3059 68.2558 40.3059 72.7095 40.2412 78.2192" stroke="#6F67C7" stroke-width="0.75" stroke-miterlimit="10"/>
<path d="M38.228 69.6885L38.3665 73.9585" stroke="#918EDE" stroke-width="0.75" stroke-miterlimit="10"/>
<path d="M42.3647 69.5693C42.3647 71.057 42.3647 72.5446 42.4848 74.0414" stroke="#918EDE" stroke-width="0.75" stroke-miterlimit="10"/>
<path d="M51.7279 62.0762C51.6817 61.3783 51.6817 60.6529 51.5801 59.955C51.4508 59.1193 50.7675 58.9081 50.0196 58.8989H45.4027C42.4109 58.8989 39.41 58.8989 36.4182 58.8989C34.6915 58.8989 32.974 58.8989 31.2473 58.954C31.0592 58.9471 30.8751 59.0092 30.7302 59.1285C30.5868 59.1936 30.4654 59.2984 30.3802 59.4303C30.2951 59.5622 30.2499 59.7156 30.25 59.8723V62.37C30.25 62.5941 30.3395 62.809 30.4988 62.9674C30.6581 63.1259 30.8742 63.2149 31.0995 63.2149C31.1917 63.2152 31.2828 63.1964 31.3673 63.1598C37.8187 63.0863 44.2823 63.1261 50.7583 63.2791C51.0148 63.1923 51.2395 63.0315 51.404 62.8173C51.5684 62.6031 51.665 62.3452 51.6817 62.0762H51.7279ZM49.8811 60.2396C49.8811 60.1386 49.8811 60.1386 49.8811 60.2396V60.2396Z" fill="#4E439E"/>
</svg>
