<svg width="66" height="66" viewBox="0 0 66 66" fill="none" xmlns="http://www.w3.org/2000/svg">
<path d="M12.42 29.5521H3.5C3.10218 29.5521 2.72064 29.394 2.43933 29.1127C2.15803 28.8314 2 28.4499 2 28.052V19.1021C2 18.7042 2.15803 18.3227 2.43933 18.0414C2.72064 17.7601 3.10218 17.6021 3.5 17.6021C3.89782 17.6021 4.27936 17.7601 4.56067 18.0414C4.84197 18.3227 5 18.7042 5 19.1021V26.522H12.42C12.8178 26.522 13.1993 26.6801 13.4807 26.9614C13.762 27.2427 13.92 27.6242 13.92 28.022C13.92 28.4199 13.762 28.8014 13.4807 29.0827C13.1993 29.364 12.8178 29.5221 12.42 29.5221V29.5521Z" fill="#503AA9"/>
<path d="M61.8302 49.0023C61.4324 49.0023 61.0508 48.8443 60.7695 48.563C60.4882 48.2817 60.3302 47.9002 60.3302 47.5023V40.1523H52.9902C52.5924 40.1523 52.2109 39.9943 51.9296 39.713C51.6483 39.4317 51.4902 39.0502 51.4902 38.6523C51.4902 38.2545 51.6483 37.873 51.9296 37.5917C52.2109 37.3104 52.5924 37.1523 52.9902 37.1523H61.8302C62.228 37.1523 62.6096 37.3104 62.8909 37.5917C63.1722 37.873 63.3302 38.2545 63.3302 38.6523V47.5023C63.3302 47.9002 63.1722 48.2817 62.8909 48.563C62.6096 48.8443 62.228 49.0023 61.8302 49.0023Z" fill="#503AA9"/>
<path d="M32.6595 58.7023C27.4155 58.7056 22.2993 57.0832 18.0155 54.0584C13.7317 51.0336 10.491 46.7552 8.73955 41.8123C8.67389 41.6264 8.64546 41.4295 8.65591 41.2327C8.66635 41.0359 8.71547 40.8431 8.80044 40.6653C8.8854 40.4874 9.00457 40.3281 9.15111 40.1963C9.29766 40.0646 9.46871 39.9629 9.65453 39.8973C9.84035 39.8316 10.0373 39.8032 10.2341 39.8136C10.4309 39.8241 10.6237 39.8732 10.8015 39.9582C10.9794 40.0431 11.1387 40.1623 11.2705 40.3088C11.4023 40.4554 11.5039 40.6264 11.5695 40.8123C12.8289 44.3743 14.9703 47.5592 17.7938 50.0696C20.6173 52.5799 24.0309 54.3339 27.7158 55.1678C31.4008 56.0016 35.2369 55.8882 38.8661 54.838C42.4954 53.7878 45.7993 51.8351 48.4695 49.1623L60.8096 37.5723C60.9436 37.4003 61.1134 37.2595 61.3074 37.1599C61.5013 37.0602 61.7146 37.0041 61.9325 36.9953C62.1503 36.9865 62.3675 37.0253 62.5688 37.109C62.7701 37.1928 62.9508 37.3194 63.0982 37.48C63.2456 37.6407 63.3562 37.8316 63.4223 38.0393C63.4884 38.2471 63.5084 38.4668 63.4809 38.6831C63.4534 38.8994 63.3791 39.1071 63.2632 39.2918C63.1472 39.4764 62.9925 39.6336 62.8096 39.7523L50.5095 51.3223C45.7722 56.0498 39.3523 58.7041 32.6595 58.7023ZM3.49953 29.5523C3.29441 29.5528 3.09146 29.5103 2.90374 29.4276C2.71601 29.345 2.54768 29.2239 2.40954 29.0723C2.13645 28.7831 1.98935 28.3974 2.0006 27.9999C2.01185 27.6023 2.18053 27.2255 2.46953 26.9523L14.7696 15.3923C17.4458 12.7408 20.6718 10.7096 24.2195 9.44227C30.5613 7.20889 37.5299 7.58105 43.5977 10.4772C49.6655 13.3733 54.3375 18.5571 56.5895 24.8923C56.7221 25.2675 56.7003 25.6801 56.5287 26.0393C56.3571 26.3984 56.0498 26.6747 55.6746 26.8073C55.2993 26.9399 54.8867 26.918 54.5275 26.7464C54.1684 26.5748 53.8922 26.2675 53.7595 25.8923C52.5024 22.3284 50.3621 19.1414 47.5387 16.6294C44.7153 14.1174 41.3011 12.3623 37.6152 11.5282C33.9293 10.6941 30.092 10.8083 26.4622 11.8601C22.8324 12.9118 19.5286 14.8668 16.8595 17.5423L4.52953 29.1023C4.2569 29.3792 3.88798 29.5404 3.49953 29.5523Z" fill="#503AA9"/>
<path d="M33.0998 49.5824C29.868 49.5824 26.7089 48.624 24.0218 46.8286C21.3347 45.0331 19.2403 42.4811 18.0036 39.4954C16.7668 36.5096 16.4433 33.2242 17.0737 30.0546C17.7042 26.8849 19.2604 23.9734 21.5456 21.6882C23.8308 19.403 26.7423 17.8468 29.912 17.2163C33.0816 16.5858 36.3671 16.9094 39.3528 18.1462C42.3386 19.3829 44.8905 21.4772 46.686 24.1643C48.4814 26.8514 49.4398 30.0106 49.4398 33.2424C49.4345 37.5744 47.7113 41.7274 44.6481 44.7906C41.5849 47.8538 37.4318 49.5771 33.0998 49.5824ZM33.0998 19.9024C30.4614 19.9024 27.8822 20.6847 25.6885 22.1506C23.4947 23.6164 21.7849 25.6998 20.7752 28.1374C19.7655 30.5749 19.5014 33.2571 20.0161 35.8448C20.5308 38.4326 21.8013 40.8095 23.667 42.6752C25.5326 44.5408 27.9096 45.8113 30.4973 46.326C33.085 46.8407 35.7672 46.5766 38.2048 45.5669C40.6424 44.5572 42.7258 42.8474 44.1916 40.6537C45.6574 38.4599 46.4398 35.8808 46.4398 33.2424C46.4345 29.706 45.0273 26.316 42.5267 23.8154C40.0262 21.3148 36.6361 19.9076 33.0998 19.9024Z" fill="#4D3DA2"/>
<path d="M29.7204 40.4523C29.4078 40.4541 29.1024 40.3589 28.8463 40.1798C28.5902 40.0006 28.3959 39.7465 28.2904 39.4523L24.9404 29.4523C24.8641 29.2625 24.8274 29.0592 24.8325 28.8548C24.8377 28.6503 24.8846 28.4491 24.9704 28.2634C25.0561 28.0778 25.179 27.9116 25.3313 27.7752C25.4836 27.6388 25.6622 27.5349 25.8562 27.47C26.0501 27.4052 26.2553 27.3806 26.4591 27.398C26.6628 27.4153 26.8609 27.4741 27.0411 27.5708C27.2213 27.6674 27.3799 27.7999 27.507 27.9601C27.6341 28.1203 27.7271 28.3048 27.7804 28.5023L29.7204 34.2723L31.6503 28.5023C31.7073 28.3105 31.8021 28.132 31.929 27.9774C32.056 27.8228 32.2126 27.6951 32.3897 27.6019C32.5667 27.5088 32.7606 27.4519 32.9599 27.4348C33.1593 27.4177 33.36 27.4406 33.5504 27.5023C33.7375 27.5643 33.9105 27.6628 34.0593 27.7922C34.2081 27.9216 34.3298 28.0792 34.4172 28.2559C34.5047 28.4327 34.5561 28.625 34.5687 28.8218C34.5812 29.0185 34.5546 29.2158 34.4904 29.4023L31.1404 39.4023C31.0438 39.7042 30.8547 39.968 30.5999 40.1565C30.345 40.345 30.0373 40.4484 29.7204 40.4523Z" fill="#4D3DA2"/>
<path d="M36.4303 40.4523C36.1191 40.4535 35.8153 40.3579 35.5609 40.1787C35.3064 39.9995 35.1141 39.7457 35.0103 39.4523L31.6503 29.4523C31.574 29.2625 31.5373 29.0592 31.5425 28.8548C31.5476 28.6503 31.5945 28.4491 31.6803 28.2634C31.7661 28.0778 31.8889 27.9116 32.0412 27.7752C32.1936 27.6388 32.3722 27.5349 32.5662 27.47C32.7601 27.4052 32.9653 27.3806 33.169 27.398C33.3728 27.4153 33.5709 27.4741 33.7511 27.5708C33.9313 27.6674 34.0898 27.7999 34.217 27.9601C34.3441 28.1203 34.4371 28.3048 34.4903 28.5023L36.4303 34.2723L38.3703 28.5023C38.4235 28.3048 38.5166 28.1203 38.6437 27.9601C38.7708 27.7999 38.9294 27.6674 39.1096 27.5708C39.2898 27.4741 39.4879 27.4153 39.6916 27.398C39.8954 27.3806 40.1006 27.4052 40.2945 27.47C40.4885 27.5349 40.6671 27.6388 40.8194 27.7752C40.9718 27.9116 41.0946 28.0778 41.1803 28.2634C41.2661 28.4491 41.313 28.6503 41.3182 28.8548C41.3234 29.0592 41.2866 29.2625 41.2103 29.4523L37.8503 39.4523C37.7466 39.7457 37.5542 39.9995 37.2998 40.1787C37.0454 40.3579 36.7415 40.4535 36.4303 40.4523Z" fill="#4D3DA2"/>
<path d="M41.9902 33.3223H24.1602C23.7623 33.3223 23.3808 33.1642 23.0995 32.8829C22.8182 32.6016 22.6602 32.2201 22.6602 31.8223C22.6602 31.4244 22.8182 31.0429 23.0995 30.7616C23.3808 30.4803 23.7623 30.3223 24.1602 30.3223H41.9902C42.388 30.3223 42.7695 30.4803 43.0508 30.7616C43.3321 31.0429 43.4902 31.4244 43.4902 31.8223C43.4902 32.2201 43.3321 32.6016 43.0508 32.8829C42.7695 33.1642 42.388 33.3223 41.9902 33.3223Z" fill="#4D3DA2"/>
</svg>
