<svg width="110" height="99" viewBox="0 0 110 99" fill="none" xmlns="http://www.w3.org/2000/svg">
<g clip-path="url(#clip0_1015_15699)">
<path d="M2.69481 -0.000218337C1.87503 12.2093 1.2384 24.4798 0.784908 36.8114C0.331412 49.7361 0.0697722 62.652 3.63887e-06 75.5592C3.63887e-06 82.8849 3.63887e-06 90.1931 3.63887e-06 97.484C-0.000513522 97.6701 0.0541047 97.8521 0.156977 98.0072C0.24419 98.2481 0.41101 98.452 0.629852 98.5852C0.848693 98.7184 1.10642 98.773 1.36046 98.7398L29.1982 98.1119L57.1666 97.4578L72.8645 97.0915C73.1193 97.106 73.372 97.0372 73.5843 96.8957C73.7966 96.7541 73.9573 96.5474 74.0419 96.3066C74.2496 96.2593 74.4351 96.143 74.5681 95.9767C74.7011 95.8104 74.7739 95.6039 74.7745 95.3909L75.7949 58.2391L76.789 21.0874C76.9983 14.1279 77.1815 7.14236 77.3646 0.156775C77.3754 0.0962017 77.3754 0.0342056 77.3646 -0.0263672L2.69481 -0.000218337Z" fill="#6F67C7"/>
<path d="M9.47071 17.3718C24.5233 17.7555 39.5584 17.5462 54.5761 16.7439C58.8669 16.5084 63.1315 16.2468 67.3961 15.9067C68.0206 15.9067 68.6195 15.6586 69.0611 15.217C69.5027 14.7754 69.7508 14.1765 69.7508 13.552C69.7508 12.9275 69.5027 12.3285 69.0611 11.8869C68.6195 11.4453 68.0206 11.1973 67.3961 11.1973C52.4133 12.3484 37.3869 12.8979 22.3169 12.8456C18.0261 12.8456 13.7353 12.8456 9.44456 12.6624C8.82005 12.6624 8.22112 12.9105 7.77953 13.3521C7.33794 13.7937 7.08984 14.3926 7.08984 15.0171C7.08984 15.6416 7.33794 16.2405 7.77953 16.6821C8.22112 17.1237 8.82005 17.3718 9.44456 17.3718H9.47071Z" fill="#4E439E"/>
<path d="M10.0471 33.9077C24.838 34.1867 39.6202 34.2914 54.3937 34.2216H66.8212C67.4457 34.2216 68.0447 33.9736 68.4863 33.532C68.9279 33.0904 69.176 32.4914 69.176 31.8669C69.1692 31.2445 68.9189 30.6496 68.4788 30.2094C68.0386 29.7693 67.4436 29.519 66.8212 29.5122C52.0652 29.7215 37.2917 29.7215 22.5007 29.5122C18.3408 29.5122 14.207 29.5122 10.0471 29.3291C9.42466 29.3359 8.8297 29.5862 8.38958 30.0263C7.94945 30.4664 7.69919 31.0614 7.69238 31.6838C7.70573 32.3041 7.95807 32.8953 8.3968 33.334C8.83554 33.7728 9.42674 34.0251 10.0471 34.0385V33.9077Z" fill="#4E439E"/>
<path d="M10.6486 52.0912H68.6263C69.2487 52.0844 69.8437 51.8342 70.2838 51.394C70.724 50.9539 70.9742 50.3589 70.981 49.7365C70.9677 49.1162 70.7153 48.525 70.2766 48.0863C69.8379 47.6475 69.2466 47.3952 68.6263 47.3818H10.6486C10.0241 47.3818 9.42519 47.6299 8.9836 48.0715C8.54201 48.5131 8.29395 49.112 8.29395 49.7365C8.29395 50.361 8.54201 50.96 8.9836 51.4016C9.42519 51.8431 10.0241 52.0912 10.6486 52.0912V52.0912Z" fill="#4E439E"/>
<path d="M9.47089 68.8877L54.1315 68.3644L66.8207 68.2074C67.1299 68.2074 67.4361 68.1465 67.7218 68.0282C68.0075 67.9099 68.267 67.7364 68.4857 67.5177C68.7043 67.2991 68.8778 67.0395 68.9961 66.7538C69.1145 66.4682 69.1754 66.1619 69.1754 65.8527C69.1754 65.5435 69.1145 65.2373 68.9961 64.9516C68.8778 64.6659 68.7043 64.4064 68.4857 64.1877C68.267 63.9691 68.0075 63.7956 67.7218 63.6773C67.4361 63.5589 67.1299 63.498 66.8207 63.498L22.1601 64.0213L9.47089 64.1783C8.84638 64.1783 8.24745 64.4264 7.80586 64.8679C7.36427 65.3095 7.11621 65.9085 7.11621 66.533C7.11621 67.1575 7.36427 67.7564 7.80586 68.198C8.24745 68.6396 8.84638 68.8877 9.47089 68.8877V68.8877Z" fill="#4E439E"/>
<path d="M17.0319 7.16895C16.2296 18.4715 15.6017 29.8089 15.1482 41.1811C14.6772 53.0592 14.4156 64.9548 14.3633 76.8678C14.3633 83.5917 14.3633 90.3418 14.3633 97.0658C14.3726 97.2382 14.4368 97.4032 14.5464 97.5367C14.6379 97.7658 14.8037 97.9574 15.0173 98.0808C15.2308 98.2042 15.4797 98.2521 15.7238 98.2169L43.5614 97.6152L71.5299 97.0396L87.2279 96.6995C87.4746 96.7282 87.7238 96.6745 87.9368 96.5467C88.1498 96.4189 88.3145 96.2243 88.4052 95.9931C88.6034 95.9505 88.7833 95.8468 88.9194 95.6966C89.0555 95.5464 89.1411 95.3573 89.164 95.1559C89.4779 83.7138 89.8093 72.2979 90.1581 60.9082L91.1785 26.6867L91.7279 7.4044V7.24743L17.0319 7.16895Z" fill="#DCE7FB"/>
<path d="M23.8078 24.5417C38.8604 24.9429 53.8955 24.7336 68.9132 23.9138C73.204 23.6783 77.4686 23.4167 81.7332 23.0766C82.3577 23.0766 82.9566 22.8285 83.3982 22.3869C83.8398 21.9453 84.0879 21.3464 84.0879 20.7219C84.0879 20.0974 83.8398 19.4984 83.3982 19.0569C82.9566 18.6153 82.3577 18.3672 81.7332 18.3672C66.7329 19.5184 51.7065 20.0678 36.6539 20.0155C32.3632 20.0155 28.0724 20.0155 23.8078 19.8323C23.1833 19.8323 22.5844 20.0804 22.1428 20.522C21.7012 20.9636 21.4531 21.5625 21.4531 22.187C21.4531 22.8115 21.7012 23.4104 22.1428 23.852C22.5844 24.2936 23.1833 24.5417 23.8078 24.5417V24.5417Z" fill="#4E439E"/>
<path d="M24.4357 41.0764C39.1918 41.3555 53.9653 41.4601 68.7562 41.3904H81.2099C81.8302 41.377 82.4214 41.1246 82.8602 40.6859C83.2989 40.2472 83.5513 39.656 83.5646 39.0357C83.5578 38.4133 83.3076 37.8183 82.8674 37.3782C82.4273 36.9381 81.8323 36.6878 81.2099 36.681C66.419 36.8554 51.6368 36.8554 36.8633 36.681L24.4357 36.4717C23.8112 36.4717 23.2123 36.7198 22.7707 37.1614C22.3291 37.6029 22.0811 38.2019 22.0811 38.8264C22.0811 39.4509 22.3291 40.0498 22.7707 40.4914C23.2123 40.933 23.8112 41.1811 24.4357 41.1811V41.0764Z" fill="#4E439E"/>
<path d="M25.0119 59.2602H82.9634C83.5879 59.2602 84.1869 59.0121 84.6284 58.5705C85.07 58.1289 85.3181 57.53 85.3181 56.9055C85.3181 56.281 85.07 55.6821 84.6284 55.2405C84.1869 54.7989 83.5879 54.5508 82.9634 54.5508H25.0119C24.3874 54.5508 23.7885 54.7989 23.3469 55.2405C22.9053 55.6821 22.6572 56.281 22.6572 56.9055C22.6706 57.5258 22.9229 58.117 23.3616 58.5557C23.8004 58.9945 24.3916 59.2468 25.0119 59.2602V59.2602Z" fill="#4E439E"/>
<path d="M23.8078 75.9258L68.4684 75.4025L81.1838 75.2455C81.8083 75.2455 82.4072 74.9974 82.8488 74.5559C83.2904 74.1143 83.5384 73.5153 83.5384 72.8908C83.5384 72.2663 83.2904 71.6674 82.8488 71.2258C82.4072 70.7842 81.8083 70.5361 81.1838 70.5361L36.497 71.0594L23.8078 71.2164C23.1833 71.2164 22.5844 71.4645 22.1428 71.9061C21.7012 72.3476 21.4531 72.9466 21.4531 73.5711C21.4531 74.1956 21.7012 74.7945 22.1428 75.2361C22.5844 75.6777 23.1833 75.9258 23.8078 75.9258V75.9258Z" fill="#4E439E"/>
<path d="M87.7779 80.4781L78.6731 76.7367C78.4964 76.6716 78.305 76.6567 78.1203 76.6936C77.9356 76.7306 77.7647 76.8179 77.6266 76.946C77.3748 77.1489 77.207 77.4378 77.1556 77.7571C76.3707 82.4926 75.4289 87.202 74.3824 91.9114C74.1207 93.0103 73.5975 94.5277 75.1149 94.9987C76.6324 95.4696 77.1556 94.2138 77.8882 93.4812L82.8069 88.2485L88.3797 82.3357C88.5685 82.0816 88.6496 81.7635 88.6056 81.4501C88.5615 81.1367 88.3958 80.8533 88.1442 80.6612L87.7779 80.4781ZM75.2981 92.6178C75.2981 92.6178 75.1673 92.6178 75.2981 92.6178V92.6178Z" fill="#FBED9D"/>
<path d="M108.473 31.4745C108.618 30.9335 108.547 30.3569 108.273 29.8679C107.999 29.379 107.545 29.0166 107.008 28.8582L100.545 26.2419C100.268 26.126 99.9696 26.0664 99.6687 26.0664C99.3679 26.0664 99.0699 26.126 98.7923 26.2419C98.353 26.0776 97.8682 26.0831 97.4327 26.2573C96.9972 26.4314 96.6424 26.7618 96.4376 27.1838C94.266 32.835 79.353 71.138 77.1815 76.8939C77.1057 77.1619 77.0835 77.4422 77.1162 77.7188C77.1488 77.9953 77.2357 78.2627 77.3718 78.5057C77.5078 78.7487 77.6904 78.9625 77.9092 79.1349C78.1279 79.3072 78.3785 79.4348 78.6466 79.5102L85.8415 82.362C86.3386 82.5928 86.9039 82.6294 87.4267 82.4649C87.9494 82.3003 88.3918 81.9464 88.6671 81.4725C91.5974 75.8735 106.72 37.4921 108.473 31.4745Z" fill="#6F67C7"/>
<path d="M75.2718 92.6182C75.2718 92.6182 75.1941 92.6959 75.2718 92.6182V92.6182Z" fill="#DCE7FB" stroke="#DCE7FB" stroke-miterlimit="10"/>
<path d="M75.0101 95.051C76.2136 95.3911 77.077 94.2661 77.7834 93.5074C78.9869 92.2777 80.1381 91.048 81.3155 89.7922L75.2456 87.4375C74.9316 88.955 74.6177 90.4463 74.2776 91.9637C74.1468 92.9056 73.4927 94.5016 75.0101 95.051ZM75.2979 92.7487C75.2979 92.7487 75.1671 92.7487 75.2979 92.7487V92.7487Z" fill="#4E439E"/>
<path d="M104.679 31.056L106.327 31.6055C106.582 31.7211 106.859 31.7809 107.138 31.7809C107.418 31.7809 107.695 31.7211 107.949 31.6055C108.996 31.0037 109.31 29.3293 109.676 28.2304C109.753 28.0385 109.781 27.8307 109.758 27.6253C109.735 27.42 109.662 27.2234 109.545 27.0531C109.578 26.8428 109.542 26.6277 109.443 26.4393C109.344 26.2509 109.187 26.0992 108.996 26.0065C107.112 25.2478 105.202 24.5414 103.266 23.9135C102.272 23.5733 101.252 23.2594 100.257 22.9716C99.873 22.8199 99.4665 22.7315 99.0539 22.71C98.7256 22.7453 98.4147 22.8755 98.1592 23.0846C97.9037 23.2937 97.7146 23.5726 97.6149 23.8873C97.3794 24.4106 97.1962 24.96 96.9869 25.4833C96.7363 25.996 96.6108 26.5609 96.6207 27.1316C96.8038 28.3351 98.1643 28.5967 99.0015 28.9368C100.859 29.6432 102.769 30.402 104.679 31.056Z" fill="#FBED9D"/>
</g>
<defs>
<clipPath id="clip0_1015_15699">
<rect width="109.781" height="98.74" fill="white"/>
</clipPath>
</defs>
</svg>
