<svg width="24" height="24" viewBox="0 0 24 24" fill="none" xmlns="http://www.w3.org/2000/svg">
<path d="M17.1623 15.0996H16.082L15.6891 14.7313C17.1928 12.9799 17.9595 10.7141 17.8281 8.40946C17.6967 6.10485 16.6774 3.94079 14.9844 2.37168C13.2914 0.802567 11.0562 -0.0495347 8.74831 -0.00571411C6.44038 0.0381065 4.23919 0.974442 2.60694 2.60669C0.974695 4.23894 0.0383506 6.44013 -0.00546998 8.74806C-0.0492905 11.056 0.80282 13.2911 2.37193 14.9842C3.94104 16.6772 6.1051 17.6964 8.4097 17.8278C10.7143 17.9592 12.9802 17.1926 14.7316 15.6889L15.0999 16.0817V17.162L21.95 23.9999L24.0001 21.9988L17.1623 15.0996ZM8.9372 15.0996C7.72319 15.0996 6.53645 14.7396 5.52704 14.0652C4.51763 13.3907 3.7309 12.432 3.26632 11.3104C2.80174 10.1889 2.68018 8.95469 2.91702 7.76401C3.15386 6.57333 3.73846 5.47963 4.59689 4.6212C5.45532 3.76277 6.54903 3.17817 7.7397 2.94133C8.93038 2.70449 10.1646 2.82605 11.2861 3.29062C12.4077 3.7552 13.3664 4.54194 14.0408 5.55135C14.7153 6.56075 15.0753 7.74749 15.0753 8.96149C15.0753 9.76756 14.9165 10.5657 14.6081 11.3104C14.2996 12.0552 13.8475 12.7318 13.2775 13.3018C12.7075 13.8718 12.0309 14.3239 11.2861 14.6324C10.5414 14.9408 9.74326 15.0996 8.9372 15.0996Z" fill="#B6B6B6"/>
</svg>
