<svg width="29" height="29" viewBox="0 0 29 29" fill="none" xmlns="http://www.w3.org/2000/svg">
<path d="M19.4891 17.8206C18.6921 17.6389 17.8609 17.6738 17.082 17.9217C16.303 18.1697 15.6045 18.6216 15.0592 19.2306L12.7291 16.9806C12.7617 16.8789 12.7884 16.7754 12.8092 16.6706C13.0602 15.5905 12.9073 14.4557 12.3792 13.4806L15.6792 11.0806C16.5322 11.8227 17.6301 12.2221 18.7606 12.2018C19.8911 12.1814 20.9739 11.7427 21.7998 10.9705C22.6256 10.1982 23.1359 9.14723 23.2319 8.02065C23.3279 6.89407 23.0029 5.77189 22.3197 4.871C21.6365 3.9701 20.6435 3.35448 19.5328 3.14309C18.4221 2.9317 17.2724 3.13957 16.306 3.72653C15.3396 4.31348 14.6252 5.23784 14.3007 6.32095C13.9762 7.40405 14.0647 8.56898 14.5491 9.5906L11.2091 12.0506C10.5075 11.5036 9.66109 11.1739 8.7743 11.102C7.88752 11.03 6.99906 11.2191 6.2184 11.6459C5.43774 12.0726 4.79899 12.7185 4.38081 13.5037C3.96264 14.289 3.78331 15.1795 3.86494 16.0655C3.94658 16.9514 4.28558 17.7941 4.84022 18.4897C5.39486 19.1854 6.1409 19.7036 6.9864 19.9805C7.8319 20.2574 8.73994 20.281 9.59865 20.0482C10.4574 19.8155 11.2292 19.3366 11.8191 18.6706L14.0592 20.8306L14.2492 20.6306C13.9262 21.4722 13.8599 22.3907 14.0587 23.27C14.2575 24.1493 14.7124 24.9499 15.366 25.5707C16.0197 26.1916 16.8427 26.6047 17.731 26.758C18.6193 26.9113 19.5332 26.7979 20.3571 26.432C21.181 26.0661 21.878 25.4643 22.3599 24.7024C22.8419 23.9406 23.0873 23.0531 23.065 22.1519C23.0428 21.2507 22.7539 20.3763 22.2349 19.6392C21.7159 18.9021 20.9901 18.3354 20.1492 18.0106C19.9459 17.9368 19.7389 17.8734 19.5292 17.8206H19.4891ZM19.2891 5.01061C19.8098 5.13226 20.2826 5.40575 20.6476 5.79641C21.0127 6.18707 21.2535 6.6773 21.3396 7.20498C21.4257 7.73266 21.3532 8.27403 21.1313 8.76046C20.9094 9.24689 20.548 9.65647 20.093 9.93731C19.6381 10.2181 19.11 10.3576 18.5757 10.338C18.0414 10.3183 17.5249 10.1405 17.0918 9.82705C16.6587 9.51358 16.3284 9.07857 16.1428 8.57717C15.9572 8.07577 15.9246 7.53055 16.0491 7.01061C16.2154 6.31681 16.6495 5.717 17.2566 5.34225C17.8637 4.9675 18.5944 4.84828 19.2891 5.01061ZM7.75914 18.2706C7.23757 18.1507 6.7634 17.8785 6.39683 17.4886C6.03026 17.0987 5.78783 16.6087 5.70033 16.0807C5.61283 15.5527 5.68422 15.0107 5.90541 14.5233C6.12659 14.036 6.4876 13.6254 6.94261 13.3437C7.39761 13.0619 7.92609 12.9218 8.46092 12.941C8.99574 12.9602 9.5128 13.1379 9.94642 13.4515C10.38 13.7652 10.7107 14.2006 10.8963 14.7026C11.082 15.2045 11.1143 15.7503 10.9891 16.2706C10.8252 16.9636 10.3931 17.5634 9.78758 17.9383C9.18209 18.3132 8.45261 18.4327 7.75914 18.2706ZM17.8591 24.8906C17.3376 24.7707 16.8634 24.4985 16.4968 24.1086C16.1303 23.7187 15.8878 23.2286 15.8003 22.7007C15.7128 22.1727 15.7842 21.6307 16.0054 21.1433C16.2266 20.656 16.5876 20.2454 17.0426 19.9637C17.4976 19.6819 18.0261 19.5418 18.5609 19.561C19.0957 19.5802 19.6128 19.7579 20.0464 20.0715C20.48 20.3852 20.8107 20.8206 20.9963 21.3226C21.182 21.8245 21.2143 22.3703 21.0892 22.8906C20.9252 23.5836 20.493 24.1834 19.8876 24.5583C19.2821 24.9332 18.5526 25.0527 17.8591 24.8906Z" fill="#949494"/>
</svg>
