<svg width="37" height="37" viewBox="0 0 37 37" fill="none" xmlns="http://www.w3.org/2000/svg">
<path fill-rule="evenodd" clip-rule="evenodd" d="M37 18.5C37 28.7173 28.7173 37 18.5 37C8.28273 37 0 28.7173 0 18.5C0 8.28273 8.28273 0 18.5 0C28.7173 0 37 8.28273 37 18.5ZM11.56 22.84H19.08L21.65 27.28L24.27 22.84H25.41C26.2056 22.84 26.9687 22.5239 27.5313 21.9613C28.0939 21.3987 28.41 20.6357 28.41 19.84V13.06C28.41 12.2643 28.0939 11.5013 27.5313 10.9387C26.9687 10.3761 26.2056 10.06 25.41 10.06H11.56C10.7644 10.06 10.0013 10.3761 9.43868 10.9387C8.87607 11.5013 8.56002 12.2643 8.56002 13.06V19.84C8.56002 20.6357 8.87607 21.3987 9.43868 21.9613C10.0013 22.5239 10.7644 22.84 11.56 22.84Z" fill="#503AA9"/>
</svg>
