<svg width="226" height="186" viewBox="0 0 226 186" fill="none" xmlns="http://www.w3.org/2000/svg">
<path d="M99.7934 0.522226C86.6289 1.97459 41.0397 3.22194 19.4147 77.7797C-2.1164 152.021 63.7318 168.681 76.239 172.867C88.7461 177.053 170.542 192.32 203.3 118.062C232.361 52.1155 160.212 -6.15012 99.7934 0.522226Z" fill="#F0EFFE"/>
<g clip-path="url(#clip0_221:7681)">
<path d="M8.92271 108.182C9.90531 108.182 10.7019 107.385 10.7019 106.403C10.7019 105.42 9.90531 104.624 8.92271 104.624C7.94011 104.624 7.14355 105.42 7.14355 106.403C7.14355 107.385 7.94011 108.182 8.92271 108.182Z" fill="#FFD524"/>
<path d="M108.929 134.273C109.912 134.273 110.708 133.477 110.708 132.494C110.708 131.511 109.912 130.715 108.929 130.715C107.946 130.715 107.15 131.511 107.15 132.494C107.15 133.477 107.946 134.273 108.929 134.273Z" fill="#7167CE"/>
<path d="M115.112 70.0813C116.094 70.0813 116.891 69.2847 116.891 68.3021C116.891 67.3195 116.094 66.5229 115.112 66.5229C114.129 66.5229 113.333 67.3195 113.333 68.3021C113.333 69.2847 114.129 70.0813 115.112 70.0813Z" fill="#7167CE"/>
<path d="M196.508 92.2585C197.49 92.2585 198.287 91.4619 198.287 90.4793C198.287 89.4967 197.49 88.7002 196.508 88.7002C195.525 88.7002 194.729 89.4967 194.729 90.4793C194.729 91.4619 195.525 92.2585 196.508 92.2585Z" fill="#FFD524"/>
<path d="M192.851 129.834C192.602 118.616 191.633 107.426 189.951 96.3323C189.151 91.0483 188.306 85.7286 187.016 80.5424C185.859 75.8276 183.893 71.2908 180.228 67.9815C176.892 65.1184 172.931 63.0771 168.664 62.0214C163.905 60.7669 158.994 60.189 154.075 60.3045C145.722 60.4824 137.173 63.1778 131.533 69.3782C131.158 69.0596 130.673 68.9022 130.183 68.9406C129.693 68.9789 129.238 69.2098 128.917 69.5828L128.775 69.7696C123.295 78.1494 121.658 88.2461 120.769 98.0314C119.746 109.213 119.292 120.458 119.372 131.684C119.345 137.075 119.72 142.46 120.493 147.794C120.893 150.355 121.47 152.884 122.219 155.365C122.851 157.732 123.793 160.005 125.021 162.125C125.66 163.182 126.516 164.091 127.533 164.792C128.55 165.493 129.704 165.97 130.919 166.191C133.616 166.52 136.339 166.591 139.05 166.404C144.63 166.298 150.199 166.046 155.756 165.648C161.437 165.233 167.101 164.661 172.747 163.931C175.496 163.575 178.244 163.193 180.984 162.766C182.39 162.552 183.795 162.321 185.201 162.09C186.475 161.945 187.726 161.647 188.928 161.2C191.597 160.035 191.971 157.482 192.166 154.884C192.38 152.073 192.546 149.256 192.665 146.433C192.931 140.906 192.994 135.373 192.851 129.834Z" fill="#3C3391"/>
<path d="M148.586 60.3138C143.053 60.9543 138.027 64.2457 134.548 68.6046C131.185 73.0819 128.91 78.2808 127.903 83.7897C127.039 87.3128 126.9 90.975 127.494 94.5536C128.475 98.7494 130.635 102.577 133.721 105.584C139.341 111.305 146.949 114.64 154.964 114.898C165.212 115.192 175.816 109.561 179.872 100.185C181.652 96.1459 182.159 91.6803 182.274 87.2858C182.446 84.0424 182.147 80.7911 181.385 77.6338C179.205 69.6276 172.249 63.2583 164.234 60.9631C156.219 58.668 147.394 60.1625 140.064 64.13" fill="#FFED92"/>
<path d="M51.4621 61.9147C37.8071 67.6436 29.2227 81.3431 23.5561 95.007C21.1809 100.691 19.1082 106.625 18.8947 112.799C18.6812 118.972 20.4959 125.413 24.9349 129.7C30.8684 135.394 39.8798 136.043 48.0639 136.372L68.0616 137.182C74.7957 137.449 81.6277 137.716 88.2017 136.203C94.7756 134.691 101.163 131.168 104.668 125.413C107.381 120.965 108.146 115.627 108.288 110.361C108.733 93.7972 102.728 76.3792 89.6072 66.2648C76.4859 56.1503 55.8033 55.5364 44.1409 67.3144" fill="#8C88EA"/>
<path d="M61.4078 61.2476C52.5817 63.8477 45.15 69.8473 40.7474 77.9268C36.3448 86.0062 35.332 95.5036 37.9318 104.33C38.0653 104.81 38.2254 105.282 38.3855 105.753C39.8359 110.344 42.5487 114.435 46.2138 117.558C51.5513 121.872 58.7746 123.171 65.651 123.144C72.8833 123.144 80.4803 121.596 85.9067 116.819C90.2657 112.968 92.7743 107.39 94.0997 101.697C96.7685 90.23 94.6958 77.2422 86.7429 68.5599C78.7901 59.8776 64.5035 56.8797 54.7182 63.3825" fill="#FFED92"/>
<path d="M144.192 55.8301C135.154 55.6788 127.966 63.8363 124.986 72.3851C123.669 76.148 123.064 80.7738 125.715 83.745C126.841 84.9204 128.265 85.7688 129.834 86.2002C132.878 87.0586 136.118 86.91 139.071 85.7766C142.024 84.6432 144.532 82.5857 146.22 79.9109C146.095 83.5315 149.858 86.5205 153.47 86.2714C157.082 86.0223 160.151 83.1401 161.432 79.7508C164.616 83.9496 169.598 87.0453 174.864 86.8674C180.131 86.6895 185.344 82.7309 185.895 77.4913C186.033 75.4868 185.73 73.4765 185.006 71.6023C183.171 66.3802 179.654 61.9152 175.007 58.908C173.253 57.7872 171.383 56.8596 169.429 56.1414C160.502 52.8174 150.635 53.0788 141.897 56.8709" fill="#3C3391"/>
<path d="M58.0184 60.8473C53.1491 62.3156 48.6364 64.7761 44.7646 68.0738C40.8927 71.3716 37.7455 75.4351 35.521 80.0088C33.7419 83.7895 32.8523 89.0113 36.1882 91.5733C37.8873 92.8988 40.2091 93.0678 42.353 92.9522C47.0606 92.6378 51.6258 91.2071 55.671 88.7785C59.7161 86.3499 63.1249 82.9931 65.6154 78.9858C69.5477 83.9157 74.835 87.589 80.8272 89.554C84.0385 90.6037 87.5346 91.1374 90.7904 90.2301C94.0463 89.3227 97.0175 86.7251 97.5334 83.3981C97.9871 80.7293 96.8929 77.9894 95.5141 75.6232C93.3494 71.8942 90.4713 68.6283 87.0441 66.012C83.6169 63.3956 79.7079 61.48 75.5402 60.3747C71.3726 59.2694 67.028 58.996 62.7547 59.5701C58.4814 60.1442 54.3631 61.5545 50.6349 63.7206C49.8788 64.1565 49.1404 64.6102 48.4199 65.1262" fill="#8C88EA"/>
<path d="M148.515 102.222C150.046 103.582 152.023 104.334 154.07 104.334C156.118 104.334 158.095 103.582 159.626 102.222C160.444 101.51 159.252 100.327 158.434 101.03C157.213 102.059 155.667 102.623 154.07 102.623C152.474 102.623 150.928 102.059 149.707 101.03C148.889 100.336 147.697 101.519 148.515 102.222Z" fill="#43427C" stroke="#43427C" stroke-miterlimit="10"/>
<path d="M152.349 93.0944C151.567 94.1084 151.187 95.3756 151.282 96.6527C151.351 97.247 151.582 97.8107 151.951 98.2816C152.32 98.7525 152.812 99.1124 153.372 99.3215C153.587 99.3679 153.81 99.3336 154.001 99.2253C154.191 99.1169 154.335 98.9421 154.404 98.7344C154.451 98.5203 154.416 98.2965 154.308 98.1061C154.2 97.9157 154.025 97.772 153.817 97.7024C153.737 97.7024 153.764 97.7024 153.817 97.7024L153.666 97.6224L153.55 97.5423C153.444 97.489 153.639 97.6313 153.55 97.5423L153.328 97.3288C153.275 97.2666 153.328 97.2755 153.328 97.3288L153.248 97.2132L153.088 96.9374V96.8751C153.088 96.973 153.088 96.8307 153.088 96.8129C153.053 96.7107 153.023 96.6068 152.999 96.5015V96.3681C152.999 96.4837 152.999 96.4303 152.999 96.3681C152.999 96.3058 152.999 96.1635 152.999 96.0657C152.999 95.9678 152.999 95.95 152.999 95.8966C152.999 95.8433 152.999 95.7009 152.999 95.8165C153.043 95.575 153.106 95.3371 153.186 95.1049C153.186 95.1049 153.248 94.9537 153.186 95.0071C153.123 95.0604 153.23 94.9181 153.239 94.9092C153.289 94.7863 153.349 94.6674 153.417 94.5534C153.545 94.3268 153.684 94.107 153.835 93.8951C153.937 93.6992 153.963 93.4722 153.907 93.2585C153.851 93.0447 153.718 92.8594 153.533 92.7386C153.337 92.6364 153.11 92.6107 152.896 92.6666C152.682 92.7226 152.497 92.856 152.376 93.0411L152.349 93.0944Z" fill="#8C88EA" stroke="#8C88EA" stroke-miterlimit="10"/>
<path d="M143.623 91.2086V94.1264C143.618 94.2736 143.643 94.4201 143.696 94.5577C143.748 94.6952 143.828 94.8211 143.929 94.9281C144.03 95.0351 144.151 95.121 144.286 95.1812C144.42 95.2413 144.565 95.2743 144.712 95.2784C144.859 95.2825 145.006 95.2575 145.144 95.205C145.281 95.1524 145.407 95.0733 145.514 94.9721C145.621 94.8709 145.707 94.7497 145.767 94.6152C145.827 94.4808 145.86 94.3358 145.864 94.1886V91.2086C145.868 91.0614 145.843 90.9148 145.791 90.7772C145.738 90.6397 145.659 90.5139 145.558 90.4069C145.457 90.2999 145.335 90.2139 145.201 90.1538C145.067 90.0937 144.922 90.0607 144.774 90.0566C144.627 90.0525 144.481 90.0774 144.343 90.13C144.206 90.1825 144.08 90.2617 143.973 90.3629C143.866 90.4641 143.78 90.5853 143.72 90.7197C143.66 90.8542 143.627 90.9991 143.623 91.1463V91.2086Z" fill="#43427C" stroke="#43427C" stroke-miterlimit="10"/>
<path d="M160.862 91.2086V94.1264C160.858 94.2736 160.883 94.4201 160.936 94.5577C160.988 94.6952 161.067 94.8211 161.169 94.9281C161.27 95.0351 161.391 95.121 161.525 95.1812C161.66 95.2413 161.805 95.2743 161.952 95.2784C162.099 95.2825 162.246 95.2575 162.383 95.205C162.521 95.1524 162.647 95.0733 162.754 94.9721C162.861 94.8709 162.947 94.7497 163.007 94.6152C163.067 94.4808 163.1 94.3358 163.104 94.1886V91.2086C163.108 91.0614 163.083 90.9148 163.031 90.7772C162.978 90.6397 162.899 90.5139 162.798 90.4069C162.697 90.2999 162.575 90.2139 162.441 90.1538C162.306 90.0937 162.161 90.0607 162.014 90.0566C161.867 90.0525 161.721 90.0774 161.583 90.13C161.445 90.1825 161.32 90.2617 161.213 90.3629C161.106 90.4641 161.02 90.5853 160.959 90.7197C160.899 90.8542 160.866 90.9991 160.862 91.1463V91.2086Z" fill="#43427C" stroke="#43427C" stroke-miterlimit="10"/>
<path d="M72.5898 108.03C71.0591 109.391 69.0824 110.143 67.0344 110.143C64.9864 110.143 63.0096 109.391 61.479 108.03C60.6605 107.319 61.8526 106.136 62.671 106.838C63.892 107.868 65.4375 108.432 67.0344 108.432C68.6313 108.432 70.1768 107.868 71.3978 106.838C72.2162 106.136 73.4082 107.319 72.5898 108.021V108.03Z" fill="#43427C" stroke="#43427C" stroke-miterlimit="10"/>
<path d="M69.5028 98.6456C70.2851 99.6596 70.6652 100.927 70.5703 102.204C70.5015 102.798 70.2699 103.362 69.901 103.833C69.5321 104.304 69.0403 104.664 68.4798 104.873C68.2657 104.919 68.042 104.885 67.8516 104.776C67.6611 104.668 67.5174 104.493 67.4479 104.286C67.4015 104.071 67.4358 103.848 67.5441 103.657C67.6525 103.467 67.8273 103.323 68.035 103.254C68.124 103.254 68.0973 103.254 68.035 103.254L68.1951 103.174L68.3108 103.093C68.4086 103.04 68.2218 103.182 68.3108 103.093L68.5332 102.88C68.5955 102.818 68.5777 102.827 68.5332 102.88L68.6132 102.764C68.6751 102.678 68.7287 102.585 68.7734 102.489C68.7734 102.489 68.8445 102.337 68.7734 102.426C68.7022 102.515 68.7734 102.382 68.7734 102.364C68.8083 102.262 68.838 102.158 68.8623 102.053V101.919C68.8623 102.035 68.8623 101.982 68.8623 101.919C68.8623 101.857 68.8623 101.715 68.8623 101.617C68.8623 101.519 68.8623 101.501 68.8623 101.448C68.8623 101.394 68.8623 101.252 68.8623 101.368C68.8179 101.129 68.7554 100.894 68.6755 100.665C68.6755 100.665 68.6132 100.505 68.6755 100.558C68.7378 100.612 68.631 100.469 68.631 100.46L68.4531 100.113C68.3244 99.8826 68.1818 99.6598 68.0261 99.4462C67.9265 99.2513 67.9022 99.0264 67.958 98.8147C68.0138 98.6029 68.1458 98.4192 68.3286 98.2986C68.5245 98.1964 68.7514 98.1708 68.9652 98.2267C69.1789 98.2826 69.3642 98.4161 69.485 98.6011L69.5028 98.6456Z" fill="#8C88EA" stroke="#8C88EA" stroke-miterlimit="10"/>
<path d="M77.4824 97.0352V99.9531C77.4824 100.25 77.3643 100.535 77.1541 100.746C76.9439 100.956 76.6588 101.074 76.3615 101.074C76.0643 101.074 75.7792 100.956 75.569 100.746C75.3588 100.535 75.2407 100.25 75.2407 99.9531V97.0352C75.2366 96.888 75.2615 96.7415 75.3141 96.6039C75.3666 96.4664 75.4458 96.3405 75.5469 96.2336C75.6481 96.1266 75.7694 96.0406 75.9038 95.9805C76.0383 95.9204 76.1832 95.8873 76.3304 95.8832C76.4776 95.8792 76.6242 95.9041 76.7617 95.9567C76.8993 96.0092 77.0251 96.0883 77.1321 96.1895C77.2391 96.2907 77.3251 96.412 77.3852 96.5464C77.4453 96.6808 77.4783 96.8258 77.4824 96.973V97.0352Z" fill="#43427C" stroke="#43427C" stroke-miterlimit="10"/>
<path d="M60.2423 97.0354V99.9533C60.2173 100.234 60.0879 100.496 59.8796 100.687C59.6714 100.877 59.3993 100.983 59.117 100.983C58.8347 100.983 58.5626 100.877 58.3544 100.687C58.1461 100.496 58.0167 100.234 57.9917 99.9533V97.0354C58.0077 96.7527 58.1294 96.4864 58.3325 96.2891C58.5356 96.0918 58.8053 95.978 59.0884 95.9702C59.3714 95.9623 59.6471 96.061 59.8608 96.2468C60.0745 96.4326 60.2107 96.6918 60.2423 96.9732V97.0354Z" fill="#43427C" stroke="#43427C" stroke-miterlimit="10"/>
<path d="M60.6516 118.029C60.1607 121.632 60.3508 125.296 61.212 128.829C61.2119 128.949 61.2363 129.069 61.2837 129.18C61.3312 129.291 61.4007 129.391 61.4881 129.474C61.5755 129.557 61.6789 129.622 61.792 129.664C61.9051 129.706 62.0256 129.724 62.1461 129.718H62.1906C66.4721 130.163 70.7994 129.737 74.9115 128.464C74.3185 124.402 73.8411 120.315 73.4793 116.206C69.4129 116.939 65.2689 117.145 61.1498 116.819" fill="#FFED92"/>
<path d="M151.869 112.158C151.737 115.308 151.796 118.463 152.046 121.605C155.277 121.764 158.516 121.606 161.716 121.134C162.543 121.018 163.495 120.769 163.807 119.986C163.915 119.613 163.93 119.219 163.851 118.839L163.122 112.487C163.13 112.159 163.065 111.832 162.931 111.532C162.797 111.232 162.598 110.966 162.348 110.752C162.016 110.592 161.648 110.522 161.28 110.548C158.029 110.501 154.781 110.799 151.593 111.437C151.882 112.602 151.928 113.813 151.726 114.996" fill="#FFED92"/>
<path d="M125.386 185.29C125.465 184.133 125.423 182.97 125.261 181.821C124.23 173.272 120.511 165.275 116.241 157.802C113.437 152.603 109.955 147.799 105.886 143.516C100.433 138.063 93.6014 134.211 86.7339 130.724C84.0152 129.212 81.1319 128.018 78.1406 127.165C74.6525 126.391 71.0596 126.205 67.5101 126.614C53.1662 127.892 39.7642 134.3 29.7627 144.661C19.7611 155.022 13.8306 168.642 13.0591 183.022H12.6055C12.6278 183.771 12.7081 184.518 12.8456 185.255L125.386 185.29Z" fill="#FFD524"/>
<path d="M217.012 185.015C217.34 182.865 217.396 180.684 217.181 178.521C216.442 167.519 213.218 156.828 207.752 147.252C202.251 137.672 194.073 129.905 184.222 124.906C178.747 122.217 172.831 120.539 166.76 119.951C162.197 119.488 157.59 119.719 153.096 120.636C139.797 123.429 128.651 132.716 120.386 143.507C111.313 155.383 104.997 170.381 106.776 185.015H217.012Z" fill="#8C88EA"/>
<path d="M96.9017 136.177C93.609 134.104 90.2123 132.2 86.725 130.475C85.7375 129.968 84.7501 129.478 83.7449 129.007C83.1666 133.01 81.7078 136.835 78.6743 139.406C73.9773 143.391 66.6027 143.009 61.4432 139.637C57.8041 137.108 54.9619 133.593 53.2502 129.505C47.8702 131.384 42.7798 134.007 38.1274 137.298C35.7792 153.099 34.7467 169.069 35.0405 185.041H102.47C102.631 168.522 101.705 151.807 96.9017 136.177Z" fill="#3C3391"/>
<path d="M183.28 124.194C179.806 122.576 176.159 121.359 172.409 120.564C169.901 126.88 163.691 131.746 156.868 132.227C153.811 132.365 150.766 131.751 148.002 130.437C145.238 129.123 142.839 127.15 141.016 124.692C137.429 126.641 134.062 128.97 130.973 131.64C128.856 149.242 128.659 167.022 130.386 184.667H192.176C190.841 164.234 189.044 143.693 183.28 124.194Z" fill="#FFD524"/>
<path d="M9.03827 129.033C7.99746 129.033 6.94774 129.033 5.90694 129.033C5.67565 128.384 5.45327 127.726 5.28425 127.049C5.25276 126.947 5.20132 126.851 5.13285 126.768C5.06438 126.685 4.98021 126.617 4.8852 126.566C4.79019 126.516 4.68618 126.485 4.57911 126.474C4.47205 126.464 4.36404 126.475 4.26124 126.507C4.0725 126.563 3.91098 126.686 3.80755 126.854C3.4064 127.565 3.10696 128.328 2.91797 129.122C2.25968 129.122 1.6014 129.122 0.943109 129.193H0.854146C0.6245 129.187 0.401361 129.27 0.231445 129.425C0.0856569 129.578 0.00439453 129.782 0.00439453 129.994C0.00439453 130.206 0.0856569 130.41 0.231445 130.563C0.707925 131.082 1.25256 131.534 1.85047 131.907L2.15295 132.129C1.89341 133.207 1.55748 134.265 1.14772 135.296C0.863057 135.963 1.77931 136.55 2.33085 136.185C3.22915 135.598 4.07717 134.938 4.86615 134.211C5.63118 134.833 6.39623 135.465 7.15237 136.105C7.2812 136.227 7.44542 136.305 7.62132 136.327C7.79721 136.35 7.97564 136.316 8.13088 136.23C8.27937 136.14 8.39558 136.006 8.46273 135.846C8.52988 135.686 8.54452 135.509 8.50451 135.34C8.12199 134.317 7.67719 133.312 7.2413 132.307C8.07776 131.728 8.86613 131.082 9.5987 130.377C9.75189 130.223 9.83793 130.015 9.83793 129.798C9.83793 129.581 9.75189 129.373 9.5987 129.22C9.52233 129.153 9.43346 129.102 9.33724 129.07C9.24103 129.038 9.1394 129.026 9.03827 129.033Z" fill="#7167CE"/>
<path d="M104.677 52.3519C103.636 52.3519 102.586 52.3519 101.545 52.3519C101.303 51.699 101.095 51.0339 100.923 50.3592C100.876 50.2096 100.787 50.0765 100.667 49.9759C100.547 49.8753 100.4 49.8113 100.244 49.7916C100.089 49.7719 99.9309 49.7974 99.7894 49.8649C99.6479 49.9324 99.5287 50.0391 99.4461 50.1724C99.0435 50.8794 98.7439 51.6402 98.5565 52.4319L96.5728 52.5031H96.4838C96.2584 52.4968 96.039 52.5762 95.87 52.7255C95.7236 52.8807 95.6421 53.0859 95.6421 53.2993C95.6421 53.5126 95.7236 53.7179 95.87 53.8731C96.3488 54.3895 96.8931 54.841 97.489 55.2163L97.7915 55.4387C97.5332 56.5143 97.1973 57.5698 96.7863 58.5967C96.5016 59.2728 97.4179 59.851 97.9694 59.4863C98.8711 58.9007 99.7194 58.2369 100.505 57.5025C101.27 58.1341 102.044 58.7568 102.8 59.3973C102.929 59.5191 103.093 59.5969 103.269 59.6193C103.445 59.6417 103.623 59.6075 103.778 59.5219C103.925 59.431 104.04 59.296 104.105 59.1363C104.171 58.9765 104.184 58.8001 104.143 58.6323C103.761 57.6093 103.325 56.604 102.88 55.5988C103.721 55.0222 104.512 54.3765 105.246 53.6684C105.399 53.515 105.485 53.3071 105.485 53.0902C105.485 52.8734 105.399 52.6654 105.246 52.512C105.084 52.3879 104.88 52.3306 104.677 52.3519Z" fill="#FFD524"/>
<path d="M211.488 120.502C210.448 120.502 209.398 120.502 208.357 120.502C208.113 119.853 207.906 119.191 207.734 118.518C207.687 118.369 207.599 118.236 207.478 118.135C207.358 118.034 207.212 117.97 207.056 117.951C206.9 117.931 206.742 117.957 206.601 118.024C206.459 118.092 206.34 118.198 206.258 118.332C205.855 119.039 205.555 119.799 205.368 120.591C204.71 120.591 204.043 120.591 203.384 120.662H203.295C203.069 120.658 202.849 120.741 202.682 120.894C202.535 121.049 202.454 121.254 202.454 121.467C202.454 121.681 202.535 121.886 202.682 122.041C203.16 122.558 203.705 123.009 204.301 123.384L204.603 123.607C204.343 124.682 204.008 125.737 203.598 126.765C203.313 127.432 204.229 128.019 204.781 127.654C205.678 127.066 206.523 126.403 207.307 125.671C208.072 126.302 208.846 126.925 209.602 127.565C209.729 127.69 209.893 127.771 210.069 127.793C210.245 127.816 210.424 127.78 210.578 127.691C210.732 127.602 210.852 127.465 210.92 127.301C210.988 127.136 211 126.954 210.955 126.783C210.563 125.751 210.127 124.745 209.691 123.74C210.53 123.164 211.319 122.518 212.049 121.81C212.202 121.656 212.288 121.448 212.288 121.232C212.288 121.015 212.202 120.807 212.049 120.653C211.889 120.531 211.688 120.477 211.488 120.502Z" fill="#FFD524"/>
<path d="M224.565 100.024C223.524 100.024 222.475 100.024 221.434 100.024C221.203 99.375 220.98 98.7168 220.811 98.0407C220.78 97.9378 220.728 97.8423 220.66 97.7593C220.591 97.6764 220.507 97.6077 220.412 97.5573C220.317 97.5069 220.213 97.4758 220.106 97.4656C219.999 97.4554 219.891 97.4664 219.788 97.4981C219.599 97.554 219.438 97.6775 219.334 97.845C218.932 98.5551 218.632 99.3189 218.445 100.113C217.787 100.113 217.128 100.113 216.47 100.185H216.381C216.151 100.178 215.928 100.261 215.758 100.416C215.613 100.57 215.531 100.773 215.531 100.985C215.531 101.197 215.613 101.401 215.758 101.555C216.235 102.073 216.779 102.525 217.377 102.898L217.689 103.12C217.422 104.197 217.083 105.255 216.675 106.287C216.399 106.954 217.306 107.541 217.867 107.177C218.764 106.592 219.609 105.931 220.393 105.202C221.158 105.824 221.923 106.456 222.679 107.097C222.808 107.218 222.972 107.296 223.148 107.319C223.324 107.341 223.503 107.307 223.658 107.221C223.807 107.133 223.924 106.998 223.992 106.838C224.059 106.678 224.073 106.5 224.031 106.332C223.649 105.309 223.204 104.303 222.768 103.298C223.606 102.717 224.397 102.072 225.134 101.368C225.288 101.214 225.374 101.006 225.374 100.789C225.374 100.573 225.288 100.365 225.134 100.211C224.976 100.077 224.772 100.01 224.565 100.024Z" fill="#7167CE"/>
</g>
<defs>
<clipPath id="clip0_221:7681">
<rect width="225.357" height="135.474" fill="white" transform="translate(0 49.8164)"/>
</clipPath>
</defs>
</svg>
